<?xml version="1.0" encoding="utf-8" standalone="no"?>
<!DOCTYPE svg PUBLIC "-//W3C//DTD SVG 1.1//EN"
  "http://www.w3.org/Graphics/SVG/1.1/DTD/svg11.dtd">
<!-- Created with matplotlib (http://matplotlib.org/) -->
<svg height="405pt" version="1.1" viewBox="0 0 497 405" width="497pt" xmlns="http://www.w3.org/2000/svg" xmlns:xlink="http://www.w3.org/1999/xlink">
 <defs>
  <style type="text/css">
*{stroke-linecap:butt;stroke-linejoin:round;}
  </style>
 </defs>
 <g id="figure_1">
  <g id="patch_1">
   <path d="
M0 405.361
L497.887 405.361
L497.887 0
L0 0
z
" style="fill:#ffffff;"/>
  </g>
  <g id="axes_1">
   <g id="patch_2">
    <path d="
M44.2875 360.066
L490.688 360.066
L490.688 14.4662
L44.2875 14.4662
z
" style="fill:#ffffff;"/>
   </g>
   <g id="patch_3">
    <path clip-path="url(#pf55b50a5ae)" d="
M44.2875 360.066
L133.567 360.066
L133.567 282.018
L44.2875 282.018
z
" style="fill:#0000ff;stroke:#000000;stroke-linejoin:miter;"/>
   </g>
   <g id="patch_4">
    <path clip-path="url(#pf55b50a5ae)" d="
M155.887 360.066
L245.167 360.066
L245.167 114.402
L155.887 114.402
z
" style="fill:#0000ff;stroke:#000000;stroke-linejoin:miter;"/>
   </g>
   <g id="patch_5">
    <path clip-path="url(#pf55b50a5ae)" d="
M267.488 360.066
L356.767 360.066
L356.767 75.2342
L267.488 75.2342
z
" style="fill:#0000ff;stroke:#000000;stroke-linejoin:miter;"/>
   </g>
   <g id="patch_6">
    <path clip-path="url(#pf55b50a5ae)" d="
M379.087 360.066
L468.367 360.066
L468.367 52.7702
L379.087 52.7702
z
" style="fill:#0000ff;stroke:#000000;stroke-linejoin:miter;"/>
   </g>
   <g id="patch_7">
    <path d="
M44.2875 14.4662
L490.688 14.4662" style="fill:none;stroke:#000000;stroke-linecap:square;stroke-linejoin:miter;"/>
   </g>
   <g id="patch_8">
    <path d="
M490.688 360.066
L490.688 14.4662" style="fill:none;stroke:#000000;stroke-linecap:square;stroke-linejoin:miter;"/>
   </g>
   <g id="patch_9">
    <path d="
M44.2875 360.066
L490.688 360.066" style="fill:none;stroke:#000000;stroke-linecap:square;stroke-linejoin:miter;"/>
   </g>
   <g id="patch_10">
    <path d="
M44.2875 360.066
L44.2875 14.4662" style="fill:none;stroke:#000000;stroke-linecap:square;stroke-linejoin:miter;"/>
   </g>
   <g id="matplotlib.axis_1">
    <g id="xtick_1">
     <g id="line2d_1">
      <defs>
       <path d="
M0 0
L0 -4" id="m93b0483c22" style="stroke:#000000;stroke-width:0.5;"/>
      </defs>
      <g>
       <use style="stroke:#000000;stroke-width:0.5;" x="88.9275" xlink:href="#m93b0483c22" y="360.06625"/>
      </g>
     </g>
     <g id="line2d_2">
      <defs>
       <path d="
M0 0
L0 4" id="m741efc42ff" style="stroke:#000000;stroke-width:0.5;"/>
      </defs>
      <g>
       <use style="stroke:#000000;stroke-width:0.5;" x="88.9275" xlink:href="#m741efc42ff" y="14.46625"/>
      </g>
     </g>
     <g id="text_1">
      <!-- ngs55 -->
      <defs>
       <path d="
M43.4062 66.2188
L39.5938 57.9062
L19.6719 57.9062
L15.3281 49.0312
Q28.2656 47.125 35.8438 39.4062
Q42.3281 32.7656 42.3281 23.7812
Q42.3281 18.5625 40.2031 14.1094
Q38.0938 9.67188 34.8594 6.54688
Q31.6406 3.42188 27.6875 1.51562
Q22.0781 -1.17188 16.1562 -1.17188
Q10.2031 -1.17188 7.48438 0.84375
Q4.78125 2.875 4.78125 5.32812
Q4.78125 6.6875 5.90625 7.73438
Q7.03125 8.79688 8.73438 8.79688
Q10.0156 8.79688 10.9688 8.40625
Q11.9219 8.01562 14.2031 6.39062
Q17.875 3.85938 21.625 3.85938
Q27.3438 3.85938 31.6562 8.17188
Q35.9844 12.5 35.9844 18.7031
Q35.9844 24.7031 32.125 29.9062
Q28.2656 35.1094 21.4844 37.9375
Q16.1562 40.1406 6.98438 40.4844
L19.6719 66.2188
z
" id="TimesNewRomanPSMT-35"/>
       <path d="
M15.0938 16.3125
Q10.9844 18.3125 8.78125 21.8906
Q6.59375 25.4844 6.59375 29.8281
Q6.59375 36.4688 11.5938 41.25
Q16.6094 46.0469 24.4219 46.0469
Q30.8125 46.0469 35.5 42.9219
L44.9688 42.9219
Q47.0781 42.9219 47.4062 42.7969
Q47.75 42.6719 47.9062 42.3906
Q48.1875 41.9375 48.1875 40.8281
Q48.1875 39.5469 47.9531 39.0625
Q47.7969 38.8125 47.4375 38.6719
Q47.0781 38.5312 44.9688 38.5312
L39.1562 38.5312
Q41.8906 35.0156 41.8906 29.5469
Q41.8906 23.2969 37.1094 18.8438
Q32.3281 14.4062 24.2656 14.4062
Q20.9531 14.4062 17.4844 15.375
Q15.3281 13.5312 14.5625 12.1406
Q13.8125 10.75 13.8125 9.76562
Q13.8125 8.9375 14.625 8.15625
Q15.4375 7.375 17.7812 7.03125
Q19.1406 6.84375 24.6094 6.6875
Q34.6719 6.45312 37.6406 6
Q42.1875 5.375 44.8906 2.64062
Q47.6094 -0.09375 47.6094 -4.10938
Q47.6094 -9.625 42.4375 -14.4531
Q34.8125 -21.5781 22.5625 -21.5781
Q13.1406 -21.5781 6.64062 -17.3281
Q2.98438 -14.8906 2.98438 -12.25
Q2.98438 -11.0781 3.51562 -9.90625
Q4.34375 -8.10938 6.9375 -4.89062
Q7.28125 -4.4375 11.9219 0.390625
Q9.375 1.90625 8.32812 3.09375
Q7.28125 4.29688 7.28125 5.8125
Q7.28125 7.51562 8.67188 9.8125
Q10.0625 12.1094 15.0938 16.3125
M23.5781 43.7031
Q19.9688 43.7031 17.5312 40.8125
Q15.0938 37.9375 15.0938 31.9844
Q15.0938 24.2656 18.4062 20.0156
Q20.9531 16.7969 24.8594 16.7969
Q28.5625 16.7969 30.9531 19.5781
Q33.3438 22.3594 33.3438 28.3281
Q33.3438 36.0781 29.9844 40.4844
Q27.4844 43.7031 23.5781 43.7031
M14.5938 0
Q12.3125 -2.48438 11.1406 -4.625
Q9.96875 -6.78125 9.96875 -8.59375
Q9.96875 -10.9375 12.7969 -12.7031
Q17.6719 -15.7188 26.9062 -15.7188
Q35.6875 -15.7188 39.8594 -12.6094
Q44.0469 -9.51562 44.0469 -6
Q44.0469 -3.46875 41.5469 -2.39062
Q39.0156 -1.3125 31.5 -1.125
Q20.5156 -0.828125 14.5938 0" id="TimesNewRomanPSMT-67"/>
       <path d="
M32.0312 46.0469
L32.0312 30.8125
L30.4219 30.8125
Q28.5625 37.9844 25.6562 40.5781
Q22.75 43.1719 18.2656 43.1719
Q14.8438 43.1719 12.7344 41.3594
Q10.6406 39.5469 10.6406 37.3594
Q10.6406 34.625 12.2031 32.6719
Q13.7188 30.6719 18.3594 28.4219
L25.4844 24.9531
Q35.4062 20.125 35.4062 12.2031
Q35.4062 6.10938 30.7812 2.35938
Q26.1719 -1.375 20.4531 -1.375
Q16.3594 -1.375 11.0781 0.09375
Q9.46875 0.59375 8.45312 0.59375
Q7.32812 0.59375 6.6875 -0.6875
L5.07812 -0.6875
L5.07812 15.2812
L6.6875 15.2812
Q8.0625 8.45312 11.9062 4.98438
Q15.7656 1.51562 20.5625 1.51562
Q23.9219 1.51562 26.0469 3.48438
Q28.1719 5.46875 28.1719 8.25
Q28.1719 11.625 25.7969 13.9219
Q23.4375 16.2188 16.3594 19.7344
Q9.28125 23.25 7.07812 26.0781
Q4.89062 28.8594 4.89062 33.1094
Q4.89062 38.625 8.67188 42.3281
Q12.4531 46.0469 18.4531 46.0469
Q21.0938 46.0469 24.8594 44.9219
Q27.3438 44.1875 28.1719 44.1875
Q28.9531 44.1875 29.3906 44.5312
Q29.8281 44.875 30.4219 46.0469
z
" id="TimesNewRomanPSMT-73"/>
       <path d="
M16.1562 36.5781
Q24.0312 46.0469 31.1562 46.0469
Q34.8125 46.0469 37.4531 44.2188
Q40.0938 42.3906 41.6562 38.1875
Q42.7188 35.25 42.7188 29.2031
L42.7188 10.1094
Q42.7188 5.85938 43.4062 4.34375
Q43.9531 3.125 45.1406 2.4375
Q46.3438 1.76562 49.5625 1.76562
L49.5625 0
L27.4375 0
L27.4375 1.76562
L28.375 1.76562
Q31.5 1.76562 32.7344 2.70312
Q33.9844 3.65625 34.4688 5.51562
Q34.6719 6.25 34.6719 10.1094
L34.6719 28.4219
Q34.6719 34.5156 33.0781 37.2812
Q31.5 40.0469 27.7344 40.0469
Q21.9219 40.0469 16.1562 33.6875
L16.1562 10.1094
Q16.1562 5.5625 16.7031 4.5
Q17.3906 3.07812 18.5781 2.42188
Q19.7812 1.76562 23.4375 1.76562
L23.4375 0
L1.3125 0
L1.3125 1.76562
L2.29688 1.76562
Q5.71875 1.76562 6.90625 3.48438
Q8.10938 5.21875 8.10938 10.1094
L8.10938 26.7031
Q8.10938 34.7656 7.73438 36.5156
Q7.375 38.2812 6.60938 38.9062
Q5.85938 39.5469 4.59375 39.5469
Q3.21875 39.5469 1.3125 38.8125
L0.59375 40.5781
L14.0625 46.0469
L16.1562 46.0469
z
" id="TimesNewRomanPSMT-6e"/>
      </defs>
      <g transform="translate(70.38875 375.14625)scale(0.16 -0.16)">
       <use xlink:href="#TimesNewRomanPSMT-6e"/>
       <use x="50.0" xlink:href="#TimesNewRomanPSMT-67"/>
       <use x="100.0" xlink:href="#TimesNewRomanPSMT-73"/>
       <use x="138.916015625" xlink:href="#TimesNewRomanPSMT-35"/>
       <use x="188.916015625" xlink:href="#TimesNewRomanPSMT-35"/>
      </g>
     </g>
    </g>
    <g id="xtick_2">
     <g id="line2d_3">
      <g>
       <use style="stroke:#000000;stroke-width:0.5;" x="200.5275" xlink:href="#m93b0483c22" y="360.06625"/>
      </g>
     </g>
     <g id="line2d_4">
      <g>
       <use style="stroke:#000000;stroke-width:0.5;" x="200.5275" xlink:href="#m741efc42ff" y="14.46625"/>
      </g>
     </g>
     <g id="text_2">
      <!-- gorod55 -->
      <defs>
       <path d="
M25 46.0469
Q35.1562 46.0469 41.3125 38.3281
Q46.5312 31.7344 46.5312 23.1875
Q46.5312 17.1875 43.6406 11.0312
Q40.7656 4.89062 35.7188 1.75
Q30.6719 -1.375 24.4688 -1.375
Q14.3594 -1.375 8.40625 6.6875
Q3.375 13.4844 3.375 21.9219
Q3.375 28.0781 6.42188 34.1562
Q9.46875 40.2344 14.4531 43.1406
Q19.4375 46.0469 25 46.0469
M23.4844 42.875
Q20.9062 42.875 18.2812 41.3281
Q15.6719 39.7969 14.0625 35.9375
Q12.4531 32.0781 12.4531 26.0312
Q12.4531 16.2656 16.3281 9.17188
Q20.2188 2.09375 26.5625 2.09375
Q31.2969 2.09375 34.375 6
Q37.4531 9.90625 37.4531 19.4375
Q37.4531 31.3438 32.3281 38.1875
Q28.8594 42.875 23.4844 42.875" id="TimesNewRomanPSMT-6f"/>
       <path d="
M34.7188 5.03125
Q31.4531 1.60938 28.3281 0.109375
Q25.2031 -1.375 21.5781 -1.375
Q14.2656 -1.375 8.79688 4.75
Q3.32812 10.8906 3.32812 20.5156
Q3.32812 30.125 9.375 38.1094
Q15.4375 46.0938 24.9531 46.0938
Q30.8594 46.0938 34.7188 42.3281
L34.7188 50.5938
Q34.7188 58.25 34.3438 60
Q33.9844 61.7656 33.2031 62.3906
Q32.4219 63.0312 31.25 63.0312
Q29.9844 63.0312 27.875 62.25
L27.25 63.9688
L40.5781 69.4375
L42.7812 69.4375
L42.7812 17.7188
Q42.7812 9.85938 43.1406 8.125
Q43.5 6.39062 44.3125 5.70312
Q45.125 5.03125 46.1875 5.03125
Q47.5156 5.03125 49.7031 5.85938
L50.25 4.15625
L36.9688 -1.375
L34.7188 -1.375
z

M34.7188 8.45312
L34.7188 31.5
Q34.4219 34.8125 32.9531 37.5469
Q31.5 40.2812 29.0781 41.6719
Q26.6562 43.0625 24.3594 43.0625
Q20.0625 43.0625 16.7031 39.2031
Q12.25 34.125 12.25 24.3594
Q12.25 14.5 16.5469 9.25
Q20.8438 4 26.125 4
Q30.5625 4 34.7188 8.45312" id="TimesNewRomanPSMT-64"/>
       <path d="
M16.2188 46.0469
L16.2188 35.9844
Q21.8281 46.0469 27.7344 46.0469
Q30.4219 46.0469 32.1719 44.4062
Q33.9375 42.7812 33.9375 40.625
Q33.9375 38.7188 32.6562 37.3906
Q31.3906 36.0781 29.6406 36.0781
Q27.9375 36.0781 25.8125 37.7656
Q23.6875 39.4531 22.6562 39.4531
Q21.7812 39.4531 20.75 38.4844
Q18.5625 36.4688 16.2188 31.8906
L16.2188 10.4531
Q16.2188 6.73438 17.1406 4.82812
Q17.7812 3.51562 19.3906 2.64062
Q21 1.76562 24.0312 1.76562
L24.0312 0
L1.125 0
L1.125 1.76562
Q4.54688 1.76562 6.20312 2.82812
Q7.42188 3.60938 7.90625 5.32812
Q8.15625 6.15625 8.15625 10.0625
L8.15625 27.3906
Q8.15625 35.2031 7.82812 36.6875
Q7.51562 38.1875 6.65625 38.8594
Q5.8125 39.5469 4.54688 39.5469
Q3.03125 39.5469 1.125 38.8125
L0.640625 40.5781
L14.1562 46.0469
z
" id="TimesNewRomanPSMT-72"/>
      </defs>
      <g transform="translate(174.63 375.17625)scale(0.16 -0.16)">
       <use xlink:href="#TimesNewRomanPSMT-67"/>
       <use x="50.0" xlink:href="#TimesNewRomanPSMT-6f"/>
       <use x="100.0" xlink:href="#TimesNewRomanPSMT-72"/>
       <use x="133.30078125" xlink:href="#TimesNewRomanPSMT-6f"/>
       <use x="183.30078125" xlink:href="#TimesNewRomanPSMT-64"/>
       <use x="233.30078125" xlink:href="#TimesNewRomanPSMT-35"/>
       <use x="283.30078125" xlink:href="#TimesNewRomanPSMT-35"/>
      </g>
     </g>
    </g>
    <g id="xtick_3">
     <g id="line2d_5">
      <g>
       <use style="stroke:#000000;stroke-width:0.5;" x="312.1275" xlink:href="#m93b0483c22" y="360.06625"/>
      </g>
     </g>
     <g id="line2d_6">
      <g>
       <use style="stroke:#000000;stroke-width:0.5;" x="312.1275" xlink:href="#m741efc42ff" y="14.46625"/>
      </g>
     </g>
     <g id="text_3">
      <!-- omskinform -->
      <defs>
       <path d="
M20.6094 41.2188
L20.6094 11.8125
Q20.6094 5.5625 21.9688 3.90625
Q23.7812 1.76562 26.8125 1.76562
L30.8594 1.76562
L30.8594 0
L4.15625 0
L4.15625 1.76562
L6.15625 1.76562
Q8.10938 1.76562 9.71875 2.73438
Q11.3281 3.71875 11.9375 5.375
Q12.5469 7.03125 12.5469 11.8125
L12.5469 41.2188
L3.85938 41.2188
L3.85938 44.7344
L12.5469 44.7344
L12.5469 47.6562
Q12.5469 54.3438 14.6875 58.9844
Q16.8438 63.625 21.2656 66.4844
Q25.6875 69.3438 31.2031 69.3438
Q36.3281 69.3438 40.625 66.0156
Q43.4531 63.8125 43.4531 61.0781
Q43.4531 59.625 42.1875 58.3281
Q40.9219 57.0312 39.4531 57.0312
Q38.3281 57.0312 37.0781 57.8281
Q35.8438 58.6406 34.0312 61.2969
Q32.2344 63.9688 30.7188 64.8906
Q29.2031 65.8281 27.3438 65.8281
Q25.0938 65.8281 23.5312 64.625
Q21.9688 63.4219 21.2812 60.9062
Q20.6094 58.4062 20.6094 47.9531
L20.6094 44.7344
L32.125 44.7344
L32.125 41.2188
z
" id="TimesNewRomanPSMT-66"/>
       <path d="
M16.4062 36.5312
Q21.2969 41.4062 22.1719 42.1406
Q24.3594 44 26.8906 45.0156
Q29.4375 46.0469 31.9375 46.0469
Q36.1406 46.0469 39.1562 43.5938
Q42.1875 41.1562 43.2188 36.5312
Q48.25 42.3906 51.7031 44.2188
Q55.1719 46.0469 58.8438 46.0469
Q62.4062 46.0469 65.1562 44.2188
Q67.9219 42.3906 69.5312 38.2344
Q70.6094 35.4062 70.6094 29.3438
L70.6094 10.1094
Q70.6094 5.90625 71.2344 4.34375
Q71.7344 3.26562 73.0469 2.51562
Q74.3594 1.76562 77.3438 1.76562
L77.3438 0
L55.2812 0
L55.2812 1.76562
L56.2031 1.76562
Q59.0781 1.76562 60.6875 2.875
Q61.8125 3.65625 62.3125 5.375
Q62.5 6.20312 62.5 10.1094
L62.5 29.3438
Q62.5 34.8125 61.1875 37.0625
Q59.2812 40.1875 55.0781 40.1875
Q52.4844 40.1875 49.875 38.8906
Q47.2656 37.5938 43.5625 34.0781
L43.4531 33.5469
L43.5625 31.4531
L43.5625 10.1094
Q43.5625 5.51562 44.0625 4.39062
Q44.5781 3.26562 45.9844 2.51562
Q47.4062 1.76562 50.8281 1.76562
L50.8281 0
L28.2188 0
L28.2188 1.76562
Q31.9375 1.76562 33.3281 2.64062
Q34.7188 3.51562 35.25 5.28125
Q35.5 6.10938 35.5 10.1094
L35.5 29.3438
Q35.5 34.8125 33.8906 37.2031
Q31.7344 40.3281 27.875 40.3281
Q25.25 40.3281 22.6562 38.9219
Q18.6094 36.7656 16.4062 34.0781
L16.4062 10.1094
Q16.4062 5.71875 17.0156 4.39062
Q17.625 3.07812 18.8125 2.42188
Q20.0156 1.76562 23.6875 1.76562
L23.6875 0
L1.5625 0
L1.5625 1.76562
Q4.64062 1.76562 5.85938 2.42188
Q7.07812 3.07812 7.70312 4.51562
Q8.34375 5.95312 8.34375 10.1094
L8.34375 27.2031
Q8.34375 34.5781 7.90625 36.7188
Q7.5625 38.3281 6.82812 38.9375
Q6.10938 39.5469 4.82812 39.5469
Q3.46875 39.5469 1.5625 38.8125
L0.828125 40.5781
L14.3125 46.0469
L16.4062 46.0469
z
" id="TimesNewRomanPSMT-6d"/>
       <path d="
M16.3594 69.4375
L16.3594 24.9062
L27.7344 35.2969
Q31.3438 38.625 31.9375 39.5
Q32.3281 40.0938 32.3281 40.6719
Q32.3281 41.6562 31.5156 42.3594
Q30.7188 43.0625 28.8594 43.1719
L28.8594 44.7344
L48.2969 44.7344
L48.2969 43.1719
Q44.2812 43.0625 41.625 41.9375
Q38.9688 40.8281 35.7969 37.9375
L24.3125 27.3438
L35.7969 12.8438
Q40.5781 6.84375 42.2344 5.21875
Q44.5781 2.9375 46.3438 2.25
Q47.5625 1.76562 50.5938 1.76562
L50.5938 0
L28.8594 0
L28.8594 1.76562
Q30.7188 1.8125 31.375 2.3125
Q32.0312 2.82812 32.0312 3.76562
Q32.0312 4.89062 30.0781 7.375
L16.3594 24.9062
L16.3594 10.0625
Q16.3594 5.71875 16.9688 4.34375
Q17.5781 2.98438 18.7031 2.39062
Q19.8281 1.8125 23.5781 1.76562
L23.5781 0
L0.828125 0
L0.828125 1.76562
Q4.25 1.76562 5.95312 2.59375
Q6.98438 3.125 7.51562 4.25
Q8.25 5.85938 8.25 9.8125
L8.25 50.5312
Q8.25 58.2969 7.90625 60.0312
Q7.5625 61.7656 6.78125 62.4219
Q6 63.0938 4.73438 63.0938
Q3.71875 63.0938 1.65625 62.25
L0.828125 63.9688
L14.1094 69.4375
z
" id="TimesNewRomanPSMT-6b"/>
       <path d="
M14.5 69.4375
Q16.5469 69.4375 17.9844 67.9844
Q19.4375 66.5469 19.4375 64.5
Q19.4375 62.4531 17.9844 60.9844
Q16.5469 59.5156 14.5 59.5156
Q12.4531 59.5156 10.9844 60.9844
Q9.51562 62.4531 9.51562 64.5
Q9.51562 66.5469 10.9531 67.9844
Q12.4062 69.4375 14.5 69.4375
M18.5625 46.0469
L18.5625 10.1094
Q18.5625 5.90625 19.1719 4.51562
Q19.7812 3.125 20.9688 2.4375
Q22.1719 1.76562 25.3438 1.76562
L25.3438 0
L3.60938 0
L3.60938 1.76562
Q6.89062 1.76562 8 2.39062
Q9.125 3.03125 9.78125 4.48438
Q10.4531 5.95312 10.4531 10.1094
L10.4531 27.3438
Q10.4531 34.625 10.0156 36.7656
Q9.67188 38.3281 8.9375 38.9375
Q8.20312 39.5469 6.9375 39.5469
Q5.5625 39.5469 3.60938 38.8125
L2.9375 40.5781
L16.4062 46.0469
z
" id="TimesNewRomanPSMT-69"/>
      </defs>
      <g transform="translate(273.32375 375.17625)scale(0.16 -0.16)">
       <use xlink:href="#TimesNewRomanPSMT-6f"/>
       <use x="50.0" xlink:href="#TimesNewRomanPSMT-6d"/>
       <use x="127.783203125" xlink:href="#TimesNewRomanPSMT-73"/>
       <use x="166.69921875" xlink:href="#TimesNewRomanPSMT-6b"/>
       <use x="216.69921875" xlink:href="#TimesNewRomanPSMT-69"/>
       <use x="244.482421875" xlink:href="#TimesNewRomanPSMT-6e"/>
       <use x="294.482421875" xlink:href="#TimesNewRomanPSMT-66"/>
       <use x="327.783203125" xlink:href="#TimesNewRomanPSMT-6f"/>
       <use x="377.783203125" xlink:href="#TimesNewRomanPSMT-72"/>
       <use x="411.083984375" xlink:href="#TimesNewRomanPSMT-6d"/>
      </g>
     </g>
    </g>
    <g id="xtick_4">
     <g id="line2d_7">
      <g>
       <use style="stroke:#000000;stroke-width:0.5;" x="423.7275" xlink:href="#m93b0483c22" y="360.06625"/>
      </g>
     </g>
     <g id="line2d_8">
      <g>
       <use style="stroke:#000000;stroke-width:0.5;" x="423.7275" xlink:href="#m741efc42ff" y="14.46625"/>
      </g>
     </g>
     <g id="text_4">
      <!-- bk55 -->
      <defs>
       <path d="
M15.375 37.0156
Q21.875 46.0469 29.3906 46.0469
Q36.2812 46.0469 41.4062 40.1562
Q46.5312 34.2812 46.5312 24.0781
Q46.5312 12.1562 38.625 4.89062
Q31.8438 -1.375 23.4844 -1.375
Q19.5781 -1.375 15.5469 0.046875
Q11.5312 1.46875 7.32812 4.29688
L7.32812 50.6406
Q7.32812 58.25 6.95312 60
Q6.59375 61.7656 5.8125 62.3906
Q5.03125 63.0312 3.85938 63.0312
Q2.48438 63.0312 0.4375 62.25
L-0.25 63.9688
L13.1875 69.4375
L15.375 69.4375
z

M15.375 33.8906
L15.375 7.125
Q17.875 4.6875 20.5312 3.4375
Q23.1875 2.20312 25.9844 2.20312
Q30.4219 2.20312 34.25 7.07812
Q38.0938 11.9688 38.0938 21.2969
Q38.0938 29.8906 34.25 34.5
Q30.4219 39.1094 25.5312 39.1094
Q22.9531 39.1094 20.3594 37.7969
Q18.4062 36.8125 15.375 33.8906" id="TimesNewRomanPSMT-62"/>
      </defs>
      <g transform="translate(408.235 375.17625)scale(0.16 -0.16)">
       <use xlink:href="#TimesNewRomanPSMT-62"/>
       <use x="50.0" xlink:href="#TimesNewRomanPSMT-6b"/>
       <use x="100.0" xlink:href="#TimesNewRomanPSMT-35"/>
       <use x="150.0" xlink:href="#TimesNewRomanPSMT-35"/>
      </g>
     </g>
    </g>
    <g id="text_5">
     <!-- Источник -->
     <defs>
      <path d="
M48 0
L34.8125 0
Q28.6562 8.9375 23.6875 18.3125
Q22.5156 20.4531 21.5625 21.5
Q20.6094 22.5625 18.9531 22.5625
Q18.3594 22.5625 17.0938 22.4688
L17.0938 10.5
Q17.0938 5.67188 17.6562 4.32812
Q18.2188 2.98438 19.6719 2.39062
Q21.1406 1.8125 24.6094 1.8125
L24.6094 0
L2.25 0
L2.25 1.8125
Q6.59375 1.8125 7.8125 3.39062
Q9.03125 4.98438 9.03125 10.5
L9.03125 34.2344
Q9.03125 39.4531 8.48438 40.4062
Q7.95312 41.3594 6.82812 42.1094
Q5.71875 42.875 2.25 42.875
L2.25 44.7344
L24.6094 44.7344
L24.6094 42.875
Q20.5625 42.875 19.6094 42.2812
Q18.6562 41.7031 17.875 40.8438
Q17.0938 39.9844 17.0938 34.2344
L17.0938 25.4375
Q18.2188 25.3438 18.6094 25.3438
Q21.5781 25.3438 24.1875 27.0312
Q26.8125 28.7188 28.8594 34.1875
Q30.7656 39.3594 32 41.1562
Q33.25 42.9688 35.4688 44.1094
Q37.7031 45.2656 40.1406 45.2656
Q42.7812 45.2656 44.3438 43.9844
Q45.9062 42.7188 45.9062 40.6719
Q45.9062 38.9688 44.7812 37.7656
Q43.6562 36.5781 41.6562 36.5781
Q40.5781 36.5781 38.9688 37.1562
Q36.9219 37.8906 35.8438 37.8906
Q33.5938 37.8906 32.125 34.0312
Q30.4688 29.5938 29.6875 28.2969
Q28.9062 27 26.7031 24.8594
Q28.2188 24.4219 30 22.6094
Q31.7812 20.7969 36.625 12.3125
Q40.4844 5.51562 42.4062 3.70312
Q44.3438 1.90625 48 1.8125
z
" id="TimesNewRomanPSMT-43a"/>
      <path d="
M33.2031 24.6562
L33.2031 34.2344
Q33.2031 38.875 32.7344 40.2031
Q32.2812 41.5469 30.8281 42.2031
Q29.3906 42.875 26.4688 42.875
L26.4688 44.7344
L48.0938 44.7344
L48.0938 42.875
Q44.7812 42.875 43.6719 42.2031
Q42.5781 41.5469 41.9375 40.5625
Q41.3125 39.5938 41.3125 34.2344
L41.3125 10.5
Q41.3125 5.85938 41.7656 4.51562
Q42.2344 3.17188 43.6719 2.48438
Q45.125 1.8125 48.0938 1.8125
L48.0938 0
L25.3906 0
L25.3906 1.8125
Q29.2969 1.95312 30.4844 2.3125
Q31.6875 2.6875 32.4375 4.20312
Q33.2031 5.71875 33.2031 10.5
L33.2031 21.4375
Q26.0312 17.7812 18.0625 17.7812
Q13.7188 17.7812 11.3281 18.875
Q8.9375 19.9688 8.29688 21.4062
Q7.67188 22.8594 7.67188 26.0781
L7.67188 34.2344
Q7.67188 38.5781 7.28125 39.9375
Q6.89062 41.3125 5.51562 42.0938
Q4.15625 42.875 1.46875 42.875
L1.46875 44.7344
L22.5156 44.7344
L22.5156 42.875
Q19.2344 42.875 18.1094 42.2031
Q17 41.5469 16.3594 40.5625
Q15.7188 39.5938 15.7188 34.2344
L15.7188 28.7188
Q15.7188 25.4844 16.1875 24.3594
Q16.6562 23.25 18.3281 22.4844
Q20.0156 21.7344 23.0938 21.7344
Q28.4219 21.7344 33.2031 24.6562" id="TimesNewRomanPSMT-447"/>
      <path d="
M17.0938 24.75
L36.4219 24.75
L36.4219 34.2344
Q36.4219 38.4844 36.0781 39.7656
Q35.75 41.0625 34.4062 41.9688
Q33.0625 42.875 29.6406 42.875
L29.6406 44.7344
L51.2656 44.7344
L51.2656 42.875
Q48.25 42.875 46.8438 42.1875
Q45.4531 41.5 44.9688 40.2031
Q44.4844 38.9219 44.4844 34.2344
L44.4844 10.5
Q44.4844 6.25 44.8438 4.875
Q45.2188 3.51562 46.625 2.65625
Q48.0469 1.8125 51.2656 1.8125
L51.2656 0
L29.6406 0
L29.6406 1.8125
Q33.6875 1.8125 35.0469 3.29688
Q36.4219 4.78125 36.4219 10.5
L36.4219 21.5781
L17.0938 21.5781
L17.0938 10.5
Q17.0938 6.25 17.4531 4.875
Q17.8281 3.51562 19.2344 2.65625
Q20.6562 1.8125 23.875 1.8125
L23.875 0
L2.25 0
L2.25 1.8125
Q6.59375 1.8125 7.8125 3.39062
Q9.03125 4.98438 9.03125 10.5
L9.03125 34.2344
Q9.03125 38.4844 8.65625 39.8438
Q8.29688 41.2188 6.875 42.0469
Q5.46875 42.875 2.25 42.875
L2.25 44.7344
L23.875 44.7344
L23.875 42.875
Q20.8438 42.875 19.4531 42.1875
Q18.0625 41.5 17.5781 40.2031
Q17.0938 38.9219 17.0938 34.2344
z
" id="TimesNewRomanPSMT-43d"/>
      <path d="
M25 46.0469
Q35.1562 46.0469 41.3125 38.3281
Q46.5312 31.7344 46.5312 23.1875
Q46.5312 17.1875 43.6406 11.0312
Q40.7656 4.89062 35.7188 1.75
Q30.6719 -1.375 24.4688 -1.375
Q14.3594 -1.375 8.40625 6.6875
Q3.375 13.4844 3.375 21.9219
Q3.375 28.0781 6.42188 34.1562
Q9.46875 40.2344 14.4531 43.1406
Q19.4375 46.0469 25 46.0469
M23.4844 42.875
Q20.9062 42.875 18.2812 41.3281
Q15.6719 39.7969 14.0625 35.9375
Q12.4531 32.0781 12.4531 26.0312
Q12.4531 16.2656 16.3281 9.17188
Q20.2188 2.09375 26.5625 2.09375
Q31.2969 2.09375 34.375 6
Q37.4531 9.90625 37.4531 19.4375
Q37.4531 31.3438 32.3281 38.1875
Q28.8594 42.875 23.4844 42.875" id="TimesNewRomanPSMT-43e"/>
      <path d="
M2.4375 44.7344
L41.1094 44.7344
L43.0625 32.625
L40.875 32.625
Q40.2812 36.2812 38.9062 38.2812
Q37.5469 40.2812 35.7812 40.9062
Q34.0312 41.5469 29.7812 41.5469
L25.875 41.5469
L25.875 10.5
Q25.875 5.51562 26.4844 4.17188
Q27.0938 2.82812 28.4531 2.39062
Q29.8281 1.95312 34.7188 1.8125
L34.7188 0
L10.4062 0
L10.4062 1.8125
Q15.0938 1.90625 16.4375 3.3125
Q17.7812 4.73438 17.7812 10.5
L17.7812 41.5469
L13.7656 41.5469
Q9.57812 41.5469 8.0625 41.0312
Q6.54688 40.5312 5.15625 38.5938
Q3.76562 36.6719 2.78125 32.625
L0.59375 32.625
z
" id="TimesNewRomanPSMT-442"/>
      <path d="
M51.4688 55.2812
Q51.4688 61.2344 49.5312 62.8125
Q47.6094 64.4062 41.75 64.4062
L41.75 66.2188
L70.4062 66.2188
L70.4062 64.4062
Q64.2656 64.2031 62.5469 62.4375
Q60.8438 60.6875 60.8438 54.1562
L60.8438 12.0625
Q60.8438 5.51562 62.5469 3.75
Q64.2656 2 70.4062 1.8125
L70.4062 0
L41.75 0
L41.75 1.8125
Q48.0469 2 49.75 3.78125
Q51.4688 5.5625 51.4688 12.0625
L51.4688 50.0469
L20.75 10.6875
Q20.7969 6.45312 21.3125 5
Q21.8281 3.5625 23.7031 2.73438
Q25.5938 1.90625 30.375 1.8125
L30.375 0
L1.8125 0
L1.8125 1.8125
Q7.95312 2 9.65625 3.75
Q11.375 5.51562 11.375 12.0625
L11.375 54.1562
Q11.375 60.6875 9.65625 62.4375
Q7.95312 64.2031 1.8125 64.4062
L1.8125 66.2188
L30.375 66.2188
L30.375 64.4062
Q24.1719 64.2031 22.4531 62.4375
Q20.75 60.6875 20.75 54.1562
L20.75 16.0156
z
" id="TimesNewRomanPSMT-418"/>
      <path d="
M17.0938 13.7656
L36.4219 36.1406
Q36.3281 39.8906 35 41.3594
Q33.6875 42.8281 30.4688 42.875
L30.4688 44.7344
L51.2656 44.7344
L51.2656 42.875
Q48 42.875 46.875 42.2031
Q45.75 41.5469 45.1094 40.5625
Q44.4844 39.5938 44.4844 34.2344
L44.4844 10.5
Q44.4844 5.32812 45.0156 4.32812
Q45.5625 3.32812 46.7031 2.5625
Q47.8594 1.8125 51.2656 1.8125
L51.2656 0
L29.6406 0
L29.6406 1.8125
Q33.6875 1.8125 35.0469 3.29688
Q36.4219 4.78125 36.4219 10.5
L36.4219 31.5469
L17.0938 9.125
Q17.1875 4.98438 18.2656 3.42188
Q19.3438 1.85938 22.9062 1.8125
L22.9062 0
L2.25 0
L2.25 1.8125
Q6.59375 1.8125 7.8125 3.39062
Q9.03125 4.98438 9.03125 10.5
L9.03125 34.2344
Q9.03125 39.4531 8.48438 40.4062
Q7.95312 41.3594 6.82812 42.1094
Q5.71875 42.875 2.25 42.875
L2.25 44.7344
L23.875 44.7344
L23.875 42.875
Q20.6094 42.875 19.4844 42.2031
Q18.3594 41.5469 17.7188 40.5625
Q17.0938 39.5938 17.0938 34.2344
z
" id="TimesNewRomanPSMT-438"/>
      <path d="
M41.1094 17
Q39.3125 8.15625 34.0312 3.39062
Q28.7656 -1.375 22.3594 -1.375
Q14.75 -1.375 9.07812 5.01562
Q3.42188 11.4219 3.42188 22.3125
Q3.42188 32.8594 9.6875 39.4531
Q15.9688 46.0469 24.75 46.0469
Q31.3438 46.0469 35.5938 42.5469
Q39.8438 39.0625 39.8438 35.2969
Q39.8438 33.4531 38.6406 32.2969
Q37.4531 31.1562 35.2969 31.1562
Q32.4219 31.1562 30.9531 33.0156
Q30.125 34.0312 29.8594 36.9062
Q29.5938 39.7969 27.875 41.3125
Q26.1719 42.7812 23.1406 42.7812
Q18.2656 42.7812 15.2812 39.1562
Q11.3281 34.375 11.3281 26.5156
Q11.3281 18.5 15.25 12.375
Q19.1875 6.25 25.875 6.25
Q30.6719 6.25 34.4688 9.51562
Q37.1562 11.7656 39.7031 17.6719
z
" id="TimesNewRomanPSMT-441"/>
     </defs>
     <g transform="translate(234.70125 394.73875)scale(0.16 -0.16)">
      <use xlink:href="#TimesNewRomanPSMT-418"/>
      <use x="72.216796875" xlink:href="#TimesNewRomanPSMT-441"/>
      <use x="116.6015625" xlink:href="#TimesNewRomanPSMT-442"/>
      <use x="158.927734375" xlink:href="#TimesNewRomanPSMT-43e"/>
      <use x="206.302734375" xlink:href="#TimesNewRomanPSMT-447"/>
      <use x="256.595703125" xlink:href="#TimesNewRomanPSMT-43d"/>
      <use x="310.111328125" xlink:href="#TimesNewRomanPSMT-438"/>
      <use x="363.626953125" xlink:href="#TimesNewRomanPSMT-43a"/>
     </g>
    </g>
   </g>
   <g id="matplotlib.axis_2">
    <g id="ytick_1">
     <g id="line2d_9">
      <defs>
       <path d="
M0 0
L4 0" id="m728421d6d4" style="stroke:#000000;stroke-width:0.5;"/>
      </defs>
      <g>
       <use style="stroke:#000000;stroke-width:0.5;" x="44.2875" xlink:href="#m728421d6d4" y="360.06625"/>
      </g>
     </g>
     <g id="line2d_10">
      <defs>
       <path d="
M0 0
L-4 0" id="mcb0005524f" style="stroke:#000000;stroke-width:0.5;"/>
      </defs>
      <g>
       <use style="stroke:#000000;stroke-width:0.5;" x="490.6875" xlink:href="#mcb0005524f" y="360.06625"/>
      </g>
     </g>
     <g id="text_6">
      <!-- 0 -->
      <defs>
       <path d="
M3.60938 32.7188
Q3.60938 44.0469 7.03125 52.2188
Q10.4531 60.4062 16.1094 64.4062
Q20.5156 67.5781 25.2031 67.5781
Q32.8125 67.5781 38.875 59.8125
Q46.4375 50.2031 46.4375 33.7344
Q46.4375 22.2188 43.1094 14.1562
Q39.7969 6.10938 34.6406 2.46875
Q29.5 -1.17188 24.7031 -1.17188
Q15.2344 -1.17188 8.9375 10.0156
Q3.60938 19.4375 3.60938 32.7188
M13.1875 31.5
Q13.1875 17.8281 16.5469 9.1875
Q19.3438 1.90625 24.8594 1.90625
Q27.4844 1.90625 30.3125 4.26562
Q33.1562 6.64062 34.625 12.2031
Q36.8594 20.6094 36.8594 35.8906
Q36.8594 47.2188 34.5156 54.7812
Q32.7656 60.4062 29.9844 62.75
Q27.9844 64.3594 25.1406 64.3594
Q21.8281 64.3594 19.2344 61.375
Q15.7188 57.3281 14.4531 48.625
Q13.1875 39.9375 13.1875 31.5" id="TimesNewRomanPSMT-30"/>
      </defs>
      <g transform="translate(33.435 363.91)scale(0.16 -0.16)">
       <use xlink:href="#TimesNewRomanPSMT-30"/>
      </g>
     </g>
    </g>
    <g id="ytick_2">
     <g id="line2d_11">
      <g>
       <use style="stroke:#000000;stroke-width:0.5;" x="44.2875" xlink:href="#m728421d6d4" y="302.46625"/>
      </g>
     </g>
     <g id="line2d_12">
      <g>
       <use style="stroke:#000000;stroke-width:0.5;" x="490.6875" xlink:href="#mcb0005524f" y="302.46625"/>
      </g>
     </g>
     <g id="text_7">
      <!-- 2 -->
      <defs>
       <path d="
M45.8438 12.75
L41.2188 0
L2.15625 0
L2.15625 1.8125
Q19.3906 17.5312 26.4219 27.4844
Q33.4531 37.4531 33.4531 45.7031
Q33.4531 52 29.5938 56.0469
Q25.7344 60.1094 20.3594 60.1094
Q15.4844 60.1094 11.5938 57.25
Q7.71875 54.3906 5.85938 48.875
L4.04688 48.875
Q5.28125 57.9062 10.3281 62.7344
Q15.375 67.5781 22.9531 67.5781
Q31 67.5781 36.3906 62.4062
Q41.7969 57.2344 41.7969 50.2031
Q41.7969 45.1719 39.4531 40.1406
Q35.8438 32.2344 27.7344 23.3906
Q15.5781 10.1094 12.5469 7.375
L29.8281 7.375
Q35.1094 7.375 37.2344 7.76562
Q39.3594 8.15625 41.0625 9.34375
Q42.7812 10.5469 44.0469 12.75
z
" id="TimesNewRomanPSMT-32"/>
      </defs>
      <g transform="translate(33.2975 306.31)scale(0.16 -0.16)">
       <use xlink:href="#TimesNewRomanPSMT-32"/>
      </g>
     </g>
    </g>
    <g id="ytick_3">
     <g id="line2d_13">
      <g>
       <use style="stroke:#000000;stroke-width:0.5;" x="44.2875" xlink:href="#m728421d6d4" y="244.86625"/>
      </g>
     </g>
     <g id="line2d_14">
      <g>
       <use style="stroke:#000000;stroke-width:0.5;" x="490.6875" xlink:href="#mcb0005524f" y="244.86625"/>
      </g>
     </g>
     <g id="text_8">
      <!-- 4 -->
      <defs>
       <path d="
M46.5312 24.4219
L46.5312 17.4844
L37.6406 17.4844
L37.6406 0
L29.5938 0
L29.5938 17.4844
L1.5625 17.4844
L1.5625 23.7344
L32.2812 67.5781
L37.6406 67.5781
L37.6406 24.4219
z

M29.5938 24.4219
L29.5938 57.2812
L6.34375 24.4219
z
" id="TimesNewRomanPSMT-34"/>
      </defs>
      <g transform="translate(33.0925 248.71)scale(0.16 -0.16)">
       <use xlink:href="#TimesNewRomanPSMT-34"/>
      </g>
     </g>
    </g>
    <g id="ytick_4">
     <g id="line2d_15">
      <g>
       <use style="stroke:#000000;stroke-width:0.5;" x="44.2875" xlink:href="#m728421d6d4" y="187.26625"/>
      </g>
     </g>
     <g id="line2d_16">
      <g>
       <use style="stroke:#000000;stroke-width:0.5;" x="490.6875" xlink:href="#mcb0005524f" y="187.26625"/>
      </g>
     </g>
     <g id="text_9">
      <!-- 6 -->
      <defs>
       <path d="
M44.8281 67.5781
L44.8281 65.7656
Q38.375 65.1406 34.2969 63.2031
Q30.2188 61.2812 26.2344 57.3281
Q22.2656 53.375 19.6562 48.5156
Q17.0469 43.6562 15.2812 36.9688
Q22.3125 41.7969 29.3906 41.7969
Q36.1875 41.7969 41.1562 36.3281
Q46.1406 30.8594 46.1406 22.2656
Q46.1406 13.9688 41.1094 7.125
Q35.0625 -1.17188 25.0938 -1.17188
Q18.3125 -1.17188 13.5781 3.32812
Q4.29688 12.0625 4.29688 25.9844
Q4.29688 34.8594 7.85938 42.8594
Q11.4219 50.875 18.0312 57.0781
Q24.6562 63.2812 30.7031 65.4219
Q36.7656 67.5781 42 67.5781
z

M14.4531 33.4062
Q13.5781 26.8125 13.5781 22.75
Q13.5781 18.0625 15.3125 12.5625
Q17.0469 7.07812 20.4531 3.85938
Q22.9531 1.5625 26.5156 1.5625
Q30.7656 1.5625 34.1094 5.5625
Q37.4531 9.57812 37.4531 17
Q37.4531 25.3438 34.125 31.4375
Q30.8125 37.5469 24.7031 37.5469
Q22.8594 37.5469 20.7344 36.7656
Q18.6094 35.9844 14.4531 33.4062" id="TimesNewRomanPSMT-36"/>
      </defs>
      <g transform="translate(33.5925 191.11)scale(0.16 -0.16)">
       <use xlink:href="#TimesNewRomanPSMT-36"/>
      </g>
     </g>
    </g>
    <g id="ytick_5">
     <g id="line2d_17">
      <g>
       <use style="stroke:#000000;stroke-width:0.5;" x="44.2875" xlink:href="#m728421d6d4" y="129.66625"/>
      </g>
     </g>
     <g id="line2d_18">
      <g>
       <use style="stroke:#000000;stroke-width:0.5;" x="490.6875" xlink:href="#mcb0005524f" y="129.66625"/>
      </g>
     </g>
     <g id="text_10">
      <!-- 8 -->
      <defs>
       <path d="
M19.1875 33.3438
Q11.3281 39.7969 9.04688 43.7031
Q6.78125 47.6094 6.78125 51.8125
Q6.78125 58.25 11.7656 62.9062
Q16.75 67.5781 25 67.5781
Q33.0156 67.5781 37.8906 63.2344
Q42.7812 58.8906 42.7812 53.3281
Q42.7812 49.6094 40.1406 45.75
Q37.5 41.8906 29.1562 36.6719
Q37.75 30.0312 40.5312 26.2188
Q44.2344 21.2344 44.2344 15.7188
Q44.2344 8.73438 38.9062 3.78125
Q33.5938 -1.17188 24.9531 -1.17188
Q15.5312 -1.17188 10.25 4.73438
Q6.0625 9.46875 6.0625 15.0938
Q6.0625 19.4844 9.01562 23.7969
Q11.9688 28.125 19.1875 33.3438
M26.8594 38.5781
Q32.7188 43.8438 34.2812 46.8906
Q35.8438 49.9531 35.8438 53.8125
Q35.8438 58.9375 32.9531 61.8438
Q30.0781 64.75 25.0938 64.75
Q20.125 64.75 17 61.8594
Q13.875 58.9844 13.875 55.125
Q13.875 52.5938 15.1562 50.0469
Q16.4531 47.5156 18.8438 45.2188
z

M21.4844 31.5
Q17.4375 28.0781 15.4844 24.0469
Q13.5312 20.0156 13.5312 15.3281
Q13.5312 9.03125 16.9688 5.25
Q20.4062 1.46875 25.7344 1.46875
Q31 1.46875 34.1719 4.4375
Q37.3594 7.42188 37.3594 11.6719
Q37.3594 15.1875 35.5 17.9688
Q32.0312 23.1406 21.4844 31.5" id="TimesNewRomanPSMT-38"/>
      </defs>
      <g transform="translate(34.18 133.51)scale(0.16 -0.16)">
       <use xlink:href="#TimesNewRomanPSMT-38"/>
      </g>
     </g>
    </g>
    <g id="ytick_6">
     <g id="line2d_19">
      <g>
       <use style="stroke:#000000;stroke-width:0.5;" x="44.2875" xlink:href="#m728421d6d4" y="72.06625"/>
      </g>
     </g>
     <g id="line2d_20">
      <g>
       <use style="stroke:#000000;stroke-width:0.5;" x="490.6875" xlink:href="#mcb0005524f" y="72.06625"/>
      </g>
     </g>
     <g id="text_11">
      <!-- 10 -->
      <defs>
       <path d="
M11.7188 59.7188
L27.8281 67.5781
L29.4375 67.5781
L29.4375 11.6719
Q29.4375 6.10938 29.9062 4.73438
Q30.375 3.375 31.8281 2.64062
Q33.2969 1.90625 37.7969 1.8125
L37.7969 0
L12.8906 0
L12.8906 1.8125
Q17.5781 1.90625 18.9375 2.60938
Q20.3125 3.32812 20.8438 4.51562
Q21.3906 5.71875 21.3906 11.6719
L21.3906 47.4062
Q21.3906 54.6406 20.9062 56.6875
Q20.5625 58.25 19.6562 58.9844
Q18.75 59.7188 17.4844 59.7188
Q15.6719 59.7188 12.4531 58.2031
z
" id="TimesNewRomanPSMT-31"/>
      </defs>
      <g transform="translate(26.7325 75.91)scale(0.16 -0.16)">
       <use xlink:href="#TimesNewRomanPSMT-31"/>
       <use x="50.0" xlink:href="#TimesNewRomanPSMT-30"/>
      </g>
     </g>
    </g>
    <g id="ytick_7">
     <g id="line2d_21">
      <g>
       <use style="stroke:#000000;stroke-width:0.5;" x="44.2875" xlink:href="#m728421d6d4" y="14.46625"/>
      </g>
     </g>
     <g id="line2d_22">
      <g>
       <use style="stroke:#000000;stroke-width:0.5;" x="490.6875" xlink:href="#mcb0005524f" y="14.46625"/>
      </g>
     </g>
     <g id="text_12">
      <!-- 12 -->
      <g transform="translate(26.8275 18.31)scale(0.16 -0.16)">
       <use xlink:href="#TimesNewRomanPSMT-31"/>
       <use x="50.0" xlink:href="#TimesNewRomanPSMT-32"/>
      </g>
     </g>
    </g>
    <g id="text_13">
     <!-- Среднее количество комментариев -->
     <defs>
      <path d="
M7.71875 44.7344
L47.7031 44.7344
L47.7031 42.875
Q44.3906 42.875 43.2812 42.2031
Q42.1875 41.5469 41.5469 40.5625
Q40.9219 39.5938 40.9219 34.2344
L40.9219 10.5
Q40.9219 5.32812 41.4531 4.32812
Q42 3.32812 43.1406 2.5625
Q44.2812 1.8125 47.7031 1.8125
L47.7031 0
L24.5625 0
L24.5625 1.8125
Q28.3281 1.8125 29.7656 2.20312
Q31.2031 2.59375 32.0312 4.07812
Q32.8594 5.5625 32.8594 10.5
L32.8594 41.5469
L17.9688 41.5469
L17.9688 22.7031
Q17.9688 12.0156 17.0156 7.6875
Q16.0625 3.375 13.25 1.29688
Q10.4531 -0.78125 6.84375 -0.78125
Q0.59375 -0.78125 0.59375 4.39062
Q0.59375 6.15625 1.59375 7.28125
Q2.59375 8.40625 4.20312 8.40625
Q5.90625 8.40625 7.375 6.98438
Q9.28125 5.125 10.25 5.125
Q12.4531 5.125 13.4531 8.8125
Q14.4531 12.5 14.4531 21.7344
L14.4531 31.5938
Q14.4531 39.2031 13.3438 40.8594
Q12.25 42.5312 7.71875 42.875
z
" id="TimesNewRomanPSMT-43b"/>
      <path d="
M32.0312 11.6719
L46 44.7344
L61.0781 44.7344
L61.0781 42.875
Q57.7656 42.875 56.6562 42.2031
Q55.5625 41.5469 54.9219 40.5625
Q54.2969 39.5938 54.2969 34.2344
L54.2969 10.5
Q54.2969 5.85938 54.75 4.51562
Q55.2188 3.17188 56.6562 2.48438
Q58.1094 1.8125 61.0781 1.8125
L61.0781 0
L39.4531 0
L39.4531 1.8125
Q43.4531 1.8125 44.8125 3.29688
Q46.1875 4.78125 46.1875 10.5
L46.1875 37.4062
L30.375 0
L28.6562 0
L12.5469 37.4062
L12.5469 10.5
Q12.5469 5.85938 13.0312 4.51562
Q13.5312 3.17188 14.9375 2.48438
Q16.3594 1.8125 19.3438 1.8125
L19.3438 0
L2.25 0
L2.25 1.8125
Q6.59375 1.8125 7.8125 3.39062
Q9.03125 4.98438 9.03125 10.5
L9.03125 34.2344
Q9.03125 39.4531 8.48438 40.4062
Q7.95312 41.3594 6.82812 42.1094
Q5.71875 42.875 2.25 42.875
L2.25 44.7344
L17.9688 44.7344
z
" id="TimesNewRomanPSMT-43c"/>
      <path d="
M-0.09375 40.2812
L13.6719 45.8438
L15.5312 45.8438
L15.5312 35.4062
Q19 41.3125 22.4844 43.6719
Q25.9844 46.0469 29.8281 46.0469
Q36.5781 46.0469 41.0625 40.7656
Q46.5781 34.3281 46.5781 23.9688
Q46.5781 12.4062 39.9375 4.82812
Q34.4688 -1.375 26.1719 -1.375
Q22.5625 -1.375 19.9219 -0.34375
Q17.9688 0.390625 15.5312 2.59375
L15.5312 -11.0312
Q15.5312 -15.625 16.0938 -16.8594
Q16.6562 -18.1094 18.0469 -18.8438
Q19.4375 -19.5781 23.0938 -19.5781
L23.0938 -21.3906
L-0.34375 -21.3906
L-0.34375 -19.5781
L0.875 -19.5781
Q3.5625 -19.625 5.46875 -18.5625
Q6.39062 -18.0156 6.90625 -16.8125
Q7.42188 -15.625 7.42188 -10.75
L7.42188 31.5469
Q7.42188 35.8906 7.03125 37.0625
Q6.64062 38.2344 5.78125 38.8125
Q4.9375 39.4062 3.46875 39.4062
Q2.29688 39.4062 0.484375 38.7188
z

M15.5312 32.5156
L15.5312 15.8281
Q15.5312 10.4062 15.9688 8.6875
Q16.6562 5.85938 19.3125 3.70312
Q21.9688 1.5625 26.0312 1.5625
Q30.9062 1.5625 33.9375 5.375
Q37.8906 10.3594 37.8906 19.3906
Q37.8906 29.6406 33.4062 35.1562
Q30.2812 38.9688 25.9844 38.9688
Q23.6406 38.9688 21.3438 37.7969
Q19.5781 36.9219 15.5312 32.5156" id="TimesNewRomanPSMT-440"/>
      <path id="TimesNewRomanPSMT-20"/>
      <path d="
M28.4688 6.45312
Q21.5781 1.125 19.8281 0.296875
Q17.1875 -0.921875 14.2031 -0.921875
Q9.57812 -0.921875 6.5625 2.25
Q3.5625 5.42188 3.5625 10.5938
Q3.5625 13.875 5.03125 16.2656
Q7.03125 19.5781 11.9844 22.5
Q16.9375 25.4375 28.4688 29.6406
L28.4688 31.3906
Q28.4688 38.0938 26.3438 40.5781
Q24.2188 43.0625 20.1719 43.0625
Q17.0938 43.0625 15.2812 41.4062
Q13.4219 39.75 13.4219 37.5938
L13.5312 34.7656
Q13.5312 32.5156 12.375 31.2969
Q11.2344 30.0781 9.375 30.0781
Q7.5625 30.0781 6.42188 31.3438
Q5.28125 32.625 5.28125 34.8125
Q5.28125 39.0156 9.57812 42.5312
Q13.875 46.0469 21.625 46.0469
Q27.5938 46.0469 31.3906 44.0469
Q34.2812 42.5312 35.6406 39.3125
Q36.5312 37.2031 36.5312 30.7188
L36.5312 15.5312
Q36.5312 9.125 36.7656 7.6875
Q37.0156 6.25 37.5781 5.76562
Q38.1406 5.28125 38.875 5.28125
Q39.6562 5.28125 40.2344 5.60938
Q41.2656 6.25 44.1875 9.1875
L44.1875 6.45312
Q38.7188 -0.875 33.7344 -0.875
Q31.3438 -0.875 29.9219 0.78125
Q28.5156 2.4375 28.4688 6.45312
M28.4688 9.625
L28.4688 26.6562
Q21.0938 23.7344 18.9531 22.5156
Q15.0938 20.3594 13.4219 18.0156
Q11.7656 15.6719 11.7656 12.8906
Q11.7656 9.375 13.8594 7.04688
Q15.9688 4.73438 18.7031 4.73438
Q22.4062 4.73438 28.4688 9.625" id="TimesNewRomanPSMT-430"/>
      <path d="
M31.5 23.6406
Q43.75 21.0938 43.75 12.1562
Q43.75 6.0625 38.6406 3.03125
Q33.5469 0 24.4219 0
L2.34375 0
L2.34375 1.8125
Q6.6875 1.8125 7.82812 3.4375
Q8.98438 5.07812 8.98438 10.5
L8.98438 34.2344
Q8.98438 39.5 8.46875 40.4219
Q7.95312 41.3594 6.85938 42.1094
Q5.76562 42.875 2.34375 42.875
L2.34375 44.7344
L22.9531 44.7344
Q28.9062 44.7344 32.5938 43.7969
Q36.2812 42.875 38.6406 40.1406
Q41.0156 37.4062 41.0156 33.5
Q41.0156 25.875 31.5 23.6406
M17.0938 24.75
Q19.2344 24.7031 19.6719 24.7031
Q26.375 24.7031 29.3438 27.2656
Q32.3281 29.8281 32.3281 33.5
Q32.3281 37.75 29.2969 39.6406
Q26.2656 41.5469 19.625 41.5469
L17.0938 41.5469
z

M17.0938 3.95312
Q19.5312 3.17188 22.9062 3.17188
Q28.7188 3.17188 31.5469 5.70312
Q34.375 8.25 34.375 12.25
Q34.375 16.75 30.7031 19.1406
Q27.0469 21.5312 20.5625 21.5312
Q18.9531 21.5312 17.0938 21.4375
z
" id="TimesNewRomanPSMT-432"/>
      <path d="
M9.23438 44.7344
L48.6875 44.7344
L48.6875 42.875
Q45.3594 42.875 44.2656 42.2031
Q43.1719 41.5469 42.5312 40.5625
Q41.8906 39.5938 41.8906 34.2344
L41.8906 12.1094
Q41.8906 5.125 43.0781 3.53125
Q44.2812 1.95312 48.6875 1.8125
L48.6875 -12.4062
L46.8281 -12.4062
Q46.625 -8.40625 44.8438 -5.42188
Q43.0625 -2.4375 39.8906 -1.21875
Q36.7188 0 30.5156 0
L19 0
Q13.625 0 10.5938 -0.953125
Q7.5625 -1.90625 5.53125 -4.92188
Q3.51562 -7.95312 3.07812 -12.4062
L1.26562 -12.4062
L1.26562 1.8125
Q5.28125 1.95312 8.54688 4.98438
Q11.8125 8.01562 14.2969 16.8438
Q16.7969 25.6875 16.7969 34.2344
Q16.7969 42.625 9.23438 42.875
z

M20.0156 41.5469
L20.0156 38.875
Q20.0156 14.8906 11.3281 3.17188
L27.9375 3.17188
Q32.4219 3.17188 33.1094 3.92188
Q33.7969 4.6875 33.7969 9.51562
L33.7969 41.5469
z
" id="TimesNewRomanPSMT-434"/>
      <path d="
M10.6406 27.875
Q10.5938 17.9219 15.4844 12.25
Q20.3594 6.59375 26.9531 6.59375
Q31.3438 6.59375 34.5938 9
Q37.8438 11.4219 40.0469 17.2812
L41.5469 16.3125
Q40.5312 9.625 35.5938 4.125
Q30.6719 -1.375 23.25 -1.375
Q15.1875 -1.375 9.45312 4.90625
Q3.71875 11.1875 3.71875 21.7812
Q3.71875 33.25 9.59375 39.6719
Q15.4844 46.0938 24.3594 46.0938
Q31.8906 46.0938 36.7188 41.1406
Q41.5469 36.1875 41.5469 27.875
z

M10.6406 30.7188
L31.3438 30.7188
Q31.1094 35.0156 30.3281 36.7656
Q29.1094 39.5 26.6875 41.0625
Q24.2656 42.625 21.625 42.625
Q17.5781 42.625 14.375 39.4688
Q11.1875 36.3281 10.6406 30.7188" id="TimesNewRomanPSMT-435"/>
      <path d="
M60.2031 67.7188
L61.7188 45.2188
L60.2031 45.2188
Q57.1719 55.3281 51.5625 59.7656
Q45.9531 64.2031 38.0938 64.2031
Q31.5 64.2031 26.1719 60.8594
Q20.8438 57.5156 17.7969 50.1875
Q14.75 42.875 14.75 31.9844
Q14.75 23 17.625 16.4062
Q20.5156 9.8125 26.2969 6.29688
Q32.0781 2.78125 39.5 2.78125
Q45.9531 2.78125 50.875 5.53125
Q55.8125 8.29688 61.7188 16.5
L63.2344 15.5312
Q58.25 6.6875 51.6094 2.57812
Q44.9688 -1.51562 35.8438 -1.51562
Q19.3906 -1.51562 10.3594 10.6875
Q3.60938 19.7812 3.60938 32.0781
Q3.60938 42 8.04688 50.2969
Q12.5 58.5938 20.2812 63.1562
Q28.0781 67.7188 37.3125 67.7188
Q44.4844 67.7188 51.4688 64.2031
Q53.5156 63.1406 54.3906 63.1406
Q55.7188 63.1406 56.6875 64.0625
Q57.9531 65.375 58.5 67.7188
z
" id="TimesNewRomanPSMT-421"/>
     </defs>
     <g transform="translate(18.31 305.45125)rotate(-90.0)scale(0.16 -0.16)">
      <use xlink:href="#TimesNewRomanPSMT-421"/>
      <use x="66.69921875" xlink:href="#TimesNewRomanPSMT-440"/>
      <use x="116.69921875" xlink:href="#TimesNewRomanPSMT-435"/>
      <use x="159.708984375" xlink:href="#TimesNewRomanPSMT-434"/>
      <use x="210.587890625" xlink:href="#TimesNewRomanPSMT-43d"/>
      <use x="264.103515625" xlink:href="#TimesNewRomanPSMT-435"/>
      <use x="308.48828125" xlink:href="#TimesNewRomanPSMT-435"/>
      <use x="352.873046875" xlink:href="#TimesNewRomanPSMT-20"/>
      <use x="377.873046875" xlink:href="#TimesNewRomanPSMT-43a"/>
      <use x="421.33203125" xlink:href="#TimesNewRomanPSMT-43e"/>
      <use x="469.95703125" xlink:href="#TimesNewRomanPSMT-43b"/>
      <use x="519.859375" xlink:href="#TimesNewRomanPSMT-438"/>
      <use x="573.375" xlink:href="#TimesNewRomanPSMT-447"/>
      <use x="623.66796875" xlink:href="#TimesNewRomanPSMT-435"/>
      <use x="670.552734375" xlink:href="#TimesNewRomanPSMT-441"/>
      <use x="714.9375" xlink:href="#TimesNewRomanPSMT-442"/>
      <use x="758.638671875" xlink:href="#TimesNewRomanPSMT-432"/>
      <use x="805.23046875" xlink:href="#TimesNewRomanPSMT-43e"/>
      <use x="855.23046875" xlink:href="#TimesNewRomanPSMT-20"/>
      <use x="880.23046875" xlink:href="#TimesNewRomanPSMT-43a"/>
      <use x="923.689453125" xlink:href="#TimesNewRomanPSMT-43e"/>
      <use x="971.814453125" xlink:href="#TimesNewRomanPSMT-43c"/>
      <use x="1035.09570312" xlink:href="#TimesNewRomanPSMT-43c"/>
      <use x="1098.37695312" xlink:href="#TimesNewRomanPSMT-435"/>
      <use x="1142.76171875" xlink:href="#TimesNewRomanPSMT-43d"/>
      <use x="1196.27734375" xlink:href="#TimesNewRomanPSMT-442"/>
      <use x="1241.22851562" xlink:href="#TimesNewRomanPSMT-430"/>
      <use x="1285.61328125" xlink:href="#TimesNewRomanPSMT-440"/>
      <use x="1335.61328125" xlink:href="#TimesNewRomanPSMT-438"/>
      <use x="1389.12890625" xlink:href="#TimesNewRomanPSMT-435"/>
      <use x="1433.51367188" xlink:href="#TimesNewRomanPSMT-432"/>
     </g>
    </g>
   </g>
   <g id="text_14">
    <!-- 2.71 -->
    <defs>
     <path d="
M10.0625 66.2188
L45.5625 66.2188
L45.5625 64.3594
L23.4844 -1.375
L18.0156 -1.375
L37.7969 58.25
L19.5781 58.25
Q14.0625 58.25 11.7188 56.9375
Q7.625 54.6875 5.125 50
L3.71875 50.5312
z
" id="TimesNewRomanPSMT-37"/>
     <path d="
M12.5 9.46875
Q14.7969 9.46875 16.3594 7.875
Q17.9219 6.29688 17.9219 4.04688
Q17.9219 1.8125 16.3281 0.21875
Q14.75 -1.375 12.5 -1.375
Q10.25 -1.375 8.65625 0.21875
Q7.07812 1.8125 7.07812 4.04688
Q7.07812 6.34375 8.65625 7.90625
Q10.25 9.46875 12.5 9.46875" id="TimesNewRomanPSMT-2e"/>
    </defs>
    <g transform="translate(76.07625 278.59575)scale(0.16 -0.16)">
     <use xlink:href="#TimesNewRomanPSMT-32"/>
     <use x="50.0" xlink:href="#TimesNewRomanPSMT-2e"/>
     <use x="75.0" xlink:href="#TimesNewRomanPSMT-37"/>
     <use x="125.0" xlink:href="#TimesNewRomanPSMT-31"/>
    </g>
   </g>
   <g id="text_15">
    <!-- 8.53 -->
    <defs>
     <path d="
M5.07812 53.6094
Q7.90625 60.2969 12.2188 63.9375
Q16.5469 67.5781 23 67.5781
Q30.9531 67.5781 35.2031 62.4062
Q38.4219 58.5469 38.4219 54.1562
Q38.4219 46.9219 29.3438 39.2031
Q35.4531 36.8125 38.5781 32.375
Q41.7031 27.9375 41.7031 21.9219
Q41.7031 13.3281 36.2344 7.03125
Q29.1094 -1.17188 15.5781 -1.17188
Q8.89062 -1.17188 6.46875 0.484375
Q4.04688 2.15625 4.04688 4.04688
Q4.04688 5.46875 5.1875 6.54688
Q6.34375 7.625 7.95312 7.625
Q9.1875 7.625 10.4531 7.23438
Q11.2812 6.98438 14.2031 5.4375
Q17.1406 3.90625 18.2656 3.60938
Q20.0625 3.07812 22.125 3.07812
Q27.0938 3.07812 30.7812 6.9375
Q34.4688 10.7969 34.4688 16.0625
Q34.4688 19.9219 32.7656 23.5781
Q31.5 26.3125 29.9844 27.7344
Q27.875 29.6875 24.2188 31.2656
Q20.5625 32.8594 16.75 32.8594
L15.1875 32.8594
L15.1875 34.3281
Q19.0469 34.8125 22.9219 37.1094
Q26.8125 39.4062 28.5625 42.625
Q30.3281 45.8438 30.3281 49.7031
Q30.3281 54.7344 27.1719 57.8281
Q24.0312 60.9375 19.3438 60.9375
Q11.7656 60.9375 6.6875 52.8281
z
" id="TimesNewRomanPSMT-33"/>
    </defs>
    <g transform="translate(187.67625 110.97975)scale(0.16 -0.16)">
     <use xlink:href="#TimesNewRomanPSMT-38"/>
     <use x="50.0" xlink:href="#TimesNewRomanPSMT-2e"/>
     <use x="75.0" xlink:href="#TimesNewRomanPSMT-35"/>
     <use x="125.0" xlink:href="#TimesNewRomanPSMT-33"/>
    </g>
   </g>
   <g id="text_16">
    <!-- 9.89 -->
    <defs>
     <path d="
M5.28125 -1.375
L5.28125 0.4375
Q11.625 0.53125 17.0938 3.39062
Q22.5625 6.25 27.6562 13.375
Q32.7656 20.5156 34.7656 29.0469
Q27.0938 24.125 20.9062 24.125
Q13.9219 24.125 8.9375 29.5156
Q3.95312 34.9062 3.95312 43.8438
Q3.95312 52.5469 8.9375 59.3281
Q14.9375 67.5781 24.6094 67.5781
Q32.7656 67.5781 38.5781 60.8438
Q45.7031 52.4844 45.7031 40.2344
Q45.7031 29.2031 40.2812 19.6562
Q34.8594 10.1094 25.2031 3.8125
Q17.3281 -1.375 8.0625 -1.375
z

M35.5469 32.6719
Q36.4219 39.0156 36.4219 42.8281
Q36.4219 47.5625 34.8125 53.0469
Q33.2031 58.5469 30.25 61.4688
Q27.2969 64.4062 23.5312 64.4062
Q19.1875 64.4062 15.9062 60.5
Q12.6406 56.5938 12.6406 48.875
Q12.6406 38.5781 17 32.7656
Q20.1719 28.5625 24.8125 28.5625
Q27.0469 28.5625 30.125 29.6406
Q33.2031 30.7188 35.5469 32.6719" id="TimesNewRomanPSMT-39"/>
    </defs>
    <g transform="translate(298.7875 71.81175)scale(0.16 -0.16)">
     <use xlink:href="#TimesNewRomanPSMT-39"/>
     <use x="50.0" xlink:href="#TimesNewRomanPSMT-2e"/>
     <use x="75.0" xlink:href="#TimesNewRomanPSMT-38"/>
     <use x="125.0" xlink:href="#TimesNewRomanPSMT-39"/>
    </g>
   </g>
   <g id="text_17">
    <!-- 10.67 -->
    <g transform="translate(407.02 49.34775)scale(0.16 -0.16)">
     <use xlink:href="#TimesNewRomanPSMT-31"/>
     <use x="50.0" xlink:href="#TimesNewRomanPSMT-30"/>
     <use x="100.0" xlink:href="#TimesNewRomanPSMT-2e"/>
     <use x="125.0" xlink:href="#TimesNewRomanPSMT-36"/>
     <use x="175.0" xlink:href="#TimesNewRomanPSMT-37"/>
    </g>
   </g>
  </g>
 </g>
 <defs>
  <clipPath id="pf55b50a5ae">
   <rect height="345.6" width="446.4" x="44.2875" y="14.46625"/>
  </clipPath>
 </defs>
</svg>
