<?xml version="1.0" encoding="utf-8" standalone="no"?>
<!DOCTYPE svg PUBLIC "-//W3C//DTD SVG 1.1//EN"
  "http://www.w3.org/Graphics/SVG/1.1/DTD/svg11.dtd">
<!-- Created with matplotlib (http://matplotlib.org/) -->
<svg height="402pt" version="1.1" viewBox="0 0 519 402" width="519pt" xmlns="http://www.w3.org/2000/svg" xmlns:xlink="http://www.w3.org/1999/xlink">
 <defs>
  <style type="text/css">
*{stroke-linecap:butt;stroke-linejoin:round;}
  </style>
 </defs>
 <g id="figure_1">
  <g id="patch_1">
   <path d="
M0 402.371
L519.873 402.371
L519.873 0
L0 0
z
" style="fill:#ffffff;"/>
  </g>
  <g id="axes_1">
   <g id="patch_2">
    <path d="
M66.2725 317.382
L512.673 317.382
L512.673 14.9825
L66.2725 14.9825
z
" style="fill:#ffffff;"/>
   </g>
   <g id="PolyCollection_1">
    <defs>
     <path d="
M67.4888 -84.9884
L67.4888 -96.8954
L68.7052 -95.5724
L68.7052 -84.9884
L68.7052 -84.9884
L67.4888 -84.9884
z
" id="md5a1d7276e" style="stroke:#ff8e8e;stroke-opacity:0.3;"/>
    </defs>
    <g clip-path="url(#p39b1fcb95f)">
     <use style="fill:#ff8e8e;fill-opacity:0.3;stroke:#ff8e8e;stroke-opacity:0.3;" x="0.0" xlink:href="#md5a1d7276e" y="402.37093541"/>
    </g>
   </g>
   <g id="PolyCollection_2">
    <defs>
     <path d="
M76.0033 -84.9884
L76.0033 -119.008
L77.2196 -110.881
L77.2196 -84.9884
L77.2196 -84.9884
L76.0033 -84.9884
z
" id="mbcaeca2ea6" style="stroke:#ff8e8e;stroke-opacity:0.3;"/>
    </defs>
    <g clip-path="url(#p39b1fcb95f)">
     <use style="fill:#ff8e8e;fill-opacity:0.3;stroke:#ff8e8e;stroke-opacity:0.3;" x="0.0" xlink:href="#mbcaeca2ea6" y="402.37093541"/>
    </g>
   </g>
   <g id="PolyCollection_3">
    <defs>
     <path d="
M84.5177 -84.9884
L84.5177 -108.046
L85.7341 -111.826
L85.7341 -84.9884
L85.7341 -84.9884
L84.5177 -84.9884
z
" id="ma177829d32" style="stroke:#ff8e8e;stroke-opacity:0.3;"/>
    </defs>
    <g clip-path="url(#p39b1fcb95f)">
     <use style="fill:#ff8e8e;fill-opacity:0.3;stroke:#ff8e8e;stroke-opacity:0.3;" x="0.0" xlink:href="#ma177829d32" y="402.37093541"/>
    </g>
   </g>
   <g id="PolyCollection_4">
    <defs>
     <path d="
M93.0322 -84.9884
L93.0322 -117.685
L94.2485 -122.977
L94.2485 -84.9884
L94.2485 -84.9884
L93.0322 -84.9884
z
" id="m55730647a2" style="stroke:#ff8e8e;stroke-opacity:0.3;"/>
    </defs>
    <g clip-path="url(#p39b1fcb95f)">
     <use style="fill:#ff8e8e;fill-opacity:0.3;stroke:#ff8e8e;stroke-opacity:0.3;" x="0.0" xlink:href="#m55730647a2" y="402.37093541"/>
    </g>
   </g>
   <g id="PolyCollection_5">
    <defs>
     <path d="
M101.547 -84.9884
L101.547 -121.654
L102.763 -109.747
L102.763 -84.9884
L102.763 -84.9884
L101.547 -84.9884
z
" id="mc9c2146ceb" style="stroke:#ff8e8e;stroke-opacity:0.3;"/>
    </defs>
    <g clip-path="url(#p39b1fcb95f)">
     <use style="fill:#ff8e8e;fill-opacity:0.3;stroke:#ff8e8e;stroke-opacity:0.3;" x="0.0" xlink:href="#mc9c2146ceb" y="402.37093541"/>
    </g>
   </g>
   <g id="PolyCollection_6">
    <defs>
     <path d="
M110.061 -84.9884
L110.061 -129.214
L111.277 -116.74
L111.277 -84.9884
L111.277 -84.9884
L110.061 -84.9884
z
" id="me7402f5701" style="stroke:#ff8e8e;stroke-opacity:0.3;"/>
    </defs>
    <g clip-path="url(#p39b1fcb95f)">
     <use style="fill:#ff8e8e;fill-opacity:0.3;stroke:#ff8e8e;stroke-opacity:0.3;" x="0.0" xlink:href="#me7402f5701" y="402.37093541"/>
    </g>
   </g>
   <g id="PolyCollection_7">
    <defs>
     <path d="
M118.575 -84.9884
L118.575 -126.568
L119.792 -113.905
L119.792 -84.9884
L119.792 -84.9884
L118.575 -84.9884
z
" id="m8a37d94ac2" style="stroke:#ff8e8e;stroke-opacity:0.3;"/>
    </defs>
    <g clip-path="url(#p39b1fcb95f)">
     <use style="fill:#ff8e8e;fill-opacity:0.3;stroke:#ff8e8e;stroke-opacity:0.3;" x="0.0" xlink:href="#m8a37d94ac2" y="402.37093541"/>
    </g>
   </g>
   <g id="PolyCollection_8">
    <defs>
     <path d="
M127.09 -84.9884
L127.09 -116.74
L128.306 -117.496
L128.306 -84.9884
L128.306 -84.9884
L127.09 -84.9884
z
" id="mddc596dca0" style="stroke:#ff8e8e;stroke-opacity:0.3;"/>
    </defs>
    <g clip-path="url(#p39b1fcb95f)">
     <use style="fill:#ff8e8e;fill-opacity:0.3;stroke:#ff8e8e;stroke-opacity:0.3;" x="0.0" xlink:href="#mddc596dca0" y="402.37093541"/>
    </g>
   </g>
   <g id="PolyCollection_9">
    <defs>
     <path d="
M135.604 -84.9884
L135.604 -109.369
L136.821 -114.85
L136.821 -84.9884
L136.821 -84.9884
L135.604 -84.9884
z
" id="m242110f1b1" style="stroke:#ff8e8e;stroke-opacity:0.3;"/>
    </defs>
    <g clip-path="url(#p39b1fcb95f)">
     <use style="fill:#ff8e8e;fill-opacity:0.3;stroke:#ff8e8e;stroke-opacity:0.3;" x="0.0" xlink:href="#m242110f1b1" y="402.37093541"/>
    </g>
   </g>
   <g id="PolyCollection_10">
    <defs>
     <path d="
M144.119 -84.9884
L144.119 -105.778
L145.335 -111.259
L145.335 -84.9884
L145.335 -84.9884
L144.119 -84.9884
z
" id="m3c2e86a506" style="stroke:#ff8e8e;stroke-opacity:0.3;"/>
    </defs>
    <g clip-path="url(#p39b1fcb95f)">
     <use style="fill:#ff8e8e;fill-opacity:0.3;stroke:#ff8e8e;stroke-opacity:0.3;" x="0.0" xlink:href="#m3c2e86a506" y="402.37093541"/>
    </g>
   </g>
   <g id="PolyCollection_11">
    <defs>
     <path d="
M152.633 -84.9884
L152.633 -117.307
L153.85 -128.08
L153.85 -84.9884
L153.85 -84.9884
L152.633 -84.9884
z
" id="m5a3de9225b" style="stroke:#ff8e8e;stroke-opacity:0.3;"/>
    </defs>
    <g clip-path="url(#p39b1fcb95f)">
     <use style="fill:#ff8e8e;fill-opacity:0.3;stroke:#ff8e8e;stroke-opacity:0.3;" x="0.0" xlink:href="#m5a3de9225b" y="402.37093541"/>
    </g>
   </g>
   <g id="PolyCollection_12">
    <defs>
     <path d="
M161.148 -84.9884
L161.148 -123.733
L162.364 -127.891
L162.364 -84.9884
L162.364 -84.9884
L161.148 -84.9884
z
" id="m47dd7441d5" style="stroke:#ff8e8e;stroke-opacity:0.3;"/>
    </defs>
    <g clip-path="url(#p39b1fcb95f)">
     <use style="fill:#ff8e8e;fill-opacity:0.3;stroke:#ff8e8e;stroke-opacity:0.3;" x="0.0" xlink:href="#m47dd7441d5" y="402.37093541"/>
    </g>
   </g>
   <g id="PolyCollection_13">
    <defs>
     <path d="
M169.662 -84.9884
L169.662 -112.582
L170.878 -126.757
L170.878 -84.9884
L170.878 -84.9884
L169.662 -84.9884
z
" id="m4eb7fb8475" style="stroke:#ff8e8e;stroke-opacity:0.3;"/>
    </defs>
    <g clip-path="url(#p39b1fcb95f)">
     <use style="fill:#ff8e8e;fill-opacity:0.3;stroke:#ff8e8e;stroke-opacity:0.3;" x="0.0" xlink:href="#m4eb7fb8475" y="402.37093541"/>
    </g>
   </g>
   <g id="PolyCollection_14">
    <defs>
     <path d="
M178.177 -84.9884
L178.177 -143.011
L179.393 -139.231
L179.393 -84.9884
L179.393 -84.9884
L178.177 -84.9884
z
" id="mb7eed389e3" style="stroke:#ff8e8e;stroke-opacity:0.3;"/>
    </defs>
    <g clip-path="url(#p39b1fcb95f)">
     <use style="fill:#ff8e8e;fill-opacity:0.3;stroke:#ff8e8e;stroke-opacity:0.3;" x="0.0" xlink:href="#mb7eed389e3" y="402.37093541"/>
    </g>
   </g>
   <g id="PolyCollection_15">
    <defs>
     <path d="
M186.691 -84.9884
L186.691 -146.035
L187.907 -125.623
L187.907 -84.9884
L187.907 -84.9884
L186.691 -84.9884
z
" id="m06bb7fe0fd" style="stroke:#ff8e8e;stroke-opacity:0.3;"/>
    </defs>
    <g clip-path="url(#p39b1fcb95f)">
     <use style="fill:#ff8e8e;fill-opacity:0.3;stroke:#ff8e8e;stroke-opacity:0.3;" x="0.0" xlink:href="#m06bb7fe0fd" y="402.37093541"/>
    </g>
   </g>
   <g id="PolyCollection_16">
    <defs>
     <path d="
M195.205 -84.9884
L195.205 -106.912
L196.422 -105.589
L196.422 -84.9884
L196.422 -84.9884
L195.205 -84.9884
z
" id="m59a3899960" style="stroke:#ff8e8e;stroke-opacity:0.3;"/>
    </defs>
    <g clip-path="url(#p39b1fcb95f)">
     <use style="fill:#ff8e8e;fill-opacity:0.3;stroke:#ff8e8e;stroke-opacity:0.3;" x="0.0" xlink:href="#m59a3899960" y="402.37093541"/>
    </g>
   </g>
   <g id="PolyCollection_17">
    <defs>
     <path d="
M203.72 -84.9884
L203.72 -123.166
L204.936 -116.74
L204.936 -84.9884
L204.936 -84.9884
L203.72 -84.9884
z
" id="m5e04240c62" style="stroke:#ff8e8e;stroke-opacity:0.3;"/>
    </defs>
    <g clip-path="url(#p39b1fcb95f)">
     <use style="fill:#ff8e8e;fill-opacity:0.3;stroke:#ff8e8e;stroke-opacity:0.3;" x="0.0" xlink:href="#m5e04240c62" y="402.37093541"/>
    </g>
   </g>
   <g id="PolyCollection_18">
    <defs>
     <path d="
M212.234 -84.9884
L212.234 -129.214
L213.451 -112.393
L213.451 -84.9884
L213.451 -84.9884
L212.234 -84.9884
z
" id="meaae6d0f7a" style="stroke:#ff8e8e;stroke-opacity:0.3;"/>
    </defs>
    <g clip-path="url(#p39b1fcb95f)">
     <use style="fill:#ff8e8e;fill-opacity:0.3;stroke:#ff8e8e;stroke-opacity:0.3;" x="0.0" xlink:href="#meaae6d0f7a" y="402.37093541"/>
    </g>
   </g>
   <g id="PolyCollection_19">
    <defs>
     <path d="
M220.749 -84.9884
L220.749 -118.063
L221.965 -122.41
L221.965 -84.9884
L221.965 -84.9884
L220.749 -84.9884
z
" id="mba94d2980e" style="stroke:#ff8e8e;stroke-opacity:0.3;"/>
    </defs>
    <g clip-path="url(#p39b1fcb95f)">
     <use style="fill:#ff8e8e;fill-opacity:0.3;stroke:#ff8e8e;stroke-opacity:0.3;" x="0.0" xlink:href="#mba94d2980e" y="402.37093541"/>
    </g>
   </g>
   <g id="PolyCollection_20">
    <defs>
     <path d="
M229.263 -84.9884
L229.263 -147.169
L230.48 -112.204
L230.48 -84.9884
L230.48 -84.9884
L229.263 -84.9884
z
" id="m2afa7f45d7" style="stroke:#ff8e8e;stroke-opacity:0.3;"/>
    </defs>
    <g clip-path="url(#p39b1fcb95f)">
     <use style="fill:#ff8e8e;fill-opacity:0.3;stroke:#ff8e8e;stroke-opacity:0.3;" x="0.0" xlink:href="#m2afa7f45d7" y="402.37093541"/>
    </g>
   </g>
   <g id="PolyCollection_21">
    <defs>
     <path d="
M237.778 -84.9884
L237.778 -158.887
L238.994 -124.867
L238.994 -84.9884
L238.994 -84.9884
L237.778 -84.9884
z
" id="m64da7ce62e" style="stroke:#ff8e8e;stroke-opacity:0.3;"/>
    </defs>
    <g clip-path="url(#p39b1fcb95f)">
     <use style="fill:#ff8e8e;fill-opacity:0.3;stroke:#ff8e8e;stroke-opacity:0.3;" x="0.0" xlink:href="#m64da7ce62e" y="402.37093541"/>
    </g>
   </g>
   <g id="PolyCollection_22">
    <defs>
     <path d="
M246.292 -84.9884
L246.292 -161.344
L247.508 -166.447
L247.508 -84.9884
L247.508 -84.9884
L246.292 -84.9884
z
" id="m38a70a9d17" style="stroke:#ff8e8e;stroke-opacity:0.3;"/>
    </defs>
    <g clip-path="url(#p39b1fcb95f)">
     <use style="fill:#ff8e8e;fill-opacity:0.3;stroke:#ff8e8e;stroke-opacity:0.3;" x="0.0" xlink:href="#m38a70a9d17" y="402.37093541"/>
    </g>
   </g>
   <g id="PolyCollection_23">
    <defs>
     <path d="
M254.807 -84.9884
L254.807 -161.155
L256.023 -130.915
L256.023 -84.9884
L256.023 -84.9884
L254.807 -84.9884
z
" id="m2e6699e14b" style="stroke:#ff8e8e;stroke-opacity:0.3;"/>
    </defs>
    <g clip-path="url(#p39b1fcb95f)">
     <use style="fill:#ff8e8e;fill-opacity:0.3;stroke:#ff8e8e;stroke-opacity:0.3;" x="0.0" xlink:href="#m2e6699e14b" y="402.37093541"/>
    </g>
   </g>
   <g id="PolyCollection_24">
    <defs>
     <path d="
M263.321 -84.9884
L263.321 -165.124
L264.537 -145.09
L264.537 -84.9884
L264.537 -84.9884
L263.321 -84.9884
z
" id="m4d3812cb2d" style="stroke:#ff8e8e;stroke-opacity:0.3;"/>
    </defs>
    <g clip-path="url(#p39b1fcb95f)">
     <use style="fill:#ff8e8e;fill-opacity:0.3;stroke:#ff8e8e;stroke-opacity:0.3;" x="0.0" xlink:href="#m4d3812cb2d" y="402.37093541"/>
    </g>
   </g>
   <g id="PolyCollection_25">
    <defs>
     <path d="
M271.835 -84.9884
L271.835 -144.901
L273.052 -135.64
L273.052 -84.9884
L273.052 -84.9884
L271.835 -84.9884
z
" id="m7f55efb494" style="stroke:#ff8e8e;stroke-opacity:0.3;"/>
    </defs>
    <g clip-path="url(#p39b1fcb95f)">
     <use style="fill:#ff8e8e;fill-opacity:0.3;stroke:#ff8e8e;stroke-opacity:0.3;" x="0.0" xlink:href="#m7f55efb494" y="402.37093541"/>
    </g>
   </g>
   <g id="PolyCollection_26">
    <defs>
     <path d="
M280.35 -84.9884
L280.35 -171.361
L281.566 -140.176
L281.566 -84.9884
L281.566 -84.9884
L280.35 -84.9884
z
" id="m2f19ceee6c" style="stroke:#ff8e8e;stroke-opacity:0.3;"/>
    </defs>
    <g clip-path="url(#p39b1fcb95f)">
     <use style="fill:#ff8e8e;fill-opacity:0.3;stroke:#ff8e8e;stroke-opacity:0.3;" x="0.0" xlink:href="#m2f19ceee6c" y="402.37093541"/>
    </g>
   </g>
   <g id="PolyCollection_27">
    <defs>
     <path d="
M288.864 -84.9884
L288.864 -182.323
L290.081 -116.362
L290.081 -84.9884
L290.081 -84.9884
L288.864 -84.9884
z
" id="m47169ababe" style="stroke:#ff8e8e;stroke-opacity:0.3;"/>
    </defs>
    <g clip-path="url(#p39b1fcb95f)">
     <use style="fill:#ff8e8e;fill-opacity:0.3;stroke:#ff8e8e;stroke-opacity:0.3;" x="0.0" xlink:href="#m47169ababe" y="402.37093541"/>
    </g>
   </g>
   <g id="PolyCollection_28">
    <defs>
     <path d="
M297.379 -84.9884
L297.379 -133.372
L298.595 -109.936
L298.595 -84.9884
L298.595 -84.9884
L297.379 -84.9884
z
" id="m478996eb1e" style="stroke:#ff8e8e;stroke-opacity:0.3;"/>
    </defs>
    <g clip-path="url(#p39b1fcb95f)">
     <use style="fill:#ff8e8e;fill-opacity:0.3;stroke:#ff8e8e;stroke-opacity:0.3;" x="0.0" xlink:href="#m478996eb1e" y="402.37093541"/>
    </g>
   </g>
   <g id="PolyCollection_29">
    <defs>
     <path d="
M305.893 -84.9884
L305.893 -151.138
L307.11 -107.857
L307.11 -84.9884
L307.11 -84.9884
L305.893 -84.9884
z
" id="mbc886d563e" style="stroke:#ff8e8e;stroke-opacity:0.3;"/>
    </defs>
    <g clip-path="url(#p39b1fcb95f)">
     <use style="fill:#ff8e8e;fill-opacity:0.3;stroke:#ff8e8e;stroke-opacity:0.3;" x="0.0" xlink:href="#mbc886d563e" y="402.37093541"/>
    </g>
   </g>
   <g id="PolyCollection_30">
    <defs>
     <path d="
M314.408 -84.9884
L314.408 -152.461
L315.624 -117.874
L315.624 -84.9884
L315.624 -84.9884
L314.408 -84.9884
z
" id="m1889dd0d4b" style="stroke:#ff8e8e;stroke-opacity:0.3;"/>
    </defs>
    <g clip-path="url(#p39b1fcb95f)">
     <use style="fill:#ff8e8e;fill-opacity:0.3;stroke:#ff8e8e;stroke-opacity:0.3;" x="0.0" xlink:href="#m1889dd0d4b" y="402.37093541"/>
    </g>
   </g>
   <g id="PolyCollection_31">
    <defs>
     <path d="
M322.922 -84.9884
L322.922 -165.691
L324.138 -193.474
L324.138 -84.9884
L324.138 -84.9884
L322.922 -84.9884
z
" id="md0d80909a8" style="stroke:#ff8e8e;stroke-opacity:0.3;"/>
    </defs>
    <g clip-path="url(#p39b1fcb95f)">
     <use style="fill:#ff8e8e;fill-opacity:0.3;stroke:#ff8e8e;stroke-opacity:0.3;" x="0.0" xlink:href="#md0d80909a8" y="402.37093541"/>
    </g>
   </g>
   <g id="PolyCollection_32">
    <defs>
     <path d="
M331.437 -84.9884
L331.437 -131.104
L332.653 -127.135
L332.653 -84.9884
L332.653 -84.9884
L331.437 -84.9884
z
" id="m59b9ba9a12" style="stroke:#ff8e8e;stroke-opacity:0.3;"/>
    </defs>
    <g clip-path="url(#p39b1fcb95f)">
     <use style="fill:#ff8e8e;fill-opacity:0.3;stroke:#ff8e8e;stroke-opacity:0.3;" x="0.0" xlink:href="#m59b9ba9a12" y="402.37093541"/>
    </g>
   </g>
   <g id="PolyCollection_33">
    <defs>
     <path d="
M339.951 -84.9884
L339.951 -140.176
L341.167 -145.279
L341.167 -84.9884
L341.167 -84.9884
L339.951 -84.9884
z
" id="m1ac5656b47" style="stroke:#ff8e8e;stroke-opacity:0.3;"/>
    </defs>
    <g clip-path="url(#p39b1fcb95f)">
     <use style="fill:#ff8e8e;fill-opacity:0.3;stroke:#ff8e8e;stroke-opacity:0.3;" x="0.0" xlink:href="#m1ac5656b47" y="402.37093541"/>
    </g>
   </g>
   <g id="PolyCollection_34">
    <defs>
     <path d="
M348.465 -84.9884
L348.465 -157.564
L349.682 -138.097
L349.682 -84.9884
L349.682 -84.9884
L348.465 -84.9884
z
" id="mf973d4e22e" style="stroke:#ff8e8e;stroke-opacity:0.3;"/>
    </defs>
    <g clip-path="url(#p39b1fcb95f)">
     <use style="fill:#ff8e8e;fill-opacity:0.3;stroke:#ff8e8e;stroke-opacity:0.3;" x="0.0" xlink:href="#mf973d4e22e" y="402.37093541"/>
    </g>
   </g>
   <g id="PolyCollection_35">
    <defs>
     <path d="
M356.98 -84.9884
L356.98 -173.062
L358.196 -142.822
L358.196 -84.9884
L358.196 -84.9884
L356.98 -84.9884
z
" id="m7918f605b6" style="stroke:#ff8e8e;stroke-opacity:0.3;"/>
    </defs>
    <g clip-path="url(#p39b1fcb95f)">
     <use style="fill:#ff8e8e;fill-opacity:0.3;stroke:#ff8e8e;stroke-opacity:0.3;" x="0.0" xlink:href="#m7918f605b6" y="402.37093541"/>
    </g>
   </g>
   <g id="PolyCollection_36">
    <defs>
     <path d="
M365.494 -84.9884
L365.494 -162.1
L366.711 -144.901
L366.711 -84.9884
L366.711 -84.9884
L365.494 -84.9884
z
" id="mc0ce16c0fc" style="stroke:#ff8e8e;stroke-opacity:0.3;"/>
    </defs>
    <g clip-path="url(#p39b1fcb95f)">
     <use style="fill:#ff8e8e;fill-opacity:0.3;stroke:#ff8e8e;stroke-opacity:0.3;" x="0.0" xlink:href="#mc0ce16c0fc" y="402.37093541"/>
    </g>
   </g>
   <g id="PolyCollection_37">
    <defs>
     <path d="
M374.009 -84.9884
L374.009 -165.88
L375.225 -153.784
L375.225 -84.9884
L375.225 -84.9884
L374.009 -84.9884
z
" id="m915b8bdc48" style="stroke:#ff8e8e;stroke-opacity:0.3;"/>
    </defs>
    <g clip-path="url(#p39b1fcb95f)">
     <use style="fill:#ff8e8e;fill-opacity:0.3;stroke:#ff8e8e;stroke-opacity:0.3;" x="0.0" xlink:href="#m915b8bdc48" y="402.37093541"/>
    </g>
   </g>
   <g id="PolyCollection_38">
    <defs>
     <path d="
M382.523 -84.9884
L382.523 -147.925
L383.74 -145.279
L383.74 -84.9884
L383.74 -84.9884
L382.523 -84.9884
z
" id="m249b3e2a4c" style="stroke:#ff8e8e;stroke-opacity:0.3;"/>
    </defs>
    <g clip-path="url(#p39b1fcb95f)">
     <use style="fill:#ff8e8e;fill-opacity:0.3;stroke:#ff8e8e;stroke-opacity:0.3;" x="0.0" xlink:href="#m249b3e2a4c" y="402.37093541"/>
    </g>
   </g>
   <g id="PolyCollection_39">
    <defs>
     <path d="
M391.038 -84.9884
L391.038 -174.196
L392.254 -148.87
L392.254 -84.9884
L392.254 -84.9884
L391.038 -84.9884
z
" id="mf2e080293f" style="stroke:#ff8e8e;stroke-opacity:0.3;"/>
    </defs>
    <g clip-path="url(#p39b1fcb95f)">
     <use style="fill:#ff8e8e;fill-opacity:0.3;stroke:#ff8e8e;stroke-opacity:0.3;" x="0.0" xlink:href="#mf2e080293f" y="402.37093541"/>
    </g>
   </g>
   <g id="PolyCollection_40">
    <defs>
     <path d="
M399.552 -84.9884
L399.552 -168.715
L400.768 -144.334
L400.768 -84.9884
L400.768 -84.9884
L399.552 -84.9884
z
" id="m554ca79894" style="stroke:#ff8e8e;stroke-opacity:0.3;"/>
    </defs>
    <g clip-path="url(#p39b1fcb95f)">
     <use style="fill:#ff8e8e;fill-opacity:0.3;stroke:#ff8e8e;stroke-opacity:0.3;" x="0.0" xlink:href="#m554ca79894" y="402.37093541"/>
    </g>
   </g>
   <g id="PolyCollection_41">
    <defs>
     <path d="
M408.067 -84.9884
L408.067 -187.993
L409.283 -124.489
L409.283 -84.9884
L409.283 -84.9884
L408.067 -84.9884
z
" id="md4d4a9599d" style="stroke:#ff8e8e;stroke-opacity:0.3;"/>
    </defs>
    <g clip-path="url(#p39b1fcb95f)">
     <use style="fill:#ff8e8e;fill-opacity:0.3;stroke:#ff8e8e;stroke-opacity:0.3;" x="0.0" xlink:href="#md4d4a9599d" y="402.37093541"/>
    </g>
   </g>
   <g id="PolyCollection_42">
    <defs>
     <path d="
M416.581 -84.9884
L416.581 -171.361
L417.797 -201.601
L417.797 -84.9884
L417.797 -84.9884
L416.581 -84.9884
z
" id="mf524f46401" style="stroke:#ff8e8e;stroke-opacity:0.3;"/>
    </defs>
    <g clip-path="url(#p39b1fcb95f)">
     <use style="fill:#ff8e8e;fill-opacity:0.3;stroke:#ff8e8e;stroke-opacity:0.3;" x="0.0" xlink:href="#mf524f46401" y="402.37093541"/>
    </g>
   </g>
   <g id="PolyCollection_43">
    <defs>
     <path d="
M425.095 -84.9884
L425.095 -177.031
L426.312 -168.904
L426.312 -84.9884
L426.312 -84.9884
L425.095 -84.9884
z
" id="m54c3c4dc2f" style="stroke:#ff8e8e;stroke-opacity:0.3;"/>
    </defs>
    <g clip-path="url(#p39b1fcb95f)">
     <use style="fill:#ff8e8e;fill-opacity:0.3;stroke:#ff8e8e;stroke-opacity:0.3;" x="0.0" xlink:href="#m54c3c4dc2f" y="402.37093541"/>
    </g>
   </g>
   <g id="PolyCollection_44">
    <defs>
     <path d="
M433.61 -84.9884
L433.61 -147.547
L434.826 -166.069
L434.826 -84.9884
L434.826 -84.9884
L433.61 -84.9884
z
" id="m75da1c0f46" style="stroke:#ff8e8e;stroke-opacity:0.3;"/>
    </defs>
    <g clip-path="url(#p39b1fcb95f)">
     <use style="fill:#ff8e8e;fill-opacity:0.3;stroke:#ff8e8e;stroke-opacity:0.3;" x="0.0" xlink:href="#m75da1c0f46" y="402.37093541"/>
    </g>
   </g>
   <g id="PolyCollection_45">
    <defs>
     <path d="
M442.124 -84.9884
L442.124 -162.478
L443.341 -131.293
L443.341 -84.9884
L443.341 -84.9884
L442.124 -84.9884
z
" id="m4a8213b685" style="stroke:#ff8e8e;stroke-opacity:0.3;"/>
    </defs>
    <g clip-path="url(#p39b1fcb95f)">
     <use style="fill:#ff8e8e;fill-opacity:0.3;stroke:#ff8e8e;stroke-opacity:0.3;" x="0.0" xlink:href="#m4a8213b685" y="402.37093541"/>
    </g>
   </g>
   <g id="PolyCollection_46">
    <defs>
     <path d="
M450.639 -84.9884
L450.639 -175.519
L451.855 -125.434
L451.855 -84.9884
L451.855 -84.9884
L450.639 -84.9884
z
" id="m5a78c90e45" style="stroke:#ff8e8e;stroke-opacity:0.3;"/>
    </defs>
    <g clip-path="url(#p39b1fcb95f)">
     <use style="fill:#ff8e8e;fill-opacity:0.3;stroke:#ff8e8e;stroke-opacity:0.3;" x="0.0" xlink:href="#m5a78c90e45" y="402.37093541"/>
    </g>
   </g>
   <g id="PolyCollection_47">
    <defs>
     <path d="
M459.153 -84.9884
L459.153 -166.636
L460.37 -173.818
L460.37 -84.9884
L460.37 -84.9884
L459.153 -84.9884
z
" id="m1d6db3e342" style="stroke:#ff8e8e;stroke-opacity:0.3;"/>
    </defs>
    <g clip-path="url(#p39b1fcb95f)">
     <use style="fill:#ff8e8e;fill-opacity:0.3;stroke:#ff8e8e;stroke-opacity:0.3;" x="0.0" xlink:href="#m1d6db3e342" y="402.37093541"/>
    </g>
   </g>
   <g id="PolyCollection_48">
    <defs>
     <path d="
M467.668 -84.9884
L467.668 -170.983
L468.884 -145.468
L468.884 -84.9884
L468.884 -84.9884
L467.668 -84.9884
z
" id="ma93859e454" style="stroke:#ff8e8e;stroke-opacity:0.3;"/>
    </defs>
    <g clip-path="url(#p39b1fcb95f)">
     <use style="fill:#ff8e8e;fill-opacity:0.3;stroke:#ff8e8e;stroke-opacity:0.3;" x="0.0" xlink:href="#ma93859e454" y="402.37093541"/>
    </g>
   </g>
   <g id="PolyCollection_49">
    <defs>
     <path d="
M476.182 -84.9884
L476.182 -173.251
L477.398 -177.409
L477.398 -84.9884
L477.398 -84.9884
L476.182 -84.9884
z
" id="mfb9606eb0d" style="stroke:#ff8e8e;stroke-opacity:0.3;"/>
    </defs>
    <g clip-path="url(#p39b1fcb95f)">
     <use style="fill:#ff8e8e;fill-opacity:0.3;stroke:#ff8e8e;stroke-opacity:0.3;" x="0.0" xlink:href="#mfb9606eb0d" y="402.37093541"/>
    </g>
   </g>
   <g id="PolyCollection_50">
    <defs>
     <path d="
M484.696 -84.9884
L484.696 -146.035
L485.913 -147.547
L485.913 -84.9884
L485.913 -84.9884
L484.696 -84.9884
z
" id="m1a17f5b4e3" style="stroke:#ff8e8e;stroke-opacity:0.3;"/>
    </defs>
    <g clip-path="url(#p39b1fcb95f)">
     <use style="fill:#ff8e8e;fill-opacity:0.3;stroke:#ff8e8e;stroke-opacity:0.3;" x="0.0" xlink:href="#m1a17f5b4e3" y="402.37093541"/>
    </g>
   </g>
   <g id="PolyCollection_51">
    <defs>
     <path d="
M493.211 -84.9884
L493.211 -147.736
L494.427 -132.427
L494.427 -84.9884
L494.427 -84.9884
L493.211 -84.9884
z
" id="m9ff5756548" style="stroke:#ff8e8e;stroke-opacity:0.3;"/>
    </defs>
    <g clip-path="url(#p39b1fcb95f)">
     <use style="fill:#ff8e8e;fill-opacity:0.3;stroke:#ff8e8e;stroke-opacity:0.3;" x="0.0" xlink:href="#m9ff5756548" y="402.37093541"/>
    </g>
   </g>
   <g id="PolyCollection_52">
    <defs>
     <path d="
M501.725 -84.9884
L501.725 -170.983
L502.942 -154.918
L502.942 -84.9884
L502.942 -84.9884
L501.725 -84.9884
z
" id="mb04b14903a" style="stroke:#ff8e8e;stroke-opacity:0.3;"/>
    </defs>
    <g clip-path="url(#p39b1fcb95f)">
     <use style="fill:#ff8e8e;fill-opacity:0.3;stroke:#ff8e8e;stroke-opacity:0.3;" x="0.0" xlink:href="#mb04b14903a" y="402.37093541"/>
    </g>
   </g>
   <g id="PolyCollection_53">
    <defs>
     <path d="
M510.24 -84.9884
L510.24 -176.842
L511.456 -155.485
L511.456 -84.9884
L511.456 -84.9884
L510.24 -84.9884
z
" id="m02cfd9763a" style="stroke:#ff8e8e;stroke-opacity:0.3;"/>
    </defs>
    <g clip-path="url(#p39b1fcb95f)">
     <use style="fill:#ff8e8e;fill-opacity:0.3;stroke:#ff8e8e;stroke-opacity:0.3;" x="0.0" xlink:href="#m02cfd9763a" y="402.37093541"/>
    </g>
   </g>
   <g id="line2d_1">
    <path clip-path="url(#p39b1fcb95f)" d="
M66.2725 301.884
L67.4888 305.475
L68.7052 306.798
L69.9215 222.315
L71.1379 214.188
L72.3542 212.298
L73.5706 204.36
L74.7869 230.631
L76.0033 283.362
L77.2196 291.489
L78.436 214.377
L79.6523 212.865
L80.8687 195.666
L82.085 91.5275
L83.3014 246.507
L84.5177 294.324
L85.7341 290.544
L86.9504 197.367
L88.1668 196.422
L89.3831 191.508
L90.5995 203.982
L91.8158 150.495
L93.0322 284.685
L94.2485 279.393
L95.4649 208.14
L96.6812 187.728
L97.8976 180.924
L99.1139 183.759
L100.33 195.666
L101.547 280.716
L102.763 292.623
L103.979 189.429
L105.196 206.817
L106.412 210.975
L107.628 211.731
L108.845 180.735
L110.061 273.156
L111.277 285.63
L112.494 235.356
L113.71 200.202
L114.926 184.515
L116.143 201.147
L117.359 169.962
L118.575 275.802
L119.792 288.465
L121.008 223.071
L122.225 220.425
L123.441 195.288
L124.657 182.625
L125.874 210.975
L127.09 285.63
L128.306 284.874
L129.523 187.728
L130.739 197.745
L131.955 216.645
L133.172 201.903
L134.388 242.538
L135.604 293.001
L136.821 287.52
L139.253 157.677
L140.47 139.344
L141.686 135.942
L142.902 189.618
L144.119 296.592
L145.335 291.111
L146.552 280.905
L147.768 194.154
L148.984 118.743
L150.201 183.003
L151.417 198.879
L152.633 285.063
L153.85 274.29
L155.066 157.866
L156.282 183.759
L157.499 204.549
L158.715 171.285
L159.931 153.708
L161.148 278.637
L162.364 274.479
L163.58 203.604
L164.797 174.309
L166.013 165.615
L167.229 123.468
L168.446 189.051
L169.662 289.788
L170.878 275.613
L172.095 242.16
L173.311 192.264
L174.528 185.838
L175.744 188.673
L176.96 193.209
L178.177 259.359
L179.393 263.139
L180.609 209.085
L181.826 136.509
L183.042 180.168
L184.258 171.852
L185.475 146.904
L186.691 256.335
L187.907 276.747
L189.124 186.594
L190.34 199.257
L191.556 160.323
L192.773 211.164
L193.989 173.742
L195.205 295.458
L196.422 296.781
L197.638 199.068
L198.855 202.281
L200.071 186.216
L201.287 179.79
L202.504 184.515
L203.72 279.204
L204.936 285.63
L206.153 201.336
L207.369 196.233
L208.585 143.502
L209.802 142.935
L211.018 151.251
L212.234 273.156
L213.451 289.977
L214.667 183.759
L215.883 213.243
L217.1 287.52
L218.316 266.541
L219.532 269.754
L220.749 284.307
L221.965 279.96
L223.181 251.988
L224.398 232.332
L225.614 259.926
L226.831 118.365
L228.047 137.265
L229.263 255.201
L230.48 290.166
L231.696 114.396
L232.912 138.021
L234.129 116.853
L235.345 120.444
L236.561 139.533
L237.778 243.483
L238.994 277.503
L240.21 118.176
L241.427 113.829
L242.643 94.3625
L243.859 123.657
L245.076 130.272
L246.292 241.026
L247.508 235.923
L248.725 116.475
L249.941 155.22
L251.158 121.011
L252.374 140.856
L253.59 136.509
L254.807 241.215
L256.023 271.455
L257.239 148.605
L258.456 90.9605
L259.672 110.049
L260.888 107.97
L262.105 121.389
L263.321 237.246
L264.537 257.28
L265.754 146.526
L266.97 142.746
L268.186 97.9535
L269.403 80.3765
L270.619 118.554
L271.835 257.469
L273.052 266.73
L274.268 165.615
L275.484 100.599
L276.701 126.492
L277.917 126.87
L279.134 126.681
L280.35 231.009
L281.566 262.194
L282.783 152.952
L283.999 138.966
L285.215 101.733
L286.432 142.368
L287.648 88.6925
L288.864 220.047
L290.081 286.008
L291.297 198.69
L293.73 121.011
L294.946 64.1225
L296.162 160.323
L297.379 268.998
L298.595 292.434
L299.811 286.386
L301.028 165.804
L302.244 92.0945
L303.461 165.237
L304.677 129.138
L305.893 251.232
L307.11 294.513
L308.326 131.973
L309.542 160.512
L310.759 147.849
L311.975 106.836
L313.191 131.028
L314.408 249.909
L315.624 284.496
L316.84 152.196
L318.057 118.176
L319.273 76.5965
L320.489 127.059
L321.706 114.018
L322.922 236.679
L324.138 208.896
L325.355 148.038
L326.571 142.557
L327.787 183.003
L329.004 168.639
L330.22 145.77
L331.437 271.266
L332.653 275.235
L333.869 144.636
L335.086 164.103
L336.302 140.667
L337.518 124.035
L338.735 136.509
L339.951 262.194
L341.167 257.091
L342.384 136.509
L343.6 82.2665
L344.816 77.9195
L346.033 147.282
L347.249 86.8025
L348.465 244.806
L349.682 264.273
L350.898 140.289
L352.114 148.416
L353.331 174.876
L354.547 140.856
L355.764 150.306
L356.98 229.308
L358.196 259.548
L359.413 195.477
L360.629 158.433
L361.845 143.691
L363.062 253.311
L364.278 214.755
L365.494 240.27
L366.711 257.469
L367.927 155.598
L369.143 145.77
L370.36 176.955
L371.576 187.917
L372.792 269.565
L374.009 236.49
L375.225 248.586
L376.441 151.062
L377.658 157.866
L378.874 182.625
L380.09 177.9
L381.307 182.814
L382.523 254.445
L383.74 257.091
L384.956 182.814
L386.172 180.357
L387.389 144.825
L388.605 178.467
L389.821 144.825
L391.038 228.174
L392.254 253.5
L393.47 167.316
L394.687 106.836
L395.903 123.468
L397.119 105.324
L398.336 107.403
L399.552 233.655
L400.768 258.036
L401.985 88.6925
L403.201 131.973
L404.417 117.609
L405.634 124.224
L406.85 120.633
L408.067 214.377
L409.283 277.881
L410.499 58.8305
L411.716 77.9195
L412.932 117.42
L414.148 247.452
L415.365 209.652
L416.581 231.009
L417.797 200.769
L419.014 84.7235
L420.23 58.4525
L421.446 39.1745
L422.663 56.3735
L423.879 124.791
L425.095 225.339
L426.312 233.466
L427.528 108.537
L428.744 45.2225
L429.961 67.3355
L431.177 76.7855
L432.393 116.475
L433.61 254.823
L434.826 236.301
L436.043 91.3385
L437.259 83.4005
L438.475 102.678
L439.692 115.152
L440.908 128.949
L442.124 239.892
L443.341 271.077
L444.557 128.004
L445.773 93.0395
L446.99 85.1015
L448.206 102.678
L449.422 141.234
L450.639 226.851
L451.855 276.936
L453.071 100.788
L454.288 123.846
L455.504 114.585
L456.72 107.781
L457.937 66.0125
L459.153 235.734
L460.37 228.552
L461.586 132.918
L462.802 87.5585
L464.019 107.025
L465.235 131.028
L466.451 100.221
L467.668 231.387
L468.884 256.902
L470.1 102.489
L471.317 87.5585
L472.533 148.605
L473.749 115.53
L474.966 132.162
L476.182 229.119
L477.398 224.961
L478.615 149.361
L479.831 107.97
L481.047 117.42
L482.264 83.7785
L483.48 119.121
L484.696 256.335
L485.913 254.823
L487.129 168.261
L488.346 141.99
L489.562 148.794
L490.778 98.8985
L491.995 140.289
L493.211 254.634
L494.427 269.943
L495.644 135.375
L496.86 160.89
L498.076 97.1975
L499.293 113.451
L500.509 98.8985
L501.725 231.387
L502.942 247.452
L504.158 107.025
L505.374 125.169
L506.591 137.832
L507.807 155.409
L509.023 98.7095
L510.24 225.528
L511.456 246.885
L512.672 187.539
L512.672 187.539" style="fill:none;stroke:#0000ff;stroke-linecap:square;"/>
   </g>
   <g id="patch_3">
    <path d="
M66.2725 14.9825
L512.672 14.9825" style="fill:none;stroke:#000000;stroke-linecap:square;stroke-linejoin:miter;"/>
   </g>
   <g id="patch_4">
    <path d="
M512.673 317.382
L512.673 14.9825" style="fill:none;stroke:#000000;stroke-linecap:square;stroke-linejoin:miter;"/>
   </g>
   <g id="patch_5">
    <path d="
M66.2725 317.382
L512.672 317.382" style="fill:none;stroke:#000000;stroke-linecap:square;stroke-linejoin:miter;"/>
   </g>
   <g id="patch_6">
    <path d="
M66.2725 317.382
L66.2725 14.9825" style="fill:none;stroke:#000000;stroke-linecap:square;stroke-linejoin:miter;"/>
   </g>
   <g id="matplotlib.axis_1">
    <g id="xtick_1">
     <g id="line2d_2">
      <path clip-path="url(#p39b1fcb95f)" d="
M105.196 317.382
L105.196 14.9825" style="fill:none;stroke:#000000;stroke-dasharray:1.000000,3.000000;stroke-dashoffset:0.0;stroke-width:0.5;"/>
     </g>
     <g id="line2d_3">
      <defs>
       <path d="
M0 0
L0 -4" id="m93b0483c22" style="stroke:#000000;stroke-width:0.5;"/>
      </defs>
      <g>
       <use style="stroke:#000000;stroke-width:0.5;" x="105.195660763" xlink:href="#m93b0483c22" y="317.3825"/>
      </g>
     </g>
     <g id="line2d_4">
      <defs>
       <path d="
M0 0
L0 4" id="m741efc42ff" style="stroke:#000000;stroke-width:0.5;"/>
      </defs>
      <g>
       <use style="stroke:#000000;stroke-width:0.5;" x="105.195660763" xlink:href="#m741efc42ff" y="14.9825"/>
      </g>
     </g>
     <g id="text_1">
      <!-- окт. 2013 -->
      <defs>
       <path d="
M54.5938 0
L38.0312 0
Q36.8125 4 35.8281 6.85938
Q34.8594 9.71875 32.9531 13.4844
Q30.6719 18.0625 27.9062 20.1094
Q25.1406 22.1719 20.7969 22.1719
L19.6719 22.1719
L19.6719 8.6875
Q19.6719 7.03125 20.3594 5.95312
Q21.0469 4.89062 22.4062 4.29688
Q23.4375 3.8125 24.625 3.5625
Q25.8281 3.32812 27.0938 3.21875
L27.0938 0
L3.60938 0
L3.60938 3.21875
Q4.73438 3.32812 5.92188 3.42188
Q7.125 3.51562 8.01562 3.8125
Q9.375 4.25 10.0312 5.34375
Q10.6875 6.45312 10.6875 8.20312
L10.6875 39.4531
Q10.6875 41.0625 10 42.1562
Q9.32812 43.2656 7.95312 43.8438
Q6.6875 44.4375 5.48438 44.625
Q4.29688 44.8281 3.26562 44.9219
L3.26562 48.1406
L26.7656 48.1406
L26.7656 44.9219
Q25.3438 44.8281 24.2969 44.6719
Q23.25 44.5312 22.3594 44.3438
Q21 43.9531 20.3281 42.7969
Q19.6719 41.6562 19.6719 39.9375
L19.6719 25.8281
L22.75 25.8281
Q24.3594 25.8281 25.9688 26.4531
Q27.5938 27.0938 28.6562 28.2188
Q30.0312 29.6875 31.0938 32.0781
Q32.1719 34.4688 32.9062 36.5781
Q33.6875 38.7656 34.6875 41.1094
Q35.6875 43.4531 36.7188 44.7344
Q38.5312 46.9219 40.5938 47.8281
Q42.6719 48.7344 45.1719 48.7344
Q48.9219 48.7344 50.6719 47.125
Q52.4375 45.5156 52.4375 43.0625
Q52.4375 40.9688 51.0469 39.4531
Q49.6562 37.9375 47.3594 37.9375
Q45.1719 37.9375 43.9219 39.0625
Q42.6719 40.1875 40.4844 42.8281
Q39.5469 42 38.6875 39.3281
Q37.8438 36.6719 37.0625 34.6719
Q35.5938 30.7188 34.0469 28.5625
Q32.5156 26.4219 30.4688 25.0938
L30.4688 24.4688
Q34.9062 23.5781 37.5156 21.2344
Q40.1406 18.8906 41.9375 15.3281
Q42.8281 13.625 43.9219 11.1562
Q45.0156 8.6875 45.3594 7.90625
Q46.3438 5.71875 47.7031 4.90625
Q49.0781 4.10938 50.25 3.90625
Q51.375 3.65625 52.5156 3.48438
Q53.6562 3.32812 54.5938 3.21875
z
" id="Georgia-43a"/>
       <path id="Georgia-20"/>
       <path d="
M46 32.7188
L43.0156 32.7188
Q42.5781 34.0781 41.7188 35.9375
Q40.875 37.7969 39.8438 39.4531
Q38.7656 41.2656 37.4219 42.6562
Q36.0781 44.0469 34.625 44.2344
Q33.1094 44.3906 31.25 44.4531
Q29.3906 44.5312 28.0781 44.5312
L28.0781 8.6875
Q28.0781 7.03125 28.75 5.95312
Q29.4375 4.89062 30.8125 4.29688
Q31.8906 3.8125 33.25 3.5625
Q34.625 3.32812 35.9375 3.21875
L35.9375 0
L11.4219 0
L11.4219 3.21875
Q12.5469 3.32812 13.9844 3.42188
Q15.4375 3.51562 16.3125 3.8125
Q17.6719 4.25 18.3281 5.34375
Q19 6.45312 19 8.20312
L19 44.5312
Q17.4375 44.4844 15.4844 44.4062
Q13.5312 44.3438 12.4062 44.2344
Q11.1406 44.1406 9.6875 42.625
Q8.25 41.1094 7.17188 39.4531
Q6.15625 37.7969 5.26562 35.7656
Q4.39062 33.7344 4.04688 32.7188
L1.07812 32.7188
L1.07812 48.1406
L46 48.1406
z
" id="Georgia-442"/>
       <path d="
M39.5 0
L6.59375 0
L6.59375 3.46875
Q8.0625 3.5625 11.1562 3.875
Q14.2656 4.20312 15.4375 4.54688
Q16.9375 5.03125 17.75 6.125
Q18.5625 7.23438 18.5625 9.42188
L18.5625 43.7031
L6.39062 43.7031
L6.39062 47.7969
L9.07812 47.7969
Q14.3594 47.7969 18.5312 49.75
Q22.7031 51.7031 24.5156 53.9531
L28.5625 53.9531
Q28.4219 50.7812 28.2656 46.5312
Q28.125 42.2812 28.125 38.9219
L28.125 9.96875
Q28.125 8.25 28.875 6.90625
Q29.6406 5.5625 31.0625 4.9375
Q32.3281 4.39062 35.2031 3.95312
Q38.0938 3.51562 39.5 3.46875
z
" id="Georgia-31"/>
       <path d="
M50.4375 24.5625
Q50.4375 19.4844 48.8281 14.5781
Q47.2188 9.67188 44.2344 6.25
Q40.875 2.34375 36.4219 0.4375
Q31.9844 -1.46875 26.4688 -1.46875
Q21.875 -1.46875 17.7188 0.265625
Q13.5781 2 10.3594 5.32812
Q7.17188 8.59375 5.29688 13.2969
Q3.42188 18.0156 3.42188 23.875
Q3.42188 35.1562 9.98438 42.3281
Q16.5469 49.5156 27.2031 49.5156
Q37.3125 49.5156 43.875 42.7031
Q50.4375 35.8906 50.4375 24.5625
M40.3281 24.4688
Q40.3281 28.125 39.5938 32.2031
Q38.875 36.2812 37.4062 39.1094
Q35.8438 42.1406 33.2969 43.9688
Q30.7656 45.7969 27.0938 45.7969
Q23.3438 45.7969 20.6719 43.9375
Q18.0156 42.0938 16.3594 38.875
Q14.7969 35.8906 14.1562 32.0781
Q13.5312 28.2656 13.5312 24.7031
Q13.5312 20.0156 14.2812 16.0312
Q15.0469 12.0625 16.7031 8.9375
Q18.3594 5.8125 20.875 4.03125
Q23.3906 2.25 27.0938 2.25
Q33.2031 2.25 36.7656 8.15625
Q40.3281 14.0625 40.3281 24.4688" id="Georgia-43e"/>
       <path d="
M51.125 0
L5.375 0
L5.375 6.64062
Q6.6875 8.15625 9.03125 10.0312
Q11.375 11.9219 14.5938 14.1094
Q16.5469 15.4375 19.2812 17
Q22.0156 18.5625 25.4844 20.4062
Q29.3438 22.4688 31.4219 24.0312
Q33.5 25.5938 35.2031 27.875
Q36.3281 29.3906 37.0156 31.6562
Q37.7031 33.9375 37.7031 38.1406
Q37.7031 44.2344 34.4219 47.0938
Q31.1562 49.9531 26.0312 49.9531
Q22.8594 49.9531 20.0156 48.7031
Q17.1875 47.4688 15.7656 45.2656
Q16.1094 43.7031 16.625 41.5469
Q17.1406 39.4062 17.1406 37.3594
Q17.1406 35.5 15.5938 34.0625
Q14.0625 32.625 11.0312 32.625
Q8.59375 32.625 7.26562 34.2969
Q5.95312 35.9844 5.95312 38.8125
Q5.95312 41.4531 7.42188 44.1094
Q8.89062 46.7812 11.625 49.0312
Q14.3125 51.2188 18.2656 52.5781
Q22.2188 53.9531 26.8125 53.9531
Q36.8125 53.9531 42.6875 49.4844
Q48.5781 45.0156 48.5781 37.5469
Q48.5781 33.9844 47.5312 31.0469
Q46.4844 28.125 44.1406 25.875
Q41.5469 23.3906 38.0781 21.6094
Q34.625 19.8281 27.4844 16.6562
Q23.25 14.75 19.5781 12.6719
Q15.9219 10.5938 13.5781 8.64062
L51.125 8.64062
z
" id="Georgia-32"/>
       <path d="
M23.7812 -17.8281
Q19.1875 -17.8281 15.375 -16.6719
Q11.5781 -15.5312 8.84375 -13.5781
Q6.10938 -11.625 4.60938 -9.07812
Q3.125 -6.54688 3.125 -3.85938
Q3.125 -1.46875 4.29688 0.453125
Q5.46875 2.39062 8.0625 2.39062
Q10.9844 2.39062 12.5156 0.953125
Q14.0625 -0.484375 14.0625 -2.34375
Q14.0625 -3.90625 13.5469 -6.29688
Q13.0312 -8.6875 12.75 -9.71875
Q13.0938 -10.1562 13.9844 -10.8906
Q14.8906 -11.625 16.2188 -12.2031
Q17.7812 -12.9375 19.4844 -13.375
Q21.1875 -13.8125 24.3125 -13.8125
Q27.25 -13.8125 29.9531 -12.8281
Q32.6719 -11.8594 34.7188 -9.71875
Q36.8594 -7.46875 38.0625 -4.46875
Q39.2656 -1.46875 39.2656 3.42188
Q39.2656 6.0625 38.7031 8.64062
Q38.1406 11.2344 36.625 13.1406
Q35.1094 15.0469 32.5 16.0938
Q29.8906 17.1406 25.875 17.1406
L19.4844 17.1406
L19.4844 22.75
L23.7344 22.75
Q30.4688 22.75 33.4375 26.4531
Q36.4219 30.1719 36.4219 37.6406
Q36.4219 43.75 33.5469 46.8438
Q30.6719 49.9531 25.3906 49.9531
Q22.8594 49.9531 21.2188 49.3438
Q19.5781 48.7344 18.5625 48.1406
Q17.3281 47.4688 16.5469 46.625
Q15.7656 45.7969 15.375 45.4062
Q15.7188 43.8438 16.2031 41.5781
Q16.7031 39.3125 16.7031 37.25
Q16.7031 35.4531 15.1562 34
Q13.625 32.5625 10.6406 32.5625
Q8.0625 32.5625 6.85938 34.4219
Q5.67188 36.2812 5.67188 38.7188
Q5.67188 41.2656 7.07812 43.8906
Q8.5 46.5312 11.2812 48.8281
Q14.0625 51.125 18.0625 52.5312
Q22.0781 53.9531 27.2969 53.9531
Q33.2969 53.9531 37.2188 52.1719
Q41.1562 50.3906 43.4062 47.8594
Q45.6094 45.3594 46.4375 42.625
Q47.2656 39.8906 47.2656 37.9375
Q47.2656 35.5 46.5781 33.0312
Q45.9062 30.5625 44.3438 28.4688
Q42.625 26.1719 39.8125 24.2812
Q37.0156 22.4062 32.7656 21.2344
L32.7656 20.4531
Q35.5 20.2188 38.5938 19.2344
Q41.7031 18.2656 44.1875 16.3594
Q46.7812 14.3594 48.4375 11.2031
Q50.0938 8.0625 50.0938 3.21875
Q50.0938 -6.15625 42.5781 -11.9844
Q35.0625 -17.8281 23.7812 -17.8281" id="Georgia-33"/>
       <path d="
M20.2656 5.60938
Q20.2656 2.875 18.2812 0.9375
Q16.3125 -0.984375 13.5781 -0.984375
Q10.8438 -0.984375 8.85938 0.9375
Q6.89062 2.875 6.89062 5.60938
Q6.89062 8.34375 8.85938 10.3281
Q10.8438 12.3125 13.5781 12.3125
Q16.3125 12.3125 18.2812 10.3281
Q20.2656 8.34375 20.2656 5.60938" id="Georgia-2e"/>
       <path d="
M50.1406 45.6094
Q53.2656 41.8438 54.7969 36.7812
Q56.3438 31.7344 56.3438 26.2188
Q56.3438 19.5781 54.4375 14.3281
Q52.5469 9.07812 49.2188 5.60938
Q45.7969 2.04688 41.1094 0.234375
Q36.4219 -1.5625 30.6719 -1.5625
Q24.3594 -1.5625 19.4219 0.53125
Q14.5 2.64062 11.4219 6.29688
Q8.20312 10.1094 6.60938 15.2031
Q5.03125 20.3125 5.03125 26.2188
Q5.03125 32.0312 6.5625 36.9062
Q8.10938 41.7969 11.375 45.75
Q14.5 49.5625 19.4219 51.75
Q24.3594 53.9531 30.7188 53.9531
Q37.4062 53.9531 42.1875 51.7031
Q46.9688 49.4688 50.1406 45.6094
M45.5625 26.2188
Q45.5625 37.8438 41.5781 44.2344
Q37.5938 50.6406 30.7656 50.6406
Q23.8281 50.6406 19.8281 44.2344
Q15.8281 37.8438 15.8281 26.2188
Q15.8281 15.1875 19.6562 8.46875
Q23.4844 1.76562 30.6719 1.76562
Q37.8438 1.76562 41.7031 8.46875
Q45.5625 15.1875 45.5625 26.2188" id="Georgia-30"/>
      </defs>
      <g transform="translate(45.6123288537 365.255827259)rotate(-30.0)scale(0.16 -0.16)">
       <use xlink:href="#Georgia-43e"/>
       <use x="53.90625" xlink:href="#Georgia-43a"/>
       <use x="109.033203125" xlink:href="#Georgia-442"/>
       <use x="156.103515625" xlink:href="#Georgia-2e"/>
       <use x="183.056640625" xlink:href="#Georgia-20"/>
       <use x="207.177734375" xlink:href="#Georgia-32"/>
       <use x="263.037109375" xlink:href="#Georgia-30"/>
       <use x="324.4140625" xlink:href="#Georgia-31"/>
       <use x="367.3828125" xlink:href="#Georgia-33"/>
      </g>
     </g>
    </g>
    <g id="xtick_2">
     <g id="line2d_5">
      <path clip-path="url(#p39b1fcb95f)" d="
M179.393 317.382
L179.393 14.9825" style="fill:none;stroke:#000000;stroke-dasharray:1.000000,3.000000;stroke-dashoffset:0.0;stroke-width:0.5;"/>
     </g>
     <g id="line2d_6">
      <g>
       <use style="stroke:#000000;stroke-width:0.5;" x="179.392935967" xlink:href="#m93b0483c22" y="317.3825"/>
      </g>
     </g>
     <g id="line2d_7">
      <g>
       <use style="stroke:#000000;stroke-width:0.5;" x="179.392935967" xlink:href="#m741efc42ff" y="14.9825"/>
      </g>
     </g>
     <g id="text_2">
      <!-- дек. 2013 -->
      <defs>
       <path d="
M46.2969 11.3281
Q43.2656 5.5625 38.1875 2.14062
Q33.1094 -1.26562 26.5156 -1.26562
Q20.7031 -1.26562 16.3281 0.78125
Q11.9688 2.82812 9.125 6.34375
Q6.29688 9.85938 4.90625 14.5469
Q3.51562 19.2344 3.51562 24.4688
Q3.51562 29.1562 5 33.6719
Q6.5 38.1875 9.375 41.7969
Q12.1562 45.2656 16.2812 47.3906
Q20.4062 49.5156 25.5312 49.5156
Q30.8125 49.5156 34.5625 47.8438
Q38.3281 46.1875 40.6719 43.3125
Q42.9219 40.5781 44.0156 36.8594
Q45.125 33.1562 45.125 28.8125
L45.125 25.5938
L13.2344 25.5938
Q13.2344 20.8438 14.1406 16.9844
Q15.0469 13.1406 17 10.2031
Q18.8906 7.375 21.9688 5.73438
Q25.0469 4.10938 29.2969 4.10938
Q33.6406 4.10938 36.7812 6.125
Q39.9375 8.15625 42.875 13.4219
z

M35.5 29.6875
Q35.5 32.4219 35.0312 35.5469
Q34.5781 38.6719 33.5469 40.7656
Q32.4219 43.0156 30.4688 44.4219
Q28.5156 45.8438 25.4375 45.8438
Q20.3125 45.8438 16.9219 41.5781
Q13.5312 37.3125 13.2344 29.6875
z
" id="Georgia-435"/>
       <path d="
M5.46875 3.95312
Q10.2969 10.3594 13.8906 20.75
Q17.4844 31.1562 17.4844 37.7969
Q17.4844 40.3281 16.8438 41.5469
Q16.2188 42.7812 14.8438 43.4531
Q13.9219 43.9531 11.8125 44.3594
Q9.71875 44.7812 8.40625 44.9219
L8.40625 48.1406
L52.25 48.1406
L52.25 44.9219
Q50.8281 44.8281 49.7812 44.6719
Q48.7344 44.5312 47.8594 44.3438
Q46.4844 43.9531 45.8281 42.7969
Q45.1719 41.6562 45.1719 39.9375
L45.1719 8.73438
Q45.1719 6.15625 46.1719 5.04688
Q47.1719 3.95312 50.3906 3.95312
L53.5156 3.95312
L53.5156 -14.1094
L50 -14.1094
Q48.9688 -9.1875 46.5312 -4.78125
Q44.0938 -0.390625 41.2656 0.203125
L12.8906 0.203125
Q10.25 -0.25 7.53125 -4.6875
Q4.82812 -9.125 3.85938 -14.1094
L0.34375 -14.1094
L0.34375 3.95312
z

M11.0312 3.95312
L32.0781 3.95312
Q34.2344 3.95312 35.1562 4.70312
Q36.0781 5.46875 36.0781 7.03125
L36.0781 44.1406
L22.6562 44.1406
Q22.3594 31.7812 19.25 21.5
Q16.1562 11.2344 11.0312 3.95312" id="Georgia-434"/>
      </defs>
      <g transform="translate(119.350610594 365.520827259)rotate(-30.0)scale(0.16 -0.16)">
       <use xlink:href="#Georgia-434"/>
       <use x="55.95703125" xlink:href="#Georgia-435"/>
       <use x="104.296875" xlink:href="#Georgia-43a"/>
       <use x="159.423828125" xlink:href="#Georgia-2e"/>
       <use x="186.376953125" xlink:href="#Georgia-20"/>
       <use x="210.498046875" xlink:href="#Georgia-32"/>
       <use x="266.357421875" xlink:href="#Georgia-30"/>
       <use x="327.734375" xlink:href="#Georgia-31"/>
       <use x="370.703125" xlink:href="#Georgia-33"/>
      </g>
     </g>
    </g>
    <g id="xtick_3">
     <g id="line2d_8">
      <path clip-path="url(#p39b1fcb95f)" d="
M254.807 317.382
L254.807 14.9825" style="fill:none;stroke:#000000;stroke-dasharray:1.000000,3.000000;stroke-dashoffset:0.0;stroke-width:0.5;"/>
     </g>
     <g id="line2d_9">
      <g>
       <use style="stroke:#000000;stroke-width:0.5;" x="254.806559946" xlink:href="#m93b0483c22" y="317.3825"/>
      </g>
     </g>
     <g id="line2d_10">
      <g>
       <use style="stroke:#000000;stroke-width:0.5;" x="254.806559946" xlink:href="#m741efc42ff" y="14.9825"/>
      </g>
     </g>
     <g id="text_3">
      <!-- февр. 2014 -->
      <defs>
       <path d="
M47.5156 42.4375
Q50.3906 39.0156 51.9688 34.5
Q53.5625 29.9844 53.5625 24.1719
Q53.5625 18.4531 51.6562 13.7344
Q49.75 9.03125 46.625 5.71875
Q43.3594 2.34375 39.3594 0.53125
Q35.3594 -1.26562 30.8594 -1.26562
Q26.5156 -1.26562 23.7344 -0.28125
Q20.9531 0.6875 19.1875 2
L18.7969 2
L18.7969 -12.4531
Q18.7969 -14.2031 19.4844 -15.375
Q20.1719 -16.5469 21.5781 -17.0938
Q22.75 -17.5312 24.9219 -17.9375
Q27.0938 -18.3594 28.5156 -18.4062
L28.5156 -21.6875
L1.60938 -21.6875
L1.60938 -18.4062
Q3.125 -18.3125 4.53125 -18.1562
Q5.95312 -18.0156 7.07812 -17.6719
Q8.54688 -17.1875 9.125 -15.9688
Q9.71875 -14.75 9.71875 -13.0938
L9.71875 38.1406
Q9.71875 39.5938 8.98438 40.9531
Q8.25 42.3281 7.07812 43.1719
Q6.20312 43.75 4.64062 44.0625
Q3.07812 44.3906 1.60938 44.4844
L1.60938 47.6562
L18.0156 48.7344
L18.7031 48.1406
L18.7031 42.7188
L19.0938 42.625
Q21.625 45.5625 25.3906 47.5156
Q29.1562 49.4688 32.8594 49.4688
Q37.3594 49.4688 41.0938 47.5625
Q44.8281 45.6562 47.5156 42.4375
M39.5469 7.8125
Q41.5 10.8438 42.4219 14.8438
Q43.3594 18.8438 43.3594 23.7812
Q43.3594 27.3906 42.5781 31.1406
Q41.7969 34.9062 40.1406 37.7031
Q38.4844 40.5312 35.7969 42.2812
Q33.1094 44.0469 29.3438 44.0469
Q25.7344 44.0469 23.1875 42.4531
Q20.6562 40.875 18.7969 38.6719
L18.7969 10.2031
Q19.2344 8.89062 20.2344 7.46875
Q21.2344 6.0625 22.4688 5.03125
Q23.9688 3.8125 25.7188 3.04688
Q27.4844 2.29688 30.0312 2.29688
Q32.7656 2.29688 35.2969 3.73438
Q37.8438 5.17188 39.5469 7.8125" id="Georgia-440"/>
       <path d="
M38.3281 14.1562
Q38.3281 18.4531 35.1562 20.9375
Q31.9844 23.4375 26.0781 23.4375
Q23.4844 23.4375 22 23.3438
Q20.5156 23.25 19.6719 23.25
L19.6719 7.32812
Q19.6719 5.42188 21.2812 4.375
Q22.9062 3.32812 26.2188 3.32812
Q29.7344 3.32812 32.1719 4.25
Q34.625 5.17188 35.9844 6.78125
Q37.3125 8.34375 37.8125 10.2031
Q38.3281 12.0625 38.3281 14.1562
M48.0938 13.4219
Q48.0938 9.85938 46.4844 7.26562
Q44.875 4.6875 42.0469 3.03125
Q39.4531 1.51562 36.125 0.75
Q32.8125 0 29.0469 0
L3.60938 0
L3.60938 3.21875
Q4.73438 3.32812 5.92188 3.42188
Q7.125 3.51562 8.01562 3.8125
Q9.375 4.25 10.0312 5.34375
Q10.6875 6.45312 10.6875 8.20312
L10.6875 39.4531
Q10.6875 41.0625 10 42.1562
Q9.32812 43.2656 7.95312 43.8438
Q6.6875 44.4375 5.48438 44.625
Q4.29688 44.8281 3.26562 44.9219
L3.26562 48.1406
Q7.625 48.1406 14.0312 48.1875
Q20.4531 48.25 27.4375 48.25
Q31.1562 48.25 34.3438 47.7344
Q37.5469 47.2188 40.0469 46
Q42.625 44.7344 44.0312 42.5469
Q45.4531 40.375 45.4531 37.3125
Q45.4531 32.4688 42.4531 29.6562
Q39.4531 26.8594 34.5781 25.8281
L34.5781 25.2969
Q37.0625 24.9531 39.4688 24.1719
Q41.8906 23.3906 43.7969 22.0156
Q45.75 20.6094 46.9219 18.5312
Q48.0938 16.4531 48.0938 13.4219
M35.7969 36.9219
Q35.7969 39.3594 34.8906 40.8906
Q33.9844 42.4375 32.4688 43.3125
Q30.9531 44.1875 29.0781 44.5
Q27.2031 44.8281 25.2031 44.8281
Q23.9219 44.8281 22.375 44.75
Q20.8438 44.6719 19.6719 44.625
L19.6719 27.0469
L24.4219 27.0469
Q27.7812 27.0469 30.0781 27.8281
Q32.375 28.6094 33.5469 29.9375
Q34.7656 31.2031 35.2812 32.9531
Q35.7969 34.7188 35.7969 36.9219" id="Georgia-432"/>
       <path d="
M71.625 24.3125
Q71.625 18.4531 69.9375 13.7188
Q68.2656 8.98438 65.4375 5.85938
Q62.5 2.59375 58.7656 0.90625
Q55.0312 -0.78125 50.5938 -0.78125
Q48.1875 -0.78125 46.0938 -0.171875
Q44 0.4375 42.4375 1.21875
L42.1875 1.21875
L42.1875 -12.4531
Q42.1875 -14.2031 42.875 -15.375
Q43.5625 -16.5469 44.9688 -17.0938
Q46.1406 -17.5312 48.1406 -17.9375
Q50.1406 -18.3594 51.4219 -18.4062
L51.4219 -21.6875
L24.5156 -21.6875
L24.5156 -18.4062
Q26.0312 -18.3125 27.6875 -18.1562
Q29.3438 -18.0156 30.4688 -17.6719
Q31.9375 -17.1875 32.5156 -15.9688
Q33.1094 -14.75 33.1094 -13.0938
L33.1094 1.21875
L32.8594 1.21875
Q31.1094 0.390625 29.2969 -0.1875
Q27.4844 -0.78125 24.7031 -0.78125
Q20.4062 -0.78125 16.5781 0.84375
Q12.75 2.48438 9.85938 5.67188
Q6.98438 8.84375 5.3125 13.4531
Q3.65625 18.0625 3.65625 23.9219
Q3.65625 29.5469 5.26562 34.2344
Q6.89062 38.9219 9.8125 42.2812
Q12.5469 45.4531 16.5312 47.2031
Q20.5156 48.9688 24.7031 48.9688
Q27.0469 48.9688 29.0938 48.375
Q31.1562 47.7969 32.8594 46.9688
L33.1094 46.9688
L33.1094 61.2812
Q33.1094 62.9844 32.4375 64.2031
Q31.7812 65.4375 30.4688 66.3125
Q29.5938 66.8906 28.0469 67.2031
Q26.5156 67.5312 25 67.625
L25 70.7969
L41.5 71.875
L42.1875 71.2969
L42.1875 46.9688
L42.4375 46.9688
Q43.7031 47.6562 46.1406 48.3125
Q48.5781 48.9688 50.5938 48.9688
Q55.0312 48.9688 58.8281 47.3281
Q62.6406 45.7031 65.5312 42.4844
Q68.4062 39.3125 70.0156 34.7188
Q71.625 30.125 71.625 24.3125
M61.6719 24.3125
Q61.6719 29.7812 60.7812 33.7344
Q59.9062 37.7031 58.25 40.2344
Q56.5469 42.8281 54.2656 43.9688
Q52 45.125 49.1719 45.125
Q46.6875 45.125 45.1719 44.4375
Q43.6562 43.75 42.1875 42.625
L42.1875 5.5625
Q43.7031 4.39062 45.0156 3.73438
Q46.3438 3.07812 49.1719 3.07812
Q51.9062 3.07812 54.25 4.29688
Q56.5938 5.51562 58.2031 8.20312
Q60.0156 11.1406 60.8438 15.1406
Q61.6719 19.1406 61.6719 24.3125
M33.1094 5.5625
L33.1094 42.625
Q31.8438 43.6562 30.0469 44.3906
Q28.2656 45.125 26.125 45.125
Q23.3438 45.125 21.0625 43.8906
Q18.7969 42.6719 17.0938 40.0469
Q15.4375 37.4531 14.5312 33.4219
Q13.625 29.3906 13.625 23.9219
Q13.625 18.3594 14.5312 14.4531
Q15.4375 10.5469 17.0938 8.01562
Q18.7031 5.46875 21.0156 4.26562
Q23.3438 3.07812 26.125 3.07812
Q28.4688 3.07812 30.1719 3.8125
Q31.8906 4.54688 33.1094 5.5625" id="Georgia-444"/>
       <path d="
M52.9375 4.39062
L43.0156 4.39062
L43.0156 -17.8281
L33.6406 -17.8281
L33.6406 4.39062
L2.39062 4.39062
L2.39062 11.9219
L36.625 53.6562
L43.0156 53.6562
L43.0156 10.7969
L52.9375 10.7969
z

M33.6406 10.7969
L33.6406 42.7812
L7.28125 10.7969
z
" id="Georgia-34"/>
      </defs>
      <g transform="translate(184.233365662 371.600827259)rotate(-30.0)scale(0.16 -0.16)">
       <use xlink:href="#Georgia-444"/>
       <use x="75.29296875" xlink:href="#Georgia-435"/>
       <use x="123.6328125" xlink:href="#Georgia-432"/>
       <use x="175.439453125" xlink:href="#Georgia-440"/>
       <use x="232.568359375" xlink:href="#Georgia-2e"/>
       <use x="259.521484375" xlink:href="#Georgia-20"/>
       <use x="283.642578125" xlink:href="#Georgia-32"/>
       <use x="339.501953125" xlink:href="#Georgia-30"/>
       <use x="400.87890625" xlink:href="#Georgia-31"/>
       <use x="443.84765625" xlink:href="#Georgia-34"/>
      </g>
     </g>
    </g>
    <g id="xtick_4">
     <g id="line2d_11">
      <path clip-path="url(#p39b1fcb95f)" d="
M326.571 317.382
L326.571 14.9825" style="fill:none;stroke:#000000;stroke-dasharray:1.000000,3.000000;stroke-dashoffset:0.0;stroke-width:0.5;"/>
     </g>
     <g id="line2d_12">
      <g>
       <use style="stroke:#000000;stroke-width:0.5;" x="326.571137602" xlink:href="#m93b0483c22" y="317.3825"/>
      </g>
     </g>
     <g id="line2d_13">
      <g>
       <use style="stroke:#000000;stroke-width:0.5;" x="326.571137602" xlink:href="#m741efc42ff" y="14.9825"/>
      </g>
     </g>
     <g id="text_4">
      <!-- апр. 2014 -->
      <defs>
       <path d="
M49.125 0.875
Q46.8281 0.046875 45.0938 -0.46875
Q43.3594 -0.984375 41.1562 -0.984375
Q37.3594 -0.984375 35.0781 0.796875
Q32.8125 2.59375 32.1719 6
L31.8906 6
Q28.7188 2.48438 25.0781 0.625
Q21.4375 -1.21875 16.3125 -1.21875
Q10.8906 -1.21875 7.39062 2.09375
Q3.90625 5.42188 3.90625 10.7969
Q3.90625 13.5781 4.6875 15.7656
Q5.46875 17.9688 7.03125 19.7344
Q8.25 21.1875 10.25 22.3281
Q12.25 23.4844 14.0156 24.1719
Q16.2188 25 22.9219 27.25
Q29.6406 29.5 31.9844 30.7656
L31.9844 35.5938
Q31.9844 36.2344 31.7188 38.0312
Q31.4531 39.8438 30.5625 41.4531
Q29.5938 43.2656 27.8125 44.6094
Q26.0312 45.9531 22.75 45.9531
Q20.5156 45.9531 18.5781 45.1875
Q16.6562 44.4375 15.875 43.6094
Q15.875 42.625 16.3281 40.7188
Q16.7969 38.8125 16.7969 37.2031
Q16.7969 35.5 15.25 34.0781
Q13.7188 32.6719 10.9844 32.6719
Q8.54688 32.6719 7.39062 34.4062
Q6.25 36.1406 6.25 38.2812
Q6.25 40.5312 7.82812 42.5781
Q9.42188 44.625 11.9688 46.2344
Q14.1562 47.6094 17.2812 48.5625
Q20.4062 49.5156 23.3906 49.5156
Q27.4844 49.5156 30.5312 48.9531
Q33.5938 48.3906 36.0781 46.5312
Q38.5781 44.7344 39.8594 41.625
Q41.1562 38.5312 41.1562 33.6406
Q41.1562 26.6562 41.0156 21.2656
Q40.875 15.875 40.875 9.46875
Q40.875 7.5625 41.5312 6.4375
Q42.1875 5.32812 43.5625 4.54688
Q44.2812 4.10938 45.875 4.04688
Q47.4688 4 49.125 4
z

M32.0781 26.6562
Q27.9375 25.4375 24.8125 24.2656
Q21.6875 23.0938 19 21.3438
Q16.5469 19.6719 15.125 17.4062
Q13.7188 15.1406 13.7188 12.0156
Q13.7188 7.95312 15.8438 6.04688
Q17.9688 4.15625 21.2344 4.15625
Q24.7031 4.15625 27.3438 5.82812
Q29.9844 7.51562 31.7812 9.8125
z
" id="Georgia-430"/>
       <path d="
M56.7344 0
L33.2031 0
L33.2031 3.21875
Q34.3281 3.32812 35.5 3.42188
Q36.6719 3.51562 37.5469 3.8125
Q38.9219 4.25 39.6406 5.34375
Q40.375 6.45312 40.375 8.20312
L40.375 44.1406
L19.7812 44.1406
L19.7812 8.6875
Q19.7812 7.03125 20.4531 5.95312
Q21.1406 4.89062 22.5156 4.29688
Q23.5312 3.8125 24.7031 3.5625
Q25.875 3.32812 27.1562 3.21875
L27.1562 0
L3.60938 0
L3.60938 3.21875
Q4.73438 3.32812 5.92188 3.42188
Q7.125 3.51562 8.01562 3.8125
Q9.375 4.25 10.0312 5.34375
Q10.6875 6.45312 10.6875 8.20312
L10.6875 39.4531
Q10.6875 41.0625 10 42.1562
Q9.32812 43.2656 7.95312 43.8438
Q6.6875 44.4375 5.48438 44.625
Q4.29688 44.8281 3.26562 44.9219
L3.26562 48.1406
L56.5469 48.1406
L56.5469 44.9219
Q55.125 44.8281 54.0781 44.6719
Q53.0312 44.5312 52.1562 44.3438
Q50.7812 43.9531 50.125 42.7969
Q49.4688 41.6562 49.4688 39.9375
L49.4688 8.6875
Q49.4688 6.98438 50.0469 5.9375
Q50.6406 4.89062 52.0469 4.29688
Q53.0781 3.8125 54.2656 3.5625
Q55.4688 3.32812 56.7344 3.21875
z
" id="Georgia-43f"/>
      </defs>
      <g transform="translate(264.991617137 366.408327259)rotate(-30.0)scale(0.16 -0.16)">
       <use xlink:href="#Georgia-430"/>
       <use x="50.390625" xlink:href="#Georgia-43f"/>
       <use x="110.546875" xlink:href="#Georgia-440"/>
       <use x="167.67578125" xlink:href="#Georgia-2e"/>
       <use x="194.62890625" xlink:href="#Georgia-20"/>
       <use x="218.75" xlink:href="#Georgia-32"/>
       <use x="274.609375" xlink:href="#Georgia-30"/>
       <use x="335.986328125" xlink:href="#Georgia-31"/>
       <use x="378.955078125" xlink:href="#Georgia-34"/>
      </g>
     </g>
    </g>
    <g id="xtick_5">
     <g id="line2d_14">
      <path clip-path="url(#p39b1fcb95f)" d="
M400.768 317.382
L400.768 14.9825" style="fill:none;stroke:#000000;stroke-dasharray:1.000000,3.000000;stroke-dashoffset:0.0;stroke-width:0.5;"/>
     </g>
     <g id="line2d_15">
      <g>
       <use style="stroke:#000000;stroke-width:0.5;" x="400.768412807" xlink:href="#m93b0483c22" y="317.3825"/>
      </g>
     </g>
     <g id="line2d_16">
      <g>
       <use style="stroke:#000000;stroke-width:0.5;" x="400.768412807" xlink:href="#m741efc42ff" y="14.9825"/>
      </g>
     </g>
     <g id="text_5">
      <!-- июня 2014 -->
      <defs>
       <path d="
M57.8125 0
L34.4219 0
L34.4219 3.21875
Q35.5469 3.32812 36.7344 3.42188
Q37.9375 3.51562 38.8125 3.8125
Q40.1875 4.25 40.9219 5.34375
Q41.6562 6.45312 41.6562 8.20312
L41.6562 33.5
L19.4844 9.51562
L19.4844 8.6875
Q19.4844 7.03125 20.1562 5.95312
Q20.8438 4.89062 22.2188 4.29688
Q23.2969 3.8125 24.4844 3.5625
Q25.6875 3.32812 27 3.21875
L27 0
L3.60938 0
L3.60938 3.21875
Q4.73438 3.32812 5.92188 3.42188
Q7.125 3.51562 8.01562 3.8125
Q9.375 4.25 10.0312 5.34375
Q10.6875 6.45312 10.6875 8.20312
L10.6875 39.4531
Q10.6875 41.0625 10 42.1562
Q9.32812 43.2656 7.95312 43.8438
Q6.6875 44.4375 5.48438 44.625
Q4.29688 44.8281 3.26562 44.9219
L3.26562 48.1406
L26.6562 48.1406
L26.6562 44.9219
Q25.25 44.8281 24.1875 44.6719
Q23.1406 44.5312 22.2656 44.3438
Q20.9062 43.9531 20.2344 42.7969
Q19.5781 41.6562 19.5781 39.9375
L19.5781 15.0469
L41.75 39.0625
Q41.75 41.2188 41.0625 42.2344
Q40.375 43.2656 39.0156 43.8438
Q37.75 44.4375 36.5 44.625
Q35.25 44.8281 34.2344 44.9219
L34.2344 48.1406
L57.625 48.1406
L57.625 44.9219
Q56.2031 44.8281 55.1562 44.6719
Q54.1094 44.5312 53.2188 44.3438
Q51.8594 43.9531 51.1875 42.7969
Q50.5312 41.6562 50.5312 39.9375
L50.5312 8.6875
Q50.5312 6.98438 51.1094 5.9375
Q51.7031 4.89062 53.125 4.29688
Q54.1562 3.8125 55.3438 3.5625
Q56.5469 3.32812 57.8125 3.21875
z
" id="Georgia-438"/>
       <path d="
M62.4062 8.79688
Q63.9219 11.8594 64.6406 15.7969
Q65.375 19.7344 65.375 24.4688
Q65.375 28.4688 64.7812 32.25
Q64.2031 36.0312 62.7031 39.1094
Q61.2344 42.1406 58.7656 43.9688
Q56.2969 45.7969 52.6406 45.7969
Q48.6875 45.7969 46.1406 43.8438
Q43.6094 41.8906 42.1406 38.875
Q40.6719 35.9375 40.0781 32.1719
Q39.5 28.4219 39.5 24.7031
Q39.5 20.1719 40.2031 16.0938
Q40.9219 12.0156 42.4844 8.9375
Q44.0469 5.8125 46.4844 4.03125
Q48.9219 2.25 52.6406 2.25
Q55.9531 2.25 58.4219 4.03125
Q60.8906 5.8125 62.4062 8.79688
M36.4219 5.21875
Q33.4062 8.54688 31.6875 13.1094
Q29.9844 17.6719 29.8906 23.5312
L19.6719 23.5312
L19.6719 8.6875
Q19.6719 7.03125 20.3594 5.95312
Q21.0469 4.89062 22.4062 4.29688
Q23.4375 3.8125 24.625 3.5625
Q25.8281 3.32812 27.0938 3.21875
L27.0938 0
L3.60938 0
L3.60938 3.21875
Q4.73438 3.32812 5.92188 3.42188
Q7.125 3.51562 8.01562 3.8125
Q9.375 4.25 10.0312 5.34375
Q10.6875 6.45312 10.6875 8.20312
L10.6875 39.4531
Q10.6875 41.0625 10 42.1562
Q9.32812 43.2656 7.95312 43.8438
Q6.6875 44.4375 5.48438 44.625
Q4.29688 44.8281 3.26562 44.9219
L3.26562 48.1406
L26.7656 48.1406
L26.7656 44.9219
Q25.3438 44.8281 24.2969 44.6719
Q23.25 44.5312 22.3594 44.3438
Q21 43.9531 20.3281 42.7969
Q19.6719 41.6562 19.6719 39.9375
L19.6719 27.5469
L30.0312 27.5469
Q30.9531 37.3125 36.9844 43.4062
Q43.0156 49.5156 52.7344 49.5156
Q58.1562 49.5156 62.375 47.5625
Q66.6094 45.6094 69.4375 42.3906
Q72.4062 39.0156 73.9375 34.5469
Q75.4844 30.0781 75.4844 24.5625
Q75.4844 19.3906 73.9375 14.5469
Q72.4062 9.71875 69.4844 6.25
Q66.4062 2.64062 62.1562 0.578125
Q57.9062 -1.46875 52 -1.46875
Q47.4688 -1.46875 43.4531 0.265625
Q39.4531 2 36.4219 5.21875" id="Georgia-44e"/>
       <path d="
M35.0156 25.2969
L35.0156 44.6719
L29.5469 44.6719
Q24.4219 44.6719 21.0469 42.2812
Q17.6719 39.8906 17.6719 35.2031
Q17.6719 30.375 21.2344 27.8281
Q24.8125 25.2969 31.3906 25.2969
z

M20.2656 23.25
L20.2656 23.5312
Q13.6719 24.8594 10.6719 27.9062
Q7.67188 30.9531 7.67188 35.6406
Q7.67188 41.4062 12.8594 44.7656
Q18.0625 48.1406 26.0312 48.1406
L51.1719 48.1406
L51.1719 44.9219
Q49.75 44.8281 48.7031 44.6719
Q47.6562 44.5312 46.7812 44.3438
Q45.4062 43.9531 44.75 42.7969
Q44.0938 41.6562 44.0938 39.9375
L44.0938 8.6875
Q44.0938 6.98438 44.6719 5.9375
Q45.2656 4.89062 46.6875 4.29688
Q47.7031 3.8125 48.8906 3.5625
Q50.0938 3.32812 51.375 3.21875
L51.375 0
L27.7812 0
L27.7812 3.21875
Q28.9062 3.32812 30.0938 3.42188
Q31.2969 3.51562 32.1719 3.8125
Q33.5469 4.25 34.2812 5.34375
Q35.0156 6.45312 35.0156 8.20312
L35.0156 21.7344
L32.9531 21.7344
Q28.4219 21.7344 25.8594 20
Q23.2969 18.2656 20.9531 13.4844
Q19.2344 9.90625 18.1406 6.875
Q17.0469 3.85938 15.875 0
L-0.59375 0
L-0.59375 3.21875
Q0.53125 3.375 1.53125 3.51562
Q2.54688 3.65625 3.71875 3.85938
Q5.21875 4.15625 6.46875 5.03125
Q7.71875 5.90625 8.64062 7.90625
Q9.125 9.03125 9.98438 10.9062
Q10.8438 12.7969 12.0156 15.1406
Q13.5781 18.2188 15.5 20.1719
Q17.4375 22.125 20.2656 23.25" id="Georgia-44f"/>
       <path d="
M57.4688 0
L33.9375 0
L33.9375 3.21875
Q35.0625 3.32812 36.25 3.42188
Q37.4531 3.51562 38.3281 3.8125
Q39.7031 4.25 40.4219 5.34375
Q41.1562 6.45312 41.1562 8.20312
L41.1562 23.5312
L19.7344 23.5312
L19.7344 8.6875
Q19.7344 7.03125 20.4062 5.95312
Q21.0938 4.89062 22.4688 4.29688
Q23.4844 3.8125 24.6719 3.5625
Q25.875 3.32812 27.1562 3.21875
L27.1562 0
L3.60938 0
L3.60938 3.21875
Q4.73438 3.32812 5.92188 3.42188
Q7.125 3.51562 8.01562 3.8125
Q9.375 4.25 10.0312 5.34375
Q10.6875 6.45312 10.6875 8.20312
L10.6875 39.4531
Q10.6875 41.0625 10 42.1562
Q9.32812 43.2656 7.95312 43.8438
Q6.6875 44.4375 5.48438 44.625
Q4.29688 44.8281 3.26562 44.9219
L3.26562 48.1406
L26.8125 48.1406
L26.8125 44.9219
Q25.3906 44.8281 24.3438 44.6719
Q23.2969 44.5312 22.4062 44.3438
Q21.0469 43.9531 20.3906 42.7969
Q19.7344 41.6562 19.7344 39.9375
L19.7344 27.5469
L41.1562 27.5469
L41.1562 39.4531
Q41.1562 41.0625 40.4688 42.1562
Q39.7969 43.2656 38.4219 43.8438
Q37.1562 44.4375 35.9531 44.625
Q34.7656 44.8281 33.7344 44.9219
L33.7344 48.1406
L57.2812 48.1406
L57.2812 44.9219
Q55.8594 44.8281 54.8125 44.6719
Q53.7656 44.5312 52.875 44.3438
Q51.5156 43.9531 50.8594 42.7969
Q50.2031 41.6562 50.2031 39.9375
L50.2031 8.6875
Q50.2031 6.98438 50.7812 5.9375
Q51.375 4.89062 52.7812 4.29688
Q53.8125 3.8125 55 3.5625
Q56.2031 3.32812 57.4688 3.21875
z
" id="Georgia-43d"/>
      </defs>
      <g transform="translate(330.704008448 371.307077259)rotate(-30.0)scale(0.16 -0.16)">
       <use xlink:href="#Georgia-438"/>
       <use x="61.23046875" xlink:href="#Georgia-44e"/>
       <use x="140.185546875" xlink:href="#Georgia-43d"/>
       <use x="201.07421875" xlink:href="#Georgia-44f"/>
       <use x="255.859375" xlink:href="#Georgia-20"/>
       <use x="279.98046875" xlink:href="#Georgia-32"/>
       <use x="335.83984375" xlink:href="#Georgia-30"/>
       <use x="397.216796875" xlink:href="#Georgia-31"/>
       <use x="440.185546875" xlink:href="#Georgia-34"/>
      </g>
     </g>
    </g>
    <g id="xtick_6">
     <g id="line2d_17">
      <path clip-path="url(#p39b1fcb95f)" d="
M474.966 317.382
L474.966 14.9825" style="fill:none;stroke:#000000;stroke-dasharray:1.000000,3.000000;stroke-dashoffset:0.0;stroke-width:0.5;"/>
     </g>
     <g id="line2d_18">
      <g>
       <use style="stroke:#000000;stroke-width:0.5;" x="474.965688011" xlink:href="#m93b0483c22" y="317.3825"/>
      </g>
     </g>
     <g id="line2d_19">
      <g>
       <use style="stroke:#000000;stroke-width:0.5;" x="474.965688011" xlink:href="#m741efc42ff" y="14.9825"/>
      </g>
     </g>
     <g id="text_6">
      <!-- авг. 2014 -->
      <defs>
       <path d="
M27.875 0
L3.60938 0
L3.60938 3.21875
Q4.73438 3.32812 5.92188 3.42188
Q7.125 3.51562 8.01562 3.8125
Q9.375 4.25 10.0312 5.34375
Q10.6875 6.45312 10.6875 8.20312
L10.6875 39.4531
Q10.6875 41.0625 10 42.1562
Q9.32812 43.2656 7.95312 43.8438
Q6.6875 44.4375 5.3125 44.625
Q3.95312 44.8281 2.98438 44.9219
L2.98438 48.1406
L43.1094 48.1406
L43.1094 32.1719
L40.0938 32.1719
Q39.75 33.25 38.8594 35.2969
Q37.9844 37.3594 36.8594 39.1562
Q35.75 41.1094 34.4062 42.5469
Q33.0625 44 31.5938 44.1875
Q30.2188 44.3438 28.2656 44.4062
Q26.3125 44.4844 24.9531 44.4844
L19.7812 44.4844
L19.7812 8.6875
Q19.7812 7.03125 20.4531 5.95312
Q21.1406 4.89062 22.5156 4.29688
Q23.5781 3.8125 25.0625 3.5625
Q26.5625 3.32812 27.875 3.21875
z
" id="Georgia-433"/>
      </defs>
      <g transform="translate(416.360964808 364.690827259)rotate(-30.0)scale(0.16 -0.16)">
       <use xlink:href="#Georgia-430"/>
       <use x="50.390625" xlink:href="#Georgia-432"/>
       <use x="102.197265625" xlink:href="#Georgia-433"/>
       <use x="146.19140625" xlink:href="#Georgia-2e"/>
       <use x="173.14453125" xlink:href="#Georgia-20"/>
       <use x="197.265625" xlink:href="#Georgia-32"/>
       <use x="253.125" xlink:href="#Georgia-30"/>
       <use x="314.501953125" xlink:href="#Georgia-31"/>
       <use x="357.470703125" xlink:href="#Georgia-34"/>
      </g>
     </g>
    </g>
    <g id="text_7">
     <!-- Дата -->
     <defs>
      <path d="
M47.75 8.64062
L47.75 65.1875
L28.3281 65.1875
Q28.3281 47.75 23.9531 31.4844
Q19.5781 15.2344 12.9375 4.25
L43.2188 4.25
Q45.5625 4.25 46.6562 5.3125
Q47.75 6.39062 47.75 8.64062
M14.6562 0.140625
Q12.7031 -0.09375 10.8594 -2.0625
Q9.03125 -4.04688 7.5625 -6.59375
Q6.20312 -8.9375 5.125 -11.7969
Q4.04688 -14.6562 3.60938 -16.1562
L-0.046875 -16.1562
L-0.046875 4.25
L6.6875 4.25
Q12.5938 13.1406 17.4531 28.4688
Q22.3125 43.7969 22.3125 55.7656
Q22.3125 59.4219 21.6562 61.3438
Q21 63.2812 19.1406 64.1562
Q17.9219 64.75 15.2812 65.2031
Q12.6406 65.6719 11.4219 65.8281
L11.4219 69.2812
L67.2344 69.2812
L67.2344 65.8281
Q65.875 65.7656 63.8906 65.375
Q61.9219 64.9844 60.9375 64.6562
Q59.2812 64.0625 58.7188 62.6875
Q58.1562 61.3281 58.1562 59.7188
L58.1562 9.03125
Q58.1562 6.29688 59.5156 5.25
Q60.8906 4.20312 63.9219 4.20312
L68.0156 4.20312
L68.0156 -16.1562
L64.3594 -16.1562
Q63.875 -14.2656 63.0938 -11.9688
Q62.3125 -9.67188 60.6406 -6.59375
Q59.1875 -3.85938 57.5625 -2
Q55.9531 -0.140625 53.8125 0.140625
z
" id="Georgia-414"/>
     </defs>
     <g transform="translate(271.96375 391.70093541)scale(0.16 -0.16)">
      <use xlink:href="#Georgia-414"/>
      <use x="72.216796875" xlink:href="#Georgia-430"/>
      <use x="122.607421875" xlink:href="#Georgia-442"/>
      <use x="169.677734375" xlink:href="#Georgia-430"/>
     </g>
    </g>
   </g>
   <g id="matplotlib.axis_2">
    <g id="ytick_1">
     <g id="line2d_20">
      <path clip-path="url(#p39b1fcb95f)" d="
M66.2725 317.382
L512.673 317.382" style="fill:none;stroke:#000000;stroke-dasharray:1.000000,3.000000;stroke-dashoffset:0.0;stroke-width:0.5;"/>
     </g>
     <g id="line2d_21">
      <defs>
       <path d="
M0 0
L4 0" id="m728421d6d4" style="stroke:#000000;stroke-width:0.5;"/>
      </defs>
      <g>
       <use style="stroke:#000000;stroke-width:0.5;" x="66.2725" xlink:href="#m728421d6d4" y="317.3825"/>
      </g>
     </g>
     <g id="line2d_22">
      <defs>
       <path d="
M0 0
L-4 0" id="mcb0005524f" style="stroke:#000000;stroke-width:0.5;"/>
      </defs>
      <g>
       <use style="stroke:#000000;stroke-width:0.5;" x="512.6725" xlink:href="#mcb0005524f" y="317.3825"/>
      </g>
     </g>
     <g id="text_8">
      <!-- 0 -->
      <g transform="translate(54.0625 321.695)scale(0.16 -0.16)">
       <use xlink:href="#Georgia-30"/>
      </g>
     </g>
    </g>
    <g id="ytick_2">
     <g id="line2d_23">
      <path clip-path="url(#p39b1fcb95f)" d="
M66.2725 279.582
L512.673 279.582" style="fill:none;stroke:#000000;stroke-dasharray:1.000000,3.000000;stroke-dashoffset:0.0;stroke-width:0.5;"/>
     </g>
     <g id="line2d_24">
      <g>
       <use style="stroke:#000000;stroke-width:0.5;" x="66.2725" xlink:href="#m728421d6d4" y="279.5825"/>
      </g>
     </g>
     <g id="line2d_25">
      <g>
       <use style="stroke:#000000;stroke-width:0.5;" x="512.6725" xlink:href="#mcb0005524f" y="279.5825"/>
      </g>
     </g>
     <g id="text_9">
      <!-- 200 -->
      <g transform="translate(35.36 283.895)scale(0.16 -0.16)">
       <use xlink:href="#Georgia-32"/>
       <use x="55.859375" xlink:href="#Georgia-30"/>
       <use x="117.236328125" xlink:href="#Georgia-30"/>
      </g>
     </g>
    </g>
    <g id="ytick_3">
     <g id="line2d_26">
      <path clip-path="url(#p39b1fcb95f)" d="
M66.2725 241.782
L512.673 241.782" style="fill:none;stroke:#000000;stroke-dasharray:1.000000,3.000000;stroke-dashoffset:0.0;stroke-width:0.5;"/>
     </g>
     <g id="line2d_27">
      <g>
       <use style="stroke:#000000;stroke-width:0.5;" x="66.2725" xlink:href="#m728421d6d4" y="241.7825"/>
      </g>
     </g>
     <g id="line2d_28">
      <g>
       <use style="stroke:#000000;stroke-width:0.5;" x="512.6725" xlink:href="#mcb0005524f" y="241.7825"/>
      </g>
     </g>
     <g id="text_10">
      <!-- 400 -->
      <g transform="translate(34.78 246.095)scale(0.16 -0.16)">
       <use xlink:href="#Georgia-34"/>
       <use x="56.494140625" xlink:href="#Georgia-30"/>
       <use x="117.87109375" xlink:href="#Georgia-30"/>
      </g>
     </g>
    </g>
    <g id="ytick_4">
     <g id="line2d_29">
      <path clip-path="url(#p39b1fcb95f)" d="
M66.2725 203.982
L512.673 203.982" style="fill:none;stroke:#000000;stroke-dasharray:1.000000,3.000000;stroke-dashoffset:0.0;stroke-width:0.5;"/>
     </g>
     <g id="line2d_30">
      <g>
       <use style="stroke:#000000;stroke-width:0.5;" x="66.2725" xlink:href="#m728421d6d4" y="203.9825"/>
      </g>
     </g>
     <g id="line2d_31">
      <g>
       <use style="stroke:#000000;stroke-width:0.5;" x="512.6725" xlink:href="#mcb0005524f" y="203.9825"/>
      </g>
     </g>
     <g id="text_11">
      <!-- 600 -->
      <defs>
       <path d="
M52.4844 22.5156
Q52.4844 17.4375 50.6562 12.9844
Q48.8281 8.54688 45.75 5.42188
Q42.1875 1.85938 37.8594 0.140625
Q33.5469 -1.5625 28.8594 -1.5625
Q23.4375 -1.5625 19.0469 0.4375
Q14.6562 2.4375 11.5781 6.10938
Q8.45312 9.8125 6.73438 15.1875
Q5.03125 20.5625 5.03125 27.25
Q5.03125 44.6719 15.4062 56.6406
Q25.7812 68.6094 43.2188 71
L44.0938 66.6094
L39.7031 65.8281
Q29.1094 62.4062 23.3125 55.1719
Q17.5312 47.9531 15.8281 37.6406
Q20.0156 41.3125 24.1094 42.8281
Q28.2188 44.3438 32.7656 44.3438
Q40.9219 44.3438 46.7031 38.0938
Q52.4844 31.8438 52.4844 22.5156
M41.8906 21.1875
Q41.8906 29.1094 38.25 33.8906
Q34.625 38.6719 28.5156 38.6719
Q24.8594 38.6719 21.7031 37.2969
Q18.5625 35.9375 15.625 32.7188
Q15.5781 32.125 15.4688 30
Q15.375 27.875 15.375 26.6562
Q15.375 15.2344 19.1094 8.76562
Q22.8594 2.29688 28.9531 2.29688
Q34.7656 2.29688 38.3281 7.34375
Q41.8906 12.4062 41.8906 21.1875" id="Georgia-36"/>
      </defs>
      <g transform="translate(35.1875 208.295)scale(0.16 -0.16)">
       <use xlink:href="#Georgia-36"/>
       <use x="56.591796875" xlink:href="#Georgia-30"/>
       <use x="117.96875" xlink:href="#Georgia-30"/>
      </g>
     </g>
    </g>
    <g id="ytick_5">
     <g id="line2d_32">
      <path clip-path="url(#p39b1fcb95f)" d="
M66.2725 166.182
L512.673 166.182" style="fill:none;stroke:#000000;stroke-dasharray:1.000000,3.000000;stroke-dashoffset:0.0;stroke-width:0.5;"/>
     </g>
     <g id="line2d_33">
      <g>
       <use style="stroke:#000000;stroke-width:0.5;" x="66.2725" xlink:href="#m728421d6d4" y="166.1825"/>
      </g>
     </g>
     <g id="line2d_34">
      <g>
       <use style="stroke:#000000;stroke-width:0.5;" x="512.6725" xlink:href="#mcb0005524f" y="166.1825"/>
      </g>
     </g>
     <g id="text_12">
      <!-- 800 -->
      <defs>
       <path d="
M54.5469 18.3594
Q54.5469 10.1562 47.4531 4.25
Q40.375 -1.65625 28.8594 -1.65625
Q18.0625 -1.65625 11.5625 3.76562
Q5.07812 9.1875 5.07812 17.7188
Q5.07812 24.0312 8.90625 28.25
Q12.75 32.4688 20.2656 35.4062
Q14.0625 38.875 10.9844 43.0156
Q7.90625 47.1719 7.90625 52.3906
Q7.90625 60.3594 14.6719 65.7188
Q21.4375 71.0938 30.8594 71.0938
Q40.2812 71.0938 46.1094 66.0156
Q51.9531 60.9375 51.9531 53.2656
Q51.9531 48.3438 48.7344 43.9219
Q45.5156 39.5 39.2656 36.6719
Q47.3594 33.2031 50.9531 29
Q54.5469 24.8125 54.5469 18.3594
M42.7188 53.8125
Q42.7188 59.7656 39.1719 63.5
Q35.6406 67.2344 30.125 67.2344
Q24.6094 67.2344 21.0938 63.6406
Q17.5781 60.0625 17.5781 54.7344
Q17.5781 49.6094 21.5781 46.0469
Q25.5938 42.4844 35.8438 38.4219
Q39.5 40.7656 41.1094 44.625
Q42.7188 48.4844 42.7188 53.8125
M44.7812 16.0625
Q44.7812 19.1406 43.4531 21.4531
Q42.1406 23.7812 39.6562 25.6875
Q37.25 27.5469 32.9844 29.5625
Q28.7188 31.5938 23.7344 33.6875
Q19.0469 31.1562 16.8438 27.2188
Q14.6562 23.2969 14.6562 18.2656
Q14.6562 11.0781 18.875 6.65625
Q23.0938 2.25 30.125 2.25
Q36.8594 2.25 40.8125 6.15625
Q44.7812 10.0625 44.7812 16.0625" id="Georgia-38"/>
      </defs>
      <g transform="translate(34.71 170.495)scale(0.16 -0.16)">
       <use xlink:href="#Georgia-38"/>
       <use x="59.619140625" xlink:href="#Georgia-30"/>
       <use x="120.99609375" xlink:href="#Georgia-30"/>
      </g>
     </g>
    </g>
    <g id="ytick_6">
     <g id="line2d_35">
      <path clip-path="url(#p39b1fcb95f)" d="
M66.2725 128.382
L512.673 128.382" style="fill:none;stroke:#000000;stroke-dasharray:1.000000,3.000000;stroke-dashoffset:0.0;stroke-width:0.5;"/>
     </g>
     <g id="line2d_36">
      <g>
       <use style="stroke:#000000;stroke-width:0.5;" x="66.2725" xlink:href="#m728421d6d4" y="128.3825"/>
      </g>
     </g>
     <g id="line2d_37">
      <g>
       <use style="stroke:#000000;stroke-width:0.5;" x="512.6725" xlink:href="#mcb0005524f" y="128.3825"/>
      </g>
     </g>
     <g id="text_13">
      <!-- 1000 -->
      <g transform="translate(27.765 132.695)scale(0.16 -0.16)">
       <use xlink:href="#Georgia-31"/>
       <use x="42.96875" xlink:href="#Georgia-30"/>
       <use x="104.345703125" xlink:href="#Georgia-30"/>
       <use x="165.72265625" xlink:href="#Georgia-30"/>
      </g>
     </g>
    </g>
    <g id="ytick_7">
     <g id="line2d_38">
      <path clip-path="url(#p39b1fcb95f)" d="
M66.2725 90.5825
L512.673 90.5825" style="fill:none;stroke:#000000;stroke-dasharray:1.000000,3.000000;stroke-dashoffset:0.0;stroke-width:0.5;"/>
     </g>
     <g id="line2d_39">
      <g>
       <use style="stroke:#000000;stroke-width:0.5;" x="66.2725" xlink:href="#m728421d6d4" y="90.5825"/>
      </g>
     </g>
     <g id="line2d_40">
      <g>
       <use style="stroke:#000000;stroke-width:0.5;" x="512.6725" xlink:href="#mcb0005524f" y="90.5825"/>
      </g>
     </g>
     <g id="text_14">
      <!-- 1200 -->
      <g transform="translate(28.6475 94.895)scale(0.16 -0.16)">
       <use xlink:href="#Georgia-31"/>
       <use x="42.96875" xlink:href="#Georgia-32"/>
       <use x="98.828125" xlink:href="#Georgia-30"/>
       <use x="160.205078125" xlink:href="#Georgia-30"/>
      </g>
     </g>
    </g>
    <g id="ytick_8">
     <g id="line2d_41">
      <path clip-path="url(#p39b1fcb95f)" d="
M66.2725 52.7825
L512.673 52.7825" style="fill:none;stroke:#000000;stroke-dasharray:1.000000,3.000000;stroke-dashoffset:0.0;stroke-width:0.5;"/>
     </g>
     <g id="line2d_42">
      <g>
       <use style="stroke:#000000;stroke-width:0.5;" x="66.2725" xlink:href="#m728421d6d4" y="52.7825"/>
      </g>
     </g>
     <g id="line2d_43">
      <g>
       <use style="stroke:#000000;stroke-width:0.5;" x="512.6725" xlink:href="#mcb0005524f" y="52.7825"/>
      </g>
     </g>
     <g id="text_15">
      <!-- 1400 -->
      <g transform="translate(28.545 57.095)scale(0.16 -0.16)">
       <use xlink:href="#Georgia-31"/>
       <use x="42.96875" xlink:href="#Georgia-34"/>
       <use x="99.462890625" xlink:href="#Georgia-30"/>
       <use x="160.83984375" xlink:href="#Georgia-30"/>
      </g>
     </g>
    </g>
    <g id="ytick_9">
     <g id="line2d_44">
      <path clip-path="url(#p39b1fcb95f)" d="
M66.2725 14.9825
L512.673 14.9825" style="fill:none;stroke:#000000;stroke-dasharray:1.000000,3.000000;stroke-dashoffset:0.0;stroke-width:0.5;"/>
     </g>
     <g id="line2d_45">
      <g>
       <use style="stroke:#000000;stroke-width:0.5;" x="66.2725" xlink:href="#m728421d6d4" y="14.9825"/>
      </g>
     </g>
     <g id="line2d_46">
      <g>
       <use style="stroke:#000000;stroke-width:0.5;" x="512.6725" xlink:href="#mcb0005524f" y="14.9825"/>
      </g>
     </g>
     <g id="text_16">
      <!-- 1600 -->
      <g transform="translate(28.53 19.295)scale(0.16 -0.16)">
       <use xlink:href="#Georgia-31"/>
       <use x="42.96875" xlink:href="#Georgia-36"/>
       <use x="99.560546875" xlink:href="#Georgia-30"/>
       <use x="160.9375" xlink:href="#Georgia-30"/>
      </g>
     </g>
    </g>
    <g id="text_17">
     <!-- Количество комментариев за день -->
     <defs>
      <path d="
M25.7812 -1.26562
Q15.3281 -1.26562 9.42188 5.65625
Q3.51562 12.5938 3.51562 24.2656
Q3.51562 29.3438 5.09375 33.7656
Q6.6875 38.1875 9.71875 41.7969
Q12.5938 45.2656 16.9375 47.3906
Q21.2969 49.5156 26.4219 49.5156
Q33.5 49.5156 37.9375 46.1094
Q42.3906 42.7188 42.3906 36.8594
Q42.3906 34.4219 41.2188 32.5469
Q40.0469 30.6719 37.3594 30.6719
Q34.4688 30.6719 32.875 32.125
Q31.2969 33.5938 31.2969 35.4062
Q31.2969 37.5938 31.875 39.9062
Q32.4688 42.2344 32.5625 43.3125
Q31.6875 44.8281 29.9531 45.3281
Q28.2188 45.8438 26.2188 45.8438
Q23.875 45.8438 21.75 44.8438
Q19.625 43.8438 17.625 41.1562
Q15.8281 38.7188 14.7031 34.5625
Q13.5781 30.4219 13.5781 24.6562
Q13.5781 15.5781 17.5938 9.84375
Q21.625 4.10938 28.1719 4.10938
Q32.9062 4.10938 36.1094 6.39062
Q39.3125 8.6875 42.0469 13.2812
L45.1719 11.2344
Q41.9375 5.46875 36.6562 2.09375
Q31.3906 -1.26562 25.7812 -1.26562" id="Georgia-441"/>
      <path d="
M68.1094 0
L44.5312 0
L44.5312 3.21875
Q45.6562 3.32812 46.8438 3.42188
Q48.0469 3.51562 48.9219 3.8125
Q50.3438 4.25 51.0938 5.39062
Q51.8594 6.54688 51.8594 8.20312
L51.8594 43.0625
L50.6875 43.0625
L34.375 0.78125
L31.3438 0.78125
L16.0156 43.8906
L14.9375 43.8906
L14.9375 10.1562
Q14.9375 7.67188 15.6406 6.25
Q16.3594 4.82812 17.6719 4.29688
Q18.7031 3.8125 19.8906 3.5625
Q21.0938 3.32812 22.3594 3.21875
L22.3594 0
L3.60938 0
L3.60938 3.21875
Q4.73438 3.32812 5.92188 3.42188
Q7.125 3.51562 8.01562 3.8125
Q9.46875 4.29688 10.0781 5.73438
Q10.6875 7.17188 10.6875 9.67188
L10.6875 38.9688
Q10.6875 40.875 10 42.0625
Q9.32812 43.2656 7.95312 43.8438
Q6.6875 44.4375 5.48438 44.625
Q4.29688 44.8281 3.26562 44.9219
L3.26562 48.1406
L23.2969 48.1406
L35.3594 13.6719
L46 42.2344
Q46.4844 43.6562 47.0625 45.6094
Q47.6562 47.5625 47.7031 48.1406
L67.9219 48.1406
L67.9219 44.9219
Q66.5 44.8281 65.4531 44.6719
Q64.4062 44.5312 63.5312 44.3438
Q62.1562 43.9531 61.5 42.7969
Q60.8438 41.6562 60.8438 39.9375
L60.8438 8.6875
Q60.8438 6.98438 61.4219 5.9375
Q62.0156 4.89062 63.4219 4.29688
Q64.4531 3.8125 65.6406 3.5625
Q66.8438 3.32812 68.1094 3.21875
z
" id="Georgia-43c"/>
      <path d="
M54.6875 0
L31.1562 0
L31.1562 3.21875
Q32.2812 3.32812 33.4531 3.42188
Q34.625 3.51562 35.5 3.8125
Q36.8594 4.25 37.5938 5.34375
Q38.3281 6.45312 38.3281 8.20312
L38.3281 44.1406
L24.9531 44.1406
Q24.9531 32.2344 23.2812 23.6406
Q21.625 15.0469 19 9.625
Q16.4062 4.29688 13.125 1.65625
Q9.85938 -0.984375 6.45312 -0.984375
Q2.9375 -0.984375 1.125 0.84375
Q-0.6875 2.6875 -0.6875 5.125
Q-0.6875 6.89062 0.453125 8.45312
Q1.60938 10.0156 3.8125 10.0156
Q5.85938 10.0156 7.51562 8.84375
Q9.1875 7.67188 10.75 5.5625
Q11.9219 6.64062 13.5 9.54688
Q15.0938 12.4531 16.4062 16.75
Q17.875 21.3906 18.7969 26.3594
Q19.7344 31.3438 19.7344 37.7969
Q19.7344 40.3281 19.0938 41.5469
Q18.4531 42.7812 17.0938 43.4531
Q16.1562 43.9531 14.0625 44.3594
Q11.9688 44.7812 10.6406 44.9219
L10.6406 48.1406
L54.5 48.1406
L54.5 44.9219
Q53.0781 44.8281 52.0312 44.6719
Q50.9844 44.5312 50.0938 44.3438
Q48.7344 43.9531 48.0625 42.7969
Q47.4062 41.6562 47.4062 39.9375
L47.4062 8.6875
Q47.4062 6.98438 47.9844 5.9375
Q48.5781 4.89062 50 4.29688
Q51.0312 3.8125 52.2188 3.5625
Q53.4219 3.32812 54.6875 3.21875
z
" id="Georgia-43b"/>
      <path d="
M53.8125 0
L30.2188 0
L30.2188 3.21875
Q31.3438 3.32812 32.5312 3.42188
Q33.7344 3.51562 34.625 3.8125
Q35.9844 4.25 36.7188 5.34375
Q37.4531 6.45312 37.4531 8.20312
L37.4531 21
Q33.5 19.3438 30.4688 18.2812
Q27.4375 17.2344 23.1875 17.2344
Q15.5312 17.2344 11.9375 20.2656
Q8.34375 23.2969 8.34375 29.8906
L8.34375 39.4531
Q8.34375 41.1094 7.65625 42.1875
Q6.98438 43.2656 5.60938 43.8438
Q4.34375 44.4375 3.14062 44.625
Q1.95312 44.8281 0.921875 44.9219
L0.921875 48.1406
L24.4688 48.1406
L24.4688 44.9219
Q23.0469 44.8281 22 44.6719
Q20.9531 44.5312 20.0625 44.3438
Q18.7031 43.9531 18.0625 42.7969
Q17.4375 41.6562 17.4375 39.9375
L17.4375 32.3281
Q17.4375 27.0938 19.5625 24.7969
Q21.6875 22.5156 26.6562 22.5156
Q28.8594 22.5156 31.6562 22.9531
Q34.4688 23.3906 37.4531 24.4219
L37.4531 39.4531
Q37.4531 41.0625 36.7656 42.1562
Q36.0781 43.2656 34.7188 43.8438
Q33.4531 44.4375 32.25 44.625
Q31.0625 44.8281 30.0312 44.9219
L30.0312 48.1406
L53.6094 48.1406
L53.6094 44.9219
Q52.2031 44.8281 51.1406 44.6719
Q50.0938 44.5312 49.2188 44.3438
Q47.8594 43.9531 47.1875 42.7969
Q46.5312 41.6562 46.5312 39.9375
L46.5312 8.6875
Q46.5312 6.98438 47.1094 5.9375
Q47.7031 4.89062 49.125 4.29688
Q50.1406 3.8125 51.3438 3.5625
Q52.5469 3.32812 53.8125 3.21875
z
" id="Georgia-447"/>
      <path d="
M70.5625 0
L51.4688 0
Q49.4688 5.67188 47.5625 10.3281
Q45.6562 14.9844 43.6562 19.3906
Q40.375 26.7656 37.0312 29.3438
Q33.6875 31.9375 28.0312 31.9375
L24.4688 31.9375
L24.4688 9.76562
Q24.4688 8.15625 25.0781 6.875
Q25.6875 5.60938 27.2969 4.82812
Q28.0781 4.5 30.2031 4
Q32.3281 3.51562 33.7344 3.46875
L33.7344 0
L4.98438 0
L4.98438 3.46875
Q6.10938 3.5625 8.25 3.75
Q10.4062 3.95312 11.2812 4.34375
Q12.75 4.98438 13.4062 6.21875
Q14.0625 7.46875 14.0625 9.23438
L14.0625 59.2344
Q14.0625 60.8906 13.5 62.1094
Q12.9375 63.3281 11.2812 64.1094
Q9.96875 64.75 8.15625 65.2344
Q6.34375 65.7188 4.98438 65.8281
L4.98438 69.2812
L33.7344 69.2812
L33.7344 65.8281
Q32.375 65.7656 30.3125 65.375
Q28.2656 64.9844 27.2969 64.6562
Q25.6406 64.0625 25.0469 62.6875
Q24.4688 61.3281 24.4688 59.7188
L24.4688 35.9844
L29 35.9844
Q30.8125 35.9844 32.5469 36.7656
Q34.2812 37.5469 35.75 39.0625
Q37.8438 41.2188 39.1094 44.3125
Q40.375 47.4062 41.8438 51.8125
Q43.2188 55.8594 44.6719 59.3281
Q46.1406 62.7969 48.9688 65.7188
Q50.875 67.6719 53.4688 68.7969
Q56.0625 69.9219 59.0781 69.9219
Q61.1875 69.9219 62.75 69.4062
Q64.3125 68.8906 65.375 67.9688
Q66.3594 67.1406 66.8438 66.0156
Q67.3281 64.8906 67.3281 63.5781
Q67.3281 62.5 67.0156 61.4688
Q66.7031 60.4531 66.1094 59.7656
Q65.4375 58.9375 64.5938 58.4688
Q63.7656 58.0156 62.25 58.0156
Q60.6406 58.0156 59.4375 58.5469
Q58.25 59.0781 57.375 60.0156
Q56.5 60.9375 55.7812 62.1719
Q55.0781 63.4219 54.4375 64.7031
Q53.0781 63.7656 52.125 62.3906
Q51.1719 61.0312 50.4375 59.4688
Q49.7031 57.9062 49.1406 56.1406
Q48.5781 54.3906 47.8594 52.25
Q47.2656 50.4375 46.4844 48.2188
Q45.7031 46 44.6719 44.0938
Q43.6094 42.0469 42.1562 39.9844
Q40.7188 37.9375 38.7188 36.1406
L38.7188 35.4531
Q44.1406 33.9375 47.7188 30.6094
Q51.3125 27.2969 53.7656 22.0781
Q55.125 19.0938 56.7656 15.6406
Q58.4062 12.2031 59.4688 9.8125
Q60.9844 6.54688 62.3906 5.4375
Q63.8125 4.34375 65.2812 4.10938
Q66.5469 3.90625 68.0156 3.73438
Q69.4844 3.5625 70.5625 3.46875
z
" id="Georgia-41a"/>
      <path d="
M37.7031 15.0469
Q37.7031 19.1406 34.7188 22.0469
Q31.7344 24.9531 26.0312 24.9531
Q23.6406 24.9531 22.0781 24.7812
Q20.5156 24.6094 19.6719 24.6094
L19.6719 7.42188
Q19.6719 5.375 21.1562 4.34375
Q22.6562 3.32812 26.5625 3.32812
Q29.8906 3.32812 32.1094 4.39062
Q34.3281 5.46875 35.5 7.125
Q36.7656 8.9375 37.2344 10.8906
Q37.7031 12.8438 37.7031 15.0469
M47.5625 14.7969
Q47.5625 10.9375 45.8906 8.125
Q44.2344 5.32812 41.6094 3.51562
Q38.9688 1.76562 35.7344 0.875
Q32.5156 0 29 0
L3.60938 0
L3.60938 3.21875
Q4.73438 3.32812 5.92188 3.42188
Q7.125 3.51562 8.01562 3.8125
Q9.375 4.25 10.0312 5.34375
Q10.6875 6.45312 10.6875 8.20312
L10.6875 39.4531
Q10.6875 41.0625 10 42.1562
Q9.32812 43.2656 7.95312 43.8438
Q6.6875 44.4375 5.48438 44.625
Q4.29688 44.8281 3.26562 44.9219
L3.26562 48.1406
L27.5469 48.1406
L27.5469 44.9219
Q26.0781 44.8281 24.6875 44.7031
Q23.2969 44.5781 22.3594 44.3438
Q20.8438 43.8906 20.25 42.6719
Q19.6719 41.4531 19.6719 39.9375
L19.6719 28.4688
Q21.625 28.5156 23.0156 28.5781
Q24.4219 28.6562 27.0469 28.6562
Q31.7812 28.6562 35.375 27.9062
Q38.9688 27.1562 41.6094 25.5938
Q44.4375 23.9219 46 21.3281
Q47.5625 18.75 47.5625 14.7969" id="Georgia-44c"/>
      <path d="
M43.3125 13.9219
Q43.3125 7.125 37.2812 2.92188
Q31.25 -1.26562 21.5312 -1.26562
Q17.1875 -1.26562 13.6406 -0.265625
Q10.1094 0.734375 7.71875 2.4375
Q5.42188 4.15625 4.20312 6.29688
Q2.98438 8.45312 2.98438 10.9844
Q2.98438 13.1875 4.15625 14.5938
Q5.32812 16.0156 7.8125 16.0156
Q10.4531 16.0156 11.8125 14.5938
Q13.1875 13.1875 13.1875 11.625
Q13.1875 10.2031 12.7656 8.25
Q12.3594 6.29688 12.0625 5.21875
Q13.3281 3.95312 15.7656 3.14062
Q18.2188 2.34375 21.4844 2.34375
Q26.5625 2.34375 29.9219 5.375
Q33.2969 8.40625 33.2969 13.9219
Q33.2969 15.5781 32.8594 17.2812
Q32.4219 19 31.2031 20.3125
Q29.9844 21.625 27.875 22.4531
Q25.7812 23.2969 22.3594 23.2969
L17.2344 23.2969
L17.2344 27.8281
L21.4375 27.8281
Q27.2969 27.8281 29.6406 30.2969
Q31.9844 32.7656 31.9844 37.9375
Q31.9844 41.5469 29.7344 43.6719
Q27.4844 45.7969 23.5312 45.7969
Q20.6562 45.7969 18.4062 44.5469
Q16.1562 43.3125 14.2656 41.1562
Q12.5469 39.2031 11.25 36.5938
Q9.96875 33.9844 9.125 31.6875
L5.85938 31.6875
L6.15625 49.125
L9.42188 49.125
L11.1875 46.4375
Q13.625 47.5625 17.0625 48.5312
Q20.5156 49.5156 24.8125 49.5156
Q30.1719 49.5156 33.5469 48.2188
Q36.9219 46.9219 38.7656 45.125
Q40.5781 43.3594 41.2031 41.375
Q41.8438 39.4062 41.8438 38.1406
Q41.8438 36.4688 41.3281 34.7344
Q40.8281 33.0156 39.4062 31.4531
Q38.0312 29.8906 35.6094 28.5469
Q33.2031 27.2031 29.5469 26.4688
L29.5469 25.8281
Q31.8438 25.7344 34.25 25.0938
Q36.6719 24.4688 38.7188 23.0938
Q40.9219 21.5781 42.1094 19.3125
Q43.3125 17.0469 43.3125 13.9219" id="Georgia-437"/>
     </defs>
     <g transform="translate(19.295 294.71875)rotate(-90.0)scale(0.16 -0.16)">
      <use xlink:href="#Georgia-41a"/>
      <use x="69.482421875" xlink:href="#Georgia-43e"/>
      <use x="123.388671875" xlink:href="#Georgia-43b"/>
      <use x="181.494140625" xlink:href="#Georgia-438"/>
      <use x="242.724609375" xlink:href="#Georgia-447"/>
      <use x="299.951171875" xlink:href="#Georgia-435"/>
      <use x="348.291015625" xlink:href="#Georgia-441"/>
      <use x="393.701171875" xlink:href="#Georgia-442"/>
      <use x="440.771484375" xlink:href="#Georgia-432"/>
      <use x="492.578125" xlink:href="#Georgia-43e"/>
      <use x="546.484375" xlink:href="#Georgia-20"/>
      <use x="570.60546875" xlink:href="#Georgia-43a"/>
      <use x="625.732421875" xlink:href="#Georgia-43e"/>
      <use x="679.638671875" xlink:href="#Georgia-43c"/>
      <use x="751.171875" xlink:href="#Georgia-43c"/>
      <use x="822.705078125" xlink:href="#Georgia-435"/>
      <use x="871.044921875" xlink:href="#Georgia-43d"/>
      <use x="931.93359375" xlink:href="#Georgia-442"/>
      <use x="979.00390625" xlink:href="#Georgia-430"/>
      <use x="1029.39453125" xlink:href="#Georgia-440"/>
      <use x="1086.5234375" xlink:href="#Georgia-438"/>
      <use x="1147.75390625" xlink:href="#Georgia-435"/>
      <use x="1196.09375" xlink:href="#Georgia-432"/>
      <use x="1247.90039062" xlink:href="#Georgia-20"/>
      <use x="1272.02148438" xlink:href="#Georgia-437"/>
      <use x="1319.38476562" xlink:href="#Georgia-430"/>
      <use x="1369.77539062" xlink:href="#Georgia-20"/>
      <use x="1393.89648438" xlink:href="#Georgia-434"/>
      <use x="1449.85351562" xlink:href="#Georgia-435"/>
      <use x="1498.19335938" xlink:href="#Georgia-43d"/>
      <use x="1559.08203125" xlink:href="#Georgia-44c"/>
     </g>
    </g>
   </g>
   <g id="legend_1">
    <g id="patch_7">
     <path d="
M359.331 46.8019
L505.673 46.8019
L505.673 21.9825
L359.331 21.9825
z
" style="fill:#ffffff;stroke:#000000;stroke-linejoin:miter;"/>
    </g>
    <g id="patch_8">
     <path d="
M364.931 38.1656
L392.931 38.1656
L392.931 28.3656
L364.931 28.3656
z
" style="fill:#ff8e8e;opacity:0.4;stroke:#ff8e8e;stroke-linejoin:miter;"/>
    </g>
    <g id="text_18">
     <!-- Выходные дни -->
     <defs>
      <path d="
M37.7031 15.0469
Q37.7031 19.1406 34.7188 22.0469
Q31.7344 24.9531 26.0312 24.9531
Q23.6406 24.9531 22.0781 24.7812
Q20.5156 24.6094 19.6719 24.6094
L19.6719 7.42188
Q19.6719 5.375 21.1562 4.34375
Q22.6562 3.32812 26.5625 3.32812
Q29.8906 3.32812 32.1094 4.39062
Q34.3281 5.46875 35.5 7.125
Q36.7656 8.9375 37.2344 10.8906
Q37.7031 12.8438 37.7031 15.0469
M47.5625 14.7969
Q47.5625 10.9375 45.8906 8.125
Q44.2344 5.32812 41.6094 3.51562
Q38.9688 1.76562 35.7344 0.875
Q32.5156 0 29 0
L3.60938 0
L3.60938 3.21875
Q4.73438 3.32812 5.92188 3.42188
Q7.125 3.51562 8.01562 3.8125
Q9.375 4.25 10.0312 5.34375
Q10.6875 6.45312 10.6875 8.20312
L10.6875 39.4531
Q10.6875 41.0625 10 42.1562
Q9.32812 43.2656 7.95312 43.8438
Q6.6875 44.4375 5.48438 44.625
Q4.29688 44.8281 3.26562 44.9219
L3.26562 48.1406
L27.5469 48.1406
L27.5469 44.9219
Q26.0781 44.8281 24.6875 44.7031
Q23.2969 44.5781 22.3594 44.3438
Q20.8438 43.8906 20.25 42.6719
Q19.6719 41.4531 19.6719 39.9375
L19.6719 28.4688
Q21.625 28.5156 23.0156 28.5781
Q24.4219 28.6562 27.0469 28.6562
Q31.7812 28.6562 35.375 27.9062
Q38.9688 27.1562 41.6094 25.5938
Q44.4375 23.9219 46 21.3281
Q47.5625 18.75 47.5625 14.7969
M72.3594 0
L48.875 0
L48.875 3.21875
Q50 3.32812 51.1406 3.42188
Q52.2969 3.51562 53.1719 3.8125
Q54.5469 4.25 55.2656 5.34375
Q56 6.45312 56 8.20312
L56 39.4531
Q56 41.0625 55.3125 42.1562
Q54.6406 43.2656 53.2656 43.8438
Q52 44.4375 50.7969 44.625
Q49.6094 44.8281 48.5781 44.9219
L48.5781 48.1406
L72.1719 48.1406
L72.1719 44.9219
Q70.75 44.8281 69.7031 44.6719
Q68.6562 44.5312 67.7812 44.3438
Q66.4062 43.9531 65.75 42.7969
Q65.0938 41.6562 65.0938 39.9375
L65.0938 8.6875
Q65.0938 6.98438 65.6719 5.9375
Q66.2656 4.89062 67.6719 4.29688
Q68.7031 3.8125 69.8906 3.5625
Q71.0938 3.32812 72.3594 3.21875
z
" id="Georgia-44b"/>
      <path d="
M53.9062 32.2812
Q56.9375 30.2188 58.9375 26.8906
Q60.9375 23.5781 60.9375 18.8438
Q60.9375 14.0156 58.8281 10.4531
Q56.7344 6.89062 53.375 4.59375
Q50.0938 2.34375 45.9688 1.17188
Q41.8438 0 37.4531 0
L4.64062 0
L4.64062 3.46875
Q5.8125 3.5625 8.04688 3.875
Q10.2969 4.20312 11.2812 4.64062
Q12.7969 5.32812 13.4219 6.46875
Q14.0625 7.625 14.0625 9.42188
L14.0625 59.2344
Q14.0625 60.8906 13.5 62.1562
Q12.9375 63.4219 11.2812 64.2031
Q9.8125 64.9375 8 65.3281
Q6.20312 65.7188 4.98438 65.8281
L4.98438 69.2812
L36.9688 69.2812
Q40.6719 69.2812 44.0625 68.5469
Q47.4688 67.8281 50.5312 65.9688
Q53.4219 64.2656 55.2656 61.3281
Q57.125 58.4062 57.125 54.2031
Q57.125 50.5312 55.8125 47.6719
Q54.5 44.8281 52.0938 42.7812
Q49.8594 40.8281 46.9531 39.4844
Q44.0469 38.1406 40.6719 37.4062
L40.6719 36.9688
Q43.6562 36.625 47.3438 35.4688
Q51.0312 34.3281 53.9062 32.2812
M42.1406 42.7188
Q43.9531 44.8281 44.6562 47.3125
Q45.3594 49.8125 45.3594 53.2188
Q45.3594 58.9375 42.2344 62.1875
Q39.1094 65.4375 32.375 65.4375
Q30.8125 65.4375 28.4375 65.3594
Q26.0781 65.2812 24.4688 65.2344
L24.4688 38.625
L30.6719 38.625
Q34.6719 38.625 37.5156 39.6406
Q40.375 40.6719 42.1406 42.7188
M48.875 20.6094
Q48.875 26.7656 44.75 30.7188
Q40.625 34.6719 32.9531 34.6719
Q29.8281 34.6719 27.6719 34.5938
Q25.5312 34.5156 24.4688 34.4688
L24.4688 10.0625
Q24.4688 6.98438 26.9531 5.42188
Q29.4375 3.85938 33.8906 3.85938
Q41.1562 3.85938 45.0156 8.10938
Q48.875 12.3594 48.875 20.6094" id="Georgia-412"/>
      <path d="
M49.9062 0
L27.8281 0
L27.8281 3.21875
Q30.0312 3.46875 31.5625 3.70312
Q33.1094 3.95312 33.1094 4.98438
Q33.1094 5.42188 32.6094 6.34375
Q32.125 7.28125 31.6406 8.0625
Q30.4219 9.96875 28.2969 13.1562
Q26.1719 16.3594 23.0938 20.7969
Q20.5625 17.625 18.4062 14.625
Q16.2656 11.625 13.9219 8.25
Q13.5781 7.76562 13.2031 7.03125
Q12.8438 6.29688 12.8438 5.85938
Q12.8438 4.78125 14.2344 4.07812
Q15.625 3.375 18.4062 3.125
L18.4062 0
L0.59375 0
L0.59375 3.03125
Q3.90625 4 5.92188 5.39062
Q7.95312 6.78125 9.67188 8.84375
Q11.1875 10.7969 13.8906 14.2031
Q16.6094 17.625 20.9062 23.4844
Q18.4062 27.0469 14.8125 32.2031
Q11.2344 37.3594 8.89062 40.7656
Q7.625 42.625 5.98438 43.7656
Q4.34375 44.9219 1.375 44.9219
L1.375 48.1406
L22.3125 48.1406
L22.3125 44.9219
Q20.75 44.9219 19.2344 44.7188
Q17.7188 44.5312 17.7188 43.8438
Q17.7188 43.4062 18.0156 42.8594
Q18.3125 42.3281 18.75 41.7031
Q19.8281 40.0469 22.0938 36.5781
Q24.3594 33.1094 27 29.25
Q28.7188 31.5938 30.9844 34.7188
Q33.25 37.8438 35.1562 40.6719
Q35.3594 41.0156 35.5469 41.5312
Q35.75 42.0469 35.75 42.5312
Q35.75 43.5625 34.0625 44.1719
Q32.375 44.7812 30.8594 45.0156
L30.8594 48.1406
L48.6406 48.1406
L48.6406 45.125
Q44.875 44.1406 42.7656 42.7969
Q40.6719 41.4531 39.2031 39.7031
Q37.5938 37.7031 35.375 34.7656
Q33.1562 31.8438 29.1562 26.5625
Q33.5938 20.3125 36.375 16.3125
Q39.1562 12.3125 42 8.0625
Q43.4062 5.90625 45.1406 4.65625
Q46.875 3.42188 49.9062 3.21875
z
" id="Georgia-445"/>
     </defs>
     <g transform="translate(404.1309375 38.165625)scale(0.14 -0.14)">
      <use xlink:href="#Georgia-412"/>
      <use x="65.380859375" xlink:href="#Georgia-44b"/>
      <use x="141.162109375" xlink:href="#Georgia-445"/>
      <use x="191.650390625" xlink:href="#Georgia-43e"/>
      <use x="245.556640625" xlink:href="#Georgia-434"/>
      <use x="301.513671875" xlink:href="#Georgia-43d"/>
      <use x="362.40234375" xlink:href="#Georgia-44b"/>
      <use x="438.18359375" xlink:href="#Georgia-435"/>
      <use x="486.5234375" xlink:href="#Georgia-20"/>
      <use x="510.64453125" xlink:href="#Georgia-434"/>
      <use x="566.6015625" xlink:href="#Georgia-43d"/>
      <use x="627.490234375" xlink:href="#Georgia-438"/>
     </g>
    </g>
   </g>
  </g>
 </g>
 <defs>
  <clipPath id="p39b1fcb95f">
   <rect height="302.4" width="446.4" x="66.2725" y="14.9825"/>
  </clipPath>
 </defs>
</svg>
