<?xml version="1.0" encoding="utf-8" standalone="no"?>
<!DOCTYPE svg PUBLIC "-//W3C//DTD SVG 1.1//EN"
  "http://www.w3.org/Graphics/SVG/1.1/DTD/svg11.dtd">
<!-- Created with matplotlib (http://matplotlib.org/) -->
<svg height="402pt" version="1.1" viewBox="0 0 677 402" width="677pt" xmlns="http://www.w3.org/2000/svg" xmlns:xlink="http://www.w3.org/1999/xlink">
 <defs>
  <style type="text/css">
*{stroke-linecap:butt;stroke-linejoin:round;}
  </style>
 </defs>
 <g id="figure_1">
  <g id="patch_1">
   <path d="
M0 402.371
L677.453 402.371
L677.453 0
L0 0
z
" style="fill:#ffffff;"/>
  </g>
  <g id="axes_1">
   <g id="patch_2">
    <path d="
M56.4525 317.382
L670.253 317.382
L670.253 14.9825
L56.4525 14.9825
z
" style="fill:#ffffff;"/>
   </g>
   <g id="PolyCollection_1">
    <defs>
     <path d="
M58.1295 -84.9884
L58.1295 -98.2184
L59.8066 -130.348
L59.8066 -84.9884
L59.8066 -84.9884
L58.1295 -84.9884
z
" id="mfb948e2d6c" style="stroke:#ff8e8e;stroke-opacity:0.3;"/>
    </defs>
    <g clip-path="url(#p6e02df69ae)">
     <use style="fill:#ff8e8e;fill-opacity:0.3;stroke:#ff8e8e;stroke-opacity:0.3;" x="0.0" xlink:href="#mfb948e2d6c" y="402.37093541"/>
    </g>
   </g>
   <g id="PolyCollection_2">
    <defs>
     <path d="
M69.8689 -84.9884
L69.8689 -145.468
L71.5459 -128.458
L71.5459 -84.9884
L71.5459 -84.9884
L69.8689 -84.9884
z
" id="m8972843f19" style="stroke:#ff8e8e;stroke-opacity:0.3;"/>
    </defs>
    <g clip-path="url(#p6e02df69ae)">
     <use style="fill:#ff8e8e;fill-opacity:0.3;stroke:#ff8e8e;stroke-opacity:0.3;" x="0.0" xlink:href="#m8972843f19" y="402.37093541"/>
    </g>
   </g>
   <g id="PolyCollection_3">
    <defs>
     <path d="
M81.6082 -84.9884
L81.6082 -136.018
L83.2853 -139.798
L83.2853 -84.9884
L83.2853 -84.9884
L81.6082 -84.9884
z
" id="mf32a031a14" style="stroke:#ff8e8e;stroke-opacity:0.3;"/>
    </defs>
    <g clip-path="url(#p6e02df69ae)">
     <use style="fill:#ff8e8e;fill-opacity:0.3;stroke:#ff8e8e;stroke-opacity:0.3;" x="0.0" xlink:href="#mf32a031a14" y="402.37093541"/>
    </g>
   </g>
   <g id="PolyCollection_4">
    <defs>
     <path d="
M93.3476 -84.9884
L93.3476 -168.148
L95.0246 -168.148
L95.0246 -84.9884
L95.0246 -84.9884
L93.3476 -84.9884
z
" id="meeaf2f6c89" style="stroke:#ff8e8e;stroke-opacity:0.3;"/>
    </defs>
    <g clip-path="url(#p6e02df69ae)">
     <use style="fill:#ff8e8e;fill-opacity:0.3;stroke:#ff8e8e;stroke-opacity:0.3;" x="0.0" xlink:href="#meeaf2f6c89" y="402.37093541"/>
    </g>
   </g>
   <g id="PolyCollection_5">
    <defs>
     <path d="
M105.087 -84.9884
L105.087 -149.248
L106.764 -117.118
L106.764 -84.9884
L106.764 -84.9884
L105.087 -84.9884
z
" id="m8023928308" style="stroke:#ff8e8e;stroke-opacity:0.3;"/>
    </defs>
    <g clip-path="url(#p6e02df69ae)">
     <use style="fill:#ff8e8e;fill-opacity:0.3;stroke:#ff8e8e;stroke-opacity:0.3;" x="0.0" xlink:href="#m8023928308" y="402.37093541"/>
    </g>
   </g>
   <g id="PolyCollection_6">
    <defs>
     <path d="
M116.826 -84.9884
L116.826 -156.808
L118.503 -130.348
L118.503 -84.9884
L118.503 -84.9884
L116.826 -84.9884
z
" id="m319821339f" style="stroke:#ff8e8e;stroke-opacity:0.3;"/>
    </defs>
    <g clip-path="url(#p6e02df69ae)">
     <use style="fill:#ff8e8e;fill-opacity:0.3;stroke:#ff8e8e;stroke-opacity:0.3;" x="0.0" xlink:href="#m319821339f" y="402.37093541"/>
    </g>
   </g>
   <g id="PolyCollection_7">
    <defs>
     <path d="
M128.566 -84.9884
L128.566 -170.038
L130.243 -128.458
L130.243 -84.9884
L130.243 -84.9884
L128.566 -84.9884
z
" id="m5e9b3bc260" style="stroke:#ff8e8e;stroke-opacity:0.3;"/>
    </defs>
    <g clip-path="url(#p6e02df69ae)">
     <use style="fill:#ff8e8e;fill-opacity:0.3;stroke:#ff8e8e;stroke-opacity:0.3;" x="0.0" xlink:href="#m5e9b3bc260" y="402.37093541"/>
    </g>
   </g>
   <g id="PolyCollection_8">
    <defs>
     <path d="
M140.305 -84.9884
L140.305 -154.918
L141.982 -120.898
L141.982 -84.9884
L141.982 -84.9884
L140.305 -84.9884
z
" id="mb7f0660e9b" style="stroke:#ff8e8e;stroke-opacity:0.3;"/>
    </defs>
    <g clip-path="url(#p6e02df69ae)">
     <use style="fill:#ff8e8e;fill-opacity:0.3;stroke:#ff8e8e;stroke-opacity:0.3;" x="0.0" xlink:href="#mb7f0660e9b" y="402.37093541"/>
    </g>
   </g>
   <g id="PolyCollection_9">
    <defs>
     <path d="
M152.044 -84.9884
L152.044 -153.028
L153.721 -128.458
L153.721 -84.9884
L153.721 -84.9884
L152.044 -84.9884
z
" id="m95bd94a25d" style="stroke:#ff8e8e;stroke-opacity:0.3;"/>
    </defs>
    <g clip-path="url(#p6e02df69ae)">
     <use style="fill:#ff8e8e;fill-opacity:0.3;stroke:#ff8e8e;stroke-opacity:0.3;" x="0.0" xlink:href="#m95bd94a25d" y="402.37093541"/>
    </g>
   </g>
   <g id="PolyCollection_10">
    <defs>
     <path d="
M163.784 -84.9884
L163.784 -128.458
L165.461 -109.558
L165.461 -84.9884
L165.461 -84.9884
L163.784 -84.9884
z
" id="mc5257a6df8" style="stroke:#ff8e8e;stroke-opacity:0.3;"/>
    </defs>
    <g clip-path="url(#p6e02df69ae)">
     <use style="fill:#ff8e8e;fill-opacity:0.3;stroke:#ff8e8e;stroke-opacity:0.3;" x="0.0" xlink:href="#mc5257a6df8" y="402.37093541"/>
    </g>
   </g>
   <g id="PolyCollection_11">
    <defs>
     <path d="
M175.523 -84.9884
L175.523 -137.908
L177.2 -113.338
L177.2 -84.9884
L177.2 -84.9884
L175.523 -84.9884
z
" id="m076d40bdd6" style="stroke:#ff8e8e;stroke-opacity:0.3;"/>
    </defs>
    <g clip-path="url(#p6e02df69ae)">
     <use style="fill:#ff8e8e;fill-opacity:0.3;stroke:#ff8e8e;stroke-opacity:0.3;" x="0.0" xlink:href="#m076d40bdd6" y="402.37093541"/>
    </g>
   </g>
   <g id="PolyCollection_12">
    <defs>
     <path d="
M187.262 -84.9884
L187.262 -145.468
L188.939 -128.458
L188.939 -84.9884
L188.939 -84.9884
L187.262 -84.9884
z
" id="m0216d0ab43" style="stroke:#ff8e8e;stroke-opacity:0.3;"/>
    </defs>
    <g clip-path="url(#p6e02df69ae)">
     <use style="fill:#ff8e8e;fill-opacity:0.3;stroke:#ff8e8e;stroke-opacity:0.3;" x="0.0" xlink:href="#m0216d0ab43" y="402.37093541"/>
    </g>
   </g>
   <g id="PolyCollection_13">
    <defs>
     <path d="
M199.002 -84.9884
L199.002 -137.908
L200.679 -149.248
L200.679 -84.9884
L200.679 -84.9884
L199.002 -84.9884
z
" id="m1327d37f6d" style="stroke:#ff8e8e;stroke-opacity:0.3;"/>
    </defs>
    <g clip-path="url(#p6e02df69ae)">
     <use style="fill:#ff8e8e;fill-opacity:0.3;stroke:#ff8e8e;stroke-opacity:0.3;" x="0.0" xlink:href="#m1327d37f6d" y="402.37093541"/>
    </g>
   </g>
   <g id="PolyCollection_14">
    <defs>
     <path d="
M210.741 -84.9884
L210.741 -136.018
L212.418 -149.248
L212.418 -84.9884
L212.418 -84.9884
L210.741 -84.9884
z
" id="m072058b6c5" style="stroke:#ff8e8e;stroke-opacity:0.3;"/>
    </defs>
    <g clip-path="url(#p6e02df69ae)">
     <use style="fill:#ff8e8e;fill-opacity:0.3;stroke:#ff8e8e;stroke-opacity:0.3;" x="0.0" xlink:href="#m072058b6c5" y="402.37093541"/>
    </g>
   </g>
   <g id="PolyCollection_15">
    <defs>
     <path d="
M222.48 -84.9884
L222.48 -160.588
L224.157 -141.688
L224.157 -84.9884
L224.157 -84.9884
L222.48 -84.9884
z
" id="m3ea4b9d607" style="stroke:#ff8e8e;stroke-opacity:0.3;"/>
    </defs>
    <g clip-path="url(#p6e02df69ae)">
     <use style="fill:#ff8e8e;fill-opacity:0.3;stroke:#ff8e8e;stroke-opacity:0.3;" x="0.0" xlink:href="#m3ea4b9d607" y="402.37093541"/>
    </g>
   </g>
   <g id="PolyCollection_16">
    <defs>
     <path d="
M234.22 -84.9884
L234.22 -134.128
L235.897 -122.788
L235.897 -84.9884
L235.897 -84.9884
L234.22 -84.9884
z
" id="md8a135e7f9" style="stroke:#ff8e8e;stroke-opacity:0.3;"/>
    </defs>
    <g clip-path="url(#p6e02df69ae)">
     <use style="fill:#ff8e8e;fill-opacity:0.3;stroke:#ff8e8e;stroke-opacity:0.3;" x="0.0" xlink:href="#md8a135e7f9" y="402.37093541"/>
    </g>
   </g>
   <g id="PolyCollection_17">
    <defs>
     <path d="
M245.959 -84.9884
L245.959 -136.018
L247.636 -134.128
L247.636 -84.9884
L247.636 -84.9884
L245.959 -84.9884
z
" id="m814bda48c7" style="stroke:#ff8e8e;stroke-opacity:0.3;"/>
    </defs>
    <g clip-path="url(#p6e02df69ae)">
     <use style="fill:#ff8e8e;fill-opacity:0.3;stroke:#ff8e8e;stroke-opacity:0.3;" x="0.0" xlink:href="#m814bda48c7" y="402.37093541"/>
    </g>
   </g>
   <g id="PolyCollection_18">
    <defs>
     <path d="
M257.698 -84.9884
L257.698 -145.468
L259.375 -117.118
L259.375 -84.9884
L259.375 -84.9884
L257.698 -84.9884
z
" id="m0a68ca7879" style="stroke:#ff8e8e;stroke-opacity:0.3;"/>
    </defs>
    <g clip-path="url(#p6e02df69ae)">
     <use style="fill:#ff8e8e;fill-opacity:0.3;stroke:#ff8e8e;stroke-opacity:0.3;" x="0.0" xlink:href="#m0a68ca7879" y="402.37093541"/>
    </g>
   </g>
   <g id="PolyCollection_19">
    <defs>
     <path d="
M269.438 -84.9884
L269.438 -124.678
L271.115 -134.128
L271.115 -84.9884
L271.115 -84.9884
L269.438 -84.9884
z
" id="m6b635717ce" style="stroke:#ff8e8e;stroke-opacity:0.3;"/>
    </defs>
    <g clip-path="url(#p6e02df69ae)">
     <use style="fill:#ff8e8e;fill-opacity:0.3;stroke:#ff8e8e;stroke-opacity:0.3;" x="0.0" xlink:href="#m6b635717ce" y="402.37093541"/>
    </g>
   </g>
   <g id="PolyCollection_20">
    <defs>
     <path d="
M281.177 -84.9884
L281.177 -137.908
L282.854 -113.338
L282.854 -84.9884
L282.854 -84.9884
L281.177 -84.9884
z
" id="md162006cb8" style="stroke:#ff8e8e;stroke-opacity:0.3;"/>
    </defs>
    <g clip-path="url(#p6e02df69ae)">
     <use style="fill:#ff8e8e;fill-opacity:0.3;stroke:#ff8e8e;stroke-opacity:0.3;" x="0.0" xlink:href="#md162006cb8" y="402.37093541"/>
    </g>
   </g>
   <g id="PolyCollection_21">
    <defs>
     <path d="
M292.916 -84.9884
L292.916 -162.478
L294.593 -137.908
L294.593 -84.9884
L294.593 -84.9884
L292.916 -84.9884
z
" id="m8903d5f4ca" style="stroke:#ff8e8e;stroke-opacity:0.3;"/>
    </defs>
    <g clip-path="url(#p6e02df69ae)">
     <use style="fill:#ff8e8e;fill-opacity:0.3;stroke:#ff8e8e;stroke-opacity:0.3;" x="0.0" xlink:href="#m8903d5f4ca" y="402.37093541"/>
    </g>
   </g>
   <g id="PolyCollection_22">
    <defs>
     <path d="
M304.656 -84.9884
L304.656 -162.478
L306.333 -141.688
L306.333 -84.9884
L306.333 -84.9884
L304.656 -84.9884
z
" id="m44c827b6e4" style="stroke:#ff8e8e;stroke-opacity:0.3;"/>
    </defs>
    <g clip-path="url(#p6e02df69ae)">
     <use style="fill:#ff8e8e;fill-opacity:0.3;stroke:#ff8e8e;stroke-opacity:0.3;" x="0.0" xlink:href="#m44c827b6e4" y="402.37093541"/>
    </g>
   </g>
   <g id="PolyCollection_23">
    <defs>
     <path d="
M316.395 -84.9884
L316.395 -168.148
L318.072 -119.008
L318.072 -84.9884
L318.072 -84.9884
L316.395 -84.9884
z
" id="m49c2537114" style="stroke:#ff8e8e;stroke-opacity:0.3;"/>
    </defs>
    <g clip-path="url(#p6e02df69ae)">
     <use style="fill:#ff8e8e;fill-opacity:0.3;stroke:#ff8e8e;stroke-opacity:0.3;" x="0.0" xlink:href="#m49c2537114" y="402.37093541"/>
    </g>
   </g>
   <g id="PolyCollection_24">
    <defs>
     <path d="
M328.134 -84.9884
L328.134 -151.138
L329.812 -156.808
L329.812 -84.9884
L329.812 -84.9884
L328.134 -84.9884
z
" id="m957aa597c0" style="stroke:#ff8e8e;stroke-opacity:0.3;"/>
    </defs>
    <g clip-path="url(#p6e02df69ae)">
     <use style="fill:#ff8e8e;fill-opacity:0.3;stroke:#ff8e8e;stroke-opacity:0.3;" x="0.0" xlink:href="#m957aa597c0" y="402.37093541"/>
    </g>
   </g>
   <g id="PolyCollection_25">
    <defs>
     <path d="
M339.874 -84.9884
L339.874 -147.358
L341.551 -136.018
L341.551 -84.9884
L341.551 -84.9884
L339.874 -84.9884
z
" id="mb4b4d28c2c" style="stroke:#ff8e8e;stroke-opacity:0.3;"/>
    </defs>
    <g clip-path="url(#p6e02df69ae)">
     <use style="fill:#ff8e8e;fill-opacity:0.3;stroke:#ff8e8e;stroke-opacity:0.3;" x="0.0" xlink:href="#mb4b4d28c2c" y="402.37093541"/>
    </g>
   </g>
   <g id="PolyCollection_26">
    <defs>
     <path d="
M351.613 -84.9884
L351.613 -175.708
L353.29 -153.028
L353.29 -84.9884
L353.29 -84.9884
L351.613 -84.9884
z
" id="mccb22206f2" style="stroke:#ff8e8e;stroke-opacity:0.3;"/>
    </defs>
    <g clip-path="url(#p6e02df69ae)">
     <use style="fill:#ff8e8e;fill-opacity:0.3;stroke:#ff8e8e;stroke-opacity:0.3;" x="0.0" xlink:href="#mccb22206f2" y="402.37093541"/>
    </g>
   </g>
   <g id="PolyCollection_27">
    <defs>
     <path d="
M363.353 -84.9884
L363.353 -158.698
L365.03 -139.798
L365.03 -84.9884
L365.03 -84.9884
L363.353 -84.9884
z
" id="mecd10ceb6d" style="stroke:#ff8e8e;stroke-opacity:0.3;"/>
    </defs>
    <g clip-path="url(#p6e02df69ae)">
     <use style="fill:#ff8e8e;fill-opacity:0.3;stroke:#ff8e8e;stroke-opacity:0.3;" x="0.0" xlink:href="#mecd10ceb6d" y="402.37093541"/>
    </g>
   </g>
   <g id="PolyCollection_28">
    <defs>
     <path d="
M375.092 -84.9884
L375.092 -143.578
L376.769 -124.678
L376.769 -84.9884
L376.769 -84.9884
L375.092 -84.9884
z
" id="md483792ce1" style="stroke:#ff8e8e;stroke-opacity:0.3;"/>
    </defs>
    <g clip-path="url(#p6e02df69ae)">
     <use style="fill:#ff8e8e;fill-opacity:0.3;stroke:#ff8e8e;stroke-opacity:0.3;" x="0.0" xlink:href="#md483792ce1" y="402.37093541"/>
    </g>
   </g>
   <g id="PolyCollection_29">
    <defs>
     <path d="
M386.831 -84.9884
L386.831 -175.708
L388.508 -136.018
L388.508 -84.9884
L388.508 -84.9884
L386.831 -84.9884
z
" id="me28ce1b3ce" style="stroke:#ff8e8e;stroke-opacity:0.3;"/>
    </defs>
    <g clip-path="url(#p6e02df69ae)">
     <use style="fill:#ff8e8e;fill-opacity:0.3;stroke:#ff8e8e;stroke-opacity:0.3;" x="0.0" xlink:href="#me28ce1b3ce" y="402.37093541"/>
    </g>
   </g>
   <g id="PolyCollection_30">
    <defs>
     <path d="
M398.571 -84.9884
L398.571 -149.248
L400.248 -134.128
L400.248 -84.9884
L400.248 -84.9884
L398.571 -84.9884
z
" id="mc775e5de79" style="stroke:#ff8e8e;stroke-opacity:0.3;"/>
    </defs>
    <g clip-path="url(#p6e02df69ae)">
     <use style="fill:#ff8e8e;fill-opacity:0.3;stroke:#ff8e8e;stroke-opacity:0.3;" x="0.0" xlink:href="#mc775e5de79" y="402.37093541"/>
    </g>
   </g>
   <g id="PolyCollection_31">
    <defs>
     <path d="
M410.31 -84.9884
L410.31 -185.158
L411.987 -153.028
L411.987 -84.9884
L411.987 -84.9884
L410.31 -84.9884
z
" id="mdde0fae8c6" style="stroke:#ff8e8e;stroke-opacity:0.3;"/>
    </defs>
    <g clip-path="url(#p6e02df69ae)">
     <use style="fill:#ff8e8e;fill-opacity:0.3;stroke:#ff8e8e;stroke-opacity:0.3;" x="0.0" xlink:href="#mdde0fae8c6" y="402.37093541"/>
    </g>
   </g>
   <g id="PolyCollection_32">
    <defs>
     <path d="
M422.049 -84.9884
L422.049 -179.488
L423.726 -173.818
L423.726 -84.9884
L423.726 -84.9884
L422.049 -84.9884
z
" id="m19cce30a57" style="stroke:#ff8e8e;stroke-opacity:0.3;"/>
    </defs>
    <g clip-path="url(#p6e02df69ae)">
     <use style="fill:#ff8e8e;fill-opacity:0.3;stroke:#ff8e8e;stroke-opacity:0.3;" x="0.0" xlink:href="#m19cce30a57" y="402.37093541"/>
    </g>
   </g>
   <g id="PolyCollection_33">
    <defs>
     <path d="
M433.789 -84.9884
L433.789 -173.818
L435.466 -154.918
L435.466 -84.9884
L435.466 -84.9884
L433.789 -84.9884
z
" id="m639780ea6a" style="stroke:#ff8e8e;stroke-opacity:0.3;"/>
    </defs>
    <g clip-path="url(#p6e02df69ae)">
     <use style="fill:#ff8e8e;fill-opacity:0.3;stroke:#ff8e8e;stroke-opacity:0.3;" x="0.0" xlink:href="#m639780ea6a" y="402.37093541"/>
    </g>
   </g>
   <g id="PolyCollection_34">
    <defs>
     <path d="
M445.528 -84.9884
L445.528 -168.148
L447.205 -128.458
L447.205 -84.9884
L447.205 -84.9884
L445.528 -84.9884
z
" id="m75eb7fc328" style="stroke:#ff8e8e;stroke-opacity:0.3;"/>
    </defs>
    <g clip-path="url(#p6e02df69ae)">
     <use style="fill:#ff8e8e;fill-opacity:0.3;stroke:#ff8e8e;stroke-opacity:0.3;" x="0.0" xlink:href="#m75eb7fc328" y="402.37093541"/>
    </g>
   </g>
   <g id="PolyCollection_35">
    <defs>
     <path d="
M457.267 -84.9884
L457.267 -170.038
L458.944 -177.598
L458.944 -84.9884
L458.944 -84.9884
L457.267 -84.9884
z
" id="mab33cad485" style="stroke:#ff8e8e;stroke-opacity:0.3;"/>
    </defs>
    <g clip-path="url(#p6e02df69ae)">
     <use style="fill:#ff8e8e;fill-opacity:0.3;stroke:#ff8e8e;stroke-opacity:0.3;" x="0.0" xlink:href="#mab33cad485" y="402.37093541"/>
    </g>
   </g>
   <g id="PolyCollection_36">
    <defs>
     <path d="
M469.007 -84.9884
L469.007 -136.018
L470.684 -137.908
L470.684 -84.9884
L470.684 -84.9884
L469.007 -84.9884
z
" id="m164a628ce5" style="stroke:#ff8e8e;stroke-opacity:0.3;"/>
    </defs>
    <g clip-path="url(#p6e02df69ae)">
     <use style="fill:#ff8e8e;fill-opacity:0.3;stroke:#ff8e8e;stroke-opacity:0.3;" x="0.0" xlink:href="#m164a628ce5" y="402.37093541"/>
    </g>
   </g>
   <g id="PolyCollection_37">
    <defs>
     <path d="
M480.746 -84.9884
L480.746 -183.268
L482.423 -153.028
L482.423 -84.9884
L482.423 -84.9884
L480.746 -84.9884
z
" id="me6b66ddbaf" style="stroke:#ff8e8e;stroke-opacity:0.3;"/>
    </defs>
    <g clip-path="url(#p6e02df69ae)">
     <use style="fill:#ff8e8e;fill-opacity:0.3;stroke:#ff8e8e;stroke-opacity:0.3;" x="0.0" xlink:href="#me6b66ddbaf" y="402.37093541"/>
    </g>
   </g>
   <g id="PolyCollection_38">
    <defs>
     <path d="
M492.485 -84.9884
L492.485 -168.148
L494.162 -158.698
L494.162 -84.9884
L494.162 -84.9884
L492.485 -84.9884
z
" id="m1fcb08fa06" style="stroke:#ff8e8e;stroke-opacity:0.3;"/>
    </defs>
    <g clip-path="url(#p6e02df69ae)">
     <use style="fill:#ff8e8e;fill-opacity:0.3;stroke:#ff8e8e;stroke-opacity:0.3;" x="0.0" xlink:href="#m1fcb08fa06" y="402.37093541"/>
    </g>
   </g>
   <g id="PolyCollection_39">
    <defs>
     <path d="
M504.225 -84.9884
L504.225 -188.938
L505.902 -141.688
L505.902 -84.9884
L505.902 -84.9884
L504.225 -84.9884
z
" id="m058bdebaa5" style="stroke:#ff8e8e;stroke-opacity:0.3;"/>
    </defs>
    <g clip-path="url(#p6e02df69ae)">
     <use style="fill:#ff8e8e;fill-opacity:0.3;stroke:#ff8e8e;stroke-opacity:0.3;" x="0.0" xlink:href="#m058bdebaa5" y="402.37093541"/>
    </g>
   </g>
   <g id="PolyCollection_40">
    <defs>
     <path d="
M515.964 -84.9884
L515.964 -171.928
L517.641 -139.798
L517.641 -84.9884
L517.641 -84.9884
L515.964 -84.9884
z
" id="m5d1901a030" style="stroke:#ff8e8e;stroke-opacity:0.3;"/>
    </defs>
    <g clip-path="url(#p6e02df69ae)">
     <use style="fill:#ff8e8e;fill-opacity:0.3;stroke:#ff8e8e;stroke-opacity:0.3;" x="0.0" xlink:href="#m5d1901a030" y="402.37093541"/>
    </g>
   </g>
   <g id="PolyCollection_41">
    <defs>
     <path d="
M527.703 -84.9884
L527.703 -162.478
L529.38 -139.798
L529.38 -84.9884
L529.38 -84.9884
L527.703 -84.9884
z
" id="mc74a57df9b" style="stroke:#ff8e8e;stroke-opacity:0.3;"/>
    </defs>
    <g clip-path="url(#p6e02df69ae)">
     <use style="fill:#ff8e8e;fill-opacity:0.3;stroke:#ff8e8e;stroke-opacity:0.3;" x="0.0" xlink:href="#mc74a57df9b" y="402.37093541"/>
    </g>
   </g>
   <g id="PolyCollection_42">
    <defs>
     <path d="
M539.443 -84.9884
L539.443 -154.918
L541.12 -153.028
L541.12 -84.9884
L541.12 -84.9884
L539.443 -84.9884
z
" id="m5327feba04" style="stroke:#ff8e8e;stroke-opacity:0.3;"/>
    </defs>
    <g clip-path="url(#p6e02df69ae)">
     <use style="fill:#ff8e8e;fill-opacity:0.3;stroke:#ff8e8e;stroke-opacity:0.3;" x="0.0" xlink:href="#m5327feba04" y="402.37093541"/>
    </g>
   </g>
   <g id="PolyCollection_43">
    <defs>
     <path d="
M551.182 -84.9884
L551.182 -175.708
L552.859 -143.578
L552.859 -84.9884
L552.859 -84.9884
L551.182 -84.9884
z
" id="m95f619d7ee" style="stroke:#ff8e8e;stroke-opacity:0.3;"/>
    </defs>
    <g clip-path="url(#p6e02df69ae)">
     <use style="fill:#ff8e8e;fill-opacity:0.3;stroke:#ff8e8e;stroke-opacity:0.3;" x="0.0" xlink:href="#m95f619d7ee" y="402.37093541"/>
    </g>
   </g>
   <g id="PolyCollection_44">
    <defs>
     <path d="
M562.921 -84.9884
L562.921 -162.478
L564.598 -158.698
L564.598 -84.9884
L564.598 -84.9884
L562.921 -84.9884
z
" id="mdf8c5eaeb2" style="stroke:#ff8e8e;stroke-opacity:0.3;"/>
    </defs>
    <g clip-path="url(#p6e02df69ae)">
     <use style="fill:#ff8e8e;fill-opacity:0.3;stroke:#ff8e8e;stroke-opacity:0.3;" x="0.0" xlink:href="#mdf8c5eaeb2" y="402.37093541"/>
    </g>
   </g>
   <g id="PolyCollection_45">
    <defs>
     <path d="
M574.661 -84.9884
L574.661 -162.478
L576.338 -132.238
L576.338 -84.9884
L576.338 -84.9884
L574.661 -84.9884
z
" id="m5f01ddc002" style="stroke:#ff8e8e;stroke-opacity:0.3;"/>
    </defs>
    <g clip-path="url(#p6e02df69ae)">
     <use style="fill:#ff8e8e;fill-opacity:0.3;stroke:#ff8e8e;stroke-opacity:0.3;" x="0.0" xlink:href="#m5f01ddc002" y="402.37093541"/>
    </g>
   </g>
   <g id="PolyCollection_46">
    <defs>
     <path d="
M586.4 -84.9884
L586.4 -151.138
L588.077 -113.338
L588.077 -84.9884
L588.077 -84.9884
L586.4 -84.9884
z
" id="mca05e44348" style="stroke:#ff8e8e;stroke-opacity:0.3;"/>
    </defs>
    <g clip-path="url(#p6e02df69ae)">
     <use style="fill:#ff8e8e;fill-opacity:0.3;stroke:#ff8e8e;stroke-opacity:0.3;" x="0.0" xlink:href="#mca05e44348" y="402.37093541"/>
    </g>
   </g>
   <g id="PolyCollection_47">
    <defs>
     <path d="
M598.139 -84.9884
L598.139 -168.148
L599.816 -143.578
L599.816 -84.9884
L599.816 -84.9884
L598.139 -84.9884
z
" id="m28d68070e9" style="stroke:#ff8e8e;stroke-opacity:0.3;"/>
    </defs>
    <g clip-path="url(#p6e02df69ae)">
     <use style="fill:#ff8e8e;fill-opacity:0.3;stroke:#ff8e8e;stroke-opacity:0.3;" x="0.0" xlink:href="#m28d68070e9" y="402.37093541"/>
    </g>
   </g>
   <g id="PolyCollection_48">
    <defs>
     <path d="
M609.879 -84.9884
L609.879 -147.358
L611.556 -136.018
L611.556 -84.9884
L611.556 -84.9884
L609.879 -84.9884
z
" id="maf6e06b85f" style="stroke:#ff8e8e;stroke-opacity:0.3;"/>
    </defs>
    <g clip-path="url(#p6e02df69ae)">
     <use style="fill:#ff8e8e;fill-opacity:0.3;stroke:#ff8e8e;stroke-opacity:0.3;" x="0.0" xlink:href="#maf6e06b85f" y="402.37093541"/>
    </g>
   </g>
   <g id="PolyCollection_49">
    <defs>
     <path d="
M621.618 -84.9884
L621.618 -185.158
L623.295 -185.158
L623.295 -84.9884
L623.295 -84.9884
L621.618 -84.9884
z
" id="md5a753fa65" style="stroke:#ff8e8e;stroke-opacity:0.3;"/>
    </defs>
    <g clip-path="url(#p6e02df69ae)">
     <use style="fill:#ff8e8e;fill-opacity:0.3;stroke:#ff8e8e;stroke-opacity:0.3;" x="0.0" xlink:href="#md5a753fa65" y="402.37093541"/>
    </g>
   </g>
   <g id="PolyCollection_50">
    <defs>
     <path d="
M633.357 -84.9884
L633.357 -166.258
L635.034 -132.238
L635.034 -84.9884
L635.034 -84.9884
L633.357 -84.9884
z
" id="mfc4829a359" style="stroke:#ff8e8e;stroke-opacity:0.3;"/>
    </defs>
    <g clip-path="url(#p6e02df69ae)">
     <use style="fill:#ff8e8e;fill-opacity:0.3;stroke:#ff8e8e;stroke-opacity:0.3;" x="0.0" xlink:href="#mfc4829a359" y="402.37093541"/>
    </g>
   </g>
   <g id="PolyCollection_51">
    <defs>
     <path d="
M645.097 -84.9884
L645.097 -154.918
L646.774 -132.238
L646.774 -84.9884
L646.774 -84.9884
L645.097 -84.9884
z
" id="m52061b34ea" style="stroke:#ff8e8e;stroke-opacity:0.3;"/>
    </defs>
    <g clip-path="url(#p6e02df69ae)">
     <use style="fill:#ff8e8e;fill-opacity:0.3;stroke:#ff8e8e;stroke-opacity:0.3;" x="0.0" xlink:href="#m52061b34ea" y="402.37093541"/>
    </g>
   </g>
   <g id="PolyCollection_52">
    <defs>
     <path d="
M656.836 -84.9884
L656.836 -151.138
L658.513 -143.578
L658.513 -84.9884
L658.513 -84.9884
L656.836 -84.9884
z
" id="m65328bae06" style="stroke:#ff8e8e;stroke-opacity:0.3;"/>
    </defs>
    <g clip-path="url(#p6e02df69ae)">
     <use style="fill:#ff8e8e;fill-opacity:0.3;stroke:#ff8e8e;stroke-opacity:0.3;" x="0.0" xlink:href="#m65328bae06" y="402.37093541"/>
    </g>
   </g>
   <g id="PolyCollection_53">
    <defs>
     <path d="
M668.575 -84.9884
L668.575 -179.488
L670.252 -128.458
L670.252 -84.9884
L670.252 -84.9884
L668.575 -84.9884
z
" id="m737378524d" style="stroke:#ff8e8e;stroke-opacity:0.3;"/>
    </defs>
    <g clip-path="url(#p6e02df69ae)">
     <use style="fill:#ff8e8e;fill-opacity:0.3;stroke:#ff8e8e;stroke-opacity:0.3;" x="0.0" xlink:href="#m737378524d" y="402.37093541"/>
    </g>
   </g>
   <g id="line2d_1">
    <path clip-path="url(#p6e02df69ae)" d="
M56.4525 283.362
L58.1295 304.152
L59.8066 272.022
L61.4836 100.032
L63.1607 126.492
L64.8377 81.1325
L66.5148 118.932
L68.1918 115.152
L69.8689 256.902
L71.5459 273.912
L73.223 90.5825
L74.9 124.602
L76.5771 105.702
L78.2541 115.152
L79.9312 162.402
L81.6082 266.352
L83.2853 262.572
L84.9623 135.942
L86.6394 141.612
L88.3164 120.822
L89.9935 103.812
L91.6705 149.172
L93.3476 234.222
L95.0246 234.222
L96.7017 115.152
L98.3787 126.492
L100.056 98.1425
L101.733 151.062
L103.41 149.172
L105.087 253.122
L106.764 285.252
L108.441 132.162
L110.118 135.942
L111.795 141.612
L113.472 130.272
L115.149 162.402
L116.826 245.562
L118.503 272.022
L120.18 149.172
L121.857 132.162
L123.534 117.042
L125.212 130.272
L126.889 141.612
L128.566 232.332
L130.243 273.912
L131.92 124.602
L133.597 120.822
L135.274 115.152
L136.951 139.722
L138.628 143.502
L140.305 247.452
L141.982 281.472
L143.659 134.052
L145.336 137.832
L147.013 122.712
L148.69 141.612
L150.367 147.282
L152.044 249.342
L153.721 273.912
L155.398 126.492
L157.075 141.612
L158.752 143.502
L160.43 128.382
L162.107 137.832
L163.784 273.912
L165.461 292.812
L167.138 275.802
L168.815 126.492
L170.492 113.262
L172.169 141.612
L173.846 132.162
L175.523 264.462
L177.2 289.032
L178.877 98.1425
L180.554 143.502
L182.231 130.272
L183.908 124.602
L185.585 130.272
L187.262 256.902
L188.939 273.912
L190.616 134.052
L192.293 132.162
L193.971 111.372
L195.648 103.812
L197.325 118.932
L199.002 264.462
L200.679 253.122
L202.356 122.712
L204.033 92.4725
L205.71 94.3625
L207.387 128.382
L209.064 130.272
L210.741 266.352
L212.418 253.122
L214.095 139.722
L215.772 115.152
L219.126 118.932
L220.803 134.052
L222.48 241.782
L224.157 260.682
L225.834 109.482
L227.512 156.732
L229.189 117.042
L230.866 98.1425
L232.543 120.822
L234.22 268.242
L235.897 279.582
L237.574 100.032
L239.251 128.382
L240.928 122.712
L242.605 92.4725
L244.282 98.1425
L245.959 266.352
L247.636 268.242
L249.313 111.372
L250.99 103.812
L252.667 115.152
L254.344 96.2525
L256.021 143.502
L257.698 256.902
L259.375 285.252
L261.052 113.262
L262.73 186.972
L264.407 283.362
L266.084 279.582
L267.761 270.132
L269.438 277.692
L271.115 268.242
L272.792 243.672
L274.469 260.682
L276.146 258.792
L277.823 113.262
L279.5 115.152
L281.177 264.462
L282.854 289.032
L284.531 113.262
L286.208 120.822
L287.885 105.702
L289.562 92.4725
L291.239 115.152
L292.916 239.892
L294.593 264.462
L296.271 56.5625
L297.948 90.5825
L299.625 66.0125
L301.302 94.3625
L302.979 81.1325
L304.656 239.892
L306.333 260.682
L308.01 79.2425
L309.687 73.5725
L311.364 81.1325
L313.041 92.4725
L314.718 98.1425
L316.395 234.222
L318.072 283.362
L319.749 81.1325
L321.426 90.5825
L323.103 83.0225
L324.78 62.2325
L326.457 69.7925
L328.134 251.232
L329.812 245.562
L331.489 66.0125
L333.166 49.0025
L334.843 58.4525
L336.52 71.6825
L338.197 73.5725
L339.874 255.012
L341.551 266.352
L343.228 101.922
L344.905 28.2125
L348.259 84.9125
L349.936 73.5725
L351.613 226.662
L353.29 249.342
L354.967 64.1225
L356.644 52.7825
L358.321 66.0125
L359.998 35.7725
L361.675 67.9025
L363.353 243.672
L365.03 262.572
L366.707 62.2325
L368.384 33.8825
L370.061 50.8925
L371.738 41.4425
L373.415 94.3625
L375.092 258.792
L376.769 277.692
L378.446 251.232
L380.123 83.0225
L381.8 77.3525
L383.477 96.2525
L385.154 58.4525
L386.831 226.662
L388.508 266.352
L390.185 60.3425
L391.862 71.6825
L393.539 52.7825
L395.216 77.3525
L396.893 103.812
L398.571 253.122
L400.248 268.242
L401.925 58.4525
L403.602 50.8925
L405.279 67.9025
L406.956 73.5725
L408.633 58.4525
L410.31 217.212
L411.987 249.342
L413.664 64.1225
L415.341 50.8925
L417.018 56.5625
L418.695 56.5625
L420.372 71.6825
L422.049 222.882
L423.726 228.552
L425.403 39.5525
L427.08 79.2425
L428.757 58.4525
L430.434 71.6825
L432.112 90.5825
L433.789 228.552
L435.466 247.452
L437.143 94.3625
L438.82 100.032
L440.497 107.592
L442.174 56.5625
L443.851 103.812
L445.528 234.222
L447.205 273.912
L448.882 81.1325
L450.559 79.2425
L452.236 66.0125
L455.59 107.592
L457.267 232.332
L458.944 224.772
L460.621 66.0125
L462.298 58.4525
L463.975 94.3625
L465.652 222.882
L467.33 234.222
L469.007 266.352
L470.684 264.462
L472.361 69.7925
L474.038 54.6725
L475.715 96.2525
L477.392 79.2425
L479.069 215.322
L480.746 219.102
L482.423 249.342
L484.1 50.8925
L485.777 69.7925
L487.454 50.8925
L489.131 62.2325
L490.808 83.0225
L492.485 234.222
L494.162 243.672
L495.839 52.7825
L497.516 67.9025
L499.193 66.0125
L500.871 79.2425
L502.548 43.3325
L504.225 213.432
L505.902 260.682
L507.579 39.5525
L509.256 50.8925
L510.933 86.8025
L512.61 58.4525
L514.287 88.6925
L515.964 230.442
L517.641 262.572
L519.318 45.2225
L520.995 58.4525
L522.672 60.3425
L524.349 75.4625
L526.026 71.6825
L527.703 239.892
L529.38 262.572
L531.057 35.7725
L532.734 50.8925
L534.412 73.5725
L536.089 228.552
L537.766 241.782
L539.443 247.452
L541.12 249.342
L542.797 47.1125
L544.474 41.4425
L546.151 45.2225
L547.828 62.2325
L549.505 62.2325
L551.182 226.662
L552.859 258.792
L554.536 84.9125
L556.213 73.5725
L557.89 56.5625
L559.567 67.9025
L561.244 113.262
L562.921 239.892
L564.598 243.672
L566.275 67.9025
L567.952 81.1325
L569.63 67.9025
L571.307 83.0225
L572.984 90.5825
L574.661 239.892
L576.338 270.132
L578.015 60.3425
L579.692 49.0025
L581.369 39.5525
L583.046 98.1425
L584.723 88.6925
L586.4 251.232
L588.077 289.032
L589.754 52.7825
L591.431 39.5525
L593.108 64.1225
L594.785 50.8925
L596.462 41.4425
L598.139 234.222
L599.816 258.792
L601.493 67.9025
L603.171 28.2125
L604.848 52.7825
L606.525 86.8025
L608.202 71.6825
L609.879 255.012
L611.556 266.352
L613.233 54.6725
L614.91 58.4525
L616.587 84.9125
L618.264 54.6725
L619.941 58.4525
L621.618 217.212
L623.295 217.212
L624.972 60.3425
L626.649 71.6825
L628.326 84.9125
L630.003 30.1025
L631.68 100.032
L633.357 236.112
L635.034 270.132
L636.712 50.8925
L638.389 54.6725
L640.066 71.6825
L641.743 52.7825
L643.42 84.9125
L645.097 247.452
L646.774 270.132
L648.451 77.3525
L650.128 79.2425
L651.805 56.5625
L653.482 86.8025
L655.159 71.6825
L656.836 251.232
L658.513 258.792
L660.19 39.5525
L661.867 71.6825
L663.544 75.4625
L665.221 56.5625
L666.898 49.0025
L668.575 222.882
L670.252 273.912
L670.252 273.912" style="fill:none;stroke:#0000ff;stroke-linecap:square;"/>
   </g>
   <g id="patch_3">
    <path d="
M56.4525 14.9825
L670.252 14.9825" style="fill:none;stroke:#000000;stroke-linecap:square;stroke-linejoin:miter;"/>
   </g>
   <g id="patch_4">
    <path d="
M670.253 317.382
L670.253 14.9825" style="fill:none;stroke:#000000;stroke-linecap:square;stroke-linejoin:miter;"/>
   </g>
   <g id="patch_5">
    <path d="
M56.4525 317.382
L670.252 317.382" style="fill:none;stroke:#000000;stroke-linecap:square;stroke-linejoin:miter;"/>
   </g>
   <g id="patch_6">
    <path d="
M56.4525 317.382
L56.4525 14.9825" style="fill:none;stroke:#000000;stroke-linecap:square;stroke-linejoin:miter;"/>
   </g>
   <g id="matplotlib.axis_1">
    <g id="xtick_1">
     <g id="line2d_2">
      <path clip-path="url(#p6e02df69ae)" d="
M110.118 317.382
L110.118 14.9825" style="fill:none;stroke:#000000;stroke-dasharray:1.000000,3.000000;stroke-dashoffset:0.0;stroke-width:0.5;"/>
     </g>
     <g id="line2d_3">
      <defs>
       <path d="
M0 0
L0 -4" id="m93b0483c22" style="stroke:#000000;stroke-width:0.5;"/>
      </defs>
      <g>
       <use style="stroke:#000000;stroke-width:0.5;" x="110.118073771" xlink:href="#m93b0483c22" y="317.3825"/>
      </g>
     </g>
     <g id="line2d_4">
      <defs>
       <path d="
M0 0
L0 4" id="m741efc42ff" style="stroke:#000000;stroke-width:0.5;"/>
      </defs>
      <g>
       <use style="stroke:#000000;stroke-width:0.5;" x="110.118073771" xlink:href="#m741efc42ff" y="14.9825"/>
      </g>
     </g>
     <g id="text_1">
      <!-- окт. 2013 -->
      <defs>
       <path d="
M54.5938 0
L38.0312 0
Q36.8125 4 35.8281 6.85938
Q34.8594 9.71875 32.9531 13.4844
Q30.6719 18.0625 27.9062 20.1094
Q25.1406 22.1719 20.7969 22.1719
L19.6719 22.1719
L19.6719 8.6875
Q19.6719 7.03125 20.3594 5.95312
Q21.0469 4.89062 22.4062 4.29688
Q23.4375 3.8125 24.625 3.5625
Q25.8281 3.32812 27.0938 3.21875
L27.0938 0
L3.60938 0
L3.60938 3.21875
Q4.73438 3.32812 5.92188 3.42188
Q7.125 3.51562 8.01562 3.8125
Q9.375 4.25 10.0312 5.34375
Q10.6875 6.45312 10.6875 8.20312
L10.6875 39.4531
Q10.6875 41.0625 10 42.1562
Q9.32812 43.2656 7.95312 43.8438
Q6.6875 44.4375 5.48438 44.625
Q4.29688 44.8281 3.26562 44.9219
L3.26562 48.1406
L26.7656 48.1406
L26.7656 44.9219
Q25.3438 44.8281 24.2969 44.6719
Q23.25 44.5312 22.3594 44.3438
Q21 43.9531 20.3281 42.7969
Q19.6719 41.6562 19.6719 39.9375
L19.6719 25.8281
L22.75 25.8281
Q24.3594 25.8281 25.9688 26.4531
Q27.5938 27.0938 28.6562 28.2188
Q30.0312 29.6875 31.0938 32.0781
Q32.1719 34.4688 32.9062 36.5781
Q33.6875 38.7656 34.6875 41.1094
Q35.6875 43.4531 36.7188 44.7344
Q38.5312 46.9219 40.5938 47.8281
Q42.6719 48.7344 45.1719 48.7344
Q48.9219 48.7344 50.6719 47.125
Q52.4375 45.5156 52.4375 43.0625
Q52.4375 40.9688 51.0469 39.4531
Q49.6562 37.9375 47.3594 37.9375
Q45.1719 37.9375 43.9219 39.0625
Q42.6719 40.1875 40.4844 42.8281
Q39.5469 42 38.6875 39.3281
Q37.8438 36.6719 37.0625 34.6719
Q35.5938 30.7188 34.0469 28.5625
Q32.5156 26.4219 30.4688 25.0938
L30.4688 24.4688
Q34.9062 23.5781 37.5156 21.2344
Q40.1406 18.8906 41.9375 15.3281
Q42.8281 13.625 43.9219 11.1562
Q45.0156 8.6875 45.3594 7.90625
Q46.3438 5.71875 47.7031 4.90625
Q49.0781 4.10938 50.25 3.90625
Q51.375 3.65625 52.5156 3.48438
Q53.6562 3.32812 54.5938 3.21875
z
" id="Georgia-43a"/>
       <path id="Georgia-20"/>
       <path d="
M46 32.7188
L43.0156 32.7188
Q42.5781 34.0781 41.7188 35.9375
Q40.875 37.7969 39.8438 39.4531
Q38.7656 41.2656 37.4219 42.6562
Q36.0781 44.0469 34.625 44.2344
Q33.1094 44.3906 31.25 44.4531
Q29.3906 44.5312 28.0781 44.5312
L28.0781 8.6875
Q28.0781 7.03125 28.75 5.95312
Q29.4375 4.89062 30.8125 4.29688
Q31.8906 3.8125 33.25 3.5625
Q34.625 3.32812 35.9375 3.21875
L35.9375 0
L11.4219 0
L11.4219 3.21875
Q12.5469 3.32812 13.9844 3.42188
Q15.4375 3.51562 16.3125 3.8125
Q17.6719 4.25 18.3281 5.34375
Q19 6.45312 19 8.20312
L19 44.5312
Q17.4375 44.4844 15.4844 44.4062
Q13.5312 44.3438 12.4062 44.2344
Q11.1406 44.1406 9.6875 42.625
Q8.25 41.1094 7.17188 39.4531
Q6.15625 37.7969 5.26562 35.7656
Q4.39062 33.7344 4.04688 32.7188
L1.07812 32.7188
L1.07812 48.1406
L46 48.1406
z
" id="Georgia-442"/>
       <path d="
M39.5 0
L6.59375 0
L6.59375 3.46875
Q8.0625 3.5625 11.1562 3.875
Q14.2656 4.20312 15.4375 4.54688
Q16.9375 5.03125 17.75 6.125
Q18.5625 7.23438 18.5625 9.42188
L18.5625 43.7031
L6.39062 43.7031
L6.39062 47.7969
L9.07812 47.7969
Q14.3594 47.7969 18.5312 49.75
Q22.7031 51.7031 24.5156 53.9531
L28.5625 53.9531
Q28.4219 50.7812 28.2656 46.5312
Q28.125 42.2812 28.125 38.9219
L28.125 9.96875
Q28.125 8.25 28.875 6.90625
Q29.6406 5.5625 31.0625 4.9375
Q32.3281 4.39062 35.2031 3.95312
Q38.0938 3.51562 39.5 3.46875
z
" id="Georgia-31"/>
       <path d="
M50.4375 24.5625
Q50.4375 19.4844 48.8281 14.5781
Q47.2188 9.67188 44.2344 6.25
Q40.875 2.34375 36.4219 0.4375
Q31.9844 -1.46875 26.4688 -1.46875
Q21.875 -1.46875 17.7188 0.265625
Q13.5781 2 10.3594 5.32812
Q7.17188 8.59375 5.29688 13.2969
Q3.42188 18.0156 3.42188 23.875
Q3.42188 35.1562 9.98438 42.3281
Q16.5469 49.5156 27.2031 49.5156
Q37.3125 49.5156 43.875 42.7031
Q50.4375 35.8906 50.4375 24.5625
M40.3281 24.4688
Q40.3281 28.125 39.5938 32.2031
Q38.875 36.2812 37.4062 39.1094
Q35.8438 42.1406 33.2969 43.9688
Q30.7656 45.7969 27.0938 45.7969
Q23.3438 45.7969 20.6719 43.9375
Q18.0156 42.0938 16.3594 38.875
Q14.7969 35.8906 14.1562 32.0781
Q13.5312 28.2656 13.5312 24.7031
Q13.5312 20.0156 14.2812 16.0312
Q15.0469 12.0625 16.7031 8.9375
Q18.3594 5.8125 20.875 4.03125
Q23.3906 2.25 27.0938 2.25
Q33.2031 2.25 36.7656 8.15625
Q40.3281 14.0625 40.3281 24.4688" id="Georgia-43e"/>
       <path d="
M51.125 0
L5.375 0
L5.375 6.64062
Q6.6875 8.15625 9.03125 10.0312
Q11.375 11.9219 14.5938 14.1094
Q16.5469 15.4375 19.2812 17
Q22.0156 18.5625 25.4844 20.4062
Q29.3438 22.4688 31.4219 24.0312
Q33.5 25.5938 35.2031 27.875
Q36.3281 29.3906 37.0156 31.6562
Q37.7031 33.9375 37.7031 38.1406
Q37.7031 44.2344 34.4219 47.0938
Q31.1562 49.9531 26.0312 49.9531
Q22.8594 49.9531 20.0156 48.7031
Q17.1875 47.4688 15.7656 45.2656
Q16.1094 43.7031 16.625 41.5469
Q17.1406 39.4062 17.1406 37.3594
Q17.1406 35.5 15.5938 34.0625
Q14.0625 32.625 11.0312 32.625
Q8.59375 32.625 7.26562 34.2969
Q5.95312 35.9844 5.95312 38.8125
Q5.95312 41.4531 7.42188 44.1094
Q8.89062 46.7812 11.625 49.0312
Q14.3125 51.2188 18.2656 52.5781
Q22.2188 53.9531 26.8125 53.9531
Q36.8125 53.9531 42.6875 49.4844
Q48.5781 45.0156 48.5781 37.5469
Q48.5781 33.9844 47.5312 31.0469
Q46.4844 28.125 44.1406 25.875
Q41.5469 23.3906 38.0781 21.6094
Q34.625 19.8281 27.4844 16.6562
Q23.25 14.75 19.5781 12.6719
Q15.9219 10.5938 13.5781 8.64062
L51.125 8.64062
z
" id="Georgia-32"/>
       <path d="
M23.7812 -17.8281
Q19.1875 -17.8281 15.375 -16.6719
Q11.5781 -15.5312 8.84375 -13.5781
Q6.10938 -11.625 4.60938 -9.07812
Q3.125 -6.54688 3.125 -3.85938
Q3.125 -1.46875 4.29688 0.453125
Q5.46875 2.39062 8.0625 2.39062
Q10.9844 2.39062 12.5156 0.953125
Q14.0625 -0.484375 14.0625 -2.34375
Q14.0625 -3.90625 13.5469 -6.29688
Q13.0312 -8.6875 12.75 -9.71875
Q13.0938 -10.1562 13.9844 -10.8906
Q14.8906 -11.625 16.2188 -12.2031
Q17.7812 -12.9375 19.4844 -13.375
Q21.1875 -13.8125 24.3125 -13.8125
Q27.25 -13.8125 29.9531 -12.8281
Q32.6719 -11.8594 34.7188 -9.71875
Q36.8594 -7.46875 38.0625 -4.46875
Q39.2656 -1.46875 39.2656 3.42188
Q39.2656 6.0625 38.7031 8.64062
Q38.1406 11.2344 36.625 13.1406
Q35.1094 15.0469 32.5 16.0938
Q29.8906 17.1406 25.875 17.1406
L19.4844 17.1406
L19.4844 22.75
L23.7344 22.75
Q30.4688 22.75 33.4375 26.4531
Q36.4219 30.1719 36.4219 37.6406
Q36.4219 43.75 33.5469 46.8438
Q30.6719 49.9531 25.3906 49.9531
Q22.8594 49.9531 21.2188 49.3438
Q19.5781 48.7344 18.5625 48.1406
Q17.3281 47.4688 16.5469 46.625
Q15.7656 45.7969 15.375 45.4062
Q15.7188 43.8438 16.2031 41.5781
Q16.7031 39.3125 16.7031 37.25
Q16.7031 35.4531 15.1562 34
Q13.625 32.5625 10.6406 32.5625
Q8.0625 32.5625 6.85938 34.4219
Q5.67188 36.2812 5.67188 38.7188
Q5.67188 41.2656 7.07812 43.8906
Q8.5 46.5312 11.2812 48.8281
Q14.0625 51.125 18.0625 52.5312
Q22.0781 53.9531 27.2969 53.9531
Q33.2969 53.9531 37.2188 52.1719
Q41.1562 50.3906 43.4062 47.8594
Q45.6094 45.3594 46.4375 42.625
Q47.2656 39.8906 47.2656 37.9375
Q47.2656 35.5 46.5781 33.0312
Q45.9062 30.5625 44.3438 28.4688
Q42.625 26.1719 39.8125 24.2812
Q37.0156 22.4062 32.7656 21.2344
L32.7656 20.4531
Q35.5 20.2188 38.5938 19.2344
Q41.7031 18.2656 44.1875 16.3594
Q46.7812 14.3594 48.4375 11.2031
Q50.0938 8.0625 50.0938 3.21875
Q50.0938 -6.15625 42.5781 -11.9844
Q35.0625 -17.8281 23.7812 -17.8281" id="Georgia-33"/>
       <path d="
M20.2656 5.60938
Q20.2656 2.875 18.2812 0.9375
Q16.3125 -0.984375 13.5781 -0.984375
Q10.8438 -0.984375 8.85938 0.9375
Q6.89062 2.875 6.89062 5.60938
Q6.89062 8.34375 8.85938 10.3281
Q10.8438 12.3125 13.5781 12.3125
Q16.3125 12.3125 18.2812 10.3281
Q20.2656 8.34375 20.2656 5.60938" id="Georgia-2e"/>
       <path d="
M50.1406 45.6094
Q53.2656 41.8438 54.7969 36.7812
Q56.3438 31.7344 56.3438 26.2188
Q56.3438 19.5781 54.4375 14.3281
Q52.5469 9.07812 49.2188 5.60938
Q45.7969 2.04688 41.1094 0.234375
Q36.4219 -1.5625 30.6719 -1.5625
Q24.3594 -1.5625 19.4219 0.53125
Q14.5 2.64062 11.4219 6.29688
Q8.20312 10.1094 6.60938 15.2031
Q5.03125 20.3125 5.03125 26.2188
Q5.03125 32.0312 6.5625 36.9062
Q8.10938 41.7969 11.375 45.75
Q14.5 49.5625 19.4219 51.75
Q24.3594 53.9531 30.7188 53.9531
Q37.4062 53.9531 42.1875 51.7031
Q46.9688 49.4688 50.1406 45.6094
M45.5625 26.2188
Q45.5625 37.8438 41.5781 44.2344
Q37.5938 50.6406 30.7656 50.6406
Q23.8281 50.6406 19.8281 44.2344
Q15.8281 37.8438 15.8281 26.2188
Q15.8281 15.1875 19.6562 8.46875
Q23.4844 1.76562 30.6719 1.76562
Q37.8438 1.76562 41.7031 8.46875
Q45.5625 15.1875 45.5625 26.2188" id="Georgia-30"/>
      </defs>
      <g transform="translate(50.5347418613 365.255827259)rotate(-30.0)scale(0.16 -0.16)">
       <use xlink:href="#Georgia-43e"/>
       <use x="53.90625" xlink:href="#Georgia-43a"/>
       <use x="109.033203125" xlink:href="#Georgia-442"/>
       <use x="156.103515625" xlink:href="#Georgia-2e"/>
       <use x="183.056640625" xlink:href="#Georgia-20"/>
       <use x="207.177734375" xlink:href="#Georgia-32"/>
       <use x="263.037109375" xlink:href="#Georgia-30"/>
       <use x="324.4140625" xlink:href="#Georgia-31"/>
       <use x="367.3828125" xlink:href="#Georgia-33"/>
      </g>
     </g>
    </g>
    <g id="xtick_2">
     <g id="line2d_5">
      <path clip-path="url(#p6e02df69ae)" d="
M212.418 317.382
L212.418 14.9825" style="fill:none;stroke:#000000;stroke-dasharray:1.000000,3.000000;stroke-dashoffset:0.0;stroke-width:0.5;"/>
     </g>
     <g id="line2d_6">
      <g>
       <use style="stroke:#000000;stroke-width:0.5;" x="212.41807377" xlink:href="#m93b0483c22" y="317.3825"/>
      </g>
     </g>
     <g id="line2d_7">
      <g>
       <use style="stroke:#000000;stroke-width:0.5;" x="212.41807377" xlink:href="#m741efc42ff" y="14.9825"/>
      </g>
     </g>
     <g id="text_2">
      <!-- дек. 2013 -->
      <defs>
       <path d="
M46.2969 11.3281
Q43.2656 5.5625 38.1875 2.14062
Q33.1094 -1.26562 26.5156 -1.26562
Q20.7031 -1.26562 16.3281 0.78125
Q11.9688 2.82812 9.125 6.34375
Q6.29688 9.85938 4.90625 14.5469
Q3.51562 19.2344 3.51562 24.4688
Q3.51562 29.1562 5 33.6719
Q6.5 38.1875 9.375 41.7969
Q12.1562 45.2656 16.2812 47.3906
Q20.4062 49.5156 25.5312 49.5156
Q30.8125 49.5156 34.5625 47.8438
Q38.3281 46.1875 40.6719 43.3125
Q42.9219 40.5781 44.0156 36.8594
Q45.125 33.1562 45.125 28.8125
L45.125 25.5938
L13.2344 25.5938
Q13.2344 20.8438 14.1406 16.9844
Q15.0469 13.1406 17 10.2031
Q18.8906 7.375 21.9688 5.73438
Q25.0469 4.10938 29.2969 4.10938
Q33.6406 4.10938 36.7812 6.125
Q39.9375 8.15625 42.875 13.4219
z

M35.5 29.6875
Q35.5 32.4219 35.0312 35.5469
Q34.5781 38.6719 33.5469 40.7656
Q32.4219 43.0156 30.4688 44.4219
Q28.5156 45.8438 25.4375 45.8438
Q20.3125 45.8438 16.9219 41.5781
Q13.5312 37.3125 13.2344 29.6875
z
" id="Georgia-435"/>
       <path d="
M5.46875 3.95312
Q10.2969 10.3594 13.8906 20.75
Q17.4844 31.1562 17.4844 37.7969
Q17.4844 40.3281 16.8438 41.5469
Q16.2188 42.7812 14.8438 43.4531
Q13.9219 43.9531 11.8125 44.3594
Q9.71875 44.7812 8.40625 44.9219
L8.40625 48.1406
L52.25 48.1406
L52.25 44.9219
Q50.8281 44.8281 49.7812 44.6719
Q48.7344 44.5312 47.8594 44.3438
Q46.4844 43.9531 45.8281 42.7969
Q45.1719 41.6562 45.1719 39.9375
L45.1719 8.73438
Q45.1719 6.15625 46.1719 5.04688
Q47.1719 3.95312 50.3906 3.95312
L53.5156 3.95312
L53.5156 -14.1094
L50 -14.1094
Q48.9688 -9.1875 46.5312 -4.78125
Q44.0938 -0.390625 41.2656 0.203125
L12.8906 0.203125
Q10.25 -0.25 7.53125 -4.6875
Q4.82812 -9.125 3.85938 -14.1094
L0.34375 -14.1094
L0.34375 3.95312
z

M11.0312 3.95312
L32.0781 3.95312
Q34.2344 3.95312 35.1562 4.70312
Q36.0781 5.46875 36.0781 7.03125
L36.0781 44.1406
L22.6562 44.1406
Q22.3594 31.7812 19.25 21.5
Q16.1562 11.2344 11.0312 3.95312" id="Georgia-434"/>
      </defs>
      <g transform="translate(152.375748397 365.520827259)rotate(-30.0)scale(0.16 -0.16)">
       <use xlink:href="#Georgia-434"/>
       <use x="55.95703125" xlink:href="#Georgia-435"/>
       <use x="104.296875" xlink:href="#Georgia-43a"/>
       <use x="159.423828125" xlink:href="#Georgia-2e"/>
       <use x="186.376953125" xlink:href="#Georgia-20"/>
       <use x="210.498046875" xlink:href="#Georgia-32"/>
       <use x="266.357421875" xlink:href="#Georgia-30"/>
       <use x="327.734375" xlink:href="#Georgia-31"/>
       <use x="370.703125" xlink:href="#Georgia-33"/>
      </g>
     </g>
    </g>
    <g id="xtick_3">
     <g id="line2d_8">
      <path clip-path="url(#p6e02df69ae)" d="
M316.395 317.382
L316.395 14.9825" style="fill:none;stroke:#000000;stroke-dasharray:1.000000,3.000000;stroke-dashoffset:0.0;stroke-width:0.5;"/>
     </g>
     <g id="line2d_9">
      <g>
       <use style="stroke:#000000;stroke-width:0.5;" x="316.395122951" xlink:href="#m93b0483c22" y="317.3825"/>
      </g>
     </g>
     <g id="line2d_10">
      <g>
       <use style="stroke:#000000;stroke-width:0.5;" x="316.395122951" xlink:href="#m741efc42ff" y="14.9825"/>
      </g>
     </g>
     <g id="text_3">
      <!-- февр. 2014 -->
      <defs>
       <path d="
M47.5156 42.4375
Q50.3906 39.0156 51.9688 34.5
Q53.5625 29.9844 53.5625 24.1719
Q53.5625 18.4531 51.6562 13.7344
Q49.75 9.03125 46.625 5.71875
Q43.3594 2.34375 39.3594 0.53125
Q35.3594 -1.26562 30.8594 -1.26562
Q26.5156 -1.26562 23.7344 -0.28125
Q20.9531 0.6875 19.1875 2
L18.7969 2
L18.7969 -12.4531
Q18.7969 -14.2031 19.4844 -15.375
Q20.1719 -16.5469 21.5781 -17.0938
Q22.75 -17.5312 24.9219 -17.9375
Q27.0938 -18.3594 28.5156 -18.4062
L28.5156 -21.6875
L1.60938 -21.6875
L1.60938 -18.4062
Q3.125 -18.3125 4.53125 -18.1562
Q5.95312 -18.0156 7.07812 -17.6719
Q8.54688 -17.1875 9.125 -15.9688
Q9.71875 -14.75 9.71875 -13.0938
L9.71875 38.1406
Q9.71875 39.5938 8.98438 40.9531
Q8.25 42.3281 7.07812 43.1719
Q6.20312 43.75 4.64062 44.0625
Q3.07812 44.3906 1.60938 44.4844
L1.60938 47.6562
L18.0156 48.7344
L18.7031 48.1406
L18.7031 42.7188
L19.0938 42.625
Q21.625 45.5625 25.3906 47.5156
Q29.1562 49.4688 32.8594 49.4688
Q37.3594 49.4688 41.0938 47.5625
Q44.8281 45.6562 47.5156 42.4375
M39.5469 7.8125
Q41.5 10.8438 42.4219 14.8438
Q43.3594 18.8438 43.3594 23.7812
Q43.3594 27.3906 42.5781 31.1406
Q41.7969 34.9062 40.1406 37.7031
Q38.4844 40.5312 35.7969 42.2812
Q33.1094 44.0469 29.3438 44.0469
Q25.7344 44.0469 23.1875 42.4531
Q20.6562 40.875 18.7969 38.6719
L18.7969 10.2031
Q19.2344 8.89062 20.2344 7.46875
Q21.2344 6.0625 22.4688 5.03125
Q23.9688 3.8125 25.7188 3.04688
Q27.4844 2.29688 30.0312 2.29688
Q32.7656 2.29688 35.2969 3.73438
Q37.8438 5.17188 39.5469 7.8125" id="Georgia-440"/>
       <path d="
M38.3281 14.1562
Q38.3281 18.4531 35.1562 20.9375
Q31.9844 23.4375 26.0781 23.4375
Q23.4844 23.4375 22 23.3438
Q20.5156 23.25 19.6719 23.25
L19.6719 7.32812
Q19.6719 5.42188 21.2812 4.375
Q22.9062 3.32812 26.2188 3.32812
Q29.7344 3.32812 32.1719 4.25
Q34.625 5.17188 35.9844 6.78125
Q37.3125 8.34375 37.8125 10.2031
Q38.3281 12.0625 38.3281 14.1562
M48.0938 13.4219
Q48.0938 9.85938 46.4844 7.26562
Q44.875 4.6875 42.0469 3.03125
Q39.4531 1.51562 36.125 0.75
Q32.8125 0 29.0469 0
L3.60938 0
L3.60938 3.21875
Q4.73438 3.32812 5.92188 3.42188
Q7.125 3.51562 8.01562 3.8125
Q9.375 4.25 10.0312 5.34375
Q10.6875 6.45312 10.6875 8.20312
L10.6875 39.4531
Q10.6875 41.0625 10 42.1562
Q9.32812 43.2656 7.95312 43.8438
Q6.6875 44.4375 5.48438 44.625
Q4.29688 44.8281 3.26562 44.9219
L3.26562 48.1406
Q7.625 48.1406 14.0312 48.1875
Q20.4531 48.25 27.4375 48.25
Q31.1562 48.25 34.3438 47.7344
Q37.5469 47.2188 40.0469 46
Q42.625 44.7344 44.0312 42.5469
Q45.4531 40.375 45.4531 37.3125
Q45.4531 32.4688 42.4531 29.6562
Q39.4531 26.8594 34.5781 25.8281
L34.5781 25.2969
Q37.0625 24.9531 39.4688 24.1719
Q41.8906 23.3906 43.7969 22.0156
Q45.75 20.6094 46.9219 18.5312
Q48.0938 16.4531 48.0938 13.4219
M35.7969 36.9219
Q35.7969 39.3594 34.8906 40.8906
Q33.9844 42.4375 32.4688 43.3125
Q30.9531 44.1875 29.0781 44.5
Q27.2031 44.8281 25.2031 44.8281
Q23.9219 44.8281 22.375 44.75
Q20.8438 44.6719 19.6719 44.625
L19.6719 27.0469
L24.4219 27.0469
Q27.7812 27.0469 30.0781 27.8281
Q32.375 28.6094 33.5469 29.9375
Q34.7656 31.2031 35.2812 32.9531
Q35.7969 34.7188 35.7969 36.9219" id="Georgia-432"/>
       <path d="
M71.625 24.3125
Q71.625 18.4531 69.9375 13.7188
Q68.2656 8.98438 65.4375 5.85938
Q62.5 2.59375 58.7656 0.90625
Q55.0312 -0.78125 50.5938 -0.78125
Q48.1875 -0.78125 46.0938 -0.171875
Q44 0.4375 42.4375 1.21875
L42.1875 1.21875
L42.1875 -12.4531
Q42.1875 -14.2031 42.875 -15.375
Q43.5625 -16.5469 44.9688 -17.0938
Q46.1406 -17.5312 48.1406 -17.9375
Q50.1406 -18.3594 51.4219 -18.4062
L51.4219 -21.6875
L24.5156 -21.6875
L24.5156 -18.4062
Q26.0312 -18.3125 27.6875 -18.1562
Q29.3438 -18.0156 30.4688 -17.6719
Q31.9375 -17.1875 32.5156 -15.9688
Q33.1094 -14.75 33.1094 -13.0938
L33.1094 1.21875
L32.8594 1.21875
Q31.1094 0.390625 29.2969 -0.1875
Q27.4844 -0.78125 24.7031 -0.78125
Q20.4062 -0.78125 16.5781 0.84375
Q12.75 2.48438 9.85938 5.67188
Q6.98438 8.84375 5.3125 13.4531
Q3.65625 18.0625 3.65625 23.9219
Q3.65625 29.5469 5.26562 34.2344
Q6.89062 38.9219 9.8125 42.2812
Q12.5469 45.4531 16.5312 47.2031
Q20.5156 48.9688 24.7031 48.9688
Q27.0469 48.9688 29.0938 48.375
Q31.1562 47.7969 32.8594 46.9688
L33.1094 46.9688
L33.1094 61.2812
Q33.1094 62.9844 32.4375 64.2031
Q31.7812 65.4375 30.4688 66.3125
Q29.5938 66.8906 28.0469 67.2031
Q26.5156 67.5312 25 67.625
L25 70.7969
L41.5 71.875
L42.1875 71.2969
L42.1875 46.9688
L42.4375 46.9688
Q43.7031 47.6562 46.1406 48.3125
Q48.5781 48.9688 50.5938 48.9688
Q55.0312 48.9688 58.8281 47.3281
Q62.6406 45.7031 65.5312 42.4844
Q68.4062 39.3125 70.0156 34.7188
Q71.625 30.125 71.625 24.3125
M61.6719 24.3125
Q61.6719 29.7812 60.7812 33.7344
Q59.9062 37.7031 58.25 40.2344
Q56.5469 42.8281 54.2656 43.9688
Q52 45.125 49.1719 45.125
Q46.6875 45.125 45.1719 44.4375
Q43.6562 43.75 42.1875 42.625
L42.1875 5.5625
Q43.7031 4.39062 45.0156 3.73438
Q46.3438 3.07812 49.1719 3.07812
Q51.9062 3.07812 54.25 4.29688
Q56.5938 5.51562 58.2031 8.20312
Q60.0156 11.1406 60.8438 15.1406
Q61.6719 19.1406 61.6719 24.3125
M33.1094 5.5625
L33.1094 42.625
Q31.8438 43.6562 30.0469 44.3906
Q28.2656 45.125 26.125 45.125
Q23.3438 45.125 21.0625 43.8906
Q18.7969 42.6719 17.0938 40.0469
Q15.4375 37.4531 14.5312 33.4219
Q13.625 29.3906 13.625 23.9219
Q13.625 18.3594 14.5312 14.4531
Q15.4375 10.5469 17.0938 8.01562
Q18.7031 5.46875 21.0156 4.26562
Q23.3438 3.07812 26.125 3.07812
Q28.4688 3.07812 30.1719 3.8125
Q31.8906 4.54688 33.1094 5.5625" id="Georgia-444"/>
       <path d="
M52.9375 4.39062
L43.0156 4.39062
L43.0156 -17.8281
L33.6406 -17.8281
L33.6406 4.39062
L2.39062 4.39062
L2.39062 11.9219
L36.625 53.6562
L43.0156 53.6562
L43.0156 10.7969
L52.9375 10.7969
z

M33.6406 10.7969
L33.6406 42.7812
L7.28125 10.7969
z
" id="Georgia-34"/>
      </defs>
      <g transform="translate(245.821928667 371.600827259)rotate(-30.0)scale(0.16 -0.16)">
       <use xlink:href="#Georgia-444"/>
       <use x="75.29296875" xlink:href="#Georgia-435"/>
       <use x="123.6328125" xlink:href="#Georgia-432"/>
       <use x="175.439453125" xlink:href="#Georgia-440"/>
       <use x="232.568359375" xlink:href="#Georgia-2e"/>
       <use x="259.521484375" xlink:href="#Georgia-20"/>
       <use x="283.642578125" xlink:href="#Georgia-32"/>
       <use x="339.501953125" xlink:href="#Georgia-30"/>
       <use x="400.87890625" xlink:href="#Georgia-31"/>
       <use x="443.84765625" xlink:href="#Georgia-34"/>
      </g>
     </g>
    </g>
    <g id="xtick_4">
     <g id="line2d_11">
      <path clip-path="url(#p6e02df69ae)" d="
M415.341 317.382
L415.341 14.9825" style="fill:none;stroke:#000000;stroke-dasharray:1.000000,3.000000;stroke-dashoffset:0.0;stroke-width:0.5;"/>
     </g>
     <g id="line2d_12">
      <g>
       <use style="stroke:#000000;stroke-width:0.5;" x="415.34102459" xlink:href="#m93b0483c22" y="317.3825"/>
      </g>
     </g>
     <g id="line2d_13">
      <g>
       <use style="stroke:#000000;stroke-width:0.5;" x="415.34102459" xlink:href="#m741efc42ff" y="14.9825"/>
      </g>
     </g>
     <g id="text_4">
      <!-- апр. 2014 -->
      <defs>
       <path d="
M49.125 0.875
Q46.8281 0.046875 45.0938 -0.46875
Q43.3594 -0.984375 41.1562 -0.984375
Q37.3594 -0.984375 35.0781 0.796875
Q32.8125 2.59375 32.1719 6
L31.8906 6
Q28.7188 2.48438 25.0781 0.625
Q21.4375 -1.21875 16.3125 -1.21875
Q10.8906 -1.21875 7.39062 2.09375
Q3.90625 5.42188 3.90625 10.7969
Q3.90625 13.5781 4.6875 15.7656
Q5.46875 17.9688 7.03125 19.7344
Q8.25 21.1875 10.25 22.3281
Q12.25 23.4844 14.0156 24.1719
Q16.2188 25 22.9219 27.25
Q29.6406 29.5 31.9844 30.7656
L31.9844 35.5938
Q31.9844 36.2344 31.7188 38.0312
Q31.4531 39.8438 30.5625 41.4531
Q29.5938 43.2656 27.8125 44.6094
Q26.0312 45.9531 22.75 45.9531
Q20.5156 45.9531 18.5781 45.1875
Q16.6562 44.4375 15.875 43.6094
Q15.875 42.625 16.3281 40.7188
Q16.7969 38.8125 16.7969 37.2031
Q16.7969 35.5 15.25 34.0781
Q13.7188 32.6719 10.9844 32.6719
Q8.54688 32.6719 7.39062 34.4062
Q6.25 36.1406 6.25 38.2812
Q6.25 40.5312 7.82812 42.5781
Q9.42188 44.625 11.9688 46.2344
Q14.1562 47.6094 17.2812 48.5625
Q20.4062 49.5156 23.3906 49.5156
Q27.4844 49.5156 30.5312 48.9531
Q33.5938 48.3906 36.0781 46.5312
Q38.5781 44.7344 39.8594 41.625
Q41.1562 38.5312 41.1562 33.6406
Q41.1562 26.6562 41.0156 21.2656
Q40.875 15.875 40.875 9.46875
Q40.875 7.5625 41.5312 6.4375
Q42.1875 5.32812 43.5625 4.54688
Q44.2812 4.10938 45.875 4.04688
Q47.4688 4 49.125 4
z

M32.0781 26.6562
Q27.9375 25.4375 24.8125 24.2656
Q21.6875 23.0938 19 21.3438
Q16.5469 19.6719 15.125 17.4062
Q13.7188 15.1406 13.7188 12.0156
Q13.7188 7.95312 15.8438 6.04688
Q17.9688 4.15625 21.2344 4.15625
Q24.7031 4.15625 27.3438 5.82812
Q29.9844 7.51562 31.7812 9.8125
z
" id="Georgia-430"/>
       <path d="
M56.7344 0
L33.2031 0
L33.2031 3.21875
Q34.3281 3.32812 35.5 3.42188
Q36.6719 3.51562 37.5469 3.8125
Q38.9219 4.25 39.6406 5.34375
Q40.375 6.45312 40.375 8.20312
L40.375 44.1406
L19.7812 44.1406
L19.7812 8.6875
Q19.7812 7.03125 20.4531 5.95312
Q21.1406 4.89062 22.5156 4.29688
Q23.5312 3.8125 24.7031 3.5625
Q25.875 3.32812 27.1562 3.21875
L27.1562 0
L3.60938 0
L3.60938 3.21875
Q4.73438 3.32812 5.92188 3.42188
Q7.125 3.51562 8.01562 3.8125
Q9.375 4.25 10.0312 5.34375
Q10.6875 6.45312 10.6875 8.20312
L10.6875 39.4531
Q10.6875 41.0625 10 42.1562
Q9.32812 43.2656 7.95312 43.8438
Q6.6875 44.4375 5.48438 44.625
Q4.29688 44.8281 3.26562 44.9219
L3.26562 48.1406
L56.5469 48.1406
L56.5469 44.9219
Q55.125 44.8281 54.0781 44.6719
Q53.0312 44.5312 52.1562 44.3438
Q50.7812 43.9531 50.125 42.7969
Q49.4688 41.6562 49.4688 39.9375
L49.4688 8.6875
Q49.4688 6.98438 50.0469 5.9375
Q50.6406 4.89062 52.0469 4.29688
Q53.0781 3.8125 54.2656 3.5625
Q55.4688 3.32812 56.7344 3.21875
z
" id="Georgia-43f"/>
      </defs>
      <g transform="translate(353.761504125 366.408327259)rotate(-30.0)scale(0.16 -0.16)">
       <use xlink:href="#Georgia-430"/>
       <use x="50.390625" xlink:href="#Georgia-43f"/>
       <use x="110.546875" xlink:href="#Georgia-440"/>
       <use x="167.67578125" xlink:href="#Georgia-2e"/>
       <use x="194.62890625" xlink:href="#Georgia-20"/>
       <use x="218.75" xlink:href="#Georgia-32"/>
       <use x="274.609375" xlink:href="#Georgia-30"/>
       <use x="335.986328125" xlink:href="#Georgia-31"/>
       <use x="378.955078125" xlink:href="#Georgia-34"/>
      </g>
     </g>
    </g>
    <g id="xtick_5">
     <g id="line2d_14">
      <path clip-path="url(#p6e02df69ae)" d="
M517.641 317.382
L517.641 14.9825" style="fill:none;stroke:#000000;stroke-dasharray:1.000000,3.000000;stroke-dashoffset:0.0;stroke-width:0.5;"/>
     </g>
     <g id="line2d_15">
      <g>
       <use style="stroke:#000000;stroke-width:0.5;" x="517.64102459" xlink:href="#m93b0483c22" y="317.3825"/>
      </g>
     </g>
     <g id="line2d_16">
      <g>
       <use style="stroke:#000000;stroke-width:0.5;" x="517.64102459" xlink:href="#m741efc42ff" y="14.9825"/>
      </g>
     </g>
     <g id="text_5">
      <!-- июня 2014 -->
      <defs>
       <path d="
M57.8125 0
L34.4219 0
L34.4219 3.21875
Q35.5469 3.32812 36.7344 3.42188
Q37.9375 3.51562 38.8125 3.8125
Q40.1875 4.25 40.9219 5.34375
Q41.6562 6.45312 41.6562 8.20312
L41.6562 33.5
L19.4844 9.51562
L19.4844 8.6875
Q19.4844 7.03125 20.1562 5.95312
Q20.8438 4.89062 22.2188 4.29688
Q23.2969 3.8125 24.4844 3.5625
Q25.6875 3.32812 27 3.21875
L27 0
L3.60938 0
L3.60938 3.21875
Q4.73438 3.32812 5.92188 3.42188
Q7.125 3.51562 8.01562 3.8125
Q9.375 4.25 10.0312 5.34375
Q10.6875 6.45312 10.6875 8.20312
L10.6875 39.4531
Q10.6875 41.0625 10 42.1562
Q9.32812 43.2656 7.95312 43.8438
Q6.6875 44.4375 5.48438 44.625
Q4.29688 44.8281 3.26562 44.9219
L3.26562 48.1406
L26.6562 48.1406
L26.6562 44.9219
Q25.25 44.8281 24.1875 44.6719
Q23.1406 44.5312 22.2656 44.3438
Q20.9062 43.9531 20.2344 42.7969
Q19.5781 41.6562 19.5781 39.9375
L19.5781 15.0469
L41.75 39.0625
Q41.75 41.2188 41.0625 42.2344
Q40.375 43.2656 39.0156 43.8438
Q37.75 44.4375 36.5 44.625
Q35.25 44.8281 34.2344 44.9219
L34.2344 48.1406
L57.625 48.1406
L57.625 44.9219
Q56.2031 44.8281 55.1562 44.6719
Q54.1094 44.5312 53.2188 44.3438
Q51.8594 43.9531 51.1875 42.7969
Q50.5312 41.6562 50.5312 39.9375
L50.5312 8.6875
Q50.5312 6.98438 51.1094 5.9375
Q51.7031 4.89062 53.125 4.29688
Q54.1562 3.8125 55.3438 3.5625
Q56.5469 3.32812 57.8125 3.21875
z
" id="Georgia-438"/>
       <path d="
M62.4062 8.79688
Q63.9219 11.8594 64.6406 15.7969
Q65.375 19.7344 65.375 24.4688
Q65.375 28.4688 64.7812 32.25
Q64.2031 36.0312 62.7031 39.1094
Q61.2344 42.1406 58.7656 43.9688
Q56.2969 45.7969 52.6406 45.7969
Q48.6875 45.7969 46.1406 43.8438
Q43.6094 41.8906 42.1406 38.875
Q40.6719 35.9375 40.0781 32.1719
Q39.5 28.4219 39.5 24.7031
Q39.5 20.1719 40.2031 16.0938
Q40.9219 12.0156 42.4844 8.9375
Q44.0469 5.8125 46.4844 4.03125
Q48.9219 2.25 52.6406 2.25
Q55.9531 2.25 58.4219 4.03125
Q60.8906 5.8125 62.4062 8.79688
M36.4219 5.21875
Q33.4062 8.54688 31.6875 13.1094
Q29.9844 17.6719 29.8906 23.5312
L19.6719 23.5312
L19.6719 8.6875
Q19.6719 7.03125 20.3594 5.95312
Q21.0469 4.89062 22.4062 4.29688
Q23.4375 3.8125 24.625 3.5625
Q25.8281 3.32812 27.0938 3.21875
L27.0938 0
L3.60938 0
L3.60938 3.21875
Q4.73438 3.32812 5.92188 3.42188
Q7.125 3.51562 8.01562 3.8125
Q9.375 4.25 10.0312 5.34375
Q10.6875 6.45312 10.6875 8.20312
L10.6875 39.4531
Q10.6875 41.0625 10 42.1562
Q9.32812 43.2656 7.95312 43.8438
Q6.6875 44.4375 5.48438 44.625
Q4.29688 44.8281 3.26562 44.9219
L3.26562 48.1406
L26.7656 48.1406
L26.7656 44.9219
Q25.3438 44.8281 24.2969 44.6719
Q23.25 44.5312 22.3594 44.3438
Q21 43.9531 20.3281 42.7969
Q19.6719 41.6562 19.6719 39.9375
L19.6719 27.5469
L30.0312 27.5469
Q30.9531 37.3125 36.9844 43.4062
Q43.0156 49.5156 52.7344 49.5156
Q58.1562 49.5156 62.375 47.5625
Q66.6094 45.6094 69.4375 42.3906
Q72.4062 39.0156 73.9375 34.5469
Q75.4844 30.0781 75.4844 24.5625
Q75.4844 19.3906 73.9375 14.5469
Q72.4062 9.71875 69.4844 6.25
Q66.4062 2.64062 62.1562 0.578125
Q57.9062 -1.46875 52 -1.46875
Q47.4688 -1.46875 43.4531 0.265625
Q39.4531 2 36.4219 5.21875" id="Georgia-44e"/>
       <path d="
M35.0156 25.2969
L35.0156 44.6719
L29.5469 44.6719
Q24.4219 44.6719 21.0469 42.2812
Q17.6719 39.8906 17.6719 35.2031
Q17.6719 30.375 21.2344 27.8281
Q24.8125 25.2969 31.3906 25.2969
z

M20.2656 23.25
L20.2656 23.5312
Q13.6719 24.8594 10.6719 27.9062
Q7.67188 30.9531 7.67188 35.6406
Q7.67188 41.4062 12.8594 44.7656
Q18.0625 48.1406 26.0312 48.1406
L51.1719 48.1406
L51.1719 44.9219
Q49.75 44.8281 48.7031 44.6719
Q47.6562 44.5312 46.7812 44.3438
Q45.4062 43.9531 44.75 42.7969
Q44.0938 41.6562 44.0938 39.9375
L44.0938 8.6875
Q44.0938 6.98438 44.6719 5.9375
Q45.2656 4.89062 46.6875 4.29688
Q47.7031 3.8125 48.8906 3.5625
Q50.0938 3.32812 51.375 3.21875
L51.375 0
L27.7812 0
L27.7812 3.21875
Q28.9062 3.32812 30.0938 3.42188
Q31.2969 3.51562 32.1719 3.8125
Q33.5469 4.25 34.2812 5.34375
Q35.0156 6.45312 35.0156 8.20312
L35.0156 21.7344
L32.9531 21.7344
Q28.4219 21.7344 25.8594 20
Q23.2969 18.2656 20.9531 13.4844
Q19.2344 9.90625 18.1406 6.875
Q17.0469 3.85938 15.875 0
L-0.59375 0
L-0.59375 3.21875
Q0.53125 3.375 1.53125 3.51562
Q2.54688 3.65625 3.71875 3.85938
Q5.21875 4.15625 6.46875 5.03125
Q7.71875 5.90625 8.64062 7.90625
Q9.125 9.03125 9.98438 10.9062
Q10.8438 12.7969 12.0156 15.1406
Q13.5781 18.2188 15.5 20.1719
Q17.4375 22.125 20.2656 23.25" id="Georgia-44f"/>
       <path d="
M57.4688 0
L33.9375 0
L33.9375 3.21875
Q35.0625 3.32812 36.25 3.42188
Q37.4531 3.51562 38.3281 3.8125
Q39.7031 4.25 40.4219 5.34375
Q41.1562 6.45312 41.1562 8.20312
L41.1562 23.5312
L19.7344 23.5312
L19.7344 8.6875
Q19.7344 7.03125 20.4062 5.95312
Q21.0938 4.89062 22.4688 4.29688
Q23.4844 3.8125 24.6719 3.5625
Q25.875 3.32812 27.1562 3.21875
L27.1562 0
L3.60938 0
L3.60938 3.21875
Q4.73438 3.32812 5.92188 3.42188
Q7.125 3.51562 8.01562 3.8125
Q9.375 4.25 10.0312 5.34375
Q10.6875 6.45312 10.6875 8.20312
L10.6875 39.4531
Q10.6875 41.0625 10 42.1562
Q9.32812 43.2656 7.95312 43.8438
Q6.6875 44.4375 5.48438 44.625
Q4.29688 44.8281 3.26562 44.9219
L3.26562 48.1406
L26.8125 48.1406
L26.8125 44.9219
Q25.3906 44.8281 24.3438 44.6719
Q23.2969 44.5312 22.4062 44.3438
Q21.0469 43.9531 20.3906 42.7969
Q19.7344 41.6562 19.7344 39.9375
L19.7344 27.5469
L41.1562 27.5469
L41.1562 39.4531
Q41.1562 41.0625 40.4688 42.1562
Q39.7969 43.2656 38.4219 43.8438
Q37.1562 44.4375 35.9531 44.625
Q34.7656 44.8281 33.7344 44.9219
L33.7344 48.1406
L57.2812 48.1406
L57.2812 44.9219
Q55.8594 44.8281 54.8125 44.6719
Q53.7656 44.5312 52.875 44.3438
Q51.5156 43.9531 50.8594 42.7969
Q50.2031 41.6562 50.2031 39.9375
L50.2031 8.6875
Q50.2031 6.98438 50.7812 5.9375
Q51.375 4.89062 52.7812 4.29688
Q53.8125 3.8125 55 3.5625
Q56.2031 3.32812 57.4688 3.21875
z
" id="Georgia-43d"/>
      </defs>
      <g transform="translate(447.576620232 371.307077259)rotate(-30.0)scale(0.16 -0.16)">
       <use xlink:href="#Georgia-438"/>
       <use x="61.23046875" xlink:href="#Georgia-44e"/>
       <use x="140.185546875" xlink:href="#Georgia-43d"/>
       <use x="201.07421875" xlink:href="#Georgia-44f"/>
       <use x="255.859375" xlink:href="#Georgia-20"/>
       <use x="279.98046875" xlink:href="#Georgia-32"/>
       <use x="335.83984375" xlink:href="#Georgia-30"/>
       <use x="397.216796875" xlink:href="#Georgia-31"/>
       <use x="440.185546875" xlink:href="#Georgia-34"/>
      </g>
     </g>
    </g>
    <g id="xtick_6">
     <g id="line2d_17">
      <path clip-path="url(#p6e02df69ae)" d="
M619.941 317.382
L619.941 14.9825" style="fill:none;stroke:#000000;stroke-dasharray:1.000000,3.000000;stroke-dashoffset:0.0;stroke-width:0.5;"/>
     </g>
     <g id="line2d_18">
      <g>
       <use style="stroke:#000000;stroke-width:0.5;" x="619.94102459" xlink:href="#m93b0483c22" y="317.3825"/>
      </g>
     </g>
     <g id="line2d_19">
      <g>
       <use style="stroke:#000000;stroke-width:0.5;" x="619.94102459" xlink:href="#m741efc42ff" y="14.9825"/>
      </g>
     </g>
     <g id="text_6">
      <!-- авг. 2014 -->
      <defs>
       <path d="
M27.875 0
L3.60938 0
L3.60938 3.21875
Q4.73438 3.32812 5.92188 3.42188
Q7.125 3.51562 8.01562 3.8125
Q9.375 4.25 10.0312 5.34375
Q10.6875 6.45312 10.6875 8.20312
L10.6875 39.4531
Q10.6875 41.0625 10 42.1562
Q9.32812 43.2656 7.95312 43.8438
Q6.6875 44.4375 5.3125 44.625
Q3.95312 44.8281 2.98438 44.9219
L2.98438 48.1406
L43.1094 48.1406
L43.1094 32.1719
L40.0938 32.1719
Q39.75 33.25 38.8594 35.2969
Q37.9844 37.3594 36.8594 39.1562
Q35.75 41.1094 34.4062 42.5469
Q33.0625 44 31.5938 44.1875
Q30.2188 44.3438 28.2656 44.4062
Q26.3125 44.4844 24.9531 44.4844
L19.7812 44.4844
L19.7812 8.6875
Q19.7812 7.03125 20.4531 5.95312
Q21.1406 4.89062 22.5156 4.29688
Q23.5781 3.8125 25.0625 3.5625
Q26.5625 3.32812 27.875 3.21875
z
" id="Georgia-433"/>
      </defs>
      <g transform="translate(561.336301387 364.690827259)rotate(-30.0)scale(0.16 -0.16)">
       <use xlink:href="#Georgia-430"/>
       <use x="50.390625" xlink:href="#Georgia-432"/>
       <use x="102.197265625" xlink:href="#Georgia-433"/>
       <use x="146.19140625" xlink:href="#Georgia-2e"/>
       <use x="173.14453125" xlink:href="#Georgia-20"/>
       <use x="197.265625" xlink:href="#Georgia-32"/>
       <use x="253.125" xlink:href="#Georgia-30"/>
       <use x="314.501953125" xlink:href="#Georgia-31"/>
       <use x="357.470703125" xlink:href="#Georgia-34"/>
      </g>
     </g>
    </g>
    <g id="text_7">
     <!-- Дата -->
     <defs>
      <path d="
M47.75 8.64062
L47.75 65.1875
L28.3281 65.1875
Q28.3281 47.75 23.9531 31.4844
Q19.5781 15.2344 12.9375 4.25
L43.2188 4.25
Q45.5625 4.25 46.6562 5.3125
Q47.75 6.39062 47.75 8.64062
M14.6562 0.140625
Q12.7031 -0.09375 10.8594 -2.0625
Q9.03125 -4.04688 7.5625 -6.59375
Q6.20312 -8.9375 5.125 -11.7969
Q4.04688 -14.6562 3.60938 -16.1562
L-0.046875 -16.1562
L-0.046875 4.25
L6.6875 4.25
Q12.5938 13.1406 17.4531 28.4688
Q22.3125 43.7969 22.3125 55.7656
Q22.3125 59.4219 21.6562 61.3438
Q21 63.2812 19.1406 64.1562
Q17.9219 64.75 15.2812 65.2031
Q12.6406 65.6719 11.4219 65.8281
L11.4219 69.2812
L67.2344 69.2812
L67.2344 65.8281
Q65.875 65.7656 63.8906 65.375
Q61.9219 64.9844 60.9375 64.6562
Q59.2812 64.0625 58.7188 62.6875
Q58.1562 61.3281 58.1562 59.7188
L58.1562 9.03125
Q58.1562 6.29688 59.5156 5.25
Q60.8906 4.20312 63.9219 4.20312
L68.0156 4.20312
L68.0156 -16.1562
L64.3594 -16.1562
Q63.875 -14.2656 63.0938 -11.9688
Q62.3125 -9.67188 60.6406 -6.59375
Q59.1875 -3.85938 57.5625 -2
Q55.9531 -0.140625 53.8125 0.140625
z
" id="Georgia-414"/>
     </defs>
     <g transform="translate(345.84375 391.70093541)scale(0.16 -0.16)">
      <use xlink:href="#Georgia-414"/>
      <use x="72.216796875" xlink:href="#Georgia-430"/>
      <use x="122.607421875" xlink:href="#Georgia-442"/>
      <use x="169.677734375" xlink:href="#Georgia-430"/>
     </g>
    </g>
   </g>
   <g id="matplotlib.axis_2">
    <g id="ytick_1">
     <g id="line2d_20">
      <path clip-path="url(#p6e02df69ae)" d="
M56.4525 317.382
L670.253 317.382" style="fill:none;stroke:#000000;stroke-dasharray:1.000000,3.000000;stroke-dashoffset:0.0;stroke-width:0.5;"/>
     </g>
     <g id="line2d_21">
      <defs>
       <path d="
M0 0
L4 0" id="m728421d6d4" style="stroke:#000000;stroke-width:0.5;"/>
      </defs>
      <g>
       <use style="stroke:#000000;stroke-width:0.5;" x="56.4525" xlink:href="#m728421d6d4" y="317.3825"/>
      </g>
     </g>
     <g id="line2d_22">
      <defs>
       <path d="
M0 0
L-4 0" id="mcb0005524f" style="stroke:#000000;stroke-width:0.5;"/>
      </defs>
      <g>
       <use style="stroke:#000000;stroke-width:0.5;" x="670.2525" xlink:href="#mcb0005524f" y="317.3825"/>
      </g>
     </g>
     <g id="text_8">
      <!-- 0 -->
      <g transform="translate(44.2425 321.695)scale(0.16 -0.16)">
       <use xlink:href="#Georgia-30"/>
      </g>
     </g>
    </g>
    <g id="ytick_2">
     <g id="line2d_23">
      <path clip-path="url(#p6e02df69ae)" d="
M56.4525 279.582
L670.253 279.582" style="fill:none;stroke:#000000;stroke-dasharray:1.000000,3.000000;stroke-dashoffset:0.0;stroke-width:0.5;"/>
     </g>
     <g id="line2d_24">
      <g>
       <use style="stroke:#000000;stroke-width:0.5;" x="56.4525" xlink:href="#m728421d6d4" y="279.5825"/>
      </g>
     </g>
     <g id="line2d_25">
      <g>
       <use style="stroke:#000000;stroke-width:0.5;" x="670.2525" xlink:href="#mcb0005524f" y="279.5825"/>
      </g>
     </g>
     <g id="text_9">
      <!-- 20 -->
      <g transform="translate(35.36 283.895)scale(0.16 -0.16)">
       <use xlink:href="#Georgia-32"/>
       <use x="55.859375" xlink:href="#Georgia-30"/>
      </g>
     </g>
    </g>
    <g id="ytick_3">
     <g id="line2d_26">
      <path clip-path="url(#p6e02df69ae)" d="
M56.4525 241.782
L670.253 241.782" style="fill:none;stroke:#000000;stroke-dasharray:1.000000,3.000000;stroke-dashoffset:0.0;stroke-width:0.5;"/>
     </g>
     <g id="line2d_27">
      <g>
       <use style="stroke:#000000;stroke-width:0.5;" x="56.4525" xlink:href="#m728421d6d4" y="241.7825"/>
      </g>
     </g>
     <g id="line2d_28">
      <g>
       <use style="stroke:#000000;stroke-width:0.5;" x="670.2525" xlink:href="#mcb0005524f" y="241.7825"/>
      </g>
     </g>
     <g id="text_10">
      <!-- 40 -->
      <g transform="translate(34.78 246.095)scale(0.16 -0.16)">
       <use xlink:href="#Georgia-34"/>
       <use x="56.494140625" xlink:href="#Georgia-30"/>
      </g>
     </g>
    </g>
    <g id="ytick_4">
     <g id="line2d_29">
      <path clip-path="url(#p6e02df69ae)" d="
M56.4525 203.982
L670.253 203.982" style="fill:none;stroke:#000000;stroke-dasharray:1.000000,3.000000;stroke-dashoffset:0.0;stroke-width:0.5;"/>
     </g>
     <g id="line2d_30">
      <g>
       <use style="stroke:#000000;stroke-width:0.5;" x="56.4525" xlink:href="#m728421d6d4" y="203.9825"/>
      </g>
     </g>
     <g id="line2d_31">
      <g>
       <use style="stroke:#000000;stroke-width:0.5;" x="670.2525" xlink:href="#mcb0005524f" y="203.9825"/>
      </g>
     </g>
     <g id="text_11">
      <!-- 60 -->
      <defs>
       <path d="
M52.4844 22.5156
Q52.4844 17.4375 50.6562 12.9844
Q48.8281 8.54688 45.75 5.42188
Q42.1875 1.85938 37.8594 0.140625
Q33.5469 -1.5625 28.8594 -1.5625
Q23.4375 -1.5625 19.0469 0.4375
Q14.6562 2.4375 11.5781 6.10938
Q8.45312 9.8125 6.73438 15.1875
Q5.03125 20.5625 5.03125 27.25
Q5.03125 44.6719 15.4062 56.6406
Q25.7812 68.6094 43.2188 71
L44.0938 66.6094
L39.7031 65.8281
Q29.1094 62.4062 23.3125 55.1719
Q17.5312 47.9531 15.8281 37.6406
Q20.0156 41.3125 24.1094 42.8281
Q28.2188 44.3438 32.7656 44.3438
Q40.9219 44.3438 46.7031 38.0938
Q52.4844 31.8438 52.4844 22.5156
M41.8906 21.1875
Q41.8906 29.1094 38.25 33.8906
Q34.625 38.6719 28.5156 38.6719
Q24.8594 38.6719 21.7031 37.2969
Q18.5625 35.9375 15.625 32.7188
Q15.5781 32.125 15.4688 30
Q15.375 27.875 15.375 26.6562
Q15.375 15.2344 19.1094 8.76562
Q22.8594 2.29688 28.9531 2.29688
Q34.7656 2.29688 38.3281 7.34375
Q41.8906 12.4062 41.8906 21.1875" id="Georgia-36"/>
      </defs>
      <g transform="translate(35.1875 208.295)scale(0.16 -0.16)">
       <use xlink:href="#Georgia-36"/>
       <use x="56.591796875" xlink:href="#Georgia-30"/>
      </g>
     </g>
    </g>
    <g id="ytick_5">
     <g id="line2d_32">
      <path clip-path="url(#p6e02df69ae)" d="
M56.4525 166.182
L670.253 166.182" style="fill:none;stroke:#000000;stroke-dasharray:1.000000,3.000000;stroke-dashoffset:0.0;stroke-width:0.5;"/>
     </g>
     <g id="line2d_33">
      <g>
       <use style="stroke:#000000;stroke-width:0.5;" x="56.4525" xlink:href="#m728421d6d4" y="166.1825"/>
      </g>
     </g>
     <g id="line2d_34">
      <g>
       <use style="stroke:#000000;stroke-width:0.5;" x="670.2525" xlink:href="#mcb0005524f" y="166.1825"/>
      </g>
     </g>
     <g id="text_12">
      <!-- 80 -->
      <defs>
       <path d="
M54.5469 18.3594
Q54.5469 10.1562 47.4531 4.25
Q40.375 -1.65625 28.8594 -1.65625
Q18.0625 -1.65625 11.5625 3.76562
Q5.07812 9.1875 5.07812 17.7188
Q5.07812 24.0312 8.90625 28.25
Q12.75 32.4688 20.2656 35.4062
Q14.0625 38.875 10.9844 43.0156
Q7.90625 47.1719 7.90625 52.3906
Q7.90625 60.3594 14.6719 65.7188
Q21.4375 71.0938 30.8594 71.0938
Q40.2812 71.0938 46.1094 66.0156
Q51.9531 60.9375 51.9531 53.2656
Q51.9531 48.3438 48.7344 43.9219
Q45.5156 39.5 39.2656 36.6719
Q47.3594 33.2031 50.9531 29
Q54.5469 24.8125 54.5469 18.3594
M42.7188 53.8125
Q42.7188 59.7656 39.1719 63.5
Q35.6406 67.2344 30.125 67.2344
Q24.6094 67.2344 21.0938 63.6406
Q17.5781 60.0625 17.5781 54.7344
Q17.5781 49.6094 21.5781 46.0469
Q25.5938 42.4844 35.8438 38.4219
Q39.5 40.7656 41.1094 44.625
Q42.7188 48.4844 42.7188 53.8125
M44.7812 16.0625
Q44.7812 19.1406 43.4531 21.4531
Q42.1406 23.7812 39.6562 25.6875
Q37.25 27.5469 32.9844 29.5625
Q28.7188 31.5938 23.7344 33.6875
Q19.0469 31.1562 16.8438 27.2188
Q14.6562 23.2969 14.6562 18.2656
Q14.6562 11.0781 18.875 6.65625
Q23.0938 2.25 30.125 2.25
Q36.8594 2.25 40.8125 6.15625
Q44.7812 10.0625 44.7812 16.0625" id="Georgia-38"/>
      </defs>
      <g transform="translate(34.71 170.495)scale(0.16 -0.16)">
       <use xlink:href="#Georgia-38"/>
       <use x="59.619140625" xlink:href="#Georgia-30"/>
      </g>
     </g>
    </g>
    <g id="ytick_6">
     <g id="line2d_35">
      <path clip-path="url(#p6e02df69ae)" d="
M56.4525 128.382
L670.253 128.382" style="fill:none;stroke:#000000;stroke-dasharray:1.000000,3.000000;stroke-dashoffset:0.0;stroke-width:0.5;"/>
     </g>
     <g id="line2d_36">
      <g>
       <use style="stroke:#000000;stroke-width:0.5;" x="56.4525" xlink:href="#m728421d6d4" y="128.3825"/>
      </g>
     </g>
     <g id="line2d_37">
      <g>
       <use style="stroke:#000000;stroke-width:0.5;" x="670.2525" xlink:href="#mcb0005524f" y="128.3825"/>
      </g>
     </g>
     <g id="text_13">
      <!-- 100 -->
      <g transform="translate(27.765 132.695)scale(0.16 -0.16)">
       <use xlink:href="#Georgia-31"/>
       <use x="42.96875" xlink:href="#Georgia-30"/>
       <use x="104.345703125" xlink:href="#Georgia-30"/>
      </g>
     </g>
    </g>
    <g id="ytick_7">
     <g id="line2d_38">
      <path clip-path="url(#p6e02df69ae)" d="
M56.4525 90.5825
L670.253 90.5825" style="fill:none;stroke:#000000;stroke-dasharray:1.000000,3.000000;stroke-dashoffset:0.0;stroke-width:0.5;"/>
     </g>
     <g id="line2d_39">
      <g>
       <use style="stroke:#000000;stroke-width:0.5;" x="56.4525" xlink:href="#m728421d6d4" y="90.5825"/>
      </g>
     </g>
     <g id="line2d_40">
      <g>
       <use style="stroke:#000000;stroke-width:0.5;" x="670.2525" xlink:href="#mcb0005524f" y="90.5825"/>
      </g>
     </g>
     <g id="text_14">
      <!-- 120 -->
      <g transform="translate(28.6475 94.895)scale(0.16 -0.16)">
       <use xlink:href="#Georgia-31"/>
       <use x="42.96875" xlink:href="#Georgia-32"/>
       <use x="98.828125" xlink:href="#Georgia-30"/>
      </g>
     </g>
    </g>
    <g id="ytick_8">
     <g id="line2d_41">
      <path clip-path="url(#p6e02df69ae)" d="
M56.4525 52.7825
L670.253 52.7825" style="fill:none;stroke:#000000;stroke-dasharray:1.000000,3.000000;stroke-dashoffset:0.0;stroke-width:0.5;"/>
     </g>
     <g id="line2d_42">
      <g>
       <use style="stroke:#000000;stroke-width:0.5;" x="56.4525" xlink:href="#m728421d6d4" y="52.7825"/>
      </g>
     </g>
     <g id="line2d_43">
      <g>
       <use style="stroke:#000000;stroke-width:0.5;" x="670.2525" xlink:href="#mcb0005524f" y="52.7825"/>
      </g>
     </g>
     <g id="text_15">
      <!-- 140 -->
      <g transform="translate(28.545 57.095)scale(0.16 -0.16)">
       <use xlink:href="#Georgia-31"/>
       <use x="42.96875" xlink:href="#Georgia-34"/>
       <use x="99.462890625" xlink:href="#Georgia-30"/>
      </g>
     </g>
    </g>
    <g id="ytick_9">
     <g id="line2d_44">
      <path clip-path="url(#p6e02df69ae)" d="
M56.4525 14.9825
L670.253 14.9825" style="fill:none;stroke:#000000;stroke-dasharray:1.000000,3.000000;stroke-dashoffset:0.0;stroke-width:0.5;"/>
     </g>
     <g id="line2d_45">
      <g>
       <use style="stroke:#000000;stroke-width:0.5;" x="56.4525" xlink:href="#m728421d6d4" y="14.9825"/>
      </g>
     </g>
     <g id="line2d_46">
      <g>
       <use style="stroke:#000000;stroke-width:0.5;" x="670.2525" xlink:href="#mcb0005524f" y="14.9825"/>
      </g>
     </g>
     <g id="text_16">
      <!-- 160 -->
      <g transform="translate(28.53 19.295)scale(0.16 -0.16)">
       <use xlink:href="#Georgia-31"/>
       <use x="42.96875" xlink:href="#Georgia-36"/>
       <use x="99.560546875" xlink:href="#Georgia-30"/>
      </g>
     </g>
    </g>
    <g id="text_17">
     <!-- Количество статей -->
     <defs>
      <path d="
M57.8125 0
L34.4219 0
L34.4219 3.21875
Q35.5469 3.32812 36.7344 3.42188
Q37.9375 3.51562 38.8125 3.8125
Q40.1875 4.25 40.9219 5.34375
Q41.6562 6.45312 41.6562 8.20312
L41.6562 33.5
L19.4844 9.51562
L19.4844 8.6875
Q19.4844 7.03125 20.1562 5.95312
Q20.8438 4.89062 22.2188 4.29688
Q23.2969 3.8125 24.4844 3.5625
Q25.6875 3.32812 27 3.21875
L27 0
L3.60938 0
L3.60938 3.21875
Q4.73438 3.32812 5.92188 3.42188
Q7.125 3.51562 8.01562 3.8125
Q9.375 4.25 10.0312 5.34375
Q10.6875 6.45312 10.6875 8.20312
L10.6875 39.4531
Q10.6875 41.0625 10 42.1562
Q9.32812 43.2656 7.95312 43.8438
Q6.6875 44.4375 5.48438 44.625
Q4.29688 44.8281 3.26562 44.9219
L3.26562 48.1406
L26.6562 48.1406
L26.6562 44.9219
Q25.25 44.8281 24.1875 44.6719
Q23.1406 44.5312 22.2656 44.3438
Q20.9062 43.9531 20.2344 42.7969
Q19.5781 41.6562 19.5781 39.9375
L19.5781 15.0469
L41.75 39.0625
Q41.75 41.2188 41.0625 42.2344
Q40.375 43.2656 39.0156 43.8438
Q37.75 44.4375 36.5 44.625
Q35.25 44.8281 34.2344 44.9219
L34.2344 48.1406
L57.625 48.1406
L57.625 44.9219
Q56.2031 44.8281 55.1562 44.6719
Q54.1094 44.5312 53.2188 44.3438
Q51.8594 43.9531 51.1875 42.7969
Q50.5312 41.6562 50.5312 39.9375
L50.5312 8.6875
Q50.5312 6.98438 51.1094 5.9375
Q51.7031 4.89062 53.125 4.29688
Q54.1562 3.8125 55.3438 3.5625
Q56.5469 3.32812 57.8125 3.21875
z

M47.0781 67.9219
Q47.0781 66.4062 46.1719 64.2969
Q45.2656 62.2031 43.5 60.6406
Q41.4531 58.8438 38.5469 57.7188
Q35.6406 56.5938 30.6719 56.5938
Q25.9844 56.5938 22.9062 57.7344
Q19.8281 58.8906 17.875 60.6406
Q16.0156 62.3594 15.2031 64.3281
Q14.4062 66.3125 14.4062 67.9219
Q14.4062 70.2656 15.7969 71.75
Q17.1875 73.25 19.1406 73.25
Q20.9531 73.25 22.5156 72.1719
Q24.0781 71.0938 24.0781 68.6562
Q24.0781 67.2344 23.4844 65.5
Q22.9062 63.7656 22.5625 62.9844
Q23.875 61.375 26.0469 60.5938
Q28.2188 59.8125 30.6719 59.8125
Q32.8125 59.8125 35.2031 60.5625
Q37.5938 61.3281 38.9219 62.9844
Q38.5312 63.9219 37.9688 65.6562
Q37.4062 67.3906 37.4062 68.6562
Q37.4062 71.0938 38.9688 72.1719
Q40.5312 73.25 42.2812 73.25
Q44.2812 73.25 45.6719 71.75
Q47.0781 70.2656 47.0781 67.9219" id="Georgia-439"/>
      <path d="
M25.7812 -1.26562
Q15.3281 -1.26562 9.42188 5.65625
Q3.51562 12.5938 3.51562 24.2656
Q3.51562 29.3438 5.09375 33.7656
Q6.6875 38.1875 9.71875 41.7969
Q12.5938 45.2656 16.9375 47.3906
Q21.2969 49.5156 26.4219 49.5156
Q33.5 49.5156 37.9375 46.1094
Q42.3906 42.7188 42.3906 36.8594
Q42.3906 34.4219 41.2188 32.5469
Q40.0469 30.6719 37.3594 30.6719
Q34.4688 30.6719 32.875 32.125
Q31.2969 33.5938 31.2969 35.4062
Q31.2969 37.5938 31.875 39.9062
Q32.4688 42.2344 32.5625 43.3125
Q31.6875 44.8281 29.9531 45.3281
Q28.2188 45.8438 26.2188 45.8438
Q23.875 45.8438 21.75 44.8438
Q19.625 43.8438 17.625 41.1562
Q15.8281 38.7188 14.7031 34.5625
Q13.5781 30.4219 13.5781 24.6562
Q13.5781 15.5781 17.5938 9.84375
Q21.625 4.10938 28.1719 4.10938
Q32.9062 4.10938 36.1094 6.39062
Q39.3125 8.6875 42.0469 13.2812
L45.1719 11.2344
Q41.9375 5.46875 36.6562 2.09375
Q31.3906 -1.26562 25.7812 -1.26562" id="Georgia-441"/>
      <path d="
M54.6875 0
L31.1562 0
L31.1562 3.21875
Q32.2812 3.32812 33.4531 3.42188
Q34.625 3.51562 35.5 3.8125
Q36.8594 4.25 37.5938 5.34375
Q38.3281 6.45312 38.3281 8.20312
L38.3281 44.1406
L24.9531 44.1406
Q24.9531 32.2344 23.2812 23.6406
Q21.625 15.0469 19 9.625
Q16.4062 4.29688 13.125 1.65625
Q9.85938 -0.984375 6.45312 -0.984375
Q2.9375 -0.984375 1.125 0.84375
Q-0.6875 2.6875 -0.6875 5.125
Q-0.6875 6.89062 0.453125 8.45312
Q1.60938 10.0156 3.8125 10.0156
Q5.85938 10.0156 7.51562 8.84375
Q9.1875 7.67188 10.75 5.5625
Q11.9219 6.64062 13.5 9.54688
Q15.0938 12.4531 16.4062 16.75
Q17.875 21.3906 18.7969 26.3594
Q19.7344 31.3438 19.7344 37.7969
Q19.7344 40.3281 19.0938 41.5469
Q18.4531 42.7812 17.0938 43.4531
Q16.1562 43.9531 14.0625 44.3594
Q11.9688 44.7812 10.6406 44.9219
L10.6406 48.1406
L54.5 48.1406
L54.5 44.9219
Q53.0781 44.8281 52.0312 44.6719
Q50.9844 44.5312 50.0938 44.3438
Q48.7344 43.9531 48.0625 42.7969
Q47.4062 41.6562 47.4062 39.9375
L47.4062 8.6875
Q47.4062 6.98438 47.9844 5.9375
Q48.5781 4.89062 50 4.29688
Q51.0312 3.8125 52.2188 3.5625
Q53.4219 3.32812 54.6875 3.21875
z
" id="Georgia-43b"/>
      <path d="
M70.5625 0
L51.4688 0
Q49.4688 5.67188 47.5625 10.3281
Q45.6562 14.9844 43.6562 19.3906
Q40.375 26.7656 37.0312 29.3438
Q33.6875 31.9375 28.0312 31.9375
L24.4688 31.9375
L24.4688 9.76562
Q24.4688 8.15625 25.0781 6.875
Q25.6875 5.60938 27.2969 4.82812
Q28.0781 4.5 30.2031 4
Q32.3281 3.51562 33.7344 3.46875
L33.7344 0
L4.98438 0
L4.98438 3.46875
Q6.10938 3.5625 8.25 3.75
Q10.4062 3.95312 11.2812 4.34375
Q12.75 4.98438 13.4062 6.21875
Q14.0625 7.46875 14.0625 9.23438
L14.0625 59.2344
Q14.0625 60.8906 13.5 62.1094
Q12.9375 63.3281 11.2812 64.1094
Q9.96875 64.75 8.15625 65.2344
Q6.34375 65.7188 4.98438 65.8281
L4.98438 69.2812
L33.7344 69.2812
L33.7344 65.8281
Q32.375 65.7656 30.3125 65.375
Q28.2656 64.9844 27.2969 64.6562
Q25.6406 64.0625 25.0469 62.6875
Q24.4688 61.3281 24.4688 59.7188
L24.4688 35.9844
L29 35.9844
Q30.8125 35.9844 32.5469 36.7656
Q34.2812 37.5469 35.75 39.0625
Q37.8438 41.2188 39.1094 44.3125
Q40.375 47.4062 41.8438 51.8125
Q43.2188 55.8594 44.6719 59.3281
Q46.1406 62.7969 48.9688 65.7188
Q50.875 67.6719 53.4688 68.7969
Q56.0625 69.9219 59.0781 69.9219
Q61.1875 69.9219 62.75 69.4062
Q64.3125 68.8906 65.375 67.9688
Q66.3594 67.1406 66.8438 66.0156
Q67.3281 64.8906 67.3281 63.5781
Q67.3281 62.5 67.0156 61.4688
Q66.7031 60.4531 66.1094 59.7656
Q65.4375 58.9375 64.5938 58.4688
Q63.7656 58.0156 62.25 58.0156
Q60.6406 58.0156 59.4375 58.5469
Q58.25 59.0781 57.375 60.0156
Q56.5 60.9375 55.7812 62.1719
Q55.0781 63.4219 54.4375 64.7031
Q53.0781 63.7656 52.125 62.3906
Q51.1719 61.0312 50.4375 59.4688
Q49.7031 57.9062 49.1406 56.1406
Q48.5781 54.3906 47.8594 52.25
Q47.2656 50.4375 46.4844 48.2188
Q45.7031 46 44.6719 44.0938
Q43.6094 42.0469 42.1562 39.9844
Q40.7188 37.9375 38.7188 36.1406
L38.7188 35.4531
Q44.1406 33.9375 47.7188 30.6094
Q51.3125 27.2969 53.7656 22.0781
Q55.125 19.0938 56.7656 15.6406
Q58.4062 12.2031 59.4688 9.8125
Q60.9844 6.54688 62.3906 5.4375
Q63.8125 4.34375 65.2812 4.10938
Q66.5469 3.90625 68.0156 3.73438
Q69.4844 3.5625 70.5625 3.46875
z
" id="Georgia-41a"/>
      <path d="
M53.8125 0
L30.2188 0
L30.2188 3.21875
Q31.3438 3.32812 32.5312 3.42188
Q33.7344 3.51562 34.625 3.8125
Q35.9844 4.25 36.7188 5.34375
Q37.4531 6.45312 37.4531 8.20312
L37.4531 21
Q33.5 19.3438 30.4688 18.2812
Q27.4375 17.2344 23.1875 17.2344
Q15.5312 17.2344 11.9375 20.2656
Q8.34375 23.2969 8.34375 29.8906
L8.34375 39.4531
Q8.34375 41.1094 7.65625 42.1875
Q6.98438 43.2656 5.60938 43.8438
Q4.34375 44.4375 3.14062 44.625
Q1.95312 44.8281 0.921875 44.9219
L0.921875 48.1406
L24.4688 48.1406
L24.4688 44.9219
Q23.0469 44.8281 22 44.6719
Q20.9531 44.5312 20.0625 44.3438
Q18.7031 43.9531 18.0625 42.7969
Q17.4375 41.6562 17.4375 39.9375
L17.4375 32.3281
Q17.4375 27.0938 19.5625 24.7969
Q21.6875 22.5156 26.6562 22.5156
Q28.8594 22.5156 31.6562 22.9531
Q34.4688 23.3906 37.4531 24.4219
L37.4531 39.4531
Q37.4531 41.0625 36.7656 42.1562
Q36.0781 43.2656 34.7188 43.8438
Q33.4531 44.4375 32.25 44.625
Q31.0625 44.8281 30.0312 44.9219
L30.0312 48.1406
L53.6094 48.1406
L53.6094 44.9219
Q52.2031 44.8281 51.1406 44.6719
Q50.0938 44.5312 49.2188 44.3438
Q47.8594 43.9531 47.1875 42.7969
Q46.5312 41.6562 46.5312 39.9375
L46.5312 8.6875
Q46.5312 6.98438 47.1094 5.9375
Q47.7031 4.89062 49.125 4.29688
Q50.1406 3.8125 51.3438 3.5625
Q52.5469 3.32812 53.8125 3.21875
z
" id="Georgia-447"/>
     </defs>
     <g transform="translate(19.295 235.5225)rotate(-90.0)scale(0.16 -0.16)">
      <use xlink:href="#Georgia-41a"/>
      <use x="69.482421875" xlink:href="#Georgia-43e"/>
      <use x="123.388671875" xlink:href="#Georgia-43b"/>
      <use x="181.494140625" xlink:href="#Georgia-438"/>
      <use x="242.724609375" xlink:href="#Georgia-447"/>
      <use x="299.951171875" xlink:href="#Georgia-435"/>
      <use x="348.291015625" xlink:href="#Georgia-441"/>
      <use x="393.701171875" xlink:href="#Georgia-442"/>
      <use x="440.771484375" xlink:href="#Georgia-432"/>
      <use x="492.578125" xlink:href="#Georgia-43e"/>
      <use x="546.484375" xlink:href="#Georgia-20"/>
      <use x="570.60546875" xlink:href="#Georgia-441"/>
      <use x="616.015625" xlink:href="#Georgia-442"/>
      <use x="663.0859375" xlink:href="#Georgia-430"/>
      <use x="713.4765625" xlink:href="#Georgia-442"/>
      <use x="760.546875" xlink:href="#Georgia-435"/>
      <use x="808.88671875" xlink:href="#Georgia-439"/>
     </g>
    </g>
   </g>
   <g id="legend_1">
    <g id="patch_7">
     <path d="
M516.911 46.8019
L663.253 46.8019
L663.253 21.9825
L516.911 21.9825
z
" style="fill:#ffffff;stroke:#000000;stroke-linejoin:miter;"/>
    </g>
    <g id="patch_8">
     <path d="
M522.511 38.1656
L550.511 38.1656
L550.511 28.3656
L522.511 28.3656
z
" style="fill:#ff8e8e;opacity:0.4;stroke:#ff8e8e;stroke-linejoin:miter;"/>
    </g>
    <g id="text_18">
     <!-- Выходные дни -->
     <defs>
      <path d="
M37.7031 15.0469
Q37.7031 19.1406 34.7188 22.0469
Q31.7344 24.9531 26.0312 24.9531
Q23.6406 24.9531 22.0781 24.7812
Q20.5156 24.6094 19.6719 24.6094
L19.6719 7.42188
Q19.6719 5.375 21.1562 4.34375
Q22.6562 3.32812 26.5625 3.32812
Q29.8906 3.32812 32.1094 4.39062
Q34.3281 5.46875 35.5 7.125
Q36.7656 8.9375 37.2344 10.8906
Q37.7031 12.8438 37.7031 15.0469
M47.5625 14.7969
Q47.5625 10.9375 45.8906 8.125
Q44.2344 5.32812 41.6094 3.51562
Q38.9688 1.76562 35.7344 0.875
Q32.5156 0 29 0
L3.60938 0
L3.60938 3.21875
Q4.73438 3.32812 5.92188 3.42188
Q7.125 3.51562 8.01562 3.8125
Q9.375 4.25 10.0312 5.34375
Q10.6875 6.45312 10.6875 8.20312
L10.6875 39.4531
Q10.6875 41.0625 10 42.1562
Q9.32812 43.2656 7.95312 43.8438
Q6.6875 44.4375 5.48438 44.625
Q4.29688 44.8281 3.26562 44.9219
L3.26562 48.1406
L27.5469 48.1406
L27.5469 44.9219
Q26.0781 44.8281 24.6875 44.7031
Q23.2969 44.5781 22.3594 44.3438
Q20.8438 43.8906 20.25 42.6719
Q19.6719 41.4531 19.6719 39.9375
L19.6719 28.4688
Q21.625 28.5156 23.0156 28.5781
Q24.4219 28.6562 27.0469 28.6562
Q31.7812 28.6562 35.375 27.9062
Q38.9688 27.1562 41.6094 25.5938
Q44.4375 23.9219 46 21.3281
Q47.5625 18.75 47.5625 14.7969
M72.3594 0
L48.875 0
L48.875 3.21875
Q50 3.32812 51.1406 3.42188
Q52.2969 3.51562 53.1719 3.8125
Q54.5469 4.25 55.2656 5.34375
Q56 6.45312 56 8.20312
L56 39.4531
Q56 41.0625 55.3125 42.1562
Q54.6406 43.2656 53.2656 43.8438
Q52 44.4375 50.7969 44.625
Q49.6094 44.8281 48.5781 44.9219
L48.5781 48.1406
L72.1719 48.1406
L72.1719 44.9219
Q70.75 44.8281 69.7031 44.6719
Q68.6562 44.5312 67.7812 44.3438
Q66.4062 43.9531 65.75 42.7969
Q65.0938 41.6562 65.0938 39.9375
L65.0938 8.6875
Q65.0938 6.98438 65.6719 5.9375
Q66.2656 4.89062 67.6719 4.29688
Q68.7031 3.8125 69.8906 3.5625
Q71.0938 3.32812 72.3594 3.21875
z
" id="Georgia-44b"/>
      <path d="
M53.9062 32.2812
Q56.9375 30.2188 58.9375 26.8906
Q60.9375 23.5781 60.9375 18.8438
Q60.9375 14.0156 58.8281 10.4531
Q56.7344 6.89062 53.375 4.59375
Q50.0938 2.34375 45.9688 1.17188
Q41.8438 0 37.4531 0
L4.64062 0
L4.64062 3.46875
Q5.8125 3.5625 8.04688 3.875
Q10.2969 4.20312 11.2812 4.64062
Q12.7969 5.32812 13.4219 6.46875
Q14.0625 7.625 14.0625 9.42188
L14.0625 59.2344
Q14.0625 60.8906 13.5 62.1562
Q12.9375 63.4219 11.2812 64.2031
Q9.8125 64.9375 8 65.3281
Q6.20312 65.7188 4.98438 65.8281
L4.98438 69.2812
L36.9688 69.2812
Q40.6719 69.2812 44.0625 68.5469
Q47.4688 67.8281 50.5312 65.9688
Q53.4219 64.2656 55.2656 61.3281
Q57.125 58.4062 57.125 54.2031
Q57.125 50.5312 55.8125 47.6719
Q54.5 44.8281 52.0938 42.7812
Q49.8594 40.8281 46.9531 39.4844
Q44.0469 38.1406 40.6719 37.4062
L40.6719 36.9688
Q43.6562 36.625 47.3438 35.4688
Q51.0312 34.3281 53.9062 32.2812
M42.1406 42.7188
Q43.9531 44.8281 44.6562 47.3125
Q45.3594 49.8125 45.3594 53.2188
Q45.3594 58.9375 42.2344 62.1875
Q39.1094 65.4375 32.375 65.4375
Q30.8125 65.4375 28.4375 65.3594
Q26.0781 65.2812 24.4688 65.2344
L24.4688 38.625
L30.6719 38.625
Q34.6719 38.625 37.5156 39.6406
Q40.375 40.6719 42.1406 42.7188
M48.875 20.6094
Q48.875 26.7656 44.75 30.7188
Q40.625 34.6719 32.9531 34.6719
Q29.8281 34.6719 27.6719 34.5938
Q25.5312 34.5156 24.4688 34.4688
L24.4688 10.0625
Q24.4688 6.98438 26.9531 5.42188
Q29.4375 3.85938 33.8906 3.85938
Q41.1562 3.85938 45.0156 8.10938
Q48.875 12.3594 48.875 20.6094" id="Georgia-412"/>
      <path d="
M49.9062 0
L27.8281 0
L27.8281 3.21875
Q30.0312 3.46875 31.5625 3.70312
Q33.1094 3.95312 33.1094 4.98438
Q33.1094 5.42188 32.6094 6.34375
Q32.125 7.28125 31.6406 8.0625
Q30.4219 9.96875 28.2969 13.1562
Q26.1719 16.3594 23.0938 20.7969
Q20.5625 17.625 18.4062 14.625
Q16.2656 11.625 13.9219 8.25
Q13.5781 7.76562 13.2031 7.03125
Q12.8438 6.29688 12.8438 5.85938
Q12.8438 4.78125 14.2344 4.07812
Q15.625 3.375 18.4062 3.125
L18.4062 0
L0.59375 0
L0.59375 3.03125
Q3.90625 4 5.92188 5.39062
Q7.95312 6.78125 9.67188 8.84375
Q11.1875 10.7969 13.8906 14.2031
Q16.6094 17.625 20.9062 23.4844
Q18.4062 27.0469 14.8125 32.2031
Q11.2344 37.3594 8.89062 40.7656
Q7.625 42.625 5.98438 43.7656
Q4.34375 44.9219 1.375 44.9219
L1.375 48.1406
L22.3125 48.1406
L22.3125 44.9219
Q20.75 44.9219 19.2344 44.7188
Q17.7188 44.5312 17.7188 43.8438
Q17.7188 43.4062 18.0156 42.8594
Q18.3125 42.3281 18.75 41.7031
Q19.8281 40.0469 22.0938 36.5781
Q24.3594 33.1094 27 29.25
Q28.7188 31.5938 30.9844 34.7188
Q33.25 37.8438 35.1562 40.6719
Q35.3594 41.0156 35.5469 41.5312
Q35.75 42.0469 35.75 42.5312
Q35.75 43.5625 34.0625 44.1719
Q32.375 44.7812 30.8594 45.0156
L30.8594 48.1406
L48.6406 48.1406
L48.6406 45.125
Q44.875 44.1406 42.7656 42.7969
Q40.6719 41.4531 39.2031 39.7031
Q37.5938 37.7031 35.375 34.7656
Q33.1562 31.8438 29.1562 26.5625
Q33.5938 20.3125 36.375 16.3125
Q39.1562 12.3125 42 8.0625
Q43.4062 5.90625 45.1406 4.65625
Q46.875 3.42188 49.9062 3.21875
z
" id="Georgia-445"/>
     </defs>
     <g transform="translate(561.7109375 38.165625)scale(0.14 -0.14)">
      <use xlink:href="#Georgia-412"/>
      <use x="65.380859375" xlink:href="#Georgia-44b"/>
      <use x="141.162109375" xlink:href="#Georgia-445"/>
      <use x="191.650390625" xlink:href="#Georgia-43e"/>
      <use x="245.556640625" xlink:href="#Georgia-434"/>
      <use x="301.513671875" xlink:href="#Georgia-43d"/>
      <use x="362.40234375" xlink:href="#Georgia-44b"/>
      <use x="438.18359375" xlink:href="#Georgia-435"/>
      <use x="486.5234375" xlink:href="#Georgia-20"/>
      <use x="510.64453125" xlink:href="#Georgia-434"/>
      <use x="566.6015625" xlink:href="#Georgia-43d"/>
      <use x="627.490234375" xlink:href="#Georgia-438"/>
     </g>
    </g>
   </g>
  </g>
 </g>
 <defs>
  <clipPath id="p6e02df69ae">
   <rect height="302.4" width="613.8" x="56.4525" y="14.9825"/>
  </clipPath>
 </defs>
</svg>
