<?xml version="1.0" encoding="utf-8" standalone="no"?>
<!DOCTYPE svg PUBLIC "-//W3C//DTD SVG 1.1//EN"
  "http://www.w3.org/Graphics/SVG/1.1/DTD/svg11.dtd">
<!-- Created with matplotlib (http://matplotlib.org/) -->
<svg height="408pt" version="1.1" viewBox="0 0 503 408" width="503pt" xmlns="http://www.w3.org/2000/svg" xmlns:xlink="http://www.w3.org/1999/xlink">
 <defs>
  <style type="text/css">
*{stroke-linecap:butt;stroke-linejoin:round;}
  </style>
 </defs>
 <g id="figure_1">
  <g id="patch_1">
   <path d="
M0 408.554
L503.23 408.554
L503.23 0
L0 0
z
" style="fill:#ffffff;"/>
  </g>
  <g id="axes_1">
   <g id="patch_2">
    <path d="
M49.63 363.289
L496.03 363.289
L496.03 17.6887
L49.63 17.6887
z
" style="fill:#ffffff;"/>
   </g>
   <g id="line2d_1">
    <path clip-path="url(#pea587da27a)" d="
M70.8871 208.827
L92.1443 312.023
L113.401 329.379
L134.659 241.503
L155.916 344.558
L177.173 274.612
L198.43 213.388
L219.687 157.042
L240.944 268.04
L262.201 282.684
L283.459 121.44
L304.716 164.986
L325.973 140.276
L347.23 143.561
L368.487 126.4
L389.744 62.2368
L411.001 98.5915
L432.259 95.614
L453.516 43.0069
L474.773 85.635" style="fill:none;stroke:#0000ff;stroke-linecap:square;"/>
    <defs>
     <path d="
M0 3
C0.795609 3 1.55874 2.6839 2.12132 2.12132
C2.6839 1.55874 3 0.795609 3 0
C3 -0.795609 2.6839 -1.55874 2.12132 -2.12132
C1.55874 -2.6839 0.795609 -3 0 -3
C-0.795609 -3 -1.55874 -2.6839 -2.12132 -2.12132
C-2.6839 -1.55874 -3 -0.795609 -3 0
C-3 0.795609 -2.6839 1.55874 -2.12132 2.12132
C-1.55874 2.6839 -0.795609 3 0 3
z
" id="mf1e9a9e4ae" style="stroke:#000000;stroke-width:0.5;"/>
    </defs>
    <g clip-path="url(#pea587da27a)">
     <use style="fill:#0000ff;stroke:#000000;stroke-width:0.5;" x="70.8871428571" xlink:href="#mf1e9a9e4ae" y="208.826637915"/>
     <use style="fill:#0000ff;stroke:#000000;stroke-width:0.5;" x="92.1442857143" xlink:href="#mf1e9a9e4ae" y="312.023285141"/>
     <use style="fill:#0000ff;stroke:#000000;stroke-width:0.5;" x="113.401428571" xlink:href="#mf1e9a9e4ae" y="329.37920186"/>
     <use style="fill:#0000ff;stroke:#000000;stroke-width:0.5;" x="134.658571429" xlink:href="#mf1e9a9e4ae" y="241.503418018"/>
     <use style="fill:#0000ff;stroke:#000000;stroke-width:0.5;" x="155.915714286" xlink:href="#mf1e9a9e4ae" y="344.558303306"/>
     <use style="fill:#0000ff;stroke:#000000;stroke-width:0.5;" x="177.172857143" xlink:href="#mf1e9a9e4ae" y="274.611698636"/>
     <use style="fill:#0000ff;stroke:#000000;stroke-width:0.5;" x="198.43" xlink:href="#mf1e9a9e4ae" y="213.387900905"/>
     <use style="fill:#0000ff;stroke:#000000;stroke-width:0.5;" x="219.687142857" xlink:href="#mf1e9a9e4ae" y="157.041582556"/>
     <use style="fill:#0000ff;stroke:#000000;stroke-width:0.5;" x="240.944285714" xlink:href="#mf1e9a9e4ae" y="268.040049968"/>
     <use style="fill:#0000ff;stroke:#000000;stroke-width:0.5;" x="262.201428571" xlink:href="#mf1e9a9e4ae" y="282.684470751"/>
     <use style="fill:#0000ff;stroke:#000000;stroke-width:0.5;" x="283.458571429" xlink:href="#mf1e9a9e4ae" y="121.440289894"/>
     <use style="fill:#0000ff;stroke:#000000;stroke-width:0.5;" x="304.715714286" xlink:href="#mf1e9a9e4ae" y="164.986108712"/>
     <use style="fill:#0000ff;stroke:#000000;stroke-width:0.5;" x="325.972857143" xlink:href="#mf1e9a9e4ae" y="140.276084657"/>
     <use style="fill:#0000ff;stroke:#000000;stroke-width:0.5;" x="347.23" xlink:href="#mf1e9a9e4ae" y="143.560687451"/>
     <use style="fill:#0000ff;stroke:#000000;stroke-width:0.5;" x="368.487142857" xlink:href="#mf1e9a9e4ae" y="126.400275479"/>
     <use style="fill:#0000ff;stroke:#000000;stroke-width:0.5;" x="389.744285714" xlink:href="#mf1e9a9e4ae" y="62.2368024248"/>
     <use style="fill:#0000ff;stroke:#000000;stroke-width:0.5;" x="411.001428571" xlink:href="#mf1e9a9e4ae" y="98.5915448609"/>
     <use style="fill:#0000ff;stroke:#000000;stroke-width:0.5;" x="432.258571429" xlink:href="#mf1e9a9e4ae" y="95.6139630942"/>
     <use style="fill:#0000ff;stroke:#000000;stroke-width:0.5;" x="453.515714286" xlink:href="#mf1e9a9e4ae" y="43.006856221"/>
     <use style="fill:#0000ff;stroke:#000000;stroke-width:0.5;" x="474.772857143" xlink:href="#mf1e9a9e4ae" y="85.6350143854"/>
    </g>
   </g>
   <g id="patch_3">
    <path d="
M49.63 17.6887
L496.03 17.6887" style="fill:none;stroke:#000000;stroke-linecap:square;stroke-linejoin:miter;"/>
   </g>
   <g id="patch_4">
    <path d="
M496.03 363.289
L496.03 17.6887" style="fill:none;stroke:#000000;stroke-linecap:square;stroke-linejoin:miter;"/>
   </g>
   <g id="patch_5">
    <path d="
M49.63 363.289
L496.03 363.289" style="fill:none;stroke:#000000;stroke-linecap:square;stroke-linejoin:miter;"/>
   </g>
   <g id="patch_6">
    <path d="
M49.63 363.289
L49.63 17.6887" style="fill:none;stroke:#000000;stroke-linecap:square;stroke-linejoin:miter;"/>
   </g>
   <g id="matplotlib.axis_1">
    <g id="xtick_1">
     <g id="line2d_2">
      <path clip-path="url(#pea587da27a)" d="
M49.63 363.289
L49.63 17.6887" style="fill:none;stroke:#000000;stroke-dasharray:1.000000,3.000000;stroke-dashoffset:0.0;stroke-width:0.5;"/>
     </g>
     <g id="line2d_3">
      <defs>
       <path d="
M0 0
L0 -4" id="m93b0483c22" style="stroke:#000000;stroke-width:0.5;"/>
      </defs>
      <g>
       <use style="stroke:#000000;stroke-width:0.5;" x="49.63" xlink:href="#m93b0483c22" y="363.28875"/>
      </g>
     </g>
     <g id="line2d_4">
      <defs>
       <path d="
M0 0
L0 4" id="m741efc42ff" style="stroke:#000000;stroke-width:0.5;"/>
      </defs>
      <g>
       <use style="stroke:#000000;stroke-width:0.5;" x="49.63" xlink:href="#m741efc42ff" y="17.68875"/>
      </g>
     </g>
     <g id="text_1">
      <!-- 0 -->
      <defs>
       <path d="
M3.60938 32.7188
Q3.60938 44.0469 7.03125 52.2188
Q10.4531 60.4062 16.1094 64.4062
Q20.5156 67.5781 25.2031 67.5781
Q32.8125 67.5781 38.875 59.8125
Q46.4375 50.2031 46.4375 33.7344
Q46.4375 22.2188 43.1094 14.1562
Q39.7969 6.10938 34.6406 2.46875
Q29.5 -1.17188 24.7031 -1.17188
Q15.2344 -1.17188 8.9375 10.0156
Q3.60938 19.4375 3.60938 32.7188
M13.1875 31.5
Q13.1875 17.8281 16.5469 9.1875
Q19.3438 1.90625 24.8594 1.90625
Q27.4844 1.90625 30.3125 4.26562
Q33.1562 6.64062 34.625 12.2031
Q36.8594 20.6094 36.8594 35.8906
Q36.8594 47.2188 34.5156 54.7812
Q32.7656 60.4062 29.9844 62.75
Q27.9844 64.3594 25.1406 64.3594
Q21.8281 64.3594 19.2344 61.375
Q15.7188 57.3281 14.4531 48.625
Q13.1875 39.9375 13.1875 31.5" id="TimesNewRomanPSMT-30"/>
      </defs>
      <g transform="translate(46.20375 378.39875)scale(0.16 -0.16)">
       <use xlink:href="#TimesNewRomanPSMT-30"/>
      </g>
     </g>
    </g>
    <g id="xtick_2">
     <g id="line2d_5">
      <path clip-path="url(#pea587da27a)" d="
M134.659 363.289
L134.659 17.6887" style="fill:none;stroke:#000000;stroke-dasharray:1.000000,3.000000;stroke-dashoffset:0.0;stroke-width:0.5;"/>
     </g>
     <g id="line2d_6">
      <g>
       <use style="stroke:#000000;stroke-width:0.5;" x="134.658571429" xlink:href="#m93b0483c22" y="363.28875"/>
      </g>
     </g>
     <g id="line2d_7">
      <g>
       <use style="stroke:#000000;stroke-width:0.5;" x="134.658571429" xlink:href="#m741efc42ff" y="17.68875"/>
      </g>
     </g>
     <g id="text_2">
      <!-- 20 -->
      <defs>
       <path d="
M45.8438 12.75
L41.2188 0
L2.15625 0
L2.15625 1.8125
Q19.3906 17.5312 26.4219 27.4844
Q33.4531 37.4531 33.4531 45.7031
Q33.4531 52 29.5938 56.0469
Q25.7344 60.1094 20.3594 60.1094
Q15.4844 60.1094 11.5938 57.25
Q7.71875 54.3906 5.85938 48.875
L4.04688 48.875
Q5.28125 57.9062 10.3281 62.7344
Q15.375 67.5781 22.9531 67.5781
Q31 67.5781 36.3906 62.4062
Q41.7969 57.2344 41.7969 50.2031
Q41.7969 45.1719 39.4531 40.1406
Q35.8438 32.2344 27.7344 23.3906
Q15.5781 10.1094 12.5469 7.375
L29.8281 7.375
Q35.1094 7.375 37.2344 7.76562
Q39.3594 8.15625 41.0625 9.34375
Q42.7812 10.5469 44.0469 12.75
z
" id="TimesNewRomanPSMT-32"/>
      </defs>
      <g transform="translate(127.116071429 378.39875)scale(0.16 -0.16)">
       <use xlink:href="#TimesNewRomanPSMT-32"/>
       <use x="50.0" xlink:href="#TimesNewRomanPSMT-30"/>
      </g>
     </g>
    </g>
    <g id="xtick_3">
     <g id="line2d_8">
      <path clip-path="url(#pea587da27a)" d="
M219.687 363.289
L219.687 17.6887" style="fill:none;stroke:#000000;stroke-dasharray:1.000000,3.000000;stroke-dashoffset:0.0;stroke-width:0.5;"/>
     </g>
     <g id="line2d_9">
      <g>
       <use style="stroke:#000000;stroke-width:0.5;" x="219.687142857" xlink:href="#m93b0483c22" y="363.28875"/>
      </g>
     </g>
     <g id="line2d_10">
      <g>
       <use style="stroke:#000000;stroke-width:0.5;" x="219.687142857" xlink:href="#m741efc42ff" y="17.68875"/>
      </g>
     </g>
     <g id="text_3">
      <!-- 40 -->
      <defs>
       <path d="
M46.5312 24.4219
L46.5312 17.4844
L37.6406 17.4844
L37.6406 0
L29.5938 0
L29.5938 17.4844
L1.5625 17.4844
L1.5625 23.7344
L32.2812 67.5781
L37.6406 67.5781
L37.6406 24.4219
z

M29.5938 24.4219
L29.5938 57.2812
L6.34375 24.4219
z
" id="TimesNewRomanPSMT-34"/>
      </defs>
      <g transform="translate(212.097142857 378.39875)scale(0.16 -0.16)">
       <use xlink:href="#TimesNewRomanPSMT-34"/>
       <use x="50.0" xlink:href="#TimesNewRomanPSMT-30"/>
      </g>
     </g>
    </g>
    <g id="xtick_4">
     <g id="line2d_11">
      <path clip-path="url(#pea587da27a)" d="
M304.716 363.289
L304.716 17.6887" style="fill:none;stroke:#000000;stroke-dasharray:1.000000,3.000000;stroke-dashoffset:0.0;stroke-width:0.5;"/>
     </g>
     <g id="line2d_12">
      <g>
       <use style="stroke:#000000;stroke-width:0.5;" x="304.715714286" xlink:href="#m93b0483c22" y="363.28875"/>
      </g>
     </g>
     <g id="line2d_13">
      <g>
       <use style="stroke:#000000;stroke-width:0.5;" x="304.715714286" xlink:href="#m741efc42ff" y="17.68875"/>
      </g>
     </g>
     <g id="text_4">
      <!-- 60 -->
      <defs>
       <path d="
M44.8281 67.5781
L44.8281 65.7656
Q38.375 65.1406 34.2969 63.2031
Q30.2188 61.2812 26.2344 57.3281
Q22.2656 53.375 19.6562 48.5156
Q17.0469 43.6562 15.2812 36.9688
Q22.3125 41.7969 29.3906 41.7969
Q36.1875 41.7969 41.1562 36.3281
Q46.1406 30.8594 46.1406 22.2656
Q46.1406 13.9688 41.1094 7.125
Q35.0625 -1.17188 25.0938 -1.17188
Q18.3125 -1.17188 13.5781 3.32812
Q4.29688 12.0625 4.29688 25.9844
Q4.29688 34.8594 7.85938 42.8594
Q11.4219 50.875 18.0312 57.0781
Q24.6562 63.2812 30.7031 65.4219
Q36.7656 67.5781 42 67.5781
z

M14.4531 33.4062
Q13.5781 26.8125 13.5781 22.75
Q13.5781 18.0625 15.3125 12.5625
Q17.0469 7.07812 20.4531 3.85938
Q22.9531 1.5625 26.5156 1.5625
Q30.7656 1.5625 34.1094 5.5625
Q37.4531 9.57812 37.4531 17
Q37.4531 25.3438 34.125 31.4375
Q30.8125 37.5469 24.7031 37.5469
Q22.8594 37.5469 20.7344 36.7656
Q18.6094 35.9844 14.4531 33.4062" id="TimesNewRomanPSMT-36"/>
      </defs>
      <g transform="translate(297.344464286 378.39875)scale(0.16 -0.16)">
       <use xlink:href="#TimesNewRomanPSMT-36"/>
       <use x="50.0" xlink:href="#TimesNewRomanPSMT-30"/>
      </g>
     </g>
    </g>
    <g id="xtick_5">
     <g id="line2d_14">
      <path clip-path="url(#pea587da27a)" d="
M389.744 363.289
L389.744 17.6887" style="fill:none;stroke:#000000;stroke-dasharray:1.000000,3.000000;stroke-dashoffset:0.0;stroke-width:0.5;"/>
     </g>
     <g id="line2d_15">
      <g>
       <use style="stroke:#000000;stroke-width:0.5;" x="389.744285714" xlink:href="#m93b0483c22" y="363.28875"/>
      </g>
     </g>
     <g id="line2d_16">
      <g>
       <use style="stroke:#000000;stroke-width:0.5;" x="389.744285714" xlink:href="#m741efc42ff" y="17.68875"/>
      </g>
     </g>
     <g id="text_5">
      <!-- 80 -->
      <defs>
       <path d="
M19.1875 33.3438
Q11.3281 39.7969 9.04688 43.7031
Q6.78125 47.6094 6.78125 51.8125
Q6.78125 58.25 11.7656 62.9062
Q16.75 67.5781 25 67.5781
Q33.0156 67.5781 37.8906 63.2344
Q42.7812 58.8906 42.7812 53.3281
Q42.7812 49.6094 40.1406 45.75
Q37.5 41.8906 29.1562 36.6719
Q37.75 30.0312 40.5312 26.2188
Q44.2344 21.2344 44.2344 15.7188
Q44.2344 8.73438 38.9062 3.78125
Q33.5938 -1.17188 24.9531 -1.17188
Q15.5312 -1.17188 10.25 4.73438
Q6.0625 9.46875 6.0625 15.0938
Q6.0625 19.4844 9.01562 23.7969
Q11.9688 28.125 19.1875 33.3438
M26.8594 38.5781
Q32.7188 43.8438 34.2812 46.8906
Q35.8438 49.9531 35.8438 53.8125
Q35.8438 58.9375 32.9531 61.8438
Q30.0781 64.75 25.0938 64.75
Q20.125 64.75 17 61.8594
Q13.875 58.9844 13.875 55.125
Q13.875 52.5938 15.1562 50.0469
Q16.4531 47.5156 18.8438 45.2188
z

M21.4844 31.5
Q17.4375 28.0781 15.4844 24.0469
Q13.5312 20.0156 13.5312 15.3281
Q13.5312 9.03125 16.9688 5.25
Q20.4062 1.46875 25.7344 1.46875
Q31 1.46875 34.1719 4.4375
Q37.3594 7.42188 37.3594 11.6719
Q37.3594 15.1875 35.5 17.9688
Q32.0312 23.1406 21.4844 31.5" id="TimesNewRomanPSMT-38"/>
      </defs>
      <g transform="translate(382.514285714 378.39875)scale(0.16 -0.16)">
       <use xlink:href="#TimesNewRomanPSMT-38"/>
       <use x="50.0" xlink:href="#TimesNewRomanPSMT-30"/>
      </g>
     </g>
    </g>
    <g id="xtick_6">
     <g id="line2d_17">
      <path clip-path="url(#pea587da27a)" d="
M474.773 363.289
L474.773 17.6887" style="fill:none;stroke:#000000;stroke-dasharray:1.000000,3.000000;stroke-dashoffset:0.0;stroke-width:0.5;"/>
     </g>
     <g id="line2d_18">
      <g>
       <use style="stroke:#000000;stroke-width:0.5;" x="474.772857143" xlink:href="#m93b0483c22" y="363.28875"/>
      </g>
     </g>
     <g id="line2d_19">
      <g>
       <use style="stroke:#000000;stroke-width:0.5;" x="474.772857143" xlink:href="#m741efc42ff" y="17.68875"/>
      </g>
     </g>
     <g id="text_6">
      <!-- 100 -->
      <defs>
       <path d="
M11.7188 59.7188
L27.8281 67.5781
L29.4375 67.5781
L29.4375 11.6719
Q29.4375 6.10938 29.9062 4.73438
Q30.375 3.375 31.8281 2.64062
Q33.2969 1.90625 37.7969 1.8125
L37.7969 0
L12.8906 0
L12.8906 1.8125
Q17.5781 1.90625 18.9375 2.60938
Q20.3125 3.32812 20.8438 4.51562
Q21.3906 5.71875 21.3906 11.6719
L21.3906 47.4062
Q21.3906 54.6406 20.9062 56.6875
Q20.5625 58.25 19.6562 58.9844
Q18.75 59.7188 17.4844 59.7188
Q15.6719 59.7188 12.4531 58.2031
z
" id="TimesNewRomanPSMT-31"/>
      </defs>
      <g transform="translate(463.995357143 378.39875)scale(0.16 -0.16)">
       <use xlink:href="#TimesNewRomanPSMT-31"/>
       <use x="50.0" xlink:href="#TimesNewRomanPSMT-30"/>
       <use x="100.0" xlink:href="#TimesNewRomanPSMT-30"/>
      </g>
     </g>
    </g>
    <g id="text_7">
     <!-- Количество тем -->
     <defs>
      <path d="
M7.71875 44.7344
L47.7031 44.7344
L47.7031 42.875
Q44.3906 42.875 43.2812 42.2031
Q42.1875 41.5469 41.5469 40.5625
Q40.9219 39.5938 40.9219 34.2344
L40.9219 10.5
Q40.9219 5.32812 41.4531 4.32812
Q42 3.32812 43.1406 2.5625
Q44.2812 1.8125 47.7031 1.8125
L47.7031 0
L24.5625 0
L24.5625 1.8125
Q28.3281 1.8125 29.7656 2.20312
Q31.2031 2.59375 32.0312 4.07812
Q32.8594 5.5625 32.8594 10.5
L32.8594 41.5469
L17.9688 41.5469
L17.9688 22.7031
Q17.9688 12.0156 17.0156 7.6875
Q16.0625 3.375 13.25 1.29688
Q10.4531 -0.78125 6.84375 -0.78125
Q0.59375 -0.78125 0.59375 4.39062
Q0.59375 6.15625 1.59375 7.28125
Q2.59375 8.40625 4.20312 8.40625
Q5.90625 8.40625 7.375 6.98438
Q9.28125 5.125 10.25 5.125
Q12.4531 5.125 13.4531 8.8125
Q14.4531 12.5 14.4531 21.7344
L14.4531 31.5938
Q14.4531 39.2031 13.3438 40.8594
Q12.25 42.5312 7.71875 42.875
z
" id="TimesNewRomanPSMT-43b"/>
      <path d="
M32.0312 11.6719
L46 44.7344
L61.0781 44.7344
L61.0781 42.875
Q57.7656 42.875 56.6562 42.2031
Q55.5625 41.5469 54.9219 40.5625
Q54.2969 39.5938 54.2969 34.2344
L54.2969 10.5
Q54.2969 5.85938 54.75 4.51562
Q55.2188 3.17188 56.6562 2.48438
Q58.1094 1.8125 61.0781 1.8125
L61.0781 0
L39.4531 0
L39.4531 1.8125
Q43.4531 1.8125 44.8125 3.29688
Q46.1875 4.78125 46.1875 10.5
L46.1875 37.4062
L30.375 0
L28.6562 0
L12.5469 37.4062
L12.5469 10.5
Q12.5469 5.85938 13.0312 4.51562
Q13.5312 3.17188 14.9375 2.48438
Q16.3594 1.8125 19.3438 1.8125
L19.3438 0
L2.25 0
L2.25 1.8125
Q6.59375 1.8125 7.8125 3.39062
Q9.03125 4.98438 9.03125 10.5
L9.03125 34.2344
Q9.03125 39.4531 8.48438 40.4062
Q7.95312 41.3594 6.82812 42.1094
Q5.71875 42.875 2.25 42.875
L2.25 44.7344
L17.9688 44.7344
z
" id="TimesNewRomanPSMT-43c"/>
      <path d="
M41.1094 17
Q39.3125 8.15625 34.0312 3.39062
Q28.7656 -1.375 22.3594 -1.375
Q14.75 -1.375 9.07812 5.01562
Q3.42188 11.4219 3.42188 22.3125
Q3.42188 32.8594 9.6875 39.4531
Q15.9688 46.0469 24.75 46.0469
Q31.3438 46.0469 35.5938 42.5469
Q39.8438 39.0625 39.8438 35.2969
Q39.8438 33.4531 38.6406 32.2969
Q37.4531 31.1562 35.2969 31.1562
Q32.4219 31.1562 30.9531 33.0156
Q30.125 34.0312 29.8594 36.9062
Q29.5938 39.7969 27.875 41.3125
Q26.1719 42.7812 23.1406 42.7812
Q18.2656 42.7812 15.2812 39.1562
Q11.3281 34.375 11.3281 26.5156
Q11.3281 18.5 15.25 12.375
Q19.1875 6.25 25.875 6.25
Q30.6719 6.25 34.4688 9.51562
Q37.1562 11.7656 39.7031 17.6719
z
" id="TimesNewRomanPSMT-441"/>
      <path d="
M25 46.0469
Q35.1562 46.0469 41.3125 38.3281
Q46.5312 31.7344 46.5312 23.1875
Q46.5312 17.1875 43.6406 11.0312
Q40.7656 4.89062 35.7188 1.75
Q30.6719 -1.375 24.4688 -1.375
Q14.3594 -1.375 8.40625 6.6875
Q3.375 13.4844 3.375 21.9219
Q3.375 28.0781 6.42188 34.1562
Q9.46875 40.2344 14.4531 43.1406
Q19.4375 46.0469 25 46.0469
M23.4844 42.875
Q20.9062 42.875 18.2812 41.3281
Q15.6719 39.7969 14.0625 35.9375
Q12.4531 32.0781 12.4531 26.0312
Q12.4531 16.2656 16.3281 9.17188
Q20.2188 2.09375 26.5625 2.09375
Q31.2969 2.09375 34.375 6
Q37.4531 9.90625 37.4531 19.4375
Q37.4531 31.3438 32.3281 38.1875
Q28.8594 42.875 23.4844 42.875" id="TimesNewRomanPSMT-43e"/>
      <path d="
M2.4375 44.7344
L41.1094 44.7344
L43.0625 32.625
L40.875 32.625
Q40.2812 36.2812 38.9062 38.2812
Q37.5469 40.2812 35.7812 40.9062
Q34.0312 41.5469 29.7812 41.5469
L25.875 41.5469
L25.875 10.5
Q25.875 5.51562 26.4844 4.17188
Q27.0938 2.82812 28.4531 2.39062
Q29.8281 1.95312 34.7188 1.8125
L34.7188 0
L10.4062 0
L10.4062 1.8125
Q15.0938 1.90625 16.4375 3.3125
Q17.7812 4.73438 17.7812 10.5
L17.7812 41.5469
L13.7656 41.5469
Q9.57812 41.5469 8.0625 41.0312
Q6.54688 40.5312 5.15625 38.5938
Q3.76562 36.6719 2.78125 32.625
L0.59375 32.625
z
" id="TimesNewRomanPSMT-442"/>
      <path id="TimesNewRomanPSMT-20"/>
      <path d="
M33.2031 24.6562
L33.2031 34.2344
Q33.2031 38.875 32.7344 40.2031
Q32.2812 41.5469 30.8281 42.2031
Q29.3906 42.875 26.4688 42.875
L26.4688 44.7344
L48.0938 44.7344
L48.0938 42.875
Q44.7812 42.875 43.6719 42.2031
Q42.5781 41.5469 41.9375 40.5625
Q41.3125 39.5938 41.3125 34.2344
L41.3125 10.5
Q41.3125 5.85938 41.7656 4.51562
Q42.2344 3.17188 43.6719 2.48438
Q45.125 1.8125 48.0938 1.8125
L48.0938 0
L25.3906 0
L25.3906 1.8125
Q29.2969 1.95312 30.4844 2.3125
Q31.6875 2.6875 32.4375 4.20312
Q33.2031 5.71875 33.2031 10.5
L33.2031 21.4375
Q26.0312 17.7812 18.0625 17.7812
Q13.7188 17.7812 11.3281 18.875
Q8.9375 19.9688 8.29688 21.4062
Q7.67188 22.8594 7.67188 26.0781
L7.67188 34.2344
Q7.67188 38.5781 7.28125 39.9375
Q6.89062 41.3125 5.51562 42.0938
Q4.15625 42.875 1.46875 42.875
L1.46875 44.7344
L22.5156 44.7344
L22.5156 42.875
Q19.2344 42.875 18.1094 42.2031
Q17 41.5469 16.3594 40.5625
Q15.7188 39.5938 15.7188 34.2344
L15.7188 28.7188
Q15.7188 25.4844 16.1875 24.3594
Q16.6562 23.25 18.3281 22.4844
Q20.0156 21.7344 23.0938 21.7344
Q28.4219 21.7344 33.2031 24.6562" id="TimesNewRomanPSMT-447"/>
      <path d="
M31.5 23.6406
Q43.75 21.0938 43.75 12.1562
Q43.75 6.0625 38.6406 3.03125
Q33.5469 0 24.4219 0
L2.34375 0
L2.34375 1.8125
Q6.6875 1.8125 7.82812 3.4375
Q8.98438 5.07812 8.98438 10.5
L8.98438 34.2344
Q8.98438 39.5 8.46875 40.4219
Q7.95312 41.3594 6.85938 42.1094
Q5.76562 42.875 2.34375 42.875
L2.34375 44.7344
L22.9531 44.7344
Q28.9062 44.7344 32.5938 43.7969
Q36.2812 42.875 38.6406 40.1406
Q41.0156 37.4062 41.0156 33.5
Q41.0156 25.875 31.5 23.6406
M17.0938 24.75
Q19.2344 24.7031 19.6719 24.7031
Q26.375 24.7031 29.3438 27.2656
Q32.3281 29.8281 32.3281 33.5
Q32.3281 37.75 29.2969 39.6406
Q26.2656 41.5469 19.625 41.5469
L17.0938 41.5469
z

M17.0938 3.95312
Q19.5312 3.17188 22.9062 3.17188
Q28.7188 3.17188 31.5469 5.70312
Q34.375 8.25 34.375 12.25
Q34.375 16.75 30.7031 19.1406
Q27.0469 21.5312 20.5625 21.5312
Q18.9531 21.5312 17.0938 21.4375
z
" id="TimesNewRomanPSMT-432"/>
      <path d="
M10.6406 27.875
Q10.5938 17.9219 15.4844 12.25
Q20.3594 6.59375 26.9531 6.59375
Q31.3438 6.59375 34.5938 9
Q37.8438 11.4219 40.0469 17.2812
L41.5469 16.3125
Q40.5312 9.625 35.5938 4.125
Q30.6719 -1.375 23.25 -1.375
Q15.1875 -1.375 9.45312 4.90625
Q3.71875 11.1875 3.71875 21.7812
Q3.71875 33.25 9.59375 39.6719
Q15.4844 46.0938 24.3594 46.0938
Q31.8906 46.0938 36.7188 41.1406
Q41.5469 36.1875 41.5469 27.875
z

M10.6406 30.7188
L31.3438 30.7188
Q31.1094 35.0156 30.3281 36.7656
Q29.1094 39.5 26.6875 41.0625
Q24.2656 42.625 21.625 42.625
Q17.5781 42.625 14.375 39.4688
Q11.1875 36.3281 10.6406 30.7188" id="TimesNewRomanPSMT-435"/>
      <path d="
M17.0938 13.7656
L36.4219 36.1406
Q36.3281 39.8906 35 41.3594
Q33.6875 42.8281 30.4688 42.875
L30.4688 44.7344
L51.2656 44.7344
L51.2656 42.875
Q48 42.875 46.875 42.2031
Q45.75 41.5469 45.1094 40.5625
Q44.4844 39.5938 44.4844 34.2344
L44.4844 10.5
Q44.4844 5.32812 45.0156 4.32812
Q45.5625 3.32812 46.7031 2.5625
Q47.8594 1.8125 51.2656 1.8125
L51.2656 0
L29.6406 0
L29.6406 1.8125
Q33.6875 1.8125 35.0469 3.29688
Q36.4219 4.78125 36.4219 10.5
L36.4219 31.5469
L17.0938 9.125
Q17.1875 4.98438 18.2656 3.42188
Q19.3438 1.85938 22.9062 1.8125
L22.9062 0
L2.25 0
L2.25 1.8125
Q6.59375 1.8125 7.8125 3.39062
Q9.03125 4.98438 9.03125 10.5
L9.03125 34.2344
Q9.03125 39.4531 8.48438 40.4062
Q7.95312 41.3594 6.82812 42.1094
Q5.71875 42.875 2.25 42.875
L2.25 44.7344
L23.875 44.7344
L23.875 42.875
Q20.6094 42.875 19.4844 42.2031
Q18.3594 41.5469 17.7188 40.5625
Q17.0938 39.5938 17.0938 34.2344
z
" id="TimesNewRomanPSMT-438"/>
      <path d="
M66.3594 1.8125
L66.3594 0
L49.2656 0
Q46.4844 4.4375 37.5469 16.7656
Q28.6094 29.1094 26.6562 30.4375
Q24.7031 31.7812 20.75 31.8438
L20.75 12.0625
Q20.75 5.51562 22.4375 3.75
Q24.125 2 30.3281 1.8125
L30.3281 0
L1.8125 0
L1.8125 1.8125
Q7.90625 2 9.64062 3.73438
Q11.375 5.46875 11.375 12.0625
L11.375 54.1562
Q11.375 60.6875 9.65625 62.4375
Q7.95312 64.2031 1.8125 64.4062
L1.8125 66.2188
L30.3281 66.2188
L30.3281 64.4062
Q24.125 64.2031 22.4375 62.4375
Q20.75 60.6875 20.75 54.1562
L20.75 35.6875
Q26.0781 35.75 28.125 36.4062
Q30.1719 37.0625 32.7344 39.4062
Q35.2969 41.75 36.7812 44.4531
Q38.2812 47.1719 40.625 53.375
Q42.8281 59.1875 44.2188 61.4531
Q45.6094 63.7188 48.6875 65.3594
Q51.7656 67 56 67
Q63.5312 67 63.5312 61.7188
Q63.5312 59.8594 62.0312 58.4844
Q60.5469 57.125 58.6406 57.125
Q57.2812 57.125 54.0469 58.6875
Q51.2188 60.1094 50.0938 60.1094
Q48.5312 60.1094 47.4062 58.4688
Q46.2969 56.8438 43.8438 50.1406
Q39.1562 37.6406 31.8906 34.2812
Q36.3281 33.5 44.1875 22.125
Q52.5469 10.0625 56.4531 6
Q60.3594 1.95312 66.3594 1.8125" id="TimesNewRomanPSMT-41a"/>
     </defs>
     <g transform="translate(219.24625 397.93125)scale(0.16 -0.16)">
      <use xlink:href="#TimesNewRomanPSMT-41a"/>
      <use x="61.69921875" xlink:href="#TimesNewRomanPSMT-43e"/>
      <use x="110.32421875" xlink:href="#TimesNewRomanPSMT-43b"/>
      <use x="160.2265625" xlink:href="#TimesNewRomanPSMT-438"/>
      <use x="213.7421875" xlink:href="#TimesNewRomanPSMT-447"/>
      <use x="264.03515625" xlink:href="#TimesNewRomanPSMT-435"/>
      <use x="310.919921875" xlink:href="#TimesNewRomanPSMT-441"/>
      <use x="355.3046875" xlink:href="#TimesNewRomanPSMT-442"/>
      <use x="399.005859375" xlink:href="#TimesNewRomanPSMT-432"/>
      <use x="445.59765625" xlink:href="#TimesNewRomanPSMT-43e"/>
      <use x="495.59765625" xlink:href="#TimesNewRomanPSMT-20"/>
      <use x="520.59765625" xlink:href="#TimesNewRomanPSMT-442"/>
      <use x="564.298828125" xlink:href="#TimesNewRomanPSMT-435"/>
      <use x="608.68359375" xlink:href="#TimesNewRomanPSMT-43c"/>
     </g>
    </g>
   </g>
   <g id="matplotlib.axis_2">
    <g id="ytick_1">
     <g id="line2d_20">
      <path clip-path="url(#pea587da27a)" d="
M49.63 363.289
L496.03 363.289" style="fill:none;stroke:#000000;stroke-dasharray:1.000000,3.000000;stroke-dashoffset:0.0;stroke-width:0.5;"/>
     </g>
     <g id="line2d_21">
      <defs>
       <path d="
M0 0
L4 0" id="m728421d6d4" style="stroke:#000000;stroke-width:0.5;"/>
      </defs>
      <g>
       <use style="stroke:#000000;stroke-width:0.5;" x="49.63" xlink:href="#m728421d6d4" y="363.28875"/>
      </g>
     </g>
     <g id="line2d_22">
      <defs>
       <path d="
M0 0
L-4 0" id="mcb0005524f" style="stroke:#000000;stroke-width:0.5;"/>
      </defs>
      <g>
       <use style="stroke:#000000;stroke-width:0.5;" x="496.03" xlink:href="#mcb0005524f" y="363.28875"/>
      </g>
     </g>
     <g id="text_8">
      <!-- 0.2 -->
      <defs>
       <path d="
M12.5 9.46875
Q14.7969 9.46875 16.3594 7.875
Q17.9219 6.29688 17.9219 4.04688
Q17.9219 1.8125 16.3281 0.21875
Q14.75 -1.375 12.5 -1.375
Q10.25 -1.375 8.65625 0.21875
Q7.07812 1.8125 7.07812 4.04688
Q7.07812 6.34375 8.65625 7.90625
Q10.25 9.46875 12.5 9.46875" id="TimesNewRomanPSMT-2e"/>
      </defs>
      <g transform="translate(26.8725 367.1325)scale(0.16 -0.16)">
       <use xlink:href="#TimesNewRomanPSMT-30"/>
       <use x="50.0" xlink:href="#TimesNewRomanPSMT-2e"/>
       <use x="75.0" xlink:href="#TimesNewRomanPSMT-32"/>
      </g>
     </g>
    </g>
    <g id="ytick_2">
     <g id="line2d_23">
      <path clip-path="url(#pea587da27a)" d="
M49.63 320.089
L496.03 320.089" style="fill:none;stroke:#000000;stroke-dasharray:1.000000,3.000000;stroke-dashoffset:0.0;stroke-width:0.5;"/>
     </g>
     <g id="line2d_24">
      <g>
       <use style="stroke:#000000;stroke-width:0.5;" x="49.63" xlink:href="#m728421d6d4" y="320.08875"/>
      </g>
     </g>
     <g id="line2d_25">
      <g>
       <use style="stroke:#000000;stroke-width:0.5;" x="496.03" xlink:href="#mcb0005524f" y="320.08875"/>
      </g>
     </g>
     <g id="text_9">
      <!-- 0.3 -->
      <defs>
       <path d="
M5.07812 53.6094
Q7.90625 60.2969 12.2188 63.9375
Q16.5469 67.5781 23 67.5781
Q30.9531 67.5781 35.2031 62.4062
Q38.4219 58.5469 38.4219 54.1562
Q38.4219 46.9219 29.3438 39.2031
Q35.4531 36.8125 38.5781 32.375
Q41.7031 27.9375 41.7031 21.9219
Q41.7031 13.3281 36.2344 7.03125
Q29.1094 -1.17188 15.5781 -1.17188
Q8.89062 -1.17188 6.46875 0.484375
Q4.04688 2.15625 4.04688 4.04688
Q4.04688 5.46875 5.1875 6.54688
Q6.34375 7.625 7.95312 7.625
Q9.1875 7.625 10.4531 7.23438
Q11.2812 6.98438 14.2031 5.4375
Q17.1406 3.90625 18.2656 3.60938
Q20.0625 3.07812 22.125 3.07812
Q27.0938 3.07812 30.7812 6.9375
Q34.4688 10.7969 34.4688 16.0625
Q34.4688 19.9219 32.7656 23.5781
Q31.5 26.3125 29.9844 27.7344
Q27.875 29.6875 24.2188 31.2656
Q20.5625 32.8594 16.75 32.8594
L15.1875 32.8594
L15.1875 34.3281
Q19.0469 34.8125 22.9219 37.1094
Q26.8125 39.4062 28.5625 42.625
Q30.3281 45.8438 30.3281 49.7031
Q30.3281 54.7344 27.1719 57.8281
Q24.0312 60.9375 19.3438 60.9375
Q11.7656 60.9375 6.6875 52.8281
z
" id="TimesNewRomanPSMT-33"/>
      </defs>
      <g transform="translate(27.535 323.9325)scale(0.16 -0.16)">
       <use xlink:href="#TimesNewRomanPSMT-30"/>
       <use x="50.0" xlink:href="#TimesNewRomanPSMT-2e"/>
       <use x="75.0" xlink:href="#TimesNewRomanPSMT-33"/>
      </g>
     </g>
    </g>
    <g id="ytick_3">
     <g id="line2d_26">
      <path clip-path="url(#pea587da27a)" d="
M49.63 276.889
L496.03 276.889" style="fill:none;stroke:#000000;stroke-dasharray:1.000000,3.000000;stroke-dashoffset:0.0;stroke-width:0.5;"/>
     </g>
     <g id="line2d_27">
      <g>
       <use style="stroke:#000000;stroke-width:0.5;" x="49.63" xlink:href="#m728421d6d4" y="276.88875"/>
      </g>
     </g>
     <g id="line2d_28">
      <g>
       <use style="stroke:#000000;stroke-width:0.5;" x="496.03" xlink:href="#mcb0005524f" y="276.88875"/>
      </g>
     </g>
     <g id="text_10">
      <!-- 0.4 -->
      <g transform="translate(26.7625 280.7325)scale(0.16 -0.16)">
       <use xlink:href="#TimesNewRomanPSMT-30"/>
       <use x="50.0" xlink:href="#TimesNewRomanPSMT-2e"/>
       <use x="75.0" xlink:href="#TimesNewRomanPSMT-34"/>
      </g>
     </g>
    </g>
    <g id="ytick_4">
     <g id="line2d_29">
      <path clip-path="url(#pea587da27a)" d="
M49.63 233.689
L496.03 233.689" style="fill:none;stroke:#000000;stroke-dasharray:1.000000,3.000000;stroke-dashoffset:0.0;stroke-width:0.5;"/>
     </g>
     <g id="line2d_30">
      <g>
       <use style="stroke:#000000;stroke-width:0.5;" x="49.63" xlink:href="#m728421d6d4" y="233.68875"/>
      </g>
     </g>
     <g id="line2d_31">
      <g>
       <use style="stroke:#000000;stroke-width:0.5;" x="496.03" xlink:href="#mcb0005524f" y="233.68875"/>
      </g>
     </g>
     <g id="text_11">
      <!-- 0.5 -->
      <defs>
       <path d="
M43.4062 66.2188
L39.5938 57.9062
L19.6719 57.9062
L15.3281 49.0312
Q28.2656 47.125 35.8438 39.4062
Q42.3281 32.7656 42.3281 23.7812
Q42.3281 18.5625 40.2031 14.1094
Q38.0938 9.67188 34.8594 6.54688
Q31.6406 3.42188 27.6875 1.51562
Q22.0781 -1.17188 16.1562 -1.17188
Q10.2031 -1.17188 7.48438 0.84375
Q4.78125 2.875 4.78125 5.32812
Q4.78125 6.6875 5.90625 7.73438
Q7.03125 8.79688 8.73438 8.79688
Q10.0156 8.79688 10.9688 8.40625
Q11.9219 8.01562 14.2031 6.39062
Q17.875 3.85938 21.625 3.85938
Q27.3438 3.85938 31.6562 8.17188
Q35.9844 12.5 35.9844 18.7031
Q35.9844 24.7031 32.125 29.9062
Q28.2656 35.1094 21.4844 37.9375
Q16.1562 40.1406 6.98438 40.4844
L19.6719 66.2188
z
" id="TimesNewRomanPSMT-35"/>
      </defs>
      <g transform="translate(27.2625 237.5325)scale(0.16 -0.16)">
       <use xlink:href="#TimesNewRomanPSMT-30"/>
       <use x="50.0" xlink:href="#TimesNewRomanPSMT-2e"/>
       <use x="75.0" xlink:href="#TimesNewRomanPSMT-35"/>
      </g>
     </g>
    </g>
    <g id="ytick_5">
     <g id="line2d_32">
      <path clip-path="url(#pea587da27a)" d="
M49.63 190.489
L496.03 190.489" style="fill:none;stroke:#000000;stroke-dasharray:1.000000,3.000000;stroke-dashoffset:0.0;stroke-width:0.5;"/>
     </g>
     <g id="line2d_33">
      <g>
       <use style="stroke:#000000;stroke-width:0.5;" x="49.63" xlink:href="#m728421d6d4" y="190.48875"/>
      </g>
     </g>
     <g id="line2d_34">
      <g>
       <use style="stroke:#000000;stroke-width:0.5;" x="496.03" xlink:href="#mcb0005524f" y="190.48875"/>
      </g>
     </g>
     <g id="text_12">
      <!-- 0.6 -->
      <g transform="translate(26.825 194.3325)scale(0.16 -0.16)">
       <use xlink:href="#TimesNewRomanPSMT-30"/>
       <use x="50.0" xlink:href="#TimesNewRomanPSMT-2e"/>
       <use x="75.0" xlink:href="#TimesNewRomanPSMT-36"/>
      </g>
     </g>
    </g>
    <g id="ytick_6">
     <g id="line2d_35">
      <path clip-path="url(#pea587da27a)" d="
M49.63 147.289
L496.03 147.289" style="fill:none;stroke:#000000;stroke-dasharray:1.000000,3.000000;stroke-dashoffset:0.0;stroke-width:0.5;"/>
     </g>
     <g id="line2d_36">
      <g>
       <use style="stroke:#000000;stroke-width:0.5;" x="49.63" xlink:href="#m728421d6d4" y="147.28875"/>
      </g>
     </g>
     <g id="line2d_37">
      <g>
       <use style="stroke:#000000;stroke-width:0.5;" x="496.03" xlink:href="#mcb0005524f" y="147.28875"/>
      </g>
     </g>
     <g id="text_13">
      <!-- 0.7 -->
      <defs>
       <path d="
M10.0625 66.2188
L45.5625 66.2188
L45.5625 64.3594
L23.4844 -1.375
L18.0156 -1.375
L37.7969 58.25
L19.5781 58.25
Q14.0625 58.25 11.7188 56.9375
Q7.625 54.6875 5.125 50
L3.71875 50.5312
z
" id="TimesNewRomanPSMT-37"/>
      </defs>
      <g transform="translate(26.9175 151.1325)scale(0.16 -0.16)">
       <use xlink:href="#TimesNewRomanPSMT-30"/>
       <use x="50.0" xlink:href="#TimesNewRomanPSMT-2e"/>
       <use x="75.0" xlink:href="#TimesNewRomanPSMT-37"/>
      </g>
     </g>
    </g>
    <g id="ytick_7">
     <g id="line2d_38">
      <path clip-path="url(#pea587da27a)" d="
M49.63 104.089
L496.03 104.089" style="fill:none;stroke:#000000;stroke-dasharray:1.000000,3.000000;stroke-dashoffset:0.0;stroke-width:0.5;"/>
     </g>
     <g id="line2d_39">
      <g>
       <use style="stroke:#000000;stroke-width:0.5;" x="49.63" xlink:href="#m728421d6d4" y="104.08875"/>
      </g>
     </g>
     <g id="line2d_40">
      <g>
       <use style="stroke:#000000;stroke-width:0.5;" x="496.03" xlink:href="#mcb0005524f" y="104.08875"/>
      </g>
     </g>
     <g id="text_14">
      <!-- 0.8 -->
      <g transform="translate(27.13 107.9325)scale(0.16 -0.16)">
       <use xlink:href="#TimesNewRomanPSMT-30"/>
       <use x="50.0" xlink:href="#TimesNewRomanPSMT-2e"/>
       <use x="75.0" xlink:href="#TimesNewRomanPSMT-38"/>
      </g>
     </g>
    </g>
    <g id="ytick_8">
     <g id="line2d_41">
      <path clip-path="url(#pea587da27a)" d="
M49.63 60.8887
L496.03 60.8887" style="fill:none;stroke:#000000;stroke-dasharray:1.000000,3.000000;stroke-dashoffset:0.0;stroke-width:0.5;"/>
     </g>
     <g id="line2d_42">
      <g>
       <use style="stroke:#000000;stroke-width:0.5;" x="49.63" xlink:href="#m728421d6d4" y="60.88875"/>
      </g>
     </g>
     <g id="line2d_43">
      <g>
       <use style="stroke:#000000;stroke-width:0.5;" x="496.03" xlink:href="#mcb0005524f" y="60.88875"/>
      </g>
     </g>
     <g id="text_15">
      <!-- 0.9 -->
      <defs>
       <path d="
M5.28125 -1.375
L5.28125 0.4375
Q11.625 0.53125 17.0938 3.39062
Q22.5625 6.25 27.6562 13.375
Q32.7656 20.5156 34.7656 29.0469
Q27.0938 24.125 20.9062 24.125
Q13.9219 24.125 8.9375 29.5156
Q3.95312 34.9062 3.95312 43.8438
Q3.95312 52.5469 8.9375 59.3281
Q14.9375 67.5781 24.6094 67.5781
Q32.7656 67.5781 38.5781 60.8438
Q45.7031 52.4844 45.7031 40.2344
Q45.7031 29.2031 40.2812 19.6562
Q34.8594 10.1094 25.2031 3.8125
Q17.3281 -1.375 8.0625 -1.375
z

M35.5469 32.6719
Q36.4219 39.0156 36.4219 42.8281
Q36.4219 47.5625 34.8125 53.0469
Q33.2031 58.5469 30.25 61.4688
Q27.2969 64.4062 23.5312 64.4062
Q19.1875 64.4062 15.9062 60.5
Q12.6406 56.5938 12.6406 48.875
Q12.6406 38.5781 17 32.7656
Q20.1719 28.5625 24.8125 28.5625
Q27.0469 28.5625 30.125 29.6406
Q33.2031 30.7188 35.5469 32.6719" id="TimesNewRomanPSMT-39"/>
      </defs>
      <g transform="translate(26.895 64.7325)scale(0.16 -0.16)">
       <use xlink:href="#TimesNewRomanPSMT-30"/>
       <use x="50.0" xlink:href="#TimesNewRomanPSMT-2e"/>
       <use x="75.0" xlink:href="#TimesNewRomanPSMT-39"/>
      </g>
     </g>
    </g>
    <g id="ytick_9">
     <g id="line2d_44">
      <path clip-path="url(#pea587da27a)" d="
M49.63 17.6887
L496.03 17.6887" style="fill:none;stroke:#000000;stroke-dasharray:1.000000,3.000000;stroke-dashoffset:0.0;stroke-width:0.5;"/>
     </g>
     <g id="line2d_45">
      <g>
       <use style="stroke:#000000;stroke-width:0.5;" x="49.63" xlink:href="#m728421d6d4" y="17.68875"/>
      </g>
     </g>
     <g id="line2d_46">
      <g>
       <use style="stroke:#000000;stroke-width:0.5;" x="496.03" xlink:href="#mcb0005524f" y="17.68875"/>
      </g>
     </g>
     <g id="text_16">
      <!-- 1.0 -->
      <g transform="translate(28.075 21.5325)scale(0.16 -0.16)">
       <use xlink:href="#TimesNewRomanPSMT-31"/>
       <use x="50.0" xlink:href="#TimesNewRomanPSMT-2e"/>
       <use x="75.0" xlink:href="#TimesNewRomanPSMT-30"/>
      </g>
     </g>
    </g>
    <g id="text_17">
     <!-- Значение на основе расстояния Кульбака — Лейблера -->
     <defs>
      <path d="
M48 0
L34.8125 0
Q28.6562 8.9375 23.6875 18.3125
Q22.5156 20.4531 21.5625 21.5
Q20.6094 22.5625 18.9531 22.5625
Q18.3594 22.5625 17.0938 22.4688
L17.0938 10.5
Q17.0938 5.67188 17.6562 4.32812
Q18.2188 2.98438 19.6719 2.39062
Q21.1406 1.8125 24.6094 1.8125
L24.6094 0
L2.25 0
L2.25 1.8125
Q6.59375 1.8125 7.8125 3.39062
Q9.03125 4.98438 9.03125 10.5
L9.03125 34.2344
Q9.03125 39.4531 8.48438 40.4062
Q7.95312 41.3594 6.82812 42.1094
Q5.71875 42.875 2.25 42.875
L2.25 44.7344
L24.6094 44.7344
L24.6094 42.875
Q20.5625 42.875 19.6094 42.2812
Q18.6562 41.7031 17.875 40.8438
Q17.0938 39.9844 17.0938 34.2344
L17.0938 25.4375
Q18.2188 25.3438 18.6094 25.3438
Q21.5781 25.3438 24.1875 27.0312
Q26.8125 28.7188 28.8594 34.1875
Q30.7656 39.3594 32 41.1562
Q33.25 42.9688 35.4688 44.1094
Q37.7031 45.2656 40.1406 45.2656
Q42.7812 45.2656 44.3438 43.9844
Q45.9062 42.7188 45.9062 40.6719
Q45.9062 38.9688 44.7812 37.7656
Q43.6562 36.5781 41.6562 36.5781
Q40.5781 36.5781 38.9688 37.1562
Q36.9219 37.8906 35.8438 37.8906
Q33.5938 37.8906 32.125 34.0312
Q30.4688 29.5938 29.6875 28.2969
Q28.9062 27 26.7031 24.8594
Q28.2188 24.4219 30 22.6094
Q31.7812 20.7969 36.625 12.3125
Q40.4844 5.51562 42.4062 3.70312
Q44.3438 1.90625 48 1.8125
z
" id="TimesNewRomanPSMT-43a"/>
      <path d="
M100.875 22.125
L-0.921875 22.125
L-0.921875 25.7344
L100.875 25.7344
z
" id="TimesNewRomanPSMT-2014"/>
      <path d="
M17.0938 24.75
L36.4219 24.75
L36.4219 34.2344
Q36.4219 38.4844 36.0781 39.7656
Q35.75 41.0625 34.4062 41.9688
Q33.0625 42.875 29.6406 42.875
L29.6406 44.7344
L51.2656 44.7344
L51.2656 42.875
Q48.25 42.875 46.8438 42.1875
Q45.4531 41.5 44.9688 40.2031
Q44.4844 38.9219 44.4844 34.2344
L44.4844 10.5
Q44.4844 6.25 44.8438 4.875
Q45.2188 3.51562 46.625 2.65625
Q48.0469 1.8125 51.2656 1.8125
L51.2656 0
L29.6406 0
L29.6406 1.8125
Q33.6875 1.8125 35.0469 3.29688
Q36.4219 4.78125 36.4219 10.5
L36.4219 21.5781
L17.0938 21.5781
L17.0938 10.5
Q17.0938 6.25 17.4531 4.875
Q17.8281 3.51562 19.2344 2.65625
Q20.6562 1.8125 23.875 1.8125
L23.875 0
L2.25 0
L2.25 1.8125
Q6.59375 1.8125 7.8125 3.39062
Q9.03125 4.98438 9.03125 10.5
L9.03125 34.2344
Q9.03125 38.4844 8.65625 39.8438
Q8.29688 41.2188 6.875 42.0469
Q5.46875 42.875 2.25 42.875
L2.25 44.7344
L23.875 44.7344
L23.875 42.875
Q20.8438 42.875 19.4531 42.1875
Q18.0625 41.5 17.5781 40.2031
Q17.0938 38.9219 17.0938 34.2344
z
" id="TimesNewRomanPSMT-43d"/>
      <path d="
M-0.09375 40.2812
L13.6719 45.8438
L15.5312 45.8438
L15.5312 35.4062
Q19 41.3125 22.4844 43.6719
Q25.9844 46.0469 29.8281 46.0469
Q36.5781 46.0469 41.0625 40.7656
Q46.5781 34.3281 46.5781 23.9688
Q46.5781 12.4062 39.9375 4.82812
Q34.4688 -1.375 26.1719 -1.375
Q22.5625 -1.375 19.9219 -0.34375
Q17.9688 0.390625 15.5312 2.59375
L15.5312 -11.0312
Q15.5312 -15.625 16.0938 -16.8594
Q16.6562 -18.1094 18.0469 -18.8438
Q19.4375 -19.5781 23.0938 -19.5781
L23.0938 -21.3906
L-0.34375 -21.3906
L-0.34375 -19.5781
L0.875 -19.5781
Q3.5625 -19.625 5.46875 -18.5625
Q6.39062 -18.0156 6.90625 -16.8125
Q7.42188 -15.625 7.42188 -10.75
L7.42188 31.5469
Q7.42188 35.8906 7.03125 37.0625
Q6.64062 38.2344 5.78125 38.8125
Q4.9375 39.4062 3.46875 39.4062
Q2.29688 39.4062 0.484375 38.7188
z

M15.5312 32.5156
L15.5312 15.8281
Q15.5312 10.4062 15.9688 8.6875
Q16.6562 5.85938 19.3125 3.70312
Q21.9688 1.5625 26.0312 1.5625
Q30.9062 1.5625 33.9375 5.375
Q37.8906 10.3594 37.8906 19.3906
Q37.8906 29.6406 33.4062 35.1562
Q30.2812 38.9688 25.9844 38.9688
Q23.6406 38.9688 21.3438 37.7969
Q19.5781 36.9219 15.5312 32.5156" id="TimesNewRomanPSMT-440"/>
      <path d="
M0.59375 44.7344
L21.4375 44.7344
L21.4375 42.9219
L20.4062 42.9219
Q18.2188 42.9219 17.1094 41.9688
Q16.0156 41.0156 16.0156 39.5938
Q16.0156 37.7031 17.625 34.3281
L28.5156 11.7656
L38.5312 36.4688
Q39.3594 38.4844 39.3594 40.4375
Q39.3594 41.3125 39.0156 41.75
Q38.625 42.2812 37.7969 42.5938
Q36.9688 42.9219 34.8594 42.9219
L34.8594 44.7344
L49.4219 44.7344
L49.4219 42.9219
Q47.6094 42.7188 46.625 42.125
Q45.6562 41.5469 44.4844 39.9375
Q44.0469 39.2656 42.8281 36.1875
L24.6094 -8.45312
Q21.9688 -14.9375 17.6875 -18.25
Q13.4219 -21.5781 9.46875 -21.5781
Q6.59375 -21.5781 4.73438 -19.9219
Q2.875 -18.2656 2.875 -16.1094
Q2.875 -14.0625 4.21875 -12.8125
Q5.5625 -11.5781 7.90625 -11.5781
Q9.51562 -11.5781 12.3125 -12.6406
Q14.2656 -13.375 14.75 -13.375
Q16.2188 -13.375 17.9375 -11.8594
Q19.6719 -10.3594 21.4375 -6
L24.6094 1.76562
L8.54688 35.5
Q7.8125 37.0156 6.20312 39.2656
Q4.98438 40.9688 4.20312 41.5469
Q3.07812 42.3281 0.59375 42.9219
z
" id="TimesNewRomanPSMT-443"/>
      <path d="
M4.98438 48.3906
L4.98438 67.625
L6.6875 67.625
Q7.46875 64.4062 10.2969 64.4062
Q11.375 64.4062 14.8906 65.7188
Q20.4062 67.7188 26.4688 67.7188
Q34.6719 67.7188 39.6406 62.7812
Q44.625 57.8594 44.625 51.2656
Q44.625 45.2656 40.8594 40.9844
Q37.1094 36.7188 30.9062 34.7188
Q37.6406 33.5 41.7969 28.5938
Q45.9531 23.6875 45.9531 17.0469
Q45.9531 8.84375 39.5938 3.65625
Q33.25 -1.51562 23.8281 -1.51562
Q9.8125 -1.51562 2.09375 11.7656
L3.76562 12.8438
Q6.25 8.79688 10.9844 5.85938
Q15.7188 2.9375 21.1875 2.9375
Q27.6875 2.9375 31.2656 7.25
Q34.8594 11.5781 34.8594 17.8281
Q34.8594 24.2656 30.3125 28.7031
Q25.7812 33.1562 15.2812 33.1562
L15.2812 36.375
Q22.7031 36.375 26.4531 37.9375
Q30.2188 39.5 32.5625 43.0156
Q34.9062 46.5312 34.9062 51.1719
Q34.9062 56.5469 31.6406 59.9531
Q28.375 63.375 22.75 63.375
Q15.7656 63.375 11.8281 59.25
Q7.90625 55.125 6.6875 48.3906
z
" id="TimesNewRomanPSMT-417"/>
      <path d="
M28.4688 6.45312
Q21.5781 1.125 19.8281 0.296875
Q17.1875 -0.921875 14.2031 -0.921875
Q9.57812 -0.921875 6.5625 2.25
Q3.5625 5.42188 3.5625 10.5938
Q3.5625 13.875 5.03125 16.2656
Q7.03125 19.5781 11.9844 22.5
Q16.9375 25.4375 28.4688 29.6406
L28.4688 31.3906
Q28.4688 38.0938 26.3438 40.5781
Q24.2188 43.0625 20.1719 43.0625
Q17.0938 43.0625 15.2812 41.4062
Q13.4219 39.75 13.4219 37.5938
L13.5312 34.7656
Q13.5312 32.5156 12.375 31.2969
Q11.2344 30.0781 9.375 30.0781
Q7.5625 30.0781 6.42188 31.3438
Q5.28125 32.625 5.28125 34.8125
Q5.28125 39.0156 9.57812 42.5312
Q13.875 46.0469 21.625 46.0469
Q27.5938 46.0469 31.3906 44.0469
Q34.2812 42.5312 35.6406 39.3125
Q36.5312 37.2031 36.5312 30.7188
L36.5312 15.5312
Q36.5312 9.125 36.7656 7.6875
Q37.0156 6.25 37.5781 5.76562
Q38.1406 5.28125 38.875 5.28125
Q39.6562 5.28125 40.2344 5.60938
Q41.2656 6.25 44.1875 9.1875
L44.1875 6.45312
Q38.7188 -0.875 33.7344 -0.875
Q31.3438 -0.875 29.9219 0.78125
Q28.5156 2.4375 28.4688 6.45312
M28.4688 9.625
L28.4688 26.6562
Q21.0938 23.7344 18.9531 22.5156
Q15.0938 20.3594 13.4219 18.0156
Q11.7656 15.6719 11.7656 12.8906
Q11.7656 9.375 13.8594 7.04688
Q15.9688 4.73438 18.7031 4.73438
Q22.4062 4.73438 28.4688 9.625" id="TimesNewRomanPSMT-430"/>
      <path d="
M7.32812 31.9375
Q12.9375 46.0469 26.2656 46.0469
Q35.5938 46.0469 41.5312 39.0625
Q47.4688 32.0781 47.4688 23.0938
Q47.4688 13.8125 41.4531 6.21875
Q35.4531 -1.375 25.2031 -1.375
Q14.75 -1.375 9.28125 7.29688
Q3.8125 15.9688 3.8125 28.4219
Q3.8125 38.0938 6.64062 46.4531
Q9.46875 54.8281 12.5938 58.9844
Q15.7188 63.1406 19.8125 65.0312
Q23.9219 66.9375 34.3281 67.0469
Q41.7969 67.1406 43.3594 67.4844
Q44.9219 67.8281 46.3438 69.4375
L48.25 69.4375
Q46.625 64.6562 44.3281 62.5938
Q42.0469 60.5469 39.4062 59.8281
Q36.7656 59.125 29.9844 58.9375
Q22.6562 58.7344 19.8438 57.8281
Q17.0469 56.9375 14.0156 53.4375
Q10.9844 49.9531 9.29688 44.2812
Q7.625 38.625 7.32812 31.9375
M24.6094 42.7188
Q19.7344 42.7188 16.6094 38.6719
Q13.4844 34.625 13.4844 25.9219
Q13.4844 14.1562 17.6719 8.09375
Q21.875 2.04688 27.3906 2.04688
Q32.4688 2.04688 35.375 6.26562
Q38.2812 10.5 38.2812 19.7812
Q38.2812 29.6406 34.4688 36.1719
Q30.6719 42.7188 24.6094 42.7188" id="TimesNewRomanPSMT-431"/>
      <path d="
M43.75 44.7344
L43.75 42.875
Q40.7188 42.875 39.2812 42.0469
Q37.8438 41.2188 37.4062 39.9375
Q36.9688 38.6719 36.9688 34.2344
L36.9688 10.5
Q36.9688 6.25 37.3594 4.90625
Q37.75 3.5625 39.2344 2.6875
Q40.7188 1.8125 43.75 1.8125
L43.75 0
L22.125 0
L22.125 1.8125
Q26.1719 1.8125 27.5312 3.29688
Q28.9062 4.78125 28.9062 10.5
L28.9062 20.2188
L26.9062 20.1719
Q26.4688 20.1719 25.3438 20.2188
L11.0781 0
L-0.046875 0
L-0.046875 1.8125
Q2.39062 1.8125 3.34375 2.46875
Q4.29688 3.125 6.89062 6.78125
L17.3281 21.5312
Q6.10938 25.4375 6.10938 33.5
Q6.10938 38.0312 10.125 41.375
Q14.1562 44.7344 23.875 44.7344
z

M28.9062 41.0156
Q27 41.5469 25.2969 41.5469
Q20.3594 41.5469 17.9219 39.1094
Q15.4844 36.6719 15.4844 33.2969
Q15.4844 29 18.9375 26.1719
Q22.4062 23.3438 27.6875 23.3438
Q28.2188 23.3438 28.9062 23.4375
z
" id="TimesNewRomanPSMT-44f"/>
      <path d="
M17.0938 24.8125
L22.6562 24.9062
Q42.5781 24.9062 42.5781 12.5938
Q42.5781 6.89062 37.7188 3.4375
Q32.8594 0 23.7344 0
L2.25 0
L2.25 1.8125
Q6.59375 1.8125 7.8125 3.39062
Q9.03125 4.98438 9.03125 10.5
L9.03125 34.2344
Q9.03125 39.4531 8.48438 40.4062
Q7.95312 41.3594 6.82812 42.1094
Q5.71875 42.875 2.25 42.875
L2.25 44.7344
L25.6406 44.7344
L25.6406 42.875
Q20.7969 42.875 19.6719 42.3125
Q18.5625 41.75 17.8281 40.8438
Q17.0938 39.9375 17.0938 34.2344
z

M17.0938 3.85938
Q19.6719 3.17188 22.2656 3.17188
Q27.1562 3.17188 30.2031 5.75
Q33.25 8.34375 33.25 12.3125
Q33.25 21.6875 20.2188 21.6875
Q19.0938 21.6875 17.0938 21.625
z
" id="TimesNewRomanPSMT-44c"/>
      <path d="
M47.0781 62.5938
L26.5625 62.5938
L26.5625 44.0469
Q26.5625 15.9688 21.7188 7.59375
Q16.8906 -0.78125 8.40625 -0.78125
Q4.78125 -0.78125 2.82812 1
Q0.875 2.78125 0.875 5.125
Q0.875 6.9375 2.14062 8.25
Q3.42188 9.57812 5.21875 9.57812
Q6.73438 9.57812 8.6875 8.10938
Q10.8906 6.5 12.6406 6.5
Q16.8906 6.5 19.5781 13.5469
Q22.2656 20.6094 22.2656 40.2812
L22.2656 54.1562
Q22.2656 60.6875 20.5469 62.4375
Q18.8438 64.2031 12.7031 64.4062
L12.7031 66.2188
L65.9688 66.2188
L65.9688 64.4062
Q59.8125 64.2031 58.0938 62.4375
Q56.3906 60.6875 56.3906 54.1562
L56.3906 12.0625
Q56.3906 5.51562 58.0938 3.75
Q59.8125 2 65.9688 1.8125
L65.9688 0
L37.5 0
L37.5 1.8125
Q43.6562 2 45.3594 3.75
Q47.0781 5.51562 47.0781 12.0625
z
" id="TimesNewRomanPSMT-41b"/>
      <path d="
M10.75 62.6406
Q10.75 64.3594 11.6875 65.4062
Q12.6406 66.4531 14.1094 66.4531
Q17.3281 66.4531 19.8281 60.4062
Q21.2344 56.9844 23.0625 56.125
Q24.9062 55.2812 26.6562 55.2812
Q29.7344 55.2812 31.2969 56.5938
Q32.8594 57.9062 34.2344 61.3281
Q36.2812 66.4062 39.2656 66.4062
Q40.7188 66.4062 41.75 65.3594
Q42.7812 64.3125 42.7812 62.75
Q42.7812 58.9844 37.8438 55.7656
Q32.9062 52.5469 26.7656 52.5469
Q18.7031 52.5469 14.7188 55.4688
Q10.75 58.4062 10.75 62.6406
M17.0938 13.7656
L36.4219 36.1406
Q36.3281 39.8906 35 41.3594
Q33.6875 42.8281 30.4688 42.875
L30.4688 44.7344
L51.2656 44.7344
L51.2656 42.875
Q48 42.875 46.875 42.2031
Q45.75 41.5469 45.1094 40.5625
Q44.4844 39.5938 44.4844 34.2344
L44.4844 10.5
Q44.4844 5.32812 45.0156 4.32812
Q45.5625 3.32812 46.7031 2.5625
Q47.8594 1.8125 51.2656 1.8125
L51.2656 0
L29.6406 0
L29.6406 1.8125
Q33.6875 1.8125 35.0469 3.29688
Q36.4219 4.78125 36.4219 10.5
L36.4219 31.5469
L17.0938 9.125
Q17.1875 4.98438 18.2656 3.42188
Q19.3438 1.85938 22.9062 1.8125
L22.9062 0
L2.25 0
L2.25 1.8125
Q6.59375 1.8125 7.8125 3.39062
Q9.03125 4.98438 9.03125 10.5
L9.03125 34.2344
Q9.03125 39.4531 8.48438 40.4062
Q7.95312 41.3594 6.82812 42.1094
Q5.71875 42.875 2.25 42.875
L2.25 44.7344
L23.875 44.7344
L23.875 42.875
Q20.6094 42.875 19.4844 42.2031
Q18.3594 41.5469 17.7188 40.5625
Q17.0938 39.5938 17.0938 34.2344
z
" id="TimesNewRomanPSMT-439"/>
     </defs>
     <g transform="translate(18.31 373.7775)rotate(-90.0)scale(0.16 -0.16)">
      <use xlink:href="#TimesNewRomanPSMT-417"/>
      <use x="50.09765625" xlink:href="#TimesNewRomanPSMT-43d"/>
      <use x="103.61328125" xlink:href="#TimesNewRomanPSMT-430"/>
      <use x="143.998046875" xlink:href="#TimesNewRomanPSMT-447"/>
      <use x="194.291015625" xlink:href="#TimesNewRomanPSMT-435"/>
      <use x="238.67578125" xlink:href="#TimesNewRomanPSMT-43d"/>
      <use x="292.19140625" xlink:href="#TimesNewRomanPSMT-438"/>
      <use x="345.70703125" xlink:href="#TimesNewRomanPSMT-435"/>
      <use x="390.091796875" xlink:href="#TimesNewRomanPSMT-20"/>
      <use x="415.091796875" xlink:href="#TimesNewRomanPSMT-43d"/>
      <use x="468.607421875" xlink:href="#TimesNewRomanPSMT-430"/>
      <use x="512.9921875" xlink:href="#TimesNewRomanPSMT-20"/>
      <use x="537.9921875" xlink:href="#TimesNewRomanPSMT-43e"/>
      <use x="590.4921875" xlink:href="#TimesNewRomanPSMT-441"/>
      <use x="634.876953125" xlink:href="#TimesNewRomanPSMT-43d"/>
      <use x="688.392578125" xlink:href="#TimesNewRomanPSMT-43e"/>
      <use x="738.392578125" xlink:href="#TimesNewRomanPSMT-432"/>
      <use x="784.984375" xlink:href="#TimesNewRomanPSMT-435"/>
      <use x="829.369140625" xlink:href="#TimesNewRomanPSMT-20"/>
      <use x="854.369140625" xlink:href="#TimesNewRomanPSMT-440"/>
      <use x="904.369140625" xlink:href="#TimesNewRomanPSMT-430"/>
      <use x="948.75390625" xlink:href="#TimesNewRomanPSMT-441"/>
      <use x="993.138671875" xlink:href="#TimesNewRomanPSMT-441"/>
      <use x="1037.5234375" xlink:href="#TimesNewRomanPSMT-442"/>
      <use x="1079.84960938" xlink:href="#TimesNewRomanPSMT-43e"/>
      <use x="1127.97460938" xlink:href="#TimesNewRomanPSMT-44f"/>
      <use x="1173.97070312" xlink:href="#TimesNewRomanPSMT-43d"/>
      <use x="1227.48632812" xlink:href="#TimesNewRomanPSMT-438"/>
      <use x="1281.00195312" xlink:href="#TimesNewRomanPSMT-44f"/>
      <use x="1326.99804688" xlink:href="#TimesNewRomanPSMT-20"/>
      <use x="1351.99804688" xlink:href="#TimesNewRomanPSMT-41a"/>
      <use x="1411.19726562" xlink:href="#TimesNewRomanPSMT-443"/>
      <use x="1456.82226562" xlink:href="#TimesNewRomanPSMT-43b"/>
      <use x="1506.72460938" xlink:href="#TimesNewRomanPSMT-44c"/>
      <use x="1552.33007812" xlink:href="#TimesNewRomanPSMT-431"/>
      <use x="1603.20898438" xlink:href="#TimesNewRomanPSMT-430"/>
      <use x="1647.59375" xlink:href="#TimesNewRomanPSMT-43a"/>
      <use x="1694.67773438" xlink:href="#TimesNewRomanPSMT-430"/>
      <use x="1739.0625" xlink:href="#TimesNewRomanPSMT-20"/>
      <use x="1764.0625" xlink:href="#TimesNewRomanPSMT-2014"/>
      <use x="1864.0625" xlink:href="#TimesNewRomanPSMT-20"/>
      <use x="1889.0625" xlink:href="#TimesNewRomanPSMT-41b"/>
      <use x="1956.25976562" xlink:href="#TimesNewRomanPSMT-435"/>
      <use x="2000.64453125" xlink:href="#TimesNewRomanPSMT-439"/>
      <use x="2054.16015625" xlink:href="#TimesNewRomanPSMT-431"/>
      <use x="2102.5390625" xlink:href="#TimesNewRomanPSMT-43b"/>
      <use x="2152.44140625" xlink:href="#TimesNewRomanPSMT-435"/>
      <use x="2196.82617188" xlink:href="#TimesNewRomanPSMT-440"/>
      <use x="2246.82617188" xlink:href="#TimesNewRomanPSMT-430"/>
     </g>
    </g>
   </g>
  </g>
 </g>
 <defs>
  <clipPath id="pea587da27a">
   <rect height="345.6" width="446.4" x="49.63" y="17.68875"/>
  </clipPath>
 </defs>
</svg>
