<?xml version="1.0" encoding="utf-8" standalone="no"?>
<!DOCTYPE svg PUBLIC "-//W3C//DTD SVG 1.1//EN"
  "http://www.w3.org/Graphics/SVG/1.1/DTD/svg11.dtd">
<!-- Created with matplotlib (http://matplotlib.org/) -->
<svg height="407pt" version="1.1" viewBox="0 0 524 407" width="524pt" xmlns="http://www.w3.org/2000/svg" xmlns:xlink="http://www.w3.org/1999/xlink">
 <defs>
  <style type="text/css">
*{stroke-linecap:butt;stroke-linejoin:round;}
  </style>
 </defs>
 <g id="figure_1">
  <g id="patch_1">
   <path d="
M0 407.913
L524.513 407.913
L524.513 0
L0 0
z
" style="fill:#ffffff;"/>
  </g>
  <g id="axes_1">
   <g id="patch_2">
    <path d="
M70.9125 360.583
L517.312 360.583
L517.312 14.9825
L70.9125 14.9825
z
" style="fill:#ffffff;"/>
   </g>
   <g id="line2d_1">
    <path clip-path="url(#pb4af2fac22)" d="
M92.1696 38.2672
L113.427 61.0544
L134.684 90.9097
L155.941 108.106
L177.198 132.118
L198.455 155.553
L219.713 163.48
L240.97 184.899
L262.227 219.34
L283.484 221.883
L304.741 228.856
L325.998 245.854
L347.255 247.273
L368.513 267.31
L389.77 295.824
L411.027 303.6
L432.284 305.136
L453.541 317.75
L474.798 326.072
L496.055 357.776" style="fill:none;stroke:#0000ff;stroke-linecap:square;"/>
    <defs>
     <path d="
M0 3
C0.795609 3 1.55874 2.6839 2.12132 2.12132
C2.6839 1.55874 3 0.795609 3 0
C3 -0.795609 2.6839 -1.55874 2.12132 -2.12132
C1.55874 -2.6839 0.795609 -3 0 -3
C-0.795609 -3 -1.55874 -2.6839 -2.12132 -2.12132
C-2.6839 -1.55874 -3 -0.795609 -3 0
C-3 0.795609 -2.6839 1.55874 -2.12132 2.12132
C-1.55874 2.6839 -0.795609 3 0 3
z
" id="mf1e9a9e4ae" style="stroke:#000000;stroke-width:0.5;"/>
    </defs>
    <g clip-path="url(#pb4af2fac22)">
     <use style="fill:#0000ff;stroke:#000000;stroke-width:0.5;" x="92.1696428571" xlink:href="#mf1e9a9e4ae" y="38.2671507349"/>
     <use style="fill:#0000ff;stroke:#000000;stroke-width:0.5;" x="113.426785714" xlink:href="#mf1e9a9e4ae" y="61.0543948362"/>
     <use style="fill:#0000ff;stroke:#000000;stroke-width:0.5;" x="134.683928571" xlink:href="#mf1e9a9e4ae" y="90.9097278405"/>
     <use style="fill:#0000ff;stroke:#000000;stroke-width:0.5;" x="155.941071429" xlink:href="#mf1e9a9e4ae" y="108.106446156"/>
     <use style="fill:#0000ff;stroke:#000000;stroke-width:0.5;" x="177.198214286" xlink:href="#mf1e9a9e4ae" y="132.117772219"/>
     <use style="fill:#0000ff;stroke:#000000;stroke-width:0.5;" x="198.455357143" xlink:href="#mf1e9a9e4ae" y="155.553389696"/>
     <use style="fill:#0000ff;stroke:#000000;stroke-width:0.5;" x="219.7125" xlink:href="#mf1e9a9e4ae" y="163.479876719"/>
     <use style="fill:#0000ff;stroke:#000000;stroke-width:0.5;" x="240.969642857" xlink:href="#mf1e9a9e4ae" y="184.899240468"/>
     <use style="fill:#0000ff;stroke:#000000;stroke-width:0.5;" x="262.226785714" xlink:href="#mf1e9a9e4ae" y="219.339634135"/>
     <use style="fill:#0000ff;stroke:#000000;stroke-width:0.5;" x="283.483928571" xlink:href="#mf1e9a9e4ae" y="221.883012016"/>
     <use style="fill:#0000ff;stroke:#000000;stroke-width:0.5;" x="304.741071429" xlink:href="#mf1e9a9e4ae" y="228.856084639"/>
     <use style="fill:#0000ff;stroke:#000000;stroke-width:0.5;" x="325.998214286" xlink:href="#mf1e9a9e4ae" y="245.85355753"/>
     <use style="fill:#0000ff;stroke:#000000;stroke-width:0.5;" x="347.255357143" xlink:href="#mf1e9a9e4ae" y="247.273186325"/>
     <use style="fill:#0000ff;stroke:#000000;stroke-width:0.5;" x="368.5125" xlink:href="#mf1e9a9e4ae" y="267.310280465"/>
     <use style="fill:#0000ff;stroke:#000000;stroke-width:0.5;" x="389.769642857" xlink:href="#mf1e9a9e4ae" y="295.824200425"/>
     <use style="fill:#0000ff;stroke:#000000;stroke-width:0.5;" x="411.026785714" xlink:href="#mf1e9a9e4ae" y="303.600486416"/>
     <use style="fill:#0000ff;stroke:#000000;stroke-width:0.5;" x="432.283928571" xlink:href="#mf1e9a9e4ae" y="305.135895957"/>
     <use style="fill:#0000ff;stroke:#000000;stroke-width:0.5;" x="453.541071429" xlink:href="#mf1e9a9e4ae" y="317.750416958"/>
     <use style="fill:#0000ff;stroke:#000000;stroke-width:0.5;" x="474.798214286" xlink:href="#mf1e9a9e4ae" y="326.071687939"/>
     <use style="fill:#0000ff;stroke:#000000;stroke-width:0.5;" x="496.055357143" xlink:href="#mf1e9a9e4ae" y="357.776290416"/>
    </g>
   </g>
   <g id="patch_3">
    <path d="
M70.9125 14.9825
L517.312 14.9825" style="fill:none;stroke:#000000;stroke-linecap:square;stroke-linejoin:miter;"/>
   </g>
   <g id="patch_4">
    <path d="
M517.312 360.583
L517.312 14.9825" style="fill:none;stroke:#000000;stroke-linecap:square;stroke-linejoin:miter;"/>
   </g>
   <g id="patch_5">
    <path d="
M70.9125 360.583
L517.312 360.583" style="fill:none;stroke:#000000;stroke-linecap:square;stroke-linejoin:miter;"/>
   </g>
   <g id="patch_6">
    <path d="
M70.9125 360.583
L70.9125 14.9825" style="fill:none;stroke:#000000;stroke-linecap:square;stroke-linejoin:miter;"/>
   </g>
   <g id="matplotlib.axis_1">
    <g id="xtick_1">
     <g id="line2d_2">
      <path clip-path="url(#pb4af2fac22)" d="
M70.9125 360.583
L70.9125 14.9825" style="fill:none;stroke:#000000;stroke-dasharray:1.000000,3.000000;stroke-dashoffset:0.0;stroke-width:0.5;"/>
     </g>
     <g id="line2d_3">
      <defs>
       <path d="
M0 0
L0 -4" id="m93b0483c22" style="stroke:#000000;stroke-width:0.5;"/>
      </defs>
      <g>
       <use style="stroke:#000000;stroke-width:0.5;" x="70.9125" xlink:href="#m93b0483c22" y="360.5825"/>
      </g>
     </g>
     <g id="line2d_4">
      <defs>
       <path d="
M0 0
L0 4" id="m741efc42ff" style="stroke:#000000;stroke-width:0.5;"/>
      </defs>
      <g>
       <use style="stroke:#000000;stroke-width:0.5;" x="70.9125" xlink:href="#m741efc42ff" y="14.9825"/>
      </g>
     </g>
     <g id="text_1">
      <!-- 0 -->
      <defs>
       <path d="
M50.1406 45.6094
Q53.2656 41.8438 54.7969 36.7812
Q56.3438 31.7344 56.3438 26.2188
Q56.3438 19.5781 54.4375 14.3281
Q52.5469 9.07812 49.2188 5.60938
Q45.7969 2.04688 41.1094 0.234375
Q36.4219 -1.5625 30.6719 -1.5625
Q24.3594 -1.5625 19.4219 0.53125
Q14.5 2.64062 11.4219 6.29688
Q8.20312 10.1094 6.60938 15.2031
Q5.03125 20.3125 5.03125 26.2188
Q5.03125 32.0312 6.5625 36.9062
Q8.10938 41.7969 11.375 45.75
Q14.5 49.5625 19.4219 51.75
Q24.3594 53.9531 30.7188 53.9531
Q37.4062 53.9531 42.1875 51.7031
Q46.9688 49.4688 50.1406 45.6094
M45.5625 26.2188
Q45.5625 37.8438 41.5781 44.2344
Q37.5938 50.6406 30.7656 50.6406
Q23.8281 50.6406 19.8281 44.2344
Q15.8281 37.8438 15.8281 26.2188
Q15.8281 15.1875 19.6562 8.46875
Q23.4844 1.76562 30.6719 1.76562
Q37.8438 1.76562 41.7031 8.46875
Q45.5625 15.1875 45.5625 26.2188" id="Georgia-30"/>
      </defs>
      <g transform="translate(66.8075 376.6775)scale(0.16 -0.16)">
       <use xlink:href="#Georgia-30"/>
      </g>
     </g>
    </g>
    <g id="xtick_2">
     <g id="line2d_5">
      <path clip-path="url(#pb4af2fac22)" d="
M155.941 360.583
L155.941 14.9825" style="fill:none;stroke:#000000;stroke-dasharray:1.000000,3.000000;stroke-dashoffset:0.0;stroke-width:0.5;"/>
     </g>
     <g id="line2d_6">
      <g>
       <use style="stroke:#000000;stroke-width:0.5;" x="155.941071429" xlink:href="#m93b0483c22" y="360.5825"/>
      </g>
     </g>
     <g id="line2d_7">
      <g>
       <use style="stroke:#000000;stroke-width:0.5;" x="155.941071429" xlink:href="#m741efc42ff" y="14.9825"/>
      </g>
     </g>
     <g id="text_2">
      <!-- 20 -->
      <defs>
       <path d="
M51.125 0
L5.375 0
L5.375 6.64062
Q6.6875 8.15625 9.03125 10.0312
Q11.375 11.9219 14.5938 14.1094
Q16.5469 15.4375 19.2812 17
Q22.0156 18.5625 25.4844 20.4062
Q29.3438 22.4688 31.4219 24.0312
Q33.5 25.5938 35.2031 27.875
Q36.3281 29.3906 37.0156 31.6562
Q37.7031 33.9375 37.7031 38.1406
Q37.7031 44.2344 34.4219 47.0938
Q31.1562 49.9531 26.0312 49.9531
Q22.8594 49.9531 20.0156 48.7031
Q17.1875 47.4688 15.7656 45.2656
Q16.1094 43.7031 16.625 41.5469
Q17.1406 39.4062 17.1406 37.3594
Q17.1406 35.5 15.5938 34.0625
Q14.0625 32.625 11.0312 32.625
Q8.59375 32.625 7.26562 34.2969
Q5.95312 35.9844 5.95312 38.8125
Q5.95312 41.4531 7.42188 44.1094
Q8.89062 46.7812 11.625 49.0312
Q14.3125 51.2188 18.2656 52.5781
Q22.2188 53.9531 26.8125 53.9531
Q36.8125 53.9531 42.6875 49.4844
Q48.5781 45.0156 48.5781 37.5469
Q48.5781 33.9844 47.5312 31.0469
Q46.4844 28.125 44.1406 25.875
Q41.5469 23.3906 38.0781 21.6094
Q34.625 19.8281 27.4844 16.6562
Q23.25 14.75 19.5781 12.6719
Q15.9219 10.5938 13.5781 8.64062
L51.125 8.64062
z
" id="Georgia-32"/>
      </defs>
      <g transform="translate(147.394821429 376.6775)scale(0.16 -0.16)">
       <use xlink:href="#Georgia-32"/>
       <use x="55.859375" xlink:href="#Georgia-30"/>
      </g>
     </g>
    </g>
    <g id="xtick_3">
     <g id="line2d_8">
      <path clip-path="url(#pb4af2fac22)" d="
M240.97 360.583
L240.97 14.9825" style="fill:none;stroke:#000000;stroke-dasharray:1.000000,3.000000;stroke-dashoffset:0.0;stroke-width:0.5;"/>
     </g>
     <g id="line2d_9">
      <g>
       <use style="stroke:#000000;stroke-width:0.5;" x="240.969642857" xlink:href="#m93b0483c22" y="360.5825"/>
      </g>
     </g>
     <g id="line2d_10">
      <g>
       <use style="stroke:#000000;stroke-width:0.5;" x="240.969642857" xlink:href="#m741efc42ff" y="14.9825"/>
      </g>
     </g>
     <g id="text_3">
      <!-- 40 -->
      <defs>
       <path d="
M52.9375 4.39062
L43.0156 4.39062
L43.0156 -17.8281
L33.6406 -17.8281
L33.6406 4.39062
L2.39062 4.39062
L2.39062 11.9219
L36.625 53.6562
L43.0156 53.6562
L43.0156 10.7969
L52.9375 10.7969
z

M33.6406 10.7969
L33.6406 42.7812
L7.28125 10.7969
z
" id="Georgia-34"/>
      </defs>
      <g transform="translate(232.133392857 376.6775)scale(0.16 -0.16)">
       <use xlink:href="#Georgia-34"/>
       <use x="56.494140625" xlink:href="#Georgia-30"/>
      </g>
     </g>
    </g>
    <g id="xtick_4">
     <g id="line2d_11">
      <path clip-path="url(#pb4af2fac22)" d="
M325.998 360.583
L325.998 14.9825" style="fill:none;stroke:#000000;stroke-dasharray:1.000000,3.000000;stroke-dashoffset:0.0;stroke-width:0.5;"/>
     </g>
     <g id="line2d_12">
      <g>
       <use style="stroke:#000000;stroke-width:0.5;" x="325.998214286" xlink:href="#m93b0483c22" y="360.5825"/>
      </g>
     </g>
     <g id="line2d_13">
      <g>
       <use style="stroke:#000000;stroke-width:0.5;" x="325.998214286" xlink:href="#m741efc42ff" y="14.9825"/>
      </g>
     </g>
     <g id="text_4">
      <!-- 60 -->
      <defs>
       <path d="
M52.4844 22.5156
Q52.4844 17.4375 50.6562 12.9844
Q48.8281 8.54688 45.75 5.42188
Q42.1875 1.85938 37.8594 0.140625
Q33.5469 -1.5625 28.8594 -1.5625
Q23.4375 -1.5625 19.0469 0.4375
Q14.6562 2.4375 11.5781 6.10938
Q8.45312 9.8125 6.73438 15.1875
Q5.03125 20.5625 5.03125 27.25
Q5.03125 44.6719 15.4062 56.6406
Q25.7812 68.6094 43.2188 71
L44.0938 66.6094
L39.7031 65.8281
Q29.1094 62.4062 23.3125 55.1719
Q17.5312 47.9531 15.8281 37.6406
Q20.0156 41.3125 24.1094 42.8281
Q28.2188 44.3438 32.7656 44.3438
Q40.9219 44.3438 46.7031 38.0938
Q52.4844 31.8438 52.4844 22.5156
M41.8906 21.1875
Q41.8906 29.1094 38.25 33.8906
Q34.625 38.6719 28.5156 38.6719
Q24.8594 38.6719 21.7031 37.2969
Q18.5625 35.9375 15.625 32.7188
Q15.5781 32.125 15.4688 30
Q15.375 27.875 15.375 26.6562
Q15.375 15.2344 19.1094 8.76562
Q22.8594 2.29688 28.9531 2.29688
Q34.7656 2.29688 38.3281 7.34375
Q41.8906 12.4062 41.8906 21.1875" id="Georgia-36"/>
      </defs>
      <g transform="translate(317.365714286 376.6775)scale(0.16 -0.16)">
       <use xlink:href="#Georgia-36"/>
       <use x="56.591796875" xlink:href="#Georgia-30"/>
      </g>
     </g>
    </g>
    <g id="xtick_5">
     <g id="line2d_14">
      <path clip-path="url(#pb4af2fac22)" d="
M411.027 360.583
L411.027 14.9825" style="fill:none;stroke:#000000;stroke-dasharray:1.000000,3.000000;stroke-dashoffset:0.0;stroke-width:0.5;"/>
     </g>
     <g id="line2d_15">
      <g>
       <use style="stroke:#000000;stroke-width:0.5;" x="411.026785714" xlink:href="#m93b0483c22" y="360.5825"/>
      </g>
     </g>
     <g id="line2d_16">
      <g>
       <use style="stroke:#000000;stroke-width:0.5;" x="411.026785714" xlink:href="#m741efc42ff" y="14.9825"/>
      </g>
     </g>
     <g id="text_5">
      <!-- 80 -->
      <defs>
       <path d="
M54.5469 18.3594
Q54.5469 10.1562 47.4531 4.25
Q40.375 -1.65625 28.8594 -1.65625
Q18.0625 -1.65625 11.5625 3.76562
Q5.07812 9.1875 5.07812 17.7188
Q5.07812 24.0312 8.90625 28.25
Q12.75 32.4688 20.2656 35.4062
Q14.0625 38.875 10.9844 43.0156
Q7.90625 47.1719 7.90625 52.3906
Q7.90625 60.3594 14.6719 65.7188
Q21.4375 71.0938 30.8594 71.0938
Q40.2812 71.0938 46.1094 66.0156
Q51.9531 60.9375 51.9531 53.2656
Q51.9531 48.3438 48.7344 43.9219
Q45.5156 39.5 39.2656 36.6719
Q47.3594 33.2031 50.9531 29
Q54.5469 24.8125 54.5469 18.3594
M42.7188 53.8125
Q42.7188 59.7656 39.1719 63.5
Q35.6406 67.2344 30.125 67.2344
Q24.6094 67.2344 21.0938 63.6406
Q17.5781 60.0625 17.5781 54.7344
Q17.5781 49.6094 21.5781 46.0469
Q25.5938 42.4844 35.8438 38.4219
Q39.5 40.7656 41.1094 44.625
Q42.7188 48.4844 42.7188 53.8125
M44.7812 16.0625
Q44.7812 19.1406 43.4531 21.4531
Q42.1406 23.7812 39.6562 25.6875
Q37.25 27.5469 32.9844 29.5625
Q28.7188 31.5938 23.7344 33.6875
Q19.0469 31.1562 16.8438 27.2188
Q14.6562 23.2969 14.6562 18.2656
Q14.6562 11.0781 18.875 6.65625
Q23.0938 2.25 30.125 2.25
Q36.8594 2.25 40.8125 6.15625
Q44.7812 10.0625 44.7812 16.0625" id="Georgia-38"/>
      </defs>
      <g transform="translate(402.155535714 376.6775)scale(0.16 -0.16)">
       <use xlink:href="#Georgia-38"/>
       <use x="59.619140625" xlink:href="#Georgia-30"/>
      </g>
     </g>
    </g>
    <g id="xtick_6">
     <g id="line2d_17">
      <path clip-path="url(#pb4af2fac22)" d="
M496.055 360.583
L496.055 14.9825" style="fill:none;stroke:#000000;stroke-dasharray:1.000000,3.000000;stroke-dashoffset:0.0;stroke-width:0.5;"/>
     </g>
     <g id="line2d_18">
      <g>
       <use style="stroke:#000000;stroke-width:0.5;" x="496.055357143" xlink:href="#m93b0483c22" y="360.5825"/>
      </g>
     </g>
     <g id="line2d_19">
      <g>
       <use style="stroke:#000000;stroke-width:0.5;" x="496.055357143" xlink:href="#m741efc42ff" y="14.9825"/>
      </g>
     </g>
     <g id="text_6">
      <!-- 100 -->
      <defs>
       <path d="
M39.5 0
L6.59375 0
L6.59375 3.46875
Q8.0625 3.5625 11.1562 3.875
Q14.2656 4.20312 15.4375 4.54688
Q16.9375 5.03125 17.75 6.125
Q18.5625 7.23438 18.5625 9.42188
L18.5625 43.7031
L6.39062 43.7031
L6.39062 47.7969
L9.07812 47.7969
Q14.3594 47.7969 18.5312 49.75
Q22.7031 51.7031 24.5156 53.9531
L28.5625 53.9531
Q28.4219 50.7812 28.2656 46.5312
Q28.125 42.2812 28.125 38.9219
L28.125 9.96875
Q28.125 8.25 28.875 6.90625
Q29.6406 5.5625 31.0625 4.9375
Q32.3281 4.39062 35.2031 3.95312
Q38.0938 3.51562 39.5 3.46875
z
" id="Georgia-31"/>
      </defs>
      <g transform="translate(483.711607143 376.6775)scale(0.16 -0.16)">
       <use xlink:href="#Georgia-31"/>
       <use x="42.96875" xlink:href="#Georgia-30"/>
       <use x="104.345703125" xlink:href="#Georgia-30"/>
      </g>
     </g>
    </g>
    <g id="text_7">
     <!-- Количество тем -->
     <defs>
      <path d="
M25.7812 -1.26562
Q15.3281 -1.26562 9.42188 5.65625
Q3.51562 12.5938 3.51562 24.2656
Q3.51562 29.3438 5.09375 33.7656
Q6.6875 38.1875 9.71875 41.7969
Q12.5938 45.2656 16.9375 47.3906
Q21.2969 49.5156 26.4219 49.5156
Q33.5 49.5156 37.9375 46.1094
Q42.3906 42.7188 42.3906 36.8594
Q42.3906 34.4219 41.2188 32.5469
Q40.0469 30.6719 37.3594 30.6719
Q34.4688 30.6719 32.875 32.125
Q31.2969 33.5938 31.2969 35.4062
Q31.2969 37.5938 31.875 39.9062
Q32.4688 42.2344 32.5625 43.3125
Q31.6875 44.8281 29.9531 45.3281
Q28.2188 45.8438 26.2188 45.8438
Q23.875 45.8438 21.75 44.8438
Q19.625 43.8438 17.625 41.1562
Q15.8281 38.7188 14.7031 34.5625
Q13.5781 30.4219 13.5781 24.6562
Q13.5781 15.5781 17.5938 9.84375
Q21.625 4.10938 28.1719 4.10938
Q32.9062 4.10938 36.1094 6.39062
Q39.3125 8.6875 42.0469 13.2812
L45.1719 11.2344
Q41.9375 5.46875 36.6562 2.09375
Q31.3906 -1.26562 25.7812 -1.26562" id="Georgia-441"/>
      <path d="
M46 32.7188
L43.0156 32.7188
Q42.5781 34.0781 41.7188 35.9375
Q40.875 37.7969 39.8438 39.4531
Q38.7656 41.2656 37.4219 42.6562
Q36.0781 44.0469 34.625 44.2344
Q33.1094 44.3906 31.25 44.4531
Q29.3906 44.5312 28.0781 44.5312
L28.0781 8.6875
Q28.0781 7.03125 28.75 5.95312
Q29.4375 4.89062 30.8125 4.29688
Q31.8906 3.8125 33.25 3.5625
Q34.625 3.32812 35.9375 3.21875
L35.9375 0
L11.4219 0
L11.4219 3.21875
Q12.5469 3.32812 13.9844 3.42188
Q15.4375 3.51562 16.3125 3.8125
Q17.6719 4.25 18.3281 5.34375
Q19 6.45312 19 8.20312
L19 44.5312
Q17.4375 44.4844 15.4844 44.4062
Q13.5312 44.3438 12.4062 44.2344
Q11.1406 44.1406 9.6875 42.625
Q8.25 41.1094 7.17188 39.4531
Q6.15625 37.7969 5.26562 35.7656
Q4.39062 33.7344 4.04688 32.7188
L1.07812 32.7188
L1.07812 48.1406
L46 48.1406
z
" id="Georgia-442"/>
      <path d="
M54.6875 0
L31.1562 0
L31.1562 3.21875
Q32.2812 3.32812 33.4531 3.42188
Q34.625 3.51562 35.5 3.8125
Q36.8594 4.25 37.5938 5.34375
Q38.3281 6.45312 38.3281 8.20312
L38.3281 44.1406
L24.9531 44.1406
Q24.9531 32.2344 23.2812 23.6406
Q21.625 15.0469 19 9.625
Q16.4062 4.29688 13.125 1.65625
Q9.85938 -0.984375 6.45312 -0.984375
Q2.9375 -0.984375 1.125 0.84375
Q-0.6875 2.6875 -0.6875 5.125
Q-0.6875 6.89062 0.453125 8.45312
Q1.60938 10.0156 3.8125 10.0156
Q5.85938 10.0156 7.51562 8.84375
Q9.1875 7.67188 10.75 5.5625
Q11.9219 6.64062 13.5 9.54688
Q15.0938 12.4531 16.4062 16.75
Q17.875 21.3906 18.7969 26.3594
Q19.7344 31.3438 19.7344 37.7969
Q19.7344 40.3281 19.0938 41.5469
Q18.4531 42.7812 17.0938 43.4531
Q16.1562 43.9531 14.0625 44.3594
Q11.9688 44.7812 10.6406 44.9219
L10.6406 48.1406
L54.5 48.1406
L54.5 44.9219
Q53.0781 44.8281 52.0312 44.6719
Q50.9844 44.5312 50.0938 44.3438
Q48.7344 43.9531 48.0625 42.7969
Q47.4062 41.6562 47.4062 39.9375
L47.4062 8.6875
Q47.4062 6.98438 47.9844 5.9375
Q48.5781 4.89062 50 4.29688
Q51.0312 3.8125 52.2188 3.5625
Q53.4219 3.32812 54.6875 3.21875
z
" id="Georgia-43b"/>
      <path d="
M50.4375 24.5625
Q50.4375 19.4844 48.8281 14.5781
Q47.2188 9.67188 44.2344 6.25
Q40.875 2.34375 36.4219 0.4375
Q31.9844 -1.46875 26.4688 -1.46875
Q21.875 -1.46875 17.7188 0.265625
Q13.5781 2 10.3594 5.32812
Q7.17188 8.59375 5.29688 13.2969
Q3.42188 18.0156 3.42188 23.875
Q3.42188 35.1562 9.98438 42.3281
Q16.5469 49.5156 27.2031 49.5156
Q37.3125 49.5156 43.875 42.7031
Q50.4375 35.8906 50.4375 24.5625
M40.3281 24.4688
Q40.3281 28.125 39.5938 32.2031
Q38.875 36.2812 37.4062 39.1094
Q35.8438 42.1406 33.2969 43.9688
Q30.7656 45.7969 27.0938 45.7969
Q23.3438 45.7969 20.6719 43.9375
Q18.0156 42.0938 16.3594 38.875
Q14.7969 35.8906 14.1562 32.0781
Q13.5312 28.2656 13.5312 24.7031
Q13.5312 20.0156 14.2812 16.0312
Q15.0469 12.0625 16.7031 8.9375
Q18.3594 5.8125 20.875 4.03125
Q23.3906 2.25 27.0938 2.25
Q33.2031 2.25 36.7656 8.15625
Q40.3281 14.0625 40.3281 24.4688" id="Georgia-43e"/>
      <path d="
M53.8125 0
L30.2188 0
L30.2188 3.21875
Q31.3438 3.32812 32.5312 3.42188
Q33.7344 3.51562 34.625 3.8125
Q35.9844 4.25 36.7188 5.34375
Q37.4531 6.45312 37.4531 8.20312
L37.4531 21
Q33.5 19.3438 30.4688 18.2812
Q27.4375 17.2344 23.1875 17.2344
Q15.5312 17.2344 11.9375 20.2656
Q8.34375 23.2969 8.34375 29.8906
L8.34375 39.4531
Q8.34375 41.1094 7.65625 42.1875
Q6.98438 43.2656 5.60938 43.8438
Q4.34375 44.4375 3.14062 44.625
Q1.95312 44.8281 0.921875 44.9219
L0.921875 48.1406
L24.4688 48.1406
L24.4688 44.9219
Q23.0469 44.8281 22 44.6719
Q20.9531 44.5312 20.0625 44.3438
Q18.7031 43.9531 18.0625 42.7969
Q17.4375 41.6562 17.4375 39.9375
L17.4375 32.3281
Q17.4375 27.0938 19.5625 24.7969
Q21.6875 22.5156 26.6562 22.5156
Q28.8594 22.5156 31.6562 22.9531
Q34.4688 23.3906 37.4531 24.4219
L37.4531 39.4531
Q37.4531 41.0625 36.7656 42.1562
Q36.0781 43.2656 34.7188 43.8438
Q33.4531 44.4375 32.25 44.625
Q31.0625 44.8281 30.0312 44.9219
L30.0312 48.1406
L53.6094 48.1406
L53.6094 44.9219
Q52.2031 44.8281 51.1406 44.6719
Q50.0938 44.5312 49.2188 44.3438
Q47.8594 43.9531 47.1875 42.7969
Q46.5312 41.6562 46.5312 39.9375
L46.5312 8.6875
Q46.5312 6.98438 47.1094 5.9375
Q47.7031 4.89062 49.125 4.29688
Q50.1406 3.8125 51.3438 3.5625
Q52.5469 3.32812 53.8125 3.21875
z
" id="Georgia-447"/>
      <path d="
M57.8125 0
L34.4219 0
L34.4219 3.21875
Q35.5469 3.32812 36.7344 3.42188
Q37.9375 3.51562 38.8125 3.8125
Q40.1875 4.25 40.9219 5.34375
Q41.6562 6.45312 41.6562 8.20312
L41.6562 33.5
L19.4844 9.51562
L19.4844 8.6875
Q19.4844 7.03125 20.1562 5.95312
Q20.8438 4.89062 22.2188 4.29688
Q23.2969 3.8125 24.4844 3.5625
Q25.6875 3.32812 27 3.21875
L27 0
L3.60938 0
L3.60938 3.21875
Q4.73438 3.32812 5.92188 3.42188
Q7.125 3.51562 8.01562 3.8125
Q9.375 4.25 10.0312 5.34375
Q10.6875 6.45312 10.6875 8.20312
L10.6875 39.4531
Q10.6875 41.0625 10 42.1562
Q9.32812 43.2656 7.95312 43.8438
Q6.6875 44.4375 5.48438 44.625
Q4.29688 44.8281 3.26562 44.9219
L3.26562 48.1406
L26.6562 48.1406
L26.6562 44.9219
Q25.25 44.8281 24.1875 44.6719
Q23.1406 44.5312 22.2656 44.3438
Q20.9062 43.9531 20.2344 42.7969
Q19.5781 41.6562 19.5781 39.9375
L19.5781 15.0469
L41.75 39.0625
Q41.75 41.2188 41.0625 42.2344
Q40.375 43.2656 39.0156 43.8438
Q37.75 44.4375 36.5 44.625
Q35.25 44.8281 34.2344 44.9219
L34.2344 48.1406
L57.625 48.1406
L57.625 44.9219
Q56.2031 44.8281 55.1562 44.6719
Q54.1094 44.5312 53.2188 44.3438
Q51.8594 43.9531 51.1875 42.7969
Q50.5312 41.6562 50.5312 39.9375
L50.5312 8.6875
Q50.5312 6.98438 51.1094 5.9375
Q51.7031 4.89062 53.125 4.29688
Q54.1562 3.8125 55.3438 3.5625
Q56.5469 3.32812 57.8125 3.21875
z
" id="Georgia-438"/>
      <path d="
M70.5625 0
L51.4688 0
Q49.4688 5.67188 47.5625 10.3281
Q45.6562 14.9844 43.6562 19.3906
Q40.375 26.7656 37.0312 29.3438
Q33.6875 31.9375 28.0312 31.9375
L24.4688 31.9375
L24.4688 9.76562
Q24.4688 8.15625 25.0781 6.875
Q25.6875 5.60938 27.2969 4.82812
Q28.0781 4.5 30.2031 4
Q32.3281 3.51562 33.7344 3.46875
L33.7344 0
L4.98438 0
L4.98438 3.46875
Q6.10938 3.5625 8.25 3.75
Q10.4062 3.95312 11.2812 4.34375
Q12.75 4.98438 13.4062 6.21875
Q14.0625 7.46875 14.0625 9.23438
L14.0625 59.2344
Q14.0625 60.8906 13.5 62.1094
Q12.9375 63.3281 11.2812 64.1094
Q9.96875 64.75 8.15625 65.2344
Q6.34375 65.7188 4.98438 65.8281
L4.98438 69.2812
L33.7344 69.2812
L33.7344 65.8281
Q32.375 65.7656 30.3125 65.375
Q28.2656 64.9844 27.2969 64.6562
Q25.6406 64.0625 25.0469 62.6875
Q24.4688 61.3281 24.4688 59.7188
L24.4688 35.9844
L29 35.9844
Q30.8125 35.9844 32.5469 36.7656
Q34.2812 37.5469 35.75 39.0625
Q37.8438 41.2188 39.1094 44.3125
Q40.375 47.4062 41.8438 51.8125
Q43.2188 55.8594 44.6719 59.3281
Q46.1406 62.7969 48.9688 65.7188
Q50.875 67.6719 53.4688 68.7969
Q56.0625 69.9219 59.0781 69.9219
Q61.1875 69.9219 62.75 69.4062
Q64.3125 68.8906 65.375 67.9688
Q66.3594 67.1406 66.8438 66.0156
Q67.3281 64.8906 67.3281 63.5781
Q67.3281 62.5 67.0156 61.4688
Q66.7031 60.4531 66.1094 59.7656
Q65.4375 58.9375 64.5938 58.4688
Q63.7656 58.0156 62.25 58.0156
Q60.6406 58.0156 59.4375 58.5469
Q58.25 59.0781 57.375 60.0156
Q56.5 60.9375 55.7812 62.1719
Q55.0781 63.4219 54.4375 64.7031
Q53.0781 63.7656 52.125 62.3906
Q51.1719 61.0312 50.4375 59.4688
Q49.7031 57.9062 49.1406 56.1406
Q48.5781 54.3906 47.8594 52.25
Q47.2656 50.4375 46.4844 48.2188
Q45.7031 46 44.6719 44.0938
Q43.6094 42.0469 42.1562 39.9844
Q40.7188 37.9375 38.7188 36.1406
L38.7188 35.4531
Q44.1406 33.9375 47.7188 30.6094
Q51.3125 27.2969 53.7656 22.0781
Q55.125 19.0938 56.7656 15.6406
Q58.4062 12.2031 59.4688 9.8125
Q60.9844 6.54688 62.3906 5.4375
Q63.8125 4.34375 65.2812 4.10938
Q66.5469 3.90625 68.0156 3.73438
Q69.4844 3.5625 70.5625 3.46875
z
" id="Georgia-41a"/>
      <path id="Georgia-20"/>
      <path d="
M38.3281 14.1562
Q38.3281 18.4531 35.1562 20.9375
Q31.9844 23.4375 26.0781 23.4375
Q23.4844 23.4375 22 23.3438
Q20.5156 23.25 19.6719 23.25
L19.6719 7.32812
Q19.6719 5.42188 21.2812 4.375
Q22.9062 3.32812 26.2188 3.32812
Q29.7344 3.32812 32.1719 4.25
Q34.625 5.17188 35.9844 6.78125
Q37.3125 8.34375 37.8125 10.2031
Q38.3281 12.0625 38.3281 14.1562
M48.0938 13.4219
Q48.0938 9.85938 46.4844 7.26562
Q44.875 4.6875 42.0469 3.03125
Q39.4531 1.51562 36.125 0.75
Q32.8125 0 29.0469 0
L3.60938 0
L3.60938 3.21875
Q4.73438 3.32812 5.92188 3.42188
Q7.125 3.51562 8.01562 3.8125
Q9.375 4.25 10.0312 5.34375
Q10.6875 6.45312 10.6875 8.20312
L10.6875 39.4531
Q10.6875 41.0625 10 42.1562
Q9.32812 43.2656 7.95312 43.8438
Q6.6875 44.4375 5.48438 44.625
Q4.29688 44.8281 3.26562 44.9219
L3.26562 48.1406
Q7.625 48.1406 14.0312 48.1875
Q20.4531 48.25 27.4375 48.25
Q31.1562 48.25 34.3438 47.7344
Q37.5469 47.2188 40.0469 46
Q42.625 44.7344 44.0312 42.5469
Q45.4531 40.375 45.4531 37.3125
Q45.4531 32.4688 42.4531 29.6562
Q39.4531 26.8594 34.5781 25.8281
L34.5781 25.2969
Q37.0625 24.9531 39.4688 24.1719
Q41.8906 23.3906 43.7969 22.0156
Q45.75 20.6094 46.9219 18.5312
Q48.0938 16.4531 48.0938 13.4219
M35.7969 36.9219
Q35.7969 39.3594 34.8906 40.8906
Q33.9844 42.4375 32.4688 43.3125
Q30.9531 44.1875 29.0781 44.5
Q27.2031 44.8281 25.2031 44.8281
Q23.9219 44.8281 22.375 44.75
Q20.8438 44.6719 19.6719 44.625
L19.6719 27.0469
L24.4219 27.0469
Q27.7812 27.0469 30.0781 27.8281
Q32.375 28.6094 33.5469 29.9375
Q34.7656 31.2031 35.2812 32.9531
Q35.7969 34.7188 35.7969 36.9219" id="Georgia-432"/>
      <path d="
M46.2969 11.3281
Q43.2656 5.5625 38.1875 2.14062
Q33.1094 -1.26562 26.5156 -1.26562
Q20.7031 -1.26562 16.3281 0.78125
Q11.9688 2.82812 9.125 6.34375
Q6.29688 9.85938 4.90625 14.5469
Q3.51562 19.2344 3.51562 24.4688
Q3.51562 29.1562 5 33.6719
Q6.5 38.1875 9.375 41.7969
Q12.1562 45.2656 16.2812 47.3906
Q20.4062 49.5156 25.5312 49.5156
Q30.8125 49.5156 34.5625 47.8438
Q38.3281 46.1875 40.6719 43.3125
Q42.9219 40.5781 44.0156 36.8594
Q45.125 33.1562 45.125 28.8125
L45.125 25.5938
L13.2344 25.5938
Q13.2344 20.8438 14.1406 16.9844
Q15.0469 13.1406 17 10.2031
Q18.8906 7.375 21.9688 5.73438
Q25.0469 4.10938 29.2969 4.10938
Q33.6406 4.10938 36.7812 6.125
Q39.9375 8.15625 42.875 13.4219
z

M35.5 29.6875
Q35.5 32.4219 35.0312 35.5469
Q34.5781 38.6719 33.5469 40.7656
Q32.4219 43.0156 30.4688 44.4219
Q28.5156 45.8438 25.4375 45.8438
Q20.3125 45.8438 16.9219 41.5781
Q13.5312 37.3125 13.2344 29.6875
z
" id="Georgia-435"/>
      <path d="
M68.1094 0
L44.5312 0
L44.5312 3.21875
Q45.6562 3.32812 46.8438 3.42188
Q48.0469 3.51562 48.9219 3.8125
Q50.3438 4.25 51.0938 5.39062
Q51.8594 6.54688 51.8594 8.20312
L51.8594 43.0625
L50.6875 43.0625
L34.375 0.78125
L31.3438 0.78125
L16.0156 43.8906
L14.9375 43.8906
L14.9375 10.1562
Q14.9375 7.67188 15.6406 6.25
Q16.3594 4.82812 17.6719 4.29688
Q18.7031 3.8125 19.8906 3.5625
Q21.0938 3.32812 22.3594 3.21875
L22.3594 0
L3.60938 0
L3.60938 3.21875
Q4.73438 3.32812 5.92188 3.42188
Q7.125 3.51562 8.01562 3.8125
Q9.46875 4.29688 10.0781 5.73438
Q10.6875 7.17188 10.6875 9.67188
L10.6875 38.9688
Q10.6875 40.875 10 42.0625
Q9.32812 43.2656 7.95312 43.8438
Q6.6875 44.4375 5.48438 44.625
Q4.29688 44.8281 3.26562 44.9219
L3.26562 48.1406
L23.2969 48.1406
L35.3594 13.6719
L46 42.2344
Q46.4844 43.6562 47.0625 45.6094
Q47.6562 47.5625 47.7031 48.1406
L67.9219 48.1406
L67.9219 44.9219
Q66.5 44.8281 65.4531 44.6719
Q64.4062 44.5312 63.5312 44.3438
Q62.1562 43.9531 61.5 42.7969
Q60.8438 41.6562 60.8438 39.9375
L60.8438 8.6875
Q60.8438 6.98438 61.4219 5.9375
Q62.0156 4.89062 63.4219 4.29688
Q64.4531 3.8125 65.6406 3.5625
Q66.8438 3.32812 68.1094 3.21875
z
" id="Georgia-43c"/>
     </defs>
     <g transform="translate(235.37875 397.2425)scale(0.16 -0.16)">
      <use xlink:href="#Georgia-41a"/>
      <use x="69.482421875" xlink:href="#Georgia-43e"/>
      <use x="123.388671875" xlink:href="#Georgia-43b"/>
      <use x="181.494140625" xlink:href="#Georgia-438"/>
      <use x="242.724609375" xlink:href="#Georgia-447"/>
      <use x="299.951171875" xlink:href="#Georgia-435"/>
      <use x="348.291015625" xlink:href="#Georgia-441"/>
      <use x="393.701171875" xlink:href="#Georgia-442"/>
      <use x="440.771484375" xlink:href="#Georgia-432"/>
      <use x="492.578125" xlink:href="#Georgia-43e"/>
      <use x="546.484375" xlink:href="#Georgia-20"/>
      <use x="570.60546875" xlink:href="#Georgia-442"/>
      <use x="617.67578125" xlink:href="#Georgia-435"/>
      <use x="666.015625" xlink:href="#Georgia-43c"/>
     </g>
    </g>
   </g>
   <g id="matplotlib.axis_2">
    <g id="ytick_1">
     <g id="line2d_20">
      <path clip-path="url(#pb4af2fac22)" d="
M70.9125 360.583
L517.312 360.583" style="fill:none;stroke:#000000;stroke-dasharray:1.000000,3.000000;stroke-dashoffset:0.0;stroke-width:0.5;"/>
     </g>
     <g id="line2d_21">
      <defs>
       <path d="
M0 0
L4 0" id="m728421d6d4" style="stroke:#000000;stroke-width:0.5;"/>
      </defs>
      <g>
       <use style="stroke:#000000;stroke-width:0.5;" x="70.9125" xlink:href="#m728421d6d4" y="360.5825"/>
      </g>
     </g>
     <g id="line2d_22">
      <defs>
       <path d="
M0 0
L-4 0" id="mcb0005524f" style="stroke:#000000;stroke-width:0.5;"/>
      </defs>
      <g>
       <use style="stroke:#000000;stroke-width:0.5;" x="517.3125" xlink:href="#mcb0005524f" y="360.5825"/>
      </g>
     </g>
     <g id="text_8">
      <!-- −10.6 -->
      <defs>
       <path d="
M57.0312 24.2656
L7.28125 24.2656
L7.28125 30.375
L57.0312 30.375
z
" id="Georgia-2212"/>
       <path d="
M20.2656 5.60938
Q20.2656 2.875 18.2812 0.9375
Q16.3125 -0.984375 13.5781 -0.984375
Q10.8438 -0.984375 8.85938 0.9375
Q6.89062 2.875 6.89062 5.60938
Q6.89062 8.34375 8.85938 10.3281
Q10.8438 12.3125 13.5781 12.3125
Q16.3125 12.3125 18.2812 10.3281
Q20.2656 8.34375 20.2656 5.60938" id="Georgia-2e"/>
      </defs>
      <g transform="translate(28.3825 364.895)scale(0.16 -0.16)">
       <use xlink:href="#Georgia-2212"/>
       <use x="64.306640625" xlink:href="#Georgia-31"/>
       <use x="107.275390625" xlink:href="#Georgia-30"/>
       <use x="168.65234375" xlink:href="#Georgia-2e"/>
       <use x="195.60546875" xlink:href="#Georgia-36"/>
      </g>
     </g>
    </g>
    <g id="ytick_2">
     <g id="line2d_23">
      <path clip-path="url(#pb4af2fac22)" d="
M70.9125 317.382
L517.312 317.382" style="fill:none;stroke:#000000;stroke-dasharray:1.000000,3.000000;stroke-dashoffset:0.0;stroke-width:0.5;"/>
     </g>
     <g id="line2d_24">
      <g>
       <use style="stroke:#000000;stroke-width:0.5;" x="70.9125" xlink:href="#m728421d6d4" y="317.3825"/>
      </g>
     </g>
     <g id="line2d_25">
      <g>
       <use style="stroke:#000000;stroke-width:0.5;" x="517.3125" xlink:href="#mcb0005524f" y="317.3825"/>
      </g>
     </g>
     <g id="text_9">
      <!-- −10.4 -->
      <g transform="translate(28.31 321.695)scale(0.16 -0.16)">
       <use xlink:href="#Georgia-2212"/>
       <use x="64.306640625" xlink:href="#Georgia-31"/>
       <use x="107.275390625" xlink:href="#Georgia-30"/>
       <use x="168.65234375" xlink:href="#Georgia-2e"/>
       <use x="195.60546875" xlink:href="#Georgia-34"/>
      </g>
     </g>
    </g>
    <g id="ytick_3">
     <g id="line2d_26">
      <path clip-path="url(#pb4af2fac22)" d="
M70.9125 274.183
L517.312 274.183" style="fill:none;stroke:#000000;stroke-dasharray:1.000000,3.000000;stroke-dashoffset:0.0;stroke-width:0.5;"/>
     </g>
     <g id="line2d_27">
      <g>
       <use style="stroke:#000000;stroke-width:0.5;" x="70.9125" xlink:href="#m728421d6d4" y="274.1825"/>
      </g>
     </g>
     <g id="line2d_28">
      <g>
       <use style="stroke:#000000;stroke-width:0.5;" x="517.3125" xlink:href="#mcb0005524f" y="274.1825"/>
      </g>
     </g>
     <g id="text_10">
      <!-- −10.2 -->
      <g transform="translate(28.6 278.495)scale(0.16 -0.16)">
       <use xlink:href="#Georgia-2212"/>
       <use x="64.306640625" xlink:href="#Georgia-31"/>
       <use x="107.275390625" xlink:href="#Georgia-30"/>
       <use x="168.65234375" xlink:href="#Georgia-2e"/>
       <use x="195.60546875" xlink:href="#Georgia-32"/>
      </g>
     </g>
    </g>
    <g id="ytick_4">
     <g id="line2d_29">
      <path clip-path="url(#pb4af2fac22)" d="
M70.9125 230.982
L517.312 230.982" style="fill:none;stroke:#000000;stroke-dasharray:1.000000,3.000000;stroke-dashoffset:0.0;stroke-width:0.5;"/>
     </g>
     <g id="line2d_30">
      <g>
       <use style="stroke:#000000;stroke-width:0.5;" x="70.9125" xlink:href="#m728421d6d4" y="230.9825"/>
      </g>
     </g>
     <g id="line2d_31">
      <g>
       <use style="stroke:#000000;stroke-width:0.5;" x="517.3125" xlink:href="#mcb0005524f" y="230.9825"/>
      </g>
     </g>
     <g id="text_11">
      <!-- −10.0 -->
      <g transform="translate(27.765 235.295)scale(0.16 -0.16)">
       <use xlink:href="#Georgia-2212"/>
       <use x="64.306640625" xlink:href="#Georgia-31"/>
       <use x="107.275390625" xlink:href="#Georgia-30"/>
       <use x="168.65234375" xlink:href="#Georgia-2e"/>
       <use x="195.60546875" xlink:href="#Georgia-30"/>
      </g>
     </g>
    </g>
    <g id="ytick_5">
     <g id="line2d_32">
      <path clip-path="url(#pb4af2fac22)" d="
M70.9125 187.783
L517.312 187.783" style="fill:none;stroke:#000000;stroke-dasharray:1.000000,3.000000;stroke-dashoffset:0.0;stroke-width:0.5;"/>
     </g>
     <g id="line2d_33">
      <g>
       <use style="stroke:#000000;stroke-width:0.5;" x="70.9125" xlink:href="#m728421d6d4" y="187.7825"/>
      </g>
     </g>
     <g id="line2d_34">
      <g>
       <use style="stroke:#000000;stroke-width:0.5;" x="517.3125" xlink:href="#mcb0005524f" y="187.7825"/>
      </g>
     </g>
     <g id="text_12">
      <!-- −9.8 -->
      <defs>
       <path d="
M51.5625 25.2031
Q51.5625 16.7031 48.875 9.20312
Q46.1875 1.70312 41.1562 -3.95312
Q36.2344 -9.51562 29.125 -13.2031
Q22.0156 -16.8906 13.2344 -18.0625
L12.3594 -13.6719
L16.75 -12.8906
Q27.25 -9.57812 33.1562 -2.6875
Q39.0625 4.20312 40.7656 14.7969
Q36.7656 11.375 32.7812 9.78125
Q28.8125 8.20312 23.8281 8.20312
Q15.875 8.20312 9.98438 14.4062
Q4.10938 20.6094 4.10938 30.0312
Q4.10938 40.1406 10.9062 47.0625
Q17.7188 54 27.7344 54
Q38.625 54 45.0938 46.2344
Q51.5625 38.4844 51.5625 25.2031
M41.2188 25.7812
Q41.2188 37.2031 37.4688 43.6719
Q33.7344 50.1406 27.6406 50.1406
Q21.8281 50.1406 18.2656 45.1406
Q14.7031 40.1406 14.7031 31.3438
Q14.7031 23.4375 18.3281 18.6562
Q21.9688 13.875 28.0781 13.875
Q31.8906 13.875 35.0625 15.2656
Q38.2344 16.6562 40.9688 19.7344
Q40.9688 19.9219 41.0312 20.5
Q41.1094 21.0938 41.1094 22.1719
Q41.1094 22.8594 41.1562 23.8281
Q41.2188 24.8125 41.2188 25.7812" id="Georgia-39"/>
      </defs>
      <g transform="translate(35.6925 192.095)scale(0.16 -0.16)">
       <use xlink:href="#Georgia-2212"/>
       <use x="64.306640625" xlink:href="#Georgia-39"/>
       <use x="120.8984375" xlink:href="#Georgia-2e"/>
       <use x="147.8515625" xlink:href="#Georgia-38"/>
      </g>
     </g>
    </g>
    <g id="ytick_6">
     <g id="line2d_35">
      <path clip-path="url(#pb4af2fac22)" d="
M70.9125 144.583
L517.312 144.583" style="fill:none;stroke:#000000;stroke-dasharray:1.000000,3.000000;stroke-dashoffset:0.0;stroke-width:0.5;"/>
     </g>
     <g id="line2d_36">
      <g>
       <use style="stroke:#000000;stroke-width:0.5;" x="70.9125" xlink:href="#m728421d6d4" y="144.5825"/>
      </g>
     </g>
     <g id="line2d_37">
      <g>
       <use style="stroke:#000000;stroke-width:0.5;" x="517.3125" xlink:href="#mcb0005524f" y="144.5825"/>
      </g>
     </g>
     <g id="text_13">
      <!-- −9.6 -->
      <g transform="translate(36.0225 148.895)scale(0.16 -0.16)">
       <use xlink:href="#Georgia-2212"/>
       <use x="64.306640625" xlink:href="#Georgia-39"/>
       <use x="120.8984375" xlink:href="#Georgia-2e"/>
       <use x="147.8515625" xlink:href="#Georgia-36"/>
      </g>
     </g>
    </g>
    <g id="ytick_7">
     <g id="line2d_38">
      <path clip-path="url(#pb4af2fac22)" d="
M70.9125 101.382
L517.312 101.382" style="fill:none;stroke:#000000;stroke-dasharray:1.000000,3.000000;stroke-dashoffset:0.0;stroke-width:0.5;"/>
     </g>
     <g id="line2d_39">
      <g>
       <use style="stroke:#000000;stroke-width:0.5;" x="70.9125" xlink:href="#m728421d6d4" y="101.3825"/>
      </g>
     </g>
     <g id="line2d_40">
      <g>
       <use style="stroke:#000000;stroke-width:0.5;" x="517.3125" xlink:href="#mcb0005524f" y="101.3825"/>
      </g>
     </g>
     <g id="text_14">
      <!-- −9.4 -->
      <g transform="translate(35.95 105.695)scale(0.16 -0.16)">
       <use xlink:href="#Georgia-2212"/>
       <use x="64.306640625" xlink:href="#Georgia-39"/>
       <use x="120.8984375" xlink:href="#Georgia-2e"/>
       <use x="147.8515625" xlink:href="#Georgia-34"/>
      </g>
     </g>
    </g>
    <g id="ytick_8">
     <g id="line2d_41">
      <path clip-path="url(#pb4af2fac22)" d="
M70.9125 58.1825
L517.312 58.1825" style="fill:none;stroke:#000000;stroke-dasharray:1.000000,3.000000;stroke-dashoffset:0.0;stroke-width:0.5;"/>
     </g>
     <g id="line2d_42">
      <g>
       <use style="stroke:#000000;stroke-width:0.5;" x="70.9125" xlink:href="#m728421d6d4" y="58.1825"/>
      </g>
     </g>
     <g id="line2d_43">
      <g>
       <use style="stroke:#000000;stroke-width:0.5;" x="517.3125" xlink:href="#mcb0005524f" y="58.1825"/>
      </g>
     </g>
     <g id="text_15">
      <!-- −9.2 -->
      <g transform="translate(36.24 62.495)scale(0.16 -0.16)">
       <use xlink:href="#Georgia-2212"/>
       <use x="64.306640625" xlink:href="#Georgia-39"/>
       <use x="120.8984375" xlink:href="#Georgia-2e"/>
       <use x="147.8515625" xlink:href="#Georgia-32"/>
      </g>
     </g>
    </g>
    <g id="ytick_9">
     <g id="text_16">
      <!-- −9.0 -->
      <g transform="translate(35.405 19.295)scale(0.16 -0.16)">
       <use xlink:href="#Georgia-2212"/>
       <use x="64.306640625" xlink:href="#Georgia-39"/>
       <use x="120.8984375" xlink:href="#Georgia-2e"/>
       <use x="147.8515625" xlink:href="#Georgia-30"/>
      </g>
     </g>
    </g>
    <g id="text_17">
     <!-- Per word bound -->
     <defs>
      <path d="
M46.2969 11.3281
Q43.2656 5.5625 38.1875 2.14062
Q33.1094 -1.26562 26.5156 -1.26562
Q20.7031 -1.26562 16.3281 0.78125
Q11.9688 2.82812 9.125 6.34375
Q6.29688 9.85938 4.90625 14.5469
Q3.51562 19.2344 3.51562 24.4688
Q3.51562 29.1562 5 33.6719
Q6.5 38.1875 9.375 41.7969
Q12.1562 45.2656 16.2812 47.3906
Q20.4062 49.5156 25.5312 49.5156
Q30.8125 49.5156 34.5625 47.8438
Q38.3281 46.1875 40.6719 43.3125
Q42.9219 40.5781 44.0156 36.8594
Q45.125 33.1562 45.125 28.8125
L45.125 25.5938
L13.2344 25.5938
Q13.2344 20.8438 14.1406 16.9844
Q15.0469 13.1406 17 10.2031
Q18.8906 7.375 21.9688 5.73438
Q25.0469 4.10938 29.2969 4.10938
Q33.6406 4.10938 36.7812 6.125
Q39.9375 8.15625 42.875 13.4219
z

M35.5 29.6875
Q35.5 32.4219 35.0312 35.5469
Q34.5781 38.6719 33.5469 40.7656
Q32.4219 43.0156 30.4688 44.4219
Q28.5156 45.8438 25.4375 45.8438
Q20.3125 45.8438 16.9219 41.5781
Q13.5312 37.3125 13.2344 29.6875
z
" id="Georgia-65"/>
      <path d="
M56.25 0.875
L39.4531 -0.203125
L38.7188 0.484375
L38.7188 4.98438
L38.3281 5.07812
Q35.7969 2.25 32.0625 0.4375
Q28.3281 -1.375 24.3594 -1.375
Q20.2656 -1.375 16.4219 0.453125
Q12.5938 2.29688 9.76562 5.60938
Q6.89062 8.98438 5.20312 13.7188
Q3.51562 18.4531 3.51562 24.1719
Q3.51562 29.3906 5.3125 34.0781
Q7.125 38.7656 10.2969 42.2812
Q13.2812 45.5625 17.5938 47.5156
Q21.9219 49.4688 26.4219 49.4688
Q29.7812 49.4688 33.0312 48.6094
Q36.2812 47.75 38.625 46.4375
L38.625 63.1875
Q38.625 65.2344 37.9375 66.9219
Q37.25 68.6094 36.0312 69.4844
Q34.6719 70.4062 32.3438 70.8125
Q30.0312 71.2344 27.3438 71.4375
L27.3438 74.4688
L47.0156 75.5938
L47.75 74.8594
L47.75 9.90625
Q47.75 8.20312 48.4062 7
Q49.0781 5.8125 50.3438 4.98438
Q51.2656 4.39062 53.0156 4.25
Q54.7812 4.10938 56.25 4.04688
z

M38.625 9.32812
L38.625 37.5
Q38.2344 38.7656 37.3438 40.2344
Q36.4688 41.7031 35.1562 42.9219
Q33.7344 44.1406 31.8281 44.9375
Q29.9375 45.75 27.3906 45.75
Q24.4688 45.75 22 44.2344
Q19.5312 42.7188 17.625 39.8906
Q15.8281 37.1562 14.7656 32.9375
Q13.7188 28.7188 13.7188 23.5781
Q13.7188 19.4844 14.5 16.1406
Q15.2812 12.7969 17.1406 9.90625
Q18.8438 7.17188 21.5 5.51562
Q24.1719 3.85938 27.8281 3.85938
Q31.7344 3.85938 34.2969 5.5625
Q36.8594 7.28125 38.625 9.32812" id="Georgia-64"/>
      <path d="
M55.125 0.875
L39.4531 -0.203125
L38.7188 0.484375
L38.7188 6.59375
L38.4219 6.59375
Q37.25 5.375 35.7812 3.98438
Q34.3281 2.59375 32.4219 1.46875
Q30.2188 0.140625 28.1719 -0.53125
Q26.125 -1.21875 22.3594 -1.21875
Q15.9688 -1.21875 12.625 2.95312
Q9.28125 7.125 9.28125 15.0938
L9.28125 38.1406
Q9.28125 39.8906 8.60938 41.0781
Q7.95312 42.2812 6.6875 43.1719
Q5.8125 43.75 4.48438 44.0156
Q3.17188 44.2812 1.70312 44.3906
L1.70312 47.5625
L17.7812 48.7344
L18.5 48.0469
L18.5 14.5938
Q18.5 9.375 20.8438 6.73438
Q23.1875 4.10938 26.4688 4.10938
Q29.1562 4.10938 31.25 4.9375
Q33.3438 5.76562 34.7656 6.89062
Q36.0781 7.90625 37.0781 9.04688
Q38.0938 10.2031 38.625 11.1875
L38.625 38.4844
Q38.625 40.0938 37.9375 41.3281
Q37.25 42.5781 36.0312 43.4531
Q35.1562 44.0469 33.4219 44.1562
Q31.6875 44.2812 29.5469 44.3906
L29.5469 47.5625
L47.0156 48.7344
L47.75 48.0469
L47.75 9.8125
Q47.75 8.15625 48.4375 6.98438
Q49.125 5.8125 50.3438 4.98438
Q51.2188 4.4375 52.4375 4.26562
Q53.6562 4.10938 55.125 4.04688
z
" id="Georgia-75"/>
      <path d="
M40.375 41.9375
Q40.375 39.4531 39.1562 37.5156
Q37.9375 35.5938 35.4062 35.5938
Q32.6719 35.5938 31.2188 37
Q29.7812 38.4219 29.7812 40.1406
Q29.7812 41.2188 29.9531 42.0938
Q30.125 42.9688 30.2812 43.8438
Q27.9844 43.8438 24.9062 41.9844
Q21.8281 40.1406 19.6719 36.7188
L19.6719 8.6875
Q19.6719 6.98438 20.3281 5.90625
Q21 4.82812 22.4062 4.29688
Q23.6406 3.8125 25.5625 3.5625
Q27.4844 3.32812 28.9062 3.21875
L28.9062 0
L3.51562 0
L3.51562 3.21875
Q4.64062 3.32812 5.82812 3.42188
Q7.03125 3.51562 7.90625 3.8125
Q9.28125 4.25 9.9375 5.34375
Q10.5938 6.45312 10.5938 8.20312
L10.5938 37.9375
Q10.5938 39.4531 9.89062 40.9219
Q9.1875 42.3906 7.90625 43.2656
Q6.98438 43.8438 5.70312 44.1094
Q4.4375 44.3906 2.98438 44.4844
L2.98438 47.6562
L19 48.7344
L19.6719 48.0469
L19.6719 41.2656
L19.9219 41.2656
Q22.9531 45.2188 26.6562 47.2656
Q30.375 49.3125 33.4531 49.3125
Q36.5312 49.3125 38.4531 47.3125
Q40.375 45.3125 40.375 41.9375" id="Georgia-72"/>
      <path d="
M75.25 45.0156
Q73.1875 44.8281 70.8125 43.3125
Q68.4531 41.7969 67.3906 38.7656
Q64.9375 31.5938 62.7656 25.1719
Q60.5938 18.75 57.9062 10.75
Q57.0312 8.20312 56.125 5.26562
Q55.2188 2.34375 54.5 -0.34375
L50.2969 -0.34375
L37.3594 35.1094
L24.3125 -0.34375
L20.3125 -0.34375
Q16.6562 10.5 13.1562 21.1719
Q9.67188 31.8438 6.98438 39.75
Q6.20312 42.0469 4 43.3594
Q1.8125 44.6719 -0.25 44.9219
L-0.25 48.1406
L21.2344 48.1406
L21.2344 44.7344
Q19.625 44.6719 17.75 44.1875
Q15.875 43.7031 15.875 42.5781
Q15.875 42.3906 16.0469 41.75
Q16.2188 41.1094 16.4531 40.375
Q18.0156 35.25 19.9844 28.9219
Q21.9688 22.6094 25.0938 12.5
L37.4062 47.1719
L42.0938 47.1719
L54.6406 12.9844
Q56.7344 19.5312 58.8125 25.6562
Q60.8906 31.7812 62.4531 37.1562
Q62.7969 38.4219 63.1094 39.4688
Q63.4219 40.5312 63.4219 41.5469
Q63.4219 42.4375 62.6406 43.1094
Q61.8594 43.7969 60.75 44.2344
Q59.7656 44.625 58.6094 44.8125
Q57.4688 45.0156 56.9375 45.0156
L56.9375 48.1406
L75.25 48.1406
z
" id="Georgia-77"/>
      <path d="
M52.3906 24.125
Q52.3906 13.2812 45.5469 5.90625
Q38.7188 -1.46875 29.6875 -1.46875
Q25.7344 -1.46875 21.8906 -0.234375
Q18.0625 0.984375 14.7031 3.03125
L11.0781 -2.59375
L8.0625 -1.90625
Q8.29688 1.70312 8.39062 6.78125
Q8.5 11.8594 8.5 16.6094
L8.5 64.2656
Q8.5 65.9219 7.73438 67.5781
Q6.98438 69.2344 5.8125 69.9688
Q4.89062 70.6094 2.70312 70.9219
Q0.53125 71.2344 -0.78125 71.3438
L-0.78125 74.4688
L16.8906 75.5938
L17.5781 74.8594
L17.5781 43.1094
L17.9219 43.0156
Q20.9531 46.2344 24.5312 47.8438
Q28.125 49.4688 31.5938 49.4688
Q40.4844 49.4688 46.4375 42.4375
Q52.3906 35.4062 52.3906 24.125
M42.1875 23.7812
Q42.1875 27.3906 41.4062 31.1406
Q40.625 34.9062 38.9688 37.7031
Q37.3125 40.5312 34.625 42.2812
Q31.9375 44.0469 28.1719 44.0469
Q24.75 44.0469 22.1875 42.7031
Q19.625 41.3594 17.5781 39.0625
L17.5781 11.0312
Q17.875 9.85938 18.7188 8.29688
Q19.5781 6.73438 21.0469 5.32812
Q22.5156 3.95312 24.3594 3.09375
Q26.2188 2.25 28.9062 2.25
Q34.8594 2.25 38.5156 8
Q42.1875 13.7656 42.1875 23.7812" id="Georgia-62"/>
      <path d="
M56.6875 0
L33.1094 0
L33.1094 3.21875
Q34.2344 3.32812 35.5781 3.42188
Q36.9219 3.51562 37.7969 3.8125
Q39.1562 4.25 39.8125 5.34375
Q40.4844 6.45312 40.4844 8.20312
L40.4844 32.9531
Q40.4844 38.0938 38.0625 40.875
Q35.6406 43.6562 32.1719 43.6562
Q29.5938 43.6562 27.4375 42.8438
Q25.2969 42.0469 23.6406 40.875
Q22.0156 39.75 21.0625 38.4531
Q20.125 37.1562 19.6719 36.375
L19.6719 8.6875
Q19.6719 7.03125 20.3594 5.95312
Q21.0469 4.89062 22.4062 4.29688
Q23.4375 3.8125 24.625 3.5625
Q25.8281 3.32812 27.0938 3.21875
L27.0938 0
L3.51562 0
L3.51562 3.21875
Q4.64062 3.32812 5.82812 3.42188
Q7.03125 3.51562 7.90625 3.8125
Q9.28125 4.25 9.9375 5.34375
Q10.5938 6.45312 10.5938 8.20312
L10.5938 37.9375
Q10.5938 39.5938 9.89062 40.9844
Q9.1875 42.3906 7.90625 43.2656
Q6.98438 43.8438 5.70312 44.1094
Q4.4375 44.3906 2.98438 44.4844
L2.98438 47.6562
L19 48.7344
L19.6719 48.0469
L19.6719 41.2656
L19.9219 41.2656
Q21.0938 42.4375 22.8438 44.0625
Q24.6094 45.7031 26.1719 46.7344
Q27.9844 47.9062 30.4688 48.6875
Q32.9531 49.4688 36.0781 49.4688
Q43.0156 49.4688 46.3594 45.1406
Q49.7031 40.8281 49.7031 33.6406
L49.7031 8.59375
Q49.7031 6.89062 50.2812 5.82812
Q50.875 4.78125 52.2969 4.20312
Q53.4688 3.71875 54.3125 3.51562
Q55.1719 3.32812 56.6875 3.21875
z
" id="Georgia-6e"/>
      <path d="
M50.4375 24.5625
Q50.4375 19.4844 48.8281 14.5781
Q47.2188 9.67188 44.2344 6.25
Q40.875 2.34375 36.4219 0.4375
Q31.9844 -1.46875 26.4688 -1.46875
Q21.875 -1.46875 17.7188 0.265625
Q13.5781 2 10.3594 5.32812
Q7.17188 8.59375 5.29688 13.2969
Q3.42188 18.0156 3.42188 23.875
Q3.42188 35.1562 9.98438 42.3281
Q16.5469 49.5156 27.2031 49.5156
Q37.3125 49.5156 43.875 42.7031
Q50.4375 35.8906 50.4375 24.5625
M40.3281 24.4688
Q40.3281 28.125 39.5938 32.2031
Q38.875 36.2812 37.4062 39.1094
Q35.8438 42.1406 33.2969 43.9688
Q30.7656 45.7969 27.0938 45.7969
Q23.3438 45.7969 20.6719 43.9375
Q18.0156 42.0938 16.3594 38.875
Q14.7969 35.8906 14.1562 32.0781
Q13.5312 28.2656 13.5312 24.7031
Q13.5312 20.0156 14.2812 16.0312
Q15.0469 12.0625 16.7031 8.9375
Q18.3594 5.8125 20.875 4.03125
Q23.3906 2.25 27.0938 2.25
Q33.2031 2.25 36.7656 8.15625
Q40.3281 14.0625 40.3281 24.4688" id="Georgia-6f"/>
      <path d="
M57.8125 52.2031
Q57.8125 46.7812 55.6875 42.5938
Q53.5625 38.4219 49.8125 35.6875
Q46.0938 32.9531 41.6406 31.6875
Q37.2031 30.4219 32.2344 30.4219
L24.4688 30.4219
L24.4688 9.42188
Q24.4688 7.71875 25.0312 6.42188
Q25.5938 5.125 27.3438 4.4375
Q28.2188 4.10938 30.4375 3.8125
Q32.6719 3.51562 34.5156 3.46875
L34.5156 0
L4.78125 0
L4.78125 3.46875
Q5.95312 3.5625 8.17188 3.79688
Q10.4062 4.04688 11.2812 4.4375
Q12.75 5.07812 13.4062 6.29688
Q14.0625 7.51562 14.0625 9.42188
L14.0625 59.4219
Q14.0625 61.1406 13.5781 62.5
Q13.0938 63.875 11.2812 64.5469
Q9.42188 65.1875 7.59375 65.4531
Q5.76562 65.7188 4.4375 65.8281
L4.4375 69.2812
L36.0781 69.2812
Q45.75 69.2812 51.7812 64.625
Q57.8125 59.9688 57.8125 52.2031
M42.9688 40.375
Q44.625 42.7188 45.1562 45.2344
Q45.7031 47.75 45.7031 49.75
Q45.7031 52.5469 45.0469 55.4219
Q44.3906 58.2969 42.7812 60.4531
Q41.0625 62.75 38.2812 64.0156
Q35.5 65.2812 31.3438 65.2812
L24.4688 65.2812
L24.4688 34.6719
L29.4375 34.6719
Q34.7188 34.6719 38.0156 36.2969
Q41.3125 37.9375 42.9688 40.375" id="Georgia-50"/>
     </defs>
     <g transform="translate(19.295 244.36875)rotate(-90.0)scale(0.16 -0.16)">
      <use xlink:href="#Georgia-50"/>
      <use x="60.986328125" xlink:href="#Georgia-65"/>
      <use x="109.326171875" xlink:href="#Georgia-72"/>
      <use x="150.29296875" xlink:href="#Georgia-20"/>
      <use x="174.4140625" xlink:href="#Georgia-77"/>
      <use x="248.14453125" xlink:href="#Georgia-6f"/>
      <use x="302.05078125" xlink:href="#Georgia-72"/>
      <use x="343.017578125" xlink:href="#Georgia-64"/>
      <use x="400.439453125" xlink:href="#Georgia-20"/>
      <use x="424.560546875" xlink:href="#Georgia-62"/>
      <use x="480.56640625" xlink:href="#Georgia-6f"/>
      <use x="534.47265625" xlink:href="#Georgia-75"/>
      <use x="591.9921875" xlink:href="#Georgia-6e"/>
      <use x="651.07421875" xlink:href="#Georgia-64"/>
     </g>
    </g>
   </g>
  </g>
 </g>
 <defs>
  <clipPath id="pb4af2fac22">
   <rect height="345.6" width="446.4" x="70.9125" y="14.9825"/>
  </clipPath>
 </defs>
</svg>
