<?xml version="1.0" encoding="utf-8" standalone="no"?>
<!DOCTYPE svg PUBLIC "-//W3C//DTD SVG 1.1//EN"
  "http://www.w3.org/Graphics/SVG/1.1/DTD/svg11.dtd">
<!-- Created with matplotlib (http://matplotlib.org/) -->
<svg height="405pt" version="1.1" viewBox="0 0 513 405" width="513pt" xmlns="http://www.w3.org/2000/svg" xmlns:xlink="http://www.w3.org/1999/xlink">
 <defs>
  <style type="text/css">
*{stroke-linecap:butt;stroke-linejoin:round;}
  </style>
 </defs>
 <g id="figure_1">
  <g id="patch_1">
   <path d="
M0 405.331
L513.888 405.331
L513.888 0
L0 0
z
" style="fill:#ffffff;"/>
  </g>
  <g id="axes_1">
   <g id="patch_2">
    <path d="
M60.2875 360.066
L506.688 360.066
L506.688 14.4663
L60.2875 14.4663
z
" style="fill:#ffffff;"/>
   </g>
   <g id="line2d_1">
    <path clip-path="url(#p69a33dfb62)" d="
M81.5446 318.898
L102.802 307.599
L124.059 291.52
L145.316 281.759
L166.573 266.447
L187.83 250.855
L209.088 244.787
L230.345 230.096
L251.602 201.319
L272.859 199.408
L294.116 193.523
L315.373 178.707
L336.63 176.948
L357.888 157.031
L379.145 128.891
L400.402 119.157
L421.659 118.121
L442.916 105.238
L464.173 93.9693
L485.43 54.1895" style="fill:none;stroke:#0000ff;stroke-linecap:square;"/>
    <defs>
     <path d="
M0 3
C0.795609 3 1.55874 2.6839 2.12132 2.12132
C2.6839 1.55874 3 0.795609 3 0
C3 -0.795609 2.6839 -1.55874 2.12132 -2.12132
C1.55874 -2.6839 0.795609 -3 0 -3
C-0.795609 -3 -1.55874 -2.6839 -2.12132 -2.12132
C-2.6839 -1.55874 -3 -0.795609 -3 0
C-3 0.795609 -2.6839 1.55874 -2.12132 2.12132
C-1.55874 2.6839 -0.795609 3 0 3
z
" id="mf1e9a9e4ae" style="stroke:#000000;stroke-width:0.5;"/>
    </defs>
    <g clip-path="url(#p69a33dfb62)">
     <use style="fill:#0000ff;stroke:#000000;stroke-width:0.5;" x="81.5446428571" xlink:href="#mf1e9a9e4ae" y="318.897942005"/>
     <use style="fill:#0000ff;stroke:#000000;stroke-width:0.5;" x="102.801785714" xlink:href="#mf1e9a9e4ae" y="307.599435823"/>
     <use style="fill:#0000ff;stroke:#000000;stroke-width:0.5;" x="124.058928571" xlink:href="#mf1e9a9e4ae" y="291.520195276"/>
     <use style="fill:#0000ff;stroke:#000000;stroke-width:0.5;" x="145.316071429" xlink:href="#mf1e9a9e4ae" y="281.758868013"/>
     <use style="fill:#0000ff;stroke:#000000;stroke-width:0.5;" x="166.573214286" xlink:href="#mf1e9a9e4ae" y="266.446973002"/>
     <use style="fill:#0000ff;stroke:#000000;stroke-width:0.5;" x="187.830357143" xlink:href="#mf1e9a9e4ae" y="250.85536561"/>
     <use style="fill:#0000ff;stroke:#000000;stroke-width:0.5;" x="209.0875" xlink:href="#mf1e9a9e4ae" y="244.787272425"/>
     <use style="fill:#0000ff;stroke:#000000;stroke-width:0.5;" x="230.344642857" xlink:href="#mf1e9a9e4ae" y="230.095805584"/>
     <use style="fill:#0000ff;stroke:#000000;stroke-width:0.5;" x="251.601785714" xlink:href="#mf1e9a9e4ae" y="201.319164793"/>
     <use style="fill:#0000ff;stroke:#000000;stroke-width:0.5;" x="272.858928571" xlink:href="#mf1e9a9e4ae" y="199.407614577"/>
     <use style="fill:#0000ff;stroke:#000000;stroke-width:0.5;" x="294.116071429" xlink:href="#mf1e9a9e4ae" y="193.522765364"/>
     <use style="fill:#0000ff;stroke:#000000;stroke-width:0.5;" x="315.373214286" xlink:href="#mf1e9a9e4ae" y="178.706594986"/>
     <use style="fill:#0000ff;stroke:#000000;stroke-width:0.5;" x="336.630357143" xlink:href="#mf1e9a9e4ae" y="176.948245954"/>
     <use style="fill:#0000ff;stroke:#000000;stroke-width:0.5;" x="357.8875" xlink:href="#mf1e9a9e4ae" y="157.030813342"/>
     <use style="fill:#0000ff;stroke:#000000;stroke-width:0.5;" x="379.144642857" xlink:href="#mf1e9a9e4ae" y="128.890752699"/>
     <use style="fill:#0000ff;stroke:#000000;stroke-width:0.5;" x="400.401785714" xlink:href="#mf1e9a9e4ae" y="119.156997462"/>
     <use style="fill:#0000ff;stroke:#000000;stroke-width:0.5;" x="421.658928571" xlink:href="#mf1e9a9e4ae" y="118.120628396"/>
     <use style="fill:#0000ff;stroke:#000000;stroke-width:0.5;" x="442.916071429" xlink:href="#mf1e9a9e4ae" y="105.238304099"/>
     <use style="fill:#0000ff;stroke:#000000;stroke-width:0.5;" x="464.173214286" xlink:href="#mf1e9a9e4ae" y="93.9693311668"/>
     <use style="fill:#0000ff;stroke:#000000;stroke-width:0.5;" x="485.430357143" xlink:href="#mf1e9a9e4ae" y="54.1894882168"/>
    </g>
   </g>
   <g id="patch_3">
    <path d="
M60.2875 14.4663
L506.688 14.4663" style="fill:none;stroke:#000000;stroke-linecap:square;stroke-linejoin:miter;"/>
   </g>
   <g id="patch_4">
    <path d="
M506.688 360.066
L506.688 14.4663" style="fill:none;stroke:#000000;stroke-linecap:square;stroke-linejoin:miter;"/>
   </g>
   <g id="patch_5">
    <path d="
M60.2875 360.066
L506.688 360.066" style="fill:none;stroke:#000000;stroke-linecap:square;stroke-linejoin:miter;"/>
   </g>
   <g id="patch_6">
    <path d="
M60.2875 360.066
L60.2875 14.4663" style="fill:none;stroke:#000000;stroke-linecap:square;stroke-linejoin:miter;"/>
   </g>
   <g id="matplotlib.axis_1">
    <g id="xtick_1">
     <g id="line2d_2">
      <path clip-path="url(#p69a33dfb62)" d="
M60.2875 360.066
L60.2875 14.4663" style="fill:none;stroke:#000000;stroke-dasharray:1.000000,3.000000;stroke-dashoffset:0.0;stroke-width:0.5;"/>
     </g>
     <g id="line2d_3">
      <defs>
       <path d="
M0 0
L0 -4" id="m93b0483c22" style="stroke:#000000;stroke-width:0.5;"/>
      </defs>
      <g>
       <use style="stroke:#000000;stroke-width:0.5;" x="60.2875" xlink:href="#m93b0483c22" y="360.06625"/>
      </g>
     </g>
     <g id="line2d_4">
      <defs>
       <path d="
M0 0
L0 4" id="m741efc42ff" style="stroke:#000000;stroke-width:0.5;"/>
      </defs>
      <g>
       <use style="stroke:#000000;stroke-width:0.5;" x="60.2875" xlink:href="#m741efc42ff" y="14.46625"/>
      </g>
     </g>
     <g id="text_1">
      <!-- 0 -->
      <defs>
       <path d="
M3.60938 32.7188
Q3.60938 44.0469 7.03125 52.2188
Q10.4531 60.4062 16.1094 64.4062
Q20.5156 67.5781 25.2031 67.5781
Q32.8125 67.5781 38.875 59.8125
Q46.4375 50.2031 46.4375 33.7344
Q46.4375 22.2188 43.1094 14.1562
Q39.7969 6.10938 34.6406 2.46875
Q29.5 -1.17188 24.7031 -1.17188
Q15.2344 -1.17188 8.9375 10.0156
Q3.60938 19.4375 3.60938 32.7188
M13.1875 31.5
Q13.1875 17.8281 16.5469 9.1875
Q19.3438 1.90625 24.8594 1.90625
Q27.4844 1.90625 30.3125 4.26562
Q33.1562 6.64062 34.625 12.2031
Q36.8594 20.6094 36.8594 35.8906
Q36.8594 47.2188 34.5156 54.7812
Q32.7656 60.4062 29.9844 62.75
Q27.9844 64.3594 25.1406 64.3594
Q21.8281 64.3594 19.2344 61.375
Q15.7188 57.3281 14.4531 48.625
Q13.1875 39.9375 13.1875 31.5" id="TimesNewRomanPSMT-30"/>
      </defs>
      <g transform="translate(56.86125 375.17625)scale(0.16 -0.16)">
       <use xlink:href="#TimesNewRomanPSMT-30"/>
      </g>
     </g>
    </g>
    <g id="xtick_2">
     <g id="line2d_5">
      <path clip-path="url(#p69a33dfb62)" d="
M145.316 360.066
L145.316 14.4663" style="fill:none;stroke:#000000;stroke-dasharray:1.000000,3.000000;stroke-dashoffset:0.0;stroke-width:0.5;"/>
     </g>
     <g id="line2d_6">
      <g>
       <use style="stroke:#000000;stroke-width:0.5;" x="145.316071429" xlink:href="#m93b0483c22" y="360.06625"/>
      </g>
     </g>
     <g id="line2d_7">
      <g>
       <use style="stroke:#000000;stroke-width:0.5;" x="145.316071429" xlink:href="#m741efc42ff" y="14.46625"/>
      </g>
     </g>
     <g id="text_2">
      <!-- 20 -->
      <defs>
       <path d="
M45.8438 12.75
L41.2188 0
L2.15625 0
L2.15625 1.8125
Q19.3906 17.5312 26.4219 27.4844
Q33.4531 37.4531 33.4531 45.7031
Q33.4531 52 29.5938 56.0469
Q25.7344 60.1094 20.3594 60.1094
Q15.4844 60.1094 11.5938 57.25
Q7.71875 54.3906 5.85938 48.875
L4.04688 48.875
Q5.28125 57.9062 10.3281 62.7344
Q15.375 67.5781 22.9531 67.5781
Q31 67.5781 36.3906 62.4062
Q41.7969 57.2344 41.7969 50.2031
Q41.7969 45.1719 39.4531 40.1406
Q35.8438 32.2344 27.7344 23.3906
Q15.5781 10.1094 12.5469 7.375
L29.8281 7.375
Q35.1094 7.375 37.2344 7.76562
Q39.3594 8.15625 41.0625 9.34375
Q42.7812 10.5469 44.0469 12.75
z
" id="TimesNewRomanPSMT-32"/>
      </defs>
      <g transform="translate(137.773571429 375.17625)scale(0.16 -0.16)">
       <use xlink:href="#TimesNewRomanPSMT-32"/>
       <use x="50.0" xlink:href="#TimesNewRomanPSMT-30"/>
      </g>
     </g>
    </g>
    <g id="xtick_3">
     <g id="line2d_8">
      <path clip-path="url(#p69a33dfb62)" d="
M230.345 360.066
L230.345 14.4663" style="fill:none;stroke:#000000;stroke-dasharray:1.000000,3.000000;stroke-dashoffset:0.0;stroke-width:0.5;"/>
     </g>
     <g id="line2d_9">
      <g>
       <use style="stroke:#000000;stroke-width:0.5;" x="230.344642857" xlink:href="#m93b0483c22" y="360.06625"/>
      </g>
     </g>
     <g id="line2d_10">
      <g>
       <use style="stroke:#000000;stroke-width:0.5;" x="230.344642857" xlink:href="#m741efc42ff" y="14.46625"/>
      </g>
     </g>
     <g id="text_3">
      <!-- 40 -->
      <defs>
       <path d="
M46.5312 24.4219
L46.5312 17.4844
L37.6406 17.4844
L37.6406 0
L29.5938 0
L29.5938 17.4844
L1.5625 17.4844
L1.5625 23.7344
L32.2812 67.5781
L37.6406 67.5781
L37.6406 24.4219
z

M29.5938 24.4219
L29.5938 57.2812
L6.34375 24.4219
z
" id="TimesNewRomanPSMT-34"/>
      </defs>
      <g transform="translate(222.754642857 375.17625)scale(0.16 -0.16)">
       <use xlink:href="#TimesNewRomanPSMT-34"/>
       <use x="50.0" xlink:href="#TimesNewRomanPSMT-30"/>
      </g>
     </g>
    </g>
    <g id="xtick_4">
     <g id="line2d_11">
      <path clip-path="url(#p69a33dfb62)" d="
M315.373 360.066
L315.373 14.4663" style="fill:none;stroke:#000000;stroke-dasharray:1.000000,3.000000;stroke-dashoffset:0.0;stroke-width:0.5;"/>
     </g>
     <g id="line2d_12">
      <g>
       <use style="stroke:#000000;stroke-width:0.5;" x="315.373214286" xlink:href="#m93b0483c22" y="360.06625"/>
      </g>
     </g>
     <g id="line2d_13">
      <g>
       <use style="stroke:#000000;stroke-width:0.5;" x="315.373214286" xlink:href="#m741efc42ff" y="14.46625"/>
      </g>
     </g>
     <g id="text_4">
      <!-- 60 -->
      <defs>
       <path d="
M44.8281 67.5781
L44.8281 65.7656
Q38.375 65.1406 34.2969 63.2031
Q30.2188 61.2812 26.2344 57.3281
Q22.2656 53.375 19.6562 48.5156
Q17.0469 43.6562 15.2812 36.9688
Q22.3125 41.7969 29.3906 41.7969
Q36.1875 41.7969 41.1562 36.3281
Q46.1406 30.8594 46.1406 22.2656
Q46.1406 13.9688 41.1094 7.125
Q35.0625 -1.17188 25.0938 -1.17188
Q18.3125 -1.17188 13.5781 3.32812
Q4.29688 12.0625 4.29688 25.9844
Q4.29688 34.8594 7.85938 42.8594
Q11.4219 50.875 18.0312 57.0781
Q24.6562 63.2812 30.7031 65.4219
Q36.7656 67.5781 42 67.5781
z

M14.4531 33.4062
Q13.5781 26.8125 13.5781 22.75
Q13.5781 18.0625 15.3125 12.5625
Q17.0469 7.07812 20.4531 3.85938
Q22.9531 1.5625 26.5156 1.5625
Q30.7656 1.5625 34.1094 5.5625
Q37.4531 9.57812 37.4531 17
Q37.4531 25.3438 34.125 31.4375
Q30.8125 37.5469 24.7031 37.5469
Q22.8594 37.5469 20.7344 36.7656
Q18.6094 35.9844 14.4531 33.4062" id="TimesNewRomanPSMT-36"/>
      </defs>
      <g transform="translate(308.001964286 375.17625)scale(0.16 -0.16)">
       <use xlink:href="#TimesNewRomanPSMT-36"/>
       <use x="50.0" xlink:href="#TimesNewRomanPSMT-30"/>
      </g>
     </g>
    </g>
    <g id="xtick_5">
     <g id="line2d_14">
      <path clip-path="url(#p69a33dfb62)" d="
M400.402 360.066
L400.402 14.4663" style="fill:none;stroke:#000000;stroke-dasharray:1.000000,3.000000;stroke-dashoffset:0.0;stroke-width:0.5;"/>
     </g>
     <g id="line2d_15">
      <g>
       <use style="stroke:#000000;stroke-width:0.5;" x="400.401785714" xlink:href="#m93b0483c22" y="360.06625"/>
      </g>
     </g>
     <g id="line2d_16">
      <g>
       <use style="stroke:#000000;stroke-width:0.5;" x="400.401785714" xlink:href="#m741efc42ff" y="14.46625"/>
      </g>
     </g>
     <g id="text_5">
      <!-- 80 -->
      <defs>
       <path d="
M19.1875 33.3438
Q11.3281 39.7969 9.04688 43.7031
Q6.78125 47.6094 6.78125 51.8125
Q6.78125 58.25 11.7656 62.9062
Q16.75 67.5781 25 67.5781
Q33.0156 67.5781 37.8906 63.2344
Q42.7812 58.8906 42.7812 53.3281
Q42.7812 49.6094 40.1406 45.75
Q37.5 41.8906 29.1562 36.6719
Q37.75 30.0312 40.5312 26.2188
Q44.2344 21.2344 44.2344 15.7188
Q44.2344 8.73438 38.9062 3.78125
Q33.5938 -1.17188 24.9531 -1.17188
Q15.5312 -1.17188 10.25 4.73438
Q6.0625 9.46875 6.0625 15.0938
Q6.0625 19.4844 9.01562 23.7969
Q11.9688 28.125 19.1875 33.3438
M26.8594 38.5781
Q32.7188 43.8438 34.2812 46.8906
Q35.8438 49.9531 35.8438 53.8125
Q35.8438 58.9375 32.9531 61.8438
Q30.0781 64.75 25.0938 64.75
Q20.125 64.75 17 61.8594
Q13.875 58.9844 13.875 55.125
Q13.875 52.5938 15.1562 50.0469
Q16.4531 47.5156 18.8438 45.2188
z

M21.4844 31.5
Q17.4375 28.0781 15.4844 24.0469
Q13.5312 20.0156 13.5312 15.3281
Q13.5312 9.03125 16.9688 5.25
Q20.4062 1.46875 25.7344 1.46875
Q31 1.46875 34.1719 4.4375
Q37.3594 7.42188 37.3594 11.6719
Q37.3594 15.1875 35.5 17.9688
Q32.0312 23.1406 21.4844 31.5" id="TimesNewRomanPSMT-38"/>
      </defs>
      <g transform="translate(393.171785714 375.17625)scale(0.16 -0.16)">
       <use xlink:href="#TimesNewRomanPSMT-38"/>
       <use x="50.0" xlink:href="#TimesNewRomanPSMT-30"/>
      </g>
     </g>
    </g>
    <g id="xtick_6">
     <g id="line2d_17">
      <path clip-path="url(#p69a33dfb62)" d="
M485.43 360.066
L485.43 14.4663" style="fill:none;stroke:#000000;stroke-dasharray:1.000000,3.000000;stroke-dashoffset:0.0;stroke-width:0.5;"/>
     </g>
     <g id="line2d_18">
      <g>
       <use style="stroke:#000000;stroke-width:0.5;" x="485.430357143" xlink:href="#m93b0483c22" y="360.06625"/>
      </g>
     </g>
     <g id="line2d_19">
      <g>
       <use style="stroke:#000000;stroke-width:0.5;" x="485.430357143" xlink:href="#m741efc42ff" y="14.46625"/>
      </g>
     </g>
     <g id="text_6">
      <!-- 100 -->
      <defs>
       <path d="
M11.7188 59.7188
L27.8281 67.5781
L29.4375 67.5781
L29.4375 11.6719
Q29.4375 6.10938 29.9062 4.73438
Q30.375 3.375 31.8281 2.64062
Q33.2969 1.90625 37.7969 1.8125
L37.7969 0
L12.8906 0
L12.8906 1.8125
Q17.5781 1.90625 18.9375 2.60938
Q20.3125 3.32812 20.8438 4.51562
Q21.3906 5.71875 21.3906 11.6719
L21.3906 47.4062
Q21.3906 54.6406 20.9062 56.6875
Q20.5625 58.25 19.6562 58.9844
Q18.75 59.7188 17.4844 59.7188
Q15.6719 59.7188 12.4531 58.2031
z
" id="TimesNewRomanPSMT-31"/>
      </defs>
      <g transform="translate(474.652857143 375.17625)scale(0.16 -0.16)">
       <use xlink:href="#TimesNewRomanPSMT-31"/>
       <use x="50.0" xlink:href="#TimesNewRomanPSMT-30"/>
       <use x="100.0" xlink:href="#TimesNewRomanPSMT-30"/>
      </g>
     </g>
    </g>
    <g id="text_7">
     <!-- Количество тем -->
     <defs>
      <path d="
M7.71875 44.7344
L47.7031 44.7344
L47.7031 42.875
Q44.3906 42.875 43.2812 42.2031
Q42.1875 41.5469 41.5469 40.5625
Q40.9219 39.5938 40.9219 34.2344
L40.9219 10.5
Q40.9219 5.32812 41.4531 4.32812
Q42 3.32812 43.1406 2.5625
Q44.2812 1.8125 47.7031 1.8125
L47.7031 0
L24.5625 0
L24.5625 1.8125
Q28.3281 1.8125 29.7656 2.20312
Q31.2031 2.59375 32.0312 4.07812
Q32.8594 5.5625 32.8594 10.5
L32.8594 41.5469
L17.9688 41.5469
L17.9688 22.7031
Q17.9688 12.0156 17.0156 7.6875
Q16.0625 3.375 13.25 1.29688
Q10.4531 -0.78125 6.84375 -0.78125
Q0.59375 -0.78125 0.59375 4.39062
Q0.59375 6.15625 1.59375 7.28125
Q2.59375 8.40625 4.20312 8.40625
Q5.90625 8.40625 7.375 6.98438
Q9.28125 5.125 10.25 5.125
Q12.4531 5.125 13.4531 8.8125
Q14.4531 12.5 14.4531 21.7344
L14.4531 31.5938
Q14.4531 39.2031 13.3438 40.8594
Q12.25 42.5312 7.71875 42.875
z
" id="TimesNewRomanPSMT-43b"/>
      <path d="
M32.0312 11.6719
L46 44.7344
L61.0781 44.7344
L61.0781 42.875
Q57.7656 42.875 56.6562 42.2031
Q55.5625 41.5469 54.9219 40.5625
Q54.2969 39.5938 54.2969 34.2344
L54.2969 10.5
Q54.2969 5.85938 54.75 4.51562
Q55.2188 3.17188 56.6562 2.48438
Q58.1094 1.8125 61.0781 1.8125
L61.0781 0
L39.4531 0
L39.4531 1.8125
Q43.4531 1.8125 44.8125 3.29688
Q46.1875 4.78125 46.1875 10.5
L46.1875 37.4062
L30.375 0
L28.6562 0
L12.5469 37.4062
L12.5469 10.5
Q12.5469 5.85938 13.0312 4.51562
Q13.5312 3.17188 14.9375 2.48438
Q16.3594 1.8125 19.3438 1.8125
L19.3438 0
L2.25 0
L2.25 1.8125
Q6.59375 1.8125 7.8125 3.39062
Q9.03125 4.98438 9.03125 10.5
L9.03125 34.2344
Q9.03125 39.4531 8.48438 40.4062
Q7.95312 41.3594 6.82812 42.1094
Q5.71875 42.875 2.25 42.875
L2.25 44.7344
L17.9688 44.7344
z
" id="TimesNewRomanPSMT-43c"/>
      <path d="
M41.1094 17
Q39.3125 8.15625 34.0312 3.39062
Q28.7656 -1.375 22.3594 -1.375
Q14.75 -1.375 9.07812 5.01562
Q3.42188 11.4219 3.42188 22.3125
Q3.42188 32.8594 9.6875 39.4531
Q15.9688 46.0469 24.75 46.0469
Q31.3438 46.0469 35.5938 42.5469
Q39.8438 39.0625 39.8438 35.2969
Q39.8438 33.4531 38.6406 32.2969
Q37.4531 31.1562 35.2969 31.1562
Q32.4219 31.1562 30.9531 33.0156
Q30.125 34.0312 29.8594 36.9062
Q29.5938 39.7969 27.875 41.3125
Q26.1719 42.7812 23.1406 42.7812
Q18.2656 42.7812 15.2812 39.1562
Q11.3281 34.375 11.3281 26.5156
Q11.3281 18.5 15.25 12.375
Q19.1875 6.25 25.875 6.25
Q30.6719 6.25 34.4688 9.51562
Q37.1562 11.7656 39.7031 17.6719
z
" id="TimesNewRomanPSMT-441"/>
      <path d="
M25 46.0469
Q35.1562 46.0469 41.3125 38.3281
Q46.5312 31.7344 46.5312 23.1875
Q46.5312 17.1875 43.6406 11.0312
Q40.7656 4.89062 35.7188 1.75
Q30.6719 -1.375 24.4688 -1.375
Q14.3594 -1.375 8.40625 6.6875
Q3.375 13.4844 3.375 21.9219
Q3.375 28.0781 6.42188 34.1562
Q9.46875 40.2344 14.4531 43.1406
Q19.4375 46.0469 25 46.0469
M23.4844 42.875
Q20.9062 42.875 18.2812 41.3281
Q15.6719 39.7969 14.0625 35.9375
Q12.4531 32.0781 12.4531 26.0312
Q12.4531 16.2656 16.3281 9.17188
Q20.2188 2.09375 26.5625 2.09375
Q31.2969 2.09375 34.375 6
Q37.4531 9.90625 37.4531 19.4375
Q37.4531 31.3438 32.3281 38.1875
Q28.8594 42.875 23.4844 42.875" id="TimesNewRomanPSMT-43e"/>
      <path d="
M2.4375 44.7344
L41.1094 44.7344
L43.0625 32.625
L40.875 32.625
Q40.2812 36.2812 38.9062 38.2812
Q37.5469 40.2812 35.7812 40.9062
Q34.0312 41.5469 29.7812 41.5469
L25.875 41.5469
L25.875 10.5
Q25.875 5.51562 26.4844 4.17188
Q27.0938 2.82812 28.4531 2.39062
Q29.8281 1.95312 34.7188 1.8125
L34.7188 0
L10.4062 0
L10.4062 1.8125
Q15.0938 1.90625 16.4375 3.3125
Q17.7812 4.73438 17.7812 10.5
L17.7812 41.5469
L13.7656 41.5469
Q9.57812 41.5469 8.0625 41.0312
Q6.54688 40.5312 5.15625 38.5938
Q3.76562 36.6719 2.78125 32.625
L0.59375 32.625
z
" id="TimesNewRomanPSMT-442"/>
      <path id="TimesNewRomanPSMT-20"/>
      <path d="
M33.2031 24.6562
L33.2031 34.2344
Q33.2031 38.875 32.7344 40.2031
Q32.2812 41.5469 30.8281 42.2031
Q29.3906 42.875 26.4688 42.875
L26.4688 44.7344
L48.0938 44.7344
L48.0938 42.875
Q44.7812 42.875 43.6719 42.2031
Q42.5781 41.5469 41.9375 40.5625
Q41.3125 39.5938 41.3125 34.2344
L41.3125 10.5
Q41.3125 5.85938 41.7656 4.51562
Q42.2344 3.17188 43.6719 2.48438
Q45.125 1.8125 48.0938 1.8125
L48.0938 0
L25.3906 0
L25.3906 1.8125
Q29.2969 1.95312 30.4844 2.3125
Q31.6875 2.6875 32.4375 4.20312
Q33.2031 5.71875 33.2031 10.5
L33.2031 21.4375
Q26.0312 17.7812 18.0625 17.7812
Q13.7188 17.7812 11.3281 18.875
Q8.9375 19.9688 8.29688 21.4062
Q7.67188 22.8594 7.67188 26.0781
L7.67188 34.2344
Q7.67188 38.5781 7.28125 39.9375
Q6.89062 41.3125 5.51562 42.0938
Q4.15625 42.875 1.46875 42.875
L1.46875 44.7344
L22.5156 44.7344
L22.5156 42.875
Q19.2344 42.875 18.1094 42.2031
Q17 41.5469 16.3594 40.5625
Q15.7188 39.5938 15.7188 34.2344
L15.7188 28.7188
Q15.7188 25.4844 16.1875 24.3594
Q16.6562 23.25 18.3281 22.4844
Q20.0156 21.7344 23.0938 21.7344
Q28.4219 21.7344 33.2031 24.6562" id="TimesNewRomanPSMT-447"/>
      <path d="
M31.5 23.6406
Q43.75 21.0938 43.75 12.1562
Q43.75 6.0625 38.6406 3.03125
Q33.5469 0 24.4219 0
L2.34375 0
L2.34375 1.8125
Q6.6875 1.8125 7.82812 3.4375
Q8.98438 5.07812 8.98438 10.5
L8.98438 34.2344
Q8.98438 39.5 8.46875 40.4219
Q7.95312 41.3594 6.85938 42.1094
Q5.76562 42.875 2.34375 42.875
L2.34375 44.7344
L22.9531 44.7344
Q28.9062 44.7344 32.5938 43.7969
Q36.2812 42.875 38.6406 40.1406
Q41.0156 37.4062 41.0156 33.5
Q41.0156 25.875 31.5 23.6406
M17.0938 24.75
Q19.2344 24.7031 19.6719 24.7031
Q26.375 24.7031 29.3438 27.2656
Q32.3281 29.8281 32.3281 33.5
Q32.3281 37.75 29.2969 39.6406
Q26.2656 41.5469 19.625 41.5469
L17.0938 41.5469
z

M17.0938 3.95312
Q19.5312 3.17188 22.9062 3.17188
Q28.7188 3.17188 31.5469 5.70312
Q34.375 8.25 34.375 12.25
Q34.375 16.75 30.7031 19.1406
Q27.0469 21.5312 20.5625 21.5312
Q18.9531 21.5312 17.0938 21.4375
z
" id="TimesNewRomanPSMT-432"/>
      <path d="
M10.6406 27.875
Q10.5938 17.9219 15.4844 12.25
Q20.3594 6.59375 26.9531 6.59375
Q31.3438 6.59375 34.5938 9
Q37.8438 11.4219 40.0469 17.2812
L41.5469 16.3125
Q40.5312 9.625 35.5938 4.125
Q30.6719 -1.375 23.25 -1.375
Q15.1875 -1.375 9.45312 4.90625
Q3.71875 11.1875 3.71875 21.7812
Q3.71875 33.25 9.59375 39.6719
Q15.4844 46.0938 24.3594 46.0938
Q31.8906 46.0938 36.7188 41.1406
Q41.5469 36.1875 41.5469 27.875
z

M10.6406 30.7188
L31.3438 30.7188
Q31.1094 35.0156 30.3281 36.7656
Q29.1094 39.5 26.6875 41.0625
Q24.2656 42.625 21.625 42.625
Q17.5781 42.625 14.375 39.4688
Q11.1875 36.3281 10.6406 30.7188" id="TimesNewRomanPSMT-435"/>
      <path d="
M17.0938 13.7656
L36.4219 36.1406
Q36.3281 39.8906 35 41.3594
Q33.6875 42.8281 30.4688 42.875
L30.4688 44.7344
L51.2656 44.7344
L51.2656 42.875
Q48 42.875 46.875 42.2031
Q45.75 41.5469 45.1094 40.5625
Q44.4844 39.5938 44.4844 34.2344
L44.4844 10.5
Q44.4844 5.32812 45.0156 4.32812
Q45.5625 3.32812 46.7031 2.5625
Q47.8594 1.8125 51.2656 1.8125
L51.2656 0
L29.6406 0
L29.6406 1.8125
Q33.6875 1.8125 35.0469 3.29688
Q36.4219 4.78125 36.4219 10.5
L36.4219 31.5469
L17.0938 9.125
Q17.1875 4.98438 18.2656 3.42188
Q19.3438 1.85938 22.9062 1.8125
L22.9062 0
L2.25 0
L2.25 1.8125
Q6.59375 1.8125 7.8125 3.39062
Q9.03125 4.98438 9.03125 10.5
L9.03125 34.2344
Q9.03125 39.4531 8.48438 40.4062
Q7.95312 41.3594 6.82812 42.1094
Q5.71875 42.875 2.25 42.875
L2.25 44.7344
L23.875 44.7344
L23.875 42.875
Q20.6094 42.875 19.4844 42.2031
Q18.3594 41.5469 17.7188 40.5625
Q17.0938 39.5938 17.0938 34.2344
z
" id="TimesNewRomanPSMT-438"/>
      <path d="
M66.3594 1.8125
L66.3594 0
L49.2656 0
Q46.4844 4.4375 37.5469 16.7656
Q28.6094 29.1094 26.6562 30.4375
Q24.7031 31.7812 20.75 31.8438
L20.75 12.0625
Q20.75 5.51562 22.4375 3.75
Q24.125 2 30.3281 1.8125
L30.3281 0
L1.8125 0
L1.8125 1.8125
Q7.90625 2 9.64062 3.73438
Q11.375 5.46875 11.375 12.0625
L11.375 54.1562
Q11.375 60.6875 9.65625 62.4375
Q7.95312 64.2031 1.8125 64.4062
L1.8125 66.2188
L30.3281 66.2188
L30.3281 64.4062
Q24.125 64.2031 22.4375 62.4375
Q20.75 60.6875 20.75 54.1562
L20.75 35.6875
Q26.0781 35.75 28.125 36.4062
Q30.1719 37.0625 32.7344 39.4062
Q35.2969 41.75 36.7812 44.4531
Q38.2812 47.1719 40.625 53.375
Q42.8281 59.1875 44.2188 61.4531
Q45.6094 63.7188 48.6875 65.3594
Q51.7656 67 56 67
Q63.5312 67 63.5312 61.7188
Q63.5312 59.8594 62.0312 58.4844
Q60.5469 57.125 58.6406 57.125
Q57.2812 57.125 54.0469 58.6875
Q51.2188 60.1094 50.0938 60.1094
Q48.5312 60.1094 47.4062 58.4688
Q46.2969 56.8438 43.8438 50.1406
Q39.1562 37.6406 31.8906 34.2812
Q36.3281 33.5 44.1875 22.125
Q52.5469 10.0625 56.4531 6
Q60.3594 1.95312 66.3594 1.8125" id="TimesNewRomanPSMT-41a"/>
     </defs>
     <g transform="translate(229.90375 394.70875)scale(0.16 -0.16)">
      <use xlink:href="#TimesNewRomanPSMT-41a"/>
      <use x="61.69921875" xlink:href="#TimesNewRomanPSMT-43e"/>
      <use x="110.32421875" xlink:href="#TimesNewRomanPSMT-43b"/>
      <use x="160.2265625" xlink:href="#TimesNewRomanPSMT-438"/>
      <use x="213.7421875" xlink:href="#TimesNewRomanPSMT-447"/>
      <use x="264.03515625" xlink:href="#TimesNewRomanPSMT-435"/>
      <use x="310.919921875" xlink:href="#TimesNewRomanPSMT-441"/>
      <use x="355.3046875" xlink:href="#TimesNewRomanPSMT-442"/>
      <use x="399.005859375" xlink:href="#TimesNewRomanPSMT-432"/>
      <use x="445.59765625" xlink:href="#TimesNewRomanPSMT-43e"/>
      <use x="495.59765625" xlink:href="#TimesNewRomanPSMT-20"/>
      <use x="520.59765625" xlink:href="#TimesNewRomanPSMT-442"/>
      <use x="564.298828125" xlink:href="#TimesNewRomanPSMT-435"/>
      <use x="608.68359375" xlink:href="#TimesNewRomanPSMT-43c"/>
     </g>
    </g>
   </g>
   <g id="matplotlib.axis_2">
    <g id="ytick_1">
     <g id="line2d_20">
      <path clip-path="url(#p69a33dfb62)" d="
M60.2875 360.066
L506.688 360.066" style="fill:none;stroke:#000000;stroke-dasharray:1.000000,3.000000;stroke-dashoffset:0.0;stroke-width:0.5;"/>
     </g>
     <g id="line2d_21">
      <defs>
       <path d="
M0 0
L4 0" id="m728421d6d4" style="stroke:#000000;stroke-width:0.5;"/>
      </defs>
      <g>
       <use style="stroke:#000000;stroke-width:0.5;" x="60.2875" xlink:href="#m728421d6d4" y="360.06625"/>
      </g>
     </g>
     <g id="line2d_22">
      <defs>
       <path d="
M0 0
L-4 0" id="mcb0005524f" style="stroke:#000000;stroke-width:0.5;"/>
      </defs>
      <g>
       <use style="stroke:#000000;stroke-width:0.5;" x="506.6875" xlink:href="#mcb0005524f" y="360.06625"/>
      </g>
     </g>
     <g id="text_8">
      <!-- 400 -->
      <g transform="translate(33.1075 363.91)scale(0.16 -0.16)">
       <use xlink:href="#TimesNewRomanPSMT-34"/>
       <use x="50.0" xlink:href="#TimesNewRomanPSMT-30"/>
       <use x="100.0" xlink:href="#TimesNewRomanPSMT-30"/>
      </g>
     </g>
    </g>
    <g id="ytick_2">
     <g id="line2d_23">
      <path clip-path="url(#p69a33dfb62)" d="
M60.2875 302.466
L506.688 302.466" style="fill:none;stroke:#000000;stroke-dasharray:1.000000,3.000000;stroke-dashoffset:0.0;stroke-width:0.5;"/>
     </g>
     <g id="line2d_24">
      <g>
       <use style="stroke:#000000;stroke-width:0.5;" x="60.2875" xlink:href="#m728421d6d4" y="302.46625"/>
      </g>
     </g>
     <g id="line2d_25">
      <g>
       <use style="stroke:#000000;stroke-width:0.5;" x="506.6875" xlink:href="#mcb0005524f" y="302.46625"/>
      </g>
     </g>
     <g id="text_9">
      <!-- 600 -->
      <g transform="translate(33.545 306.31)scale(0.16 -0.16)">
       <use xlink:href="#TimesNewRomanPSMT-36"/>
       <use x="50.0" xlink:href="#TimesNewRomanPSMT-30"/>
       <use x="100.0" xlink:href="#TimesNewRomanPSMT-30"/>
      </g>
     </g>
    </g>
    <g id="ytick_3">
     <g id="line2d_26">
      <path clip-path="url(#p69a33dfb62)" d="
M60.2875 244.866
L506.688 244.866" style="fill:none;stroke:#000000;stroke-dasharray:1.000000,3.000000;stroke-dashoffset:0.0;stroke-width:0.5;"/>
     </g>
     <g id="line2d_27">
      <g>
       <use style="stroke:#000000;stroke-width:0.5;" x="60.2875" xlink:href="#m728421d6d4" y="244.86625"/>
      </g>
     </g>
     <g id="line2d_28">
      <g>
       <use style="stroke:#000000;stroke-width:0.5;" x="506.6875" xlink:href="#mcb0005524f" y="244.86625"/>
      </g>
     </g>
     <g id="text_10">
      <!-- 800 -->
      <g transform="translate(33.8275 248.71)scale(0.16 -0.16)">
       <use xlink:href="#TimesNewRomanPSMT-38"/>
       <use x="50.0" xlink:href="#TimesNewRomanPSMT-30"/>
       <use x="100.0" xlink:href="#TimesNewRomanPSMT-30"/>
      </g>
     </g>
    </g>
    <g id="ytick_4">
     <g id="line2d_29">
      <path clip-path="url(#p69a33dfb62)" d="
M60.2875 187.266
L506.688 187.266" style="fill:none;stroke:#000000;stroke-dasharray:1.000000,3.000000;stroke-dashoffset:0.0;stroke-width:0.5;"/>
     </g>
     <g id="line2d_30">
      <g>
       <use style="stroke:#000000;stroke-width:0.5;" x="60.2875" xlink:href="#m728421d6d4" y="187.26625"/>
      </g>
     </g>
     <g id="line2d_31">
      <g>
       <use style="stroke:#000000;stroke-width:0.5;" x="506.6875" xlink:href="#mcb0005524f" y="187.26625"/>
      </g>
     </g>
     <g id="text_11">
      <!-- 1000 -->
      <g transform="translate(26.7325 191.11)scale(0.16 -0.16)">
       <use xlink:href="#TimesNewRomanPSMT-31"/>
       <use x="50.0" xlink:href="#TimesNewRomanPSMT-30"/>
       <use x="100.0" xlink:href="#TimesNewRomanPSMT-30"/>
       <use x="150.0" xlink:href="#TimesNewRomanPSMT-30"/>
      </g>
     </g>
    </g>
    <g id="ytick_5">
     <g id="line2d_32">
      <path clip-path="url(#p69a33dfb62)" d="
M60.2875 129.666
L506.688 129.666" style="fill:none;stroke:#000000;stroke-dasharray:1.000000,3.000000;stroke-dashoffset:0.0;stroke-width:0.5;"/>
     </g>
     <g id="line2d_33">
      <g>
       <use style="stroke:#000000;stroke-width:0.5;" x="60.2875" xlink:href="#m728421d6d4" y="129.66625"/>
      </g>
     </g>
     <g id="line2d_34">
      <g>
       <use style="stroke:#000000;stroke-width:0.5;" x="506.6875" xlink:href="#mcb0005524f" y="129.66625"/>
      </g>
     </g>
     <g id="text_12">
      <!-- 1200 -->
      <g transform="translate(26.7325 133.51)scale(0.16 -0.16)">
       <use xlink:href="#TimesNewRomanPSMT-31"/>
       <use x="50.0" xlink:href="#TimesNewRomanPSMT-32"/>
       <use x="100.0" xlink:href="#TimesNewRomanPSMT-30"/>
       <use x="150.0" xlink:href="#TimesNewRomanPSMT-30"/>
      </g>
     </g>
    </g>
    <g id="ytick_6">
     <g id="line2d_35">
      <path clip-path="url(#p69a33dfb62)" d="
M60.2875 72.0663
L506.688 72.0663" style="fill:none;stroke:#000000;stroke-dasharray:1.000000,3.000000;stroke-dashoffset:0.0;stroke-width:0.5;"/>
     </g>
     <g id="line2d_36">
      <g>
       <use style="stroke:#000000;stroke-width:0.5;" x="60.2875" xlink:href="#m728421d6d4" y="72.06625"/>
      </g>
     </g>
     <g id="line2d_37">
      <g>
       <use style="stroke:#000000;stroke-width:0.5;" x="506.6875" xlink:href="#mcb0005524f" y="72.06625"/>
      </g>
     </g>
     <g id="text_13">
      <!-- 1400 -->
      <g transform="translate(26.7325 75.91)scale(0.16 -0.16)">
       <use xlink:href="#TimesNewRomanPSMT-31"/>
       <use x="50.0" xlink:href="#TimesNewRomanPSMT-34"/>
       <use x="100.0" xlink:href="#TimesNewRomanPSMT-30"/>
       <use x="150.0" xlink:href="#TimesNewRomanPSMT-30"/>
      </g>
     </g>
    </g>
    <g id="ytick_7">
     <g id="line2d_38">
      <path clip-path="url(#p69a33dfb62)" d="
M60.2875 14.4663
L506.688 14.4663" style="fill:none;stroke:#000000;stroke-dasharray:1.000000,3.000000;stroke-dashoffset:0.0;stroke-width:0.5;"/>
     </g>
     <g id="line2d_39">
      <g>
       <use style="stroke:#000000;stroke-width:0.5;" x="60.2875" xlink:href="#m728421d6d4" y="14.46625"/>
      </g>
     </g>
     <g id="line2d_40">
      <g>
       <use style="stroke:#000000;stroke-width:0.5;" x="506.6875" xlink:href="#mcb0005524f" y="14.46625"/>
      </g>
     </g>
     <g id="text_14">
      <!-- 1600 -->
      <g transform="translate(26.7325 18.31)scale(0.16 -0.16)">
       <use xlink:href="#TimesNewRomanPSMT-31"/>
       <use x="50.0" xlink:href="#TimesNewRomanPSMT-36"/>
       <use x="100.0" xlink:href="#TimesNewRomanPSMT-30"/>
       <use x="150.0" xlink:href="#TimesNewRomanPSMT-30"/>
      </g>
     </g>
    </g>
    <g id="text_15">
     <!-- Перплексия -->
     <defs>
      <path d="
M48 0
L34.8125 0
Q28.6562 8.9375 23.6875 18.3125
Q22.5156 20.4531 21.5625 21.5
Q20.6094 22.5625 18.9531 22.5625
Q18.3594 22.5625 17.0938 22.4688
L17.0938 10.5
Q17.0938 5.67188 17.6562 4.32812
Q18.2188 2.98438 19.6719 2.39062
Q21.1406 1.8125 24.6094 1.8125
L24.6094 0
L2.25 0
L2.25 1.8125
Q6.59375 1.8125 7.8125 3.39062
Q9.03125 4.98438 9.03125 10.5
L9.03125 34.2344
Q9.03125 39.4531 8.48438 40.4062
Q7.95312 41.3594 6.82812 42.1094
Q5.71875 42.875 2.25 42.875
L2.25 44.7344
L24.6094 44.7344
L24.6094 42.875
Q20.5625 42.875 19.6094 42.2812
Q18.6562 41.7031 17.875 40.8438
Q17.0938 39.9844 17.0938 34.2344
L17.0938 25.4375
Q18.2188 25.3438 18.6094 25.3438
Q21.5781 25.3438 24.1875 27.0312
Q26.8125 28.7188 28.8594 34.1875
Q30.7656 39.3594 32 41.1562
Q33.25 42.9688 35.4688 44.1094
Q37.7031 45.2656 40.1406 45.2656
Q42.7812 45.2656 44.3438 43.9844
Q45.9062 42.7188 45.9062 40.6719
Q45.9062 38.9688 44.7812 37.7656
Q43.6562 36.5781 41.6562 36.5781
Q40.5781 36.5781 38.9688 37.1562
Q36.9219 37.8906 35.8438 37.8906
Q33.5938 37.8906 32.125 34.0312
Q30.4688 29.5938 29.6875 28.2969
Q28.9062 27 26.7031 24.8594
Q28.2188 24.4219 30 22.6094
Q31.7812 20.7969 36.625 12.3125
Q40.4844 5.51562 42.4062 3.70312
Q44.3438 1.90625 48 1.8125
z
" id="TimesNewRomanPSMT-43a"/>
      <path d="
M43.75 44.7344
L43.75 42.875
Q40.7188 42.875 39.2812 42.0469
Q37.8438 41.2188 37.4062 39.9375
Q36.9688 38.6719 36.9688 34.2344
L36.9688 10.5
Q36.9688 6.25 37.3594 4.90625
Q37.75 3.5625 39.2344 2.6875
Q40.7188 1.8125 43.75 1.8125
L43.75 0
L22.125 0
L22.125 1.8125
Q26.1719 1.8125 27.5312 3.29688
Q28.9062 4.78125 28.9062 10.5
L28.9062 20.2188
L26.9062 20.1719
Q26.4688 20.1719 25.3438 20.2188
L11.0781 0
L-0.046875 0
L-0.046875 1.8125
Q2.39062 1.8125 3.34375 2.46875
Q4.29688 3.125 6.89062 6.78125
L17.3281 21.5312
Q6.10938 25.4375 6.10938 33.5
Q6.10938 38.0312 10.125 41.375
Q14.1562 44.7344 23.875 44.7344
z

M28.9062 41.0156
Q27 41.5469 25.2969 41.5469
Q20.3594 41.5469 17.9219 39.1094
Q15.4844 36.6719 15.4844 33.2969
Q15.4844 29 18.9375 26.1719
Q22.4062 23.3438 27.6875 23.3438
Q28.2188 23.3438 28.9062 23.4375
z
" id="TimesNewRomanPSMT-44f"/>
      <path d="
M51.4688 62.5938
L20.75 62.5938
L20.75 12.0625
Q20.75 5.51562 22.4375 3.75
Q24.125 2 30.3281 1.8125
L30.3281 0
L1.8125 0
L1.8125 1.8125
Q7.95312 2 9.65625 3.75
Q11.375 5.51562 11.375 12.0625
L11.375 54.1562
Q11.375 60.6875 9.65625 62.4375
Q7.95312 64.2031 1.8125 64.4062
L1.8125 66.2188
L70.4062 66.2188
L70.4062 64.4062
Q64.2656 64.2031 62.5469 62.4375
Q60.8438 60.6875 60.8438 54.1562
L60.8438 12.0625
Q60.8438 5.51562 62.5469 3.75
Q64.2656 2 70.4062 1.8125
L70.4062 0
L41.9375 0
L41.9375 1.8125
Q48.0469 2 49.75 3.73438
Q51.4688 5.46875 51.4688 12.0625
z
" id="TimesNewRomanPSMT-41f"/>
      <path d="
M-0.09375 40.2812
L13.6719 45.8438
L15.5312 45.8438
L15.5312 35.4062
Q19 41.3125 22.4844 43.6719
Q25.9844 46.0469 29.8281 46.0469
Q36.5781 46.0469 41.0625 40.7656
Q46.5781 34.3281 46.5781 23.9688
Q46.5781 12.4062 39.9375 4.82812
Q34.4688 -1.375 26.1719 -1.375
Q22.5625 -1.375 19.9219 -0.34375
Q17.9688 0.390625 15.5312 2.59375
L15.5312 -11.0312
Q15.5312 -15.625 16.0938 -16.8594
Q16.6562 -18.1094 18.0469 -18.8438
Q19.4375 -19.5781 23.0938 -19.5781
L23.0938 -21.3906
L-0.34375 -21.3906
L-0.34375 -19.5781
L0.875 -19.5781
Q3.5625 -19.625 5.46875 -18.5625
Q6.39062 -18.0156 6.90625 -16.8125
Q7.42188 -15.625 7.42188 -10.75
L7.42188 31.5469
Q7.42188 35.8906 7.03125 37.0625
Q6.64062 38.2344 5.78125 38.8125
Q4.9375 39.4062 3.46875 39.4062
Q2.29688 39.4062 0.484375 38.7188
z

M15.5312 32.5156
L15.5312 15.8281
Q15.5312 10.4062 15.9688 8.6875
Q16.6562 5.85938 19.3125 3.70312
Q21.9688 1.5625 26.0312 1.5625
Q30.9062 1.5625 33.9375 5.375
Q37.8906 10.3594 37.8906 19.3906
Q37.8906 29.6406 33.4062 35.1562
Q30.2812 38.9688 25.9844 38.9688
Q23.6406 38.9688 21.3438 37.7969
Q19.5781 36.9219 15.5312 32.5156" id="TimesNewRomanPSMT-440"/>
      <path d="
M36.4219 41.5469
L17.0938 41.5469
L17.0938 10.5
Q17.0938 5.32812 17.625 4.32812
Q18.1719 3.32812 19.3125 2.5625
Q20.4531 1.8125 23.875 1.8125
L23.875 0
L2.25 0
L2.25 1.8125
Q6.59375 1.8125 7.8125 3.39062
Q9.03125 4.98438 9.03125 10.5
L9.03125 34.2344
Q9.03125 39.4531 8.48438 40.4062
Q7.95312 41.3594 6.82812 42.1094
Q5.71875 42.875 2.25 42.875
L2.25 44.7344
L51.2656 44.7344
L51.2656 42.875
Q48 42.875 46.875 42.2031
Q45.75 41.5469 45.1094 40.5625
Q44.4844 39.5938 44.4844 34.2344
L44.4844 10.5
Q44.4844 5.32812 45.0156 4.32812
Q45.5625 3.32812 46.7031 2.5625
Q47.8594 1.8125 51.2656 1.8125
L51.2656 0
L29.6406 0
L29.6406 1.8125
Q33.6875 1.8125 35.0469 3.29688
Q36.4219 4.78125 36.4219 10.5
z
" id="TimesNewRomanPSMT-43f"/>
     </defs>
     <g transform="translate(18.31 227.29375)rotate(-90.0)scale(0.16 -0.16)">
      <use xlink:href="#TimesNewRomanPSMT-41f"/>
      <use x="72.216796875" xlink:href="#TimesNewRomanPSMT-435"/>
      <use x="116.6015625" xlink:href="#TimesNewRomanPSMT-440"/>
      <use x="166.6015625" xlink:href="#TimesNewRomanPSMT-43f"/>
      <use x="220.1171875" xlink:href="#TimesNewRomanPSMT-43b"/>
      <use x="270.01953125" xlink:href="#TimesNewRomanPSMT-435"/>
      <use x="314.404296875" xlink:href="#TimesNewRomanPSMT-43a"/>
      <use x="360.48828125" xlink:href="#TimesNewRomanPSMT-441"/>
      <use x="404.873046875" xlink:href="#TimesNewRomanPSMT-438"/>
      <use x="458.388671875" xlink:href="#TimesNewRomanPSMT-44f"/>
     </g>
    </g>
   </g>
  </g>
 </g>
 <defs>
  <clipPath id="p69a33dfb62">
   <rect height="345.6" width="446.4" x="60.2875" y="14.46625"/>
  </clipPath>
 </defs>
</svg>
