<?xml version="1.0" encoding="utf-8" standalone="no"?>
<!DOCTYPE svg PUBLIC "-//W3C//DTD SVG 1.1//EN"
  "http://www.w3.org/Graphics/SVG/1.1/DTD/svg11.dtd">
<!-- Created with matplotlib (http://matplotlib.org/) -->
<svg height="405pt" version="1.1" viewBox="0 0 520 405" width="520pt" xmlns="http://www.w3.org/2000/svg" xmlns:xlink="http://www.w3.org/1999/xlink">
 <defs>
  <style type="text/css">
*{stroke-linecap:butt;stroke-linejoin:round;}
  </style>
 </defs>
 <g id="figure_1">
  <g id="patch_1">
   <path d="
M0 405.331
L520.51 405.331
L520.51 0
L0 0
z
" style="fill:#ffffff;"/>
  </g>
  <g id="axes_1">
   <g id="patch_2">
    <path d="
M66.91 360.066
L513.31 360.066
L513.31 14.4663
L66.91 14.4663
z
" style="fill:#ffffff;"/>
   </g>
   <g id="line2d_1">
    <path clip-path="url(#p31860c910f)" d="
M88.1671 32.7536
L109.424 54.4938
L130.681 83.0309
L151.939 99.1607
L173.196 122.892
L194.453 145.332
L215.71 153.646
L236.967 172.902
L258.224 207.487
L279.481 209.653
L300.739 216.231
L321.996 232.202
L343.253 234.045
L364.51 254.185
L385.767 280.59
L407.024 289.226
L428.281 290.131
L449.539 301.174
L470.796 310.522
L492.053 341.447" style="fill:none;stroke:#0000ff;stroke-linecap:square;"/>
    <defs>
     <path d="
M0 3
C0.795609 3 1.55874 2.6839 2.12132 2.12132
C2.6839 1.55874 3 0.795609 3 0
C3 -0.795609 2.6839 -1.55874 2.12132 -2.12132
C1.55874 -2.6839 0.795609 -3 0 -3
C-0.795609 -3 -1.55874 -2.6839 -2.12132 -2.12132
C-2.6839 -1.55874 -3 -0.795609 -3 0
C-3 0.795609 -2.6839 1.55874 -2.12132 2.12132
C-1.55874 2.6839 -0.795609 3 0 3
z
" id="mf1e9a9e4ae" style="stroke:#000000;stroke-width:0.5;"/>
    </defs>
    <g clip-path="url(#p31860c910f)">
     <use style="fill:#0000ff;stroke:#000000;stroke-width:0.5;" x="88.1671428571" xlink:href="#mf1e9a9e4ae" y="32.7535911659"/>
     <use style="fill:#0000ff;stroke:#000000;stroke-width:0.5;" x="109.424285714" xlink:href="#mf1e9a9e4ae" y="54.4937805781"/>
     <use style="fill:#0000ff;stroke:#000000;stroke-width:0.5;" x="130.681428571" xlink:href="#mf1e9a9e4ae" y="83.0308592788"/>
     <use style="fill:#0000ff;stroke:#000000;stroke-width:0.5;" x="151.938571429" xlink:href="#mf1e9a9e4ae" y="99.1607305992"/>
     <use style="fill:#0000ff;stroke:#000000;stroke-width:0.5;" x="173.195714286" xlink:href="#mf1e9a9e4ae" y="122.891850434"/>
     <use style="fill:#0000ff;stroke:#000000;stroke-width:0.5;" x="194.452857143" xlink:href="#mf1e9a9e4ae" y="145.331604853"/>
     <use style="fill:#0000ff;stroke:#000000;stroke-width:0.5;" x="215.71" xlink:href="#mf1e9a9e4ae" y="153.645987958"/>
     <use style="fill:#0000ff;stroke:#000000;stroke-width:0.5;" x="236.967142857" xlink:href="#mf1e9a9e4ae" y="172.902367488"/>
     <use style="fill:#0000ff;stroke:#000000;stroke-width:0.5;" x="258.224285714" xlink:href="#mf1e9a9e4ae" y="207.486598917"/>
     <use style="fill:#0000ff;stroke:#000000;stroke-width:0.5;" x="279.481428571" xlink:href="#mf1e9a9e4ae" y="209.653487058"/>
     <use style="fill:#0000ff;stroke:#000000;stroke-width:0.5;" x="300.738571429" xlink:href="#mf1e9a9e4ae" y="216.231357784"/>
     <use style="fill:#0000ff;stroke:#000000;stroke-width:0.5;" x="321.995714286" xlink:href="#mf1e9a9e4ae" y="232.202418038"/>
     <use style="fill:#0000ff;stroke:#000000;stroke-width:0.5;" x="343.252857143" xlink:href="#mf1e9a9e4ae" y="234.044618886"/>
     <use style="fill:#0000ff;stroke:#000000;stroke-width:0.5;" x="364.51" xlink:href="#mf1e9a9e4ae" y="254.185202846"/>
     <use style="fill:#0000ff;stroke:#000000;stroke-width:0.5;" x="385.767142857" xlink:href="#mf1e9a9e4ae" y="280.589557604"/>
     <use style="fill:#0000ff;stroke:#000000;stroke-width:0.5;" x="407.024285714" xlink:href="#mf1e9a9e4ae" y="289.225895043"/>
     <use style="fill:#0000ff;stroke:#000000;stroke-width:0.5;" x="428.281428571" xlink:href="#mf1e9a9e4ae" y="290.131478092"/>
     <use style="fill:#0000ff;stroke:#000000;stroke-width:0.5;" x="449.538571429" xlink:href="#mf1e9a9e4ae" y="301.17378641"/>
     <use style="fill:#0000ff;stroke:#000000;stroke-width:0.5;" x="470.795714286" xlink:href="#mf1e9a9e4ae" y="310.522404745"/>
     <use style="fill:#0000ff;stroke:#000000;stroke-width:0.5;" x="492.052857143" xlink:href="#mf1e9a9e4ae" y="341.446776073"/>
    </g>
   </g>
   <g id="patch_3">
    <path d="
M66.91 14.4663
L513.31 14.4663" style="fill:none;stroke:#000000;stroke-linecap:square;stroke-linejoin:miter;"/>
   </g>
   <g id="patch_4">
    <path d="
M513.31 360.066
L513.31 14.4663" style="fill:none;stroke:#000000;stroke-linecap:square;stroke-linejoin:miter;"/>
   </g>
   <g id="patch_5">
    <path d="
M66.91 360.066
L513.31 360.066" style="fill:none;stroke:#000000;stroke-linecap:square;stroke-linejoin:miter;"/>
   </g>
   <g id="patch_6">
    <path d="
M66.91 360.066
L66.91 14.4663" style="fill:none;stroke:#000000;stroke-linecap:square;stroke-linejoin:miter;"/>
   </g>
   <g id="matplotlib.axis_1">
    <g id="xtick_1">
     <g id="line2d_2">
      <path clip-path="url(#p31860c910f)" d="
M66.91 360.066
L66.91 14.4663" style="fill:none;stroke:#000000;stroke-dasharray:1.000000,3.000000;stroke-dashoffset:0.0;stroke-width:0.5;"/>
     </g>
     <g id="line2d_3">
      <defs>
       <path d="
M0 0
L0 -4" id="m93b0483c22" style="stroke:#000000;stroke-width:0.5;"/>
      </defs>
      <g>
       <use style="stroke:#000000;stroke-width:0.5;" x="66.91" xlink:href="#m93b0483c22" y="360.06625"/>
      </g>
     </g>
     <g id="line2d_4">
      <defs>
       <path d="
M0 0
L0 4" id="m741efc42ff" style="stroke:#000000;stroke-width:0.5;"/>
      </defs>
      <g>
       <use style="stroke:#000000;stroke-width:0.5;" x="66.91" xlink:href="#m741efc42ff" y="14.46625"/>
      </g>
     </g>
     <g id="text_1">
      <!-- 0 -->
      <defs>
       <path d="
M3.60938 32.7188
Q3.60938 44.0469 7.03125 52.2188
Q10.4531 60.4062 16.1094 64.4062
Q20.5156 67.5781 25.2031 67.5781
Q32.8125 67.5781 38.875 59.8125
Q46.4375 50.2031 46.4375 33.7344
Q46.4375 22.2188 43.1094 14.1562
Q39.7969 6.10938 34.6406 2.46875
Q29.5 -1.17188 24.7031 -1.17188
Q15.2344 -1.17188 8.9375 10.0156
Q3.60938 19.4375 3.60938 32.7188
M13.1875 31.5
Q13.1875 17.8281 16.5469 9.1875
Q19.3438 1.90625 24.8594 1.90625
Q27.4844 1.90625 30.3125 4.26562
Q33.1562 6.64062 34.625 12.2031
Q36.8594 20.6094 36.8594 35.8906
Q36.8594 47.2188 34.5156 54.7812
Q32.7656 60.4062 29.9844 62.75
Q27.9844 64.3594 25.1406 64.3594
Q21.8281 64.3594 19.2344 61.375
Q15.7188 57.3281 14.4531 48.625
Q13.1875 39.9375 13.1875 31.5" id="TimesNewRomanPSMT-30"/>
      </defs>
      <g transform="translate(63.48375 375.17625)scale(0.16 -0.16)">
       <use xlink:href="#TimesNewRomanPSMT-30"/>
      </g>
     </g>
    </g>
    <g id="xtick_2">
     <g id="line2d_5">
      <path clip-path="url(#p31860c910f)" d="
M151.939 360.066
L151.939 14.4663" style="fill:none;stroke:#000000;stroke-dasharray:1.000000,3.000000;stroke-dashoffset:0.0;stroke-width:0.5;"/>
     </g>
     <g id="line2d_6">
      <g>
       <use style="stroke:#000000;stroke-width:0.5;" x="151.938571429" xlink:href="#m93b0483c22" y="360.06625"/>
      </g>
     </g>
     <g id="line2d_7">
      <g>
       <use style="stroke:#000000;stroke-width:0.5;" x="151.938571429" xlink:href="#m741efc42ff" y="14.46625"/>
      </g>
     </g>
     <g id="text_2">
      <!-- 20 -->
      <defs>
       <path d="
M45.8438 12.75
L41.2188 0
L2.15625 0
L2.15625 1.8125
Q19.3906 17.5312 26.4219 27.4844
Q33.4531 37.4531 33.4531 45.7031
Q33.4531 52 29.5938 56.0469
Q25.7344 60.1094 20.3594 60.1094
Q15.4844 60.1094 11.5938 57.25
Q7.71875 54.3906 5.85938 48.875
L4.04688 48.875
Q5.28125 57.9062 10.3281 62.7344
Q15.375 67.5781 22.9531 67.5781
Q31 67.5781 36.3906 62.4062
Q41.7969 57.2344 41.7969 50.2031
Q41.7969 45.1719 39.4531 40.1406
Q35.8438 32.2344 27.7344 23.3906
Q15.5781 10.1094 12.5469 7.375
L29.8281 7.375
Q35.1094 7.375 37.2344 7.76562
Q39.3594 8.15625 41.0625 9.34375
Q42.7812 10.5469 44.0469 12.75
z
" id="TimesNewRomanPSMT-32"/>
      </defs>
      <g transform="translate(144.396071429 375.17625)scale(0.16 -0.16)">
       <use xlink:href="#TimesNewRomanPSMT-32"/>
       <use x="50.0" xlink:href="#TimesNewRomanPSMT-30"/>
      </g>
     </g>
    </g>
    <g id="xtick_3">
     <g id="line2d_8">
      <path clip-path="url(#p31860c910f)" d="
M236.967 360.066
L236.967 14.4663" style="fill:none;stroke:#000000;stroke-dasharray:1.000000,3.000000;stroke-dashoffset:0.0;stroke-width:0.5;"/>
     </g>
     <g id="line2d_9">
      <g>
       <use style="stroke:#000000;stroke-width:0.5;" x="236.967142857" xlink:href="#m93b0483c22" y="360.06625"/>
      </g>
     </g>
     <g id="line2d_10">
      <g>
       <use style="stroke:#000000;stroke-width:0.5;" x="236.967142857" xlink:href="#m741efc42ff" y="14.46625"/>
      </g>
     </g>
     <g id="text_3">
      <!-- 40 -->
      <defs>
       <path d="
M46.5312 24.4219
L46.5312 17.4844
L37.6406 17.4844
L37.6406 0
L29.5938 0
L29.5938 17.4844
L1.5625 17.4844
L1.5625 23.7344
L32.2812 67.5781
L37.6406 67.5781
L37.6406 24.4219
z

M29.5938 24.4219
L29.5938 57.2812
L6.34375 24.4219
z
" id="TimesNewRomanPSMT-34"/>
      </defs>
      <g transform="translate(229.377142857 375.17625)scale(0.16 -0.16)">
       <use xlink:href="#TimesNewRomanPSMT-34"/>
       <use x="50.0" xlink:href="#TimesNewRomanPSMT-30"/>
      </g>
     </g>
    </g>
    <g id="xtick_4">
     <g id="line2d_11">
      <path clip-path="url(#p31860c910f)" d="
M321.996 360.066
L321.996 14.4663" style="fill:none;stroke:#000000;stroke-dasharray:1.000000,3.000000;stroke-dashoffset:0.0;stroke-width:0.5;"/>
     </g>
     <g id="line2d_12">
      <g>
       <use style="stroke:#000000;stroke-width:0.5;" x="321.995714286" xlink:href="#m93b0483c22" y="360.06625"/>
      </g>
     </g>
     <g id="line2d_13">
      <g>
       <use style="stroke:#000000;stroke-width:0.5;" x="321.995714286" xlink:href="#m741efc42ff" y="14.46625"/>
      </g>
     </g>
     <g id="text_4">
      <!-- 60 -->
      <defs>
       <path d="
M44.8281 67.5781
L44.8281 65.7656
Q38.375 65.1406 34.2969 63.2031
Q30.2188 61.2812 26.2344 57.3281
Q22.2656 53.375 19.6562 48.5156
Q17.0469 43.6562 15.2812 36.9688
Q22.3125 41.7969 29.3906 41.7969
Q36.1875 41.7969 41.1562 36.3281
Q46.1406 30.8594 46.1406 22.2656
Q46.1406 13.9688 41.1094 7.125
Q35.0625 -1.17188 25.0938 -1.17188
Q18.3125 -1.17188 13.5781 3.32812
Q4.29688 12.0625 4.29688 25.9844
Q4.29688 34.8594 7.85938 42.8594
Q11.4219 50.875 18.0312 57.0781
Q24.6562 63.2812 30.7031 65.4219
Q36.7656 67.5781 42 67.5781
z

M14.4531 33.4062
Q13.5781 26.8125 13.5781 22.75
Q13.5781 18.0625 15.3125 12.5625
Q17.0469 7.07812 20.4531 3.85938
Q22.9531 1.5625 26.5156 1.5625
Q30.7656 1.5625 34.1094 5.5625
Q37.4531 9.57812 37.4531 17
Q37.4531 25.3438 34.125 31.4375
Q30.8125 37.5469 24.7031 37.5469
Q22.8594 37.5469 20.7344 36.7656
Q18.6094 35.9844 14.4531 33.4062" id="TimesNewRomanPSMT-36"/>
      </defs>
      <g transform="translate(314.624464286 375.17625)scale(0.16 -0.16)">
       <use xlink:href="#TimesNewRomanPSMT-36"/>
       <use x="50.0" xlink:href="#TimesNewRomanPSMT-30"/>
      </g>
     </g>
    </g>
    <g id="xtick_5">
     <g id="line2d_14">
      <path clip-path="url(#p31860c910f)" d="
M407.024 360.066
L407.024 14.4663" style="fill:none;stroke:#000000;stroke-dasharray:1.000000,3.000000;stroke-dashoffset:0.0;stroke-width:0.5;"/>
     </g>
     <g id="line2d_15">
      <g>
       <use style="stroke:#000000;stroke-width:0.5;" x="407.024285714" xlink:href="#m93b0483c22" y="360.06625"/>
      </g>
     </g>
     <g id="line2d_16">
      <g>
       <use style="stroke:#000000;stroke-width:0.5;" x="407.024285714" xlink:href="#m741efc42ff" y="14.46625"/>
      </g>
     </g>
     <g id="text_5">
      <!-- 80 -->
      <defs>
       <path d="
M19.1875 33.3438
Q11.3281 39.7969 9.04688 43.7031
Q6.78125 47.6094 6.78125 51.8125
Q6.78125 58.25 11.7656 62.9062
Q16.75 67.5781 25 67.5781
Q33.0156 67.5781 37.8906 63.2344
Q42.7812 58.8906 42.7812 53.3281
Q42.7812 49.6094 40.1406 45.75
Q37.5 41.8906 29.1562 36.6719
Q37.75 30.0312 40.5312 26.2188
Q44.2344 21.2344 44.2344 15.7188
Q44.2344 8.73438 38.9062 3.78125
Q33.5938 -1.17188 24.9531 -1.17188
Q15.5312 -1.17188 10.25 4.73438
Q6.0625 9.46875 6.0625 15.0938
Q6.0625 19.4844 9.01562 23.7969
Q11.9688 28.125 19.1875 33.3438
M26.8594 38.5781
Q32.7188 43.8438 34.2812 46.8906
Q35.8438 49.9531 35.8438 53.8125
Q35.8438 58.9375 32.9531 61.8438
Q30.0781 64.75 25.0938 64.75
Q20.125 64.75 17 61.8594
Q13.875 58.9844 13.875 55.125
Q13.875 52.5938 15.1562 50.0469
Q16.4531 47.5156 18.8438 45.2188
z

M21.4844 31.5
Q17.4375 28.0781 15.4844 24.0469
Q13.5312 20.0156 13.5312 15.3281
Q13.5312 9.03125 16.9688 5.25
Q20.4062 1.46875 25.7344 1.46875
Q31 1.46875 34.1719 4.4375
Q37.3594 7.42188 37.3594 11.6719
Q37.3594 15.1875 35.5 17.9688
Q32.0312 23.1406 21.4844 31.5" id="TimesNewRomanPSMT-38"/>
      </defs>
      <g transform="translate(399.794285714 375.17625)scale(0.16 -0.16)">
       <use xlink:href="#TimesNewRomanPSMT-38"/>
       <use x="50.0" xlink:href="#TimesNewRomanPSMT-30"/>
      </g>
     </g>
    </g>
    <g id="xtick_6">
     <g id="line2d_17">
      <path clip-path="url(#p31860c910f)" d="
M492.053 360.066
L492.053 14.4663" style="fill:none;stroke:#000000;stroke-dasharray:1.000000,3.000000;stroke-dashoffset:0.0;stroke-width:0.5;"/>
     </g>
     <g id="line2d_18">
      <g>
       <use style="stroke:#000000;stroke-width:0.5;" x="492.052857143" xlink:href="#m93b0483c22" y="360.06625"/>
      </g>
     </g>
     <g id="line2d_19">
      <g>
       <use style="stroke:#000000;stroke-width:0.5;" x="492.052857143" xlink:href="#m741efc42ff" y="14.46625"/>
      </g>
     </g>
     <g id="text_6">
      <!-- 100 -->
      <defs>
       <path d="
M11.7188 59.7188
L27.8281 67.5781
L29.4375 67.5781
L29.4375 11.6719
Q29.4375 6.10938 29.9062 4.73438
Q30.375 3.375 31.8281 2.64062
Q33.2969 1.90625 37.7969 1.8125
L37.7969 0
L12.8906 0
L12.8906 1.8125
Q17.5781 1.90625 18.9375 2.60938
Q20.3125 3.32812 20.8438 4.51562
Q21.3906 5.71875 21.3906 11.6719
L21.3906 47.4062
Q21.3906 54.6406 20.9062 56.6875
Q20.5625 58.25 19.6562 58.9844
Q18.75 59.7188 17.4844 59.7188
Q15.6719 59.7188 12.4531 58.2031
z
" id="TimesNewRomanPSMT-31"/>
      </defs>
      <g transform="translate(481.275357143 375.17625)scale(0.16 -0.16)">
       <use xlink:href="#TimesNewRomanPSMT-31"/>
       <use x="50.0" xlink:href="#TimesNewRomanPSMT-30"/>
       <use x="100.0" xlink:href="#TimesNewRomanPSMT-30"/>
      </g>
     </g>
    </g>
    <g id="text_7">
     <!-- Количество тем -->
     <defs>
      <path d="
M7.71875 44.7344
L47.7031 44.7344
L47.7031 42.875
Q44.3906 42.875 43.2812 42.2031
Q42.1875 41.5469 41.5469 40.5625
Q40.9219 39.5938 40.9219 34.2344
L40.9219 10.5
Q40.9219 5.32812 41.4531 4.32812
Q42 3.32812 43.1406 2.5625
Q44.2812 1.8125 47.7031 1.8125
L47.7031 0
L24.5625 0
L24.5625 1.8125
Q28.3281 1.8125 29.7656 2.20312
Q31.2031 2.59375 32.0312 4.07812
Q32.8594 5.5625 32.8594 10.5
L32.8594 41.5469
L17.9688 41.5469
L17.9688 22.7031
Q17.9688 12.0156 17.0156 7.6875
Q16.0625 3.375 13.25 1.29688
Q10.4531 -0.78125 6.84375 -0.78125
Q0.59375 -0.78125 0.59375 4.39062
Q0.59375 6.15625 1.59375 7.28125
Q2.59375 8.40625 4.20312 8.40625
Q5.90625 8.40625 7.375 6.98438
Q9.28125 5.125 10.25 5.125
Q12.4531 5.125 13.4531 8.8125
Q14.4531 12.5 14.4531 21.7344
L14.4531 31.5938
Q14.4531 39.2031 13.3438 40.8594
Q12.25 42.5312 7.71875 42.875
z
" id="TimesNewRomanPSMT-43b"/>
      <path d="
M32.0312 11.6719
L46 44.7344
L61.0781 44.7344
L61.0781 42.875
Q57.7656 42.875 56.6562 42.2031
Q55.5625 41.5469 54.9219 40.5625
Q54.2969 39.5938 54.2969 34.2344
L54.2969 10.5
Q54.2969 5.85938 54.75 4.51562
Q55.2188 3.17188 56.6562 2.48438
Q58.1094 1.8125 61.0781 1.8125
L61.0781 0
L39.4531 0
L39.4531 1.8125
Q43.4531 1.8125 44.8125 3.29688
Q46.1875 4.78125 46.1875 10.5
L46.1875 37.4062
L30.375 0
L28.6562 0
L12.5469 37.4062
L12.5469 10.5
Q12.5469 5.85938 13.0312 4.51562
Q13.5312 3.17188 14.9375 2.48438
Q16.3594 1.8125 19.3438 1.8125
L19.3438 0
L2.25 0
L2.25 1.8125
Q6.59375 1.8125 7.8125 3.39062
Q9.03125 4.98438 9.03125 10.5
L9.03125 34.2344
Q9.03125 39.4531 8.48438 40.4062
Q7.95312 41.3594 6.82812 42.1094
Q5.71875 42.875 2.25 42.875
L2.25 44.7344
L17.9688 44.7344
z
" id="TimesNewRomanPSMT-43c"/>
      <path d="
M41.1094 17
Q39.3125 8.15625 34.0312 3.39062
Q28.7656 -1.375 22.3594 -1.375
Q14.75 -1.375 9.07812 5.01562
Q3.42188 11.4219 3.42188 22.3125
Q3.42188 32.8594 9.6875 39.4531
Q15.9688 46.0469 24.75 46.0469
Q31.3438 46.0469 35.5938 42.5469
Q39.8438 39.0625 39.8438 35.2969
Q39.8438 33.4531 38.6406 32.2969
Q37.4531 31.1562 35.2969 31.1562
Q32.4219 31.1562 30.9531 33.0156
Q30.125 34.0312 29.8594 36.9062
Q29.5938 39.7969 27.875 41.3125
Q26.1719 42.7812 23.1406 42.7812
Q18.2656 42.7812 15.2812 39.1562
Q11.3281 34.375 11.3281 26.5156
Q11.3281 18.5 15.25 12.375
Q19.1875 6.25 25.875 6.25
Q30.6719 6.25 34.4688 9.51562
Q37.1562 11.7656 39.7031 17.6719
z
" id="TimesNewRomanPSMT-441"/>
      <path d="
M25 46.0469
Q35.1562 46.0469 41.3125 38.3281
Q46.5312 31.7344 46.5312 23.1875
Q46.5312 17.1875 43.6406 11.0312
Q40.7656 4.89062 35.7188 1.75
Q30.6719 -1.375 24.4688 -1.375
Q14.3594 -1.375 8.40625 6.6875
Q3.375 13.4844 3.375 21.9219
Q3.375 28.0781 6.42188 34.1562
Q9.46875 40.2344 14.4531 43.1406
Q19.4375 46.0469 25 46.0469
M23.4844 42.875
Q20.9062 42.875 18.2812 41.3281
Q15.6719 39.7969 14.0625 35.9375
Q12.4531 32.0781 12.4531 26.0312
Q12.4531 16.2656 16.3281 9.17188
Q20.2188 2.09375 26.5625 2.09375
Q31.2969 2.09375 34.375 6
Q37.4531 9.90625 37.4531 19.4375
Q37.4531 31.3438 32.3281 38.1875
Q28.8594 42.875 23.4844 42.875" id="TimesNewRomanPSMT-43e"/>
      <path d="
M2.4375 44.7344
L41.1094 44.7344
L43.0625 32.625
L40.875 32.625
Q40.2812 36.2812 38.9062 38.2812
Q37.5469 40.2812 35.7812 40.9062
Q34.0312 41.5469 29.7812 41.5469
L25.875 41.5469
L25.875 10.5
Q25.875 5.51562 26.4844 4.17188
Q27.0938 2.82812 28.4531 2.39062
Q29.8281 1.95312 34.7188 1.8125
L34.7188 0
L10.4062 0
L10.4062 1.8125
Q15.0938 1.90625 16.4375 3.3125
Q17.7812 4.73438 17.7812 10.5
L17.7812 41.5469
L13.7656 41.5469
Q9.57812 41.5469 8.0625 41.0312
Q6.54688 40.5312 5.15625 38.5938
Q3.76562 36.6719 2.78125 32.625
L0.59375 32.625
z
" id="TimesNewRomanPSMT-442"/>
      <path id="TimesNewRomanPSMT-20"/>
      <path d="
M33.2031 24.6562
L33.2031 34.2344
Q33.2031 38.875 32.7344 40.2031
Q32.2812 41.5469 30.8281 42.2031
Q29.3906 42.875 26.4688 42.875
L26.4688 44.7344
L48.0938 44.7344
L48.0938 42.875
Q44.7812 42.875 43.6719 42.2031
Q42.5781 41.5469 41.9375 40.5625
Q41.3125 39.5938 41.3125 34.2344
L41.3125 10.5
Q41.3125 5.85938 41.7656 4.51562
Q42.2344 3.17188 43.6719 2.48438
Q45.125 1.8125 48.0938 1.8125
L48.0938 0
L25.3906 0
L25.3906 1.8125
Q29.2969 1.95312 30.4844 2.3125
Q31.6875 2.6875 32.4375 4.20312
Q33.2031 5.71875 33.2031 10.5
L33.2031 21.4375
Q26.0312 17.7812 18.0625 17.7812
Q13.7188 17.7812 11.3281 18.875
Q8.9375 19.9688 8.29688 21.4062
Q7.67188 22.8594 7.67188 26.0781
L7.67188 34.2344
Q7.67188 38.5781 7.28125 39.9375
Q6.89062 41.3125 5.51562 42.0938
Q4.15625 42.875 1.46875 42.875
L1.46875 44.7344
L22.5156 44.7344
L22.5156 42.875
Q19.2344 42.875 18.1094 42.2031
Q17 41.5469 16.3594 40.5625
Q15.7188 39.5938 15.7188 34.2344
L15.7188 28.7188
Q15.7188 25.4844 16.1875 24.3594
Q16.6562 23.25 18.3281 22.4844
Q20.0156 21.7344 23.0938 21.7344
Q28.4219 21.7344 33.2031 24.6562" id="TimesNewRomanPSMT-447"/>
      <path d="
M31.5 23.6406
Q43.75 21.0938 43.75 12.1562
Q43.75 6.0625 38.6406 3.03125
Q33.5469 0 24.4219 0
L2.34375 0
L2.34375 1.8125
Q6.6875 1.8125 7.82812 3.4375
Q8.98438 5.07812 8.98438 10.5
L8.98438 34.2344
Q8.98438 39.5 8.46875 40.4219
Q7.95312 41.3594 6.85938 42.1094
Q5.76562 42.875 2.34375 42.875
L2.34375 44.7344
L22.9531 44.7344
Q28.9062 44.7344 32.5938 43.7969
Q36.2812 42.875 38.6406 40.1406
Q41.0156 37.4062 41.0156 33.5
Q41.0156 25.875 31.5 23.6406
M17.0938 24.75
Q19.2344 24.7031 19.6719 24.7031
Q26.375 24.7031 29.3438 27.2656
Q32.3281 29.8281 32.3281 33.5
Q32.3281 37.75 29.2969 39.6406
Q26.2656 41.5469 19.625 41.5469
L17.0938 41.5469
z

M17.0938 3.95312
Q19.5312 3.17188 22.9062 3.17188
Q28.7188 3.17188 31.5469 5.70312
Q34.375 8.25 34.375 12.25
Q34.375 16.75 30.7031 19.1406
Q27.0469 21.5312 20.5625 21.5312
Q18.9531 21.5312 17.0938 21.4375
z
" id="TimesNewRomanPSMT-432"/>
      <path d="
M10.6406 27.875
Q10.5938 17.9219 15.4844 12.25
Q20.3594 6.59375 26.9531 6.59375
Q31.3438 6.59375 34.5938 9
Q37.8438 11.4219 40.0469 17.2812
L41.5469 16.3125
Q40.5312 9.625 35.5938 4.125
Q30.6719 -1.375 23.25 -1.375
Q15.1875 -1.375 9.45312 4.90625
Q3.71875 11.1875 3.71875 21.7812
Q3.71875 33.25 9.59375 39.6719
Q15.4844 46.0938 24.3594 46.0938
Q31.8906 46.0938 36.7188 41.1406
Q41.5469 36.1875 41.5469 27.875
z

M10.6406 30.7188
L31.3438 30.7188
Q31.1094 35.0156 30.3281 36.7656
Q29.1094 39.5 26.6875 41.0625
Q24.2656 42.625 21.625 42.625
Q17.5781 42.625 14.375 39.4688
Q11.1875 36.3281 10.6406 30.7188" id="TimesNewRomanPSMT-435"/>
      <path d="
M17.0938 13.7656
L36.4219 36.1406
Q36.3281 39.8906 35 41.3594
Q33.6875 42.8281 30.4688 42.875
L30.4688 44.7344
L51.2656 44.7344
L51.2656 42.875
Q48 42.875 46.875 42.2031
Q45.75 41.5469 45.1094 40.5625
Q44.4844 39.5938 44.4844 34.2344
L44.4844 10.5
Q44.4844 5.32812 45.0156 4.32812
Q45.5625 3.32812 46.7031 2.5625
Q47.8594 1.8125 51.2656 1.8125
L51.2656 0
L29.6406 0
L29.6406 1.8125
Q33.6875 1.8125 35.0469 3.29688
Q36.4219 4.78125 36.4219 10.5
L36.4219 31.5469
L17.0938 9.125
Q17.1875 4.98438 18.2656 3.42188
Q19.3438 1.85938 22.9062 1.8125
L22.9062 0
L2.25 0
L2.25 1.8125
Q6.59375 1.8125 7.8125 3.39062
Q9.03125 4.98438 9.03125 10.5
L9.03125 34.2344
Q9.03125 39.4531 8.48438 40.4062
Q7.95312 41.3594 6.82812 42.1094
Q5.71875 42.875 2.25 42.875
L2.25 44.7344
L23.875 44.7344
L23.875 42.875
Q20.6094 42.875 19.4844 42.2031
Q18.3594 41.5469 17.7188 40.5625
Q17.0938 39.5938 17.0938 34.2344
z
" id="TimesNewRomanPSMT-438"/>
      <path d="
M66.3594 1.8125
L66.3594 0
L49.2656 0
Q46.4844 4.4375 37.5469 16.7656
Q28.6094 29.1094 26.6562 30.4375
Q24.7031 31.7812 20.75 31.8438
L20.75 12.0625
Q20.75 5.51562 22.4375 3.75
Q24.125 2 30.3281 1.8125
L30.3281 0
L1.8125 0
L1.8125 1.8125
Q7.90625 2 9.64062 3.73438
Q11.375 5.46875 11.375 12.0625
L11.375 54.1562
Q11.375 60.6875 9.65625 62.4375
Q7.95312 64.2031 1.8125 64.4062
L1.8125 66.2188
L30.3281 66.2188
L30.3281 64.4062
Q24.125 64.2031 22.4375 62.4375
Q20.75 60.6875 20.75 54.1562
L20.75 35.6875
Q26.0781 35.75 28.125 36.4062
Q30.1719 37.0625 32.7344 39.4062
Q35.2969 41.75 36.7812 44.4531
Q38.2812 47.1719 40.625 53.375
Q42.8281 59.1875 44.2188 61.4531
Q45.6094 63.7188 48.6875 65.3594
Q51.7656 67 56 67
Q63.5312 67 63.5312 61.7188
Q63.5312 59.8594 62.0312 58.4844
Q60.5469 57.125 58.6406 57.125
Q57.2812 57.125 54.0469 58.6875
Q51.2188 60.1094 50.0938 60.1094
Q48.5312 60.1094 47.4062 58.4688
Q46.2969 56.8438 43.8438 50.1406
Q39.1562 37.6406 31.8906 34.2812
Q36.3281 33.5 44.1875 22.125
Q52.5469 10.0625 56.4531 6
Q60.3594 1.95312 66.3594 1.8125" id="TimesNewRomanPSMT-41a"/>
     </defs>
     <g transform="translate(236.52625 394.70875)scale(0.16 -0.16)">
      <use xlink:href="#TimesNewRomanPSMT-41a"/>
      <use x="61.69921875" xlink:href="#TimesNewRomanPSMT-43e"/>
      <use x="110.32421875" xlink:href="#TimesNewRomanPSMT-43b"/>
      <use x="160.2265625" xlink:href="#TimesNewRomanPSMT-438"/>
      <use x="213.7421875" xlink:href="#TimesNewRomanPSMT-447"/>
      <use x="264.03515625" xlink:href="#TimesNewRomanPSMT-435"/>
      <use x="310.919921875" xlink:href="#TimesNewRomanPSMT-441"/>
      <use x="355.3046875" xlink:href="#TimesNewRomanPSMT-442"/>
      <use x="399.005859375" xlink:href="#TimesNewRomanPSMT-432"/>
      <use x="445.59765625" xlink:href="#TimesNewRomanPSMT-43e"/>
      <use x="495.59765625" xlink:href="#TimesNewRomanPSMT-20"/>
      <use x="520.59765625" xlink:href="#TimesNewRomanPSMT-442"/>
      <use x="564.298828125" xlink:href="#TimesNewRomanPSMT-435"/>
      <use x="608.68359375" xlink:href="#TimesNewRomanPSMT-43c"/>
     </g>
    </g>
   </g>
   <g id="matplotlib.axis_2">
    <g id="ytick_1">
     <g id="line2d_20">
      <path clip-path="url(#p31860c910f)" d="
M66.91 360.066
L513.31 360.066" style="fill:none;stroke:#000000;stroke-dasharray:1.000000,3.000000;stroke-dashoffset:0.0;stroke-width:0.5;"/>
     </g>
     <g id="line2d_21">
      <defs>
       <path d="
M0 0
L4 0" id="m728421d6d4" style="stroke:#000000;stroke-width:0.5;"/>
      </defs>
      <g>
       <use style="stroke:#000000;stroke-width:0.5;" x="66.91" xlink:href="#m728421d6d4" y="360.06625"/>
      </g>
     </g>
     <g id="line2d_22">
      <defs>
       <path d="
M0 0
L-4 0" id="mcb0005524f" style="stroke:#000000;stroke-width:0.5;"/>
      </defs>
      <g>
       <use style="stroke:#000000;stroke-width:0.5;" x="513.31" xlink:href="#mcb0005524f" y="360.06625"/>
      </g>
     </g>
     <g id="text_8">
      <!-- −10.6 -->
      <defs>
       <path d="
M54.4375 31.25
L1.8125 31.25
L1.8125 35.25
L54.4375 35.25
z
" id="TimesNewRomanPSMT-2212"/>
       <path d="
M12.5 9.46875
Q14.7969 9.46875 16.3594 7.875
Q17.9219 6.29688 17.9219 4.04688
Q17.9219 1.8125 16.3281 0.21875
Q14.75 -1.375 12.5 -1.375
Q10.25 -1.375 8.65625 0.21875
Q7.07812 1.8125 7.07812 4.04688
Q7.07812 6.34375 8.65625 7.90625
Q10.25 9.46875 12.5 9.46875" id="TimesNewRomanPSMT-2e"/>
      </defs>
      <g transform="translate(26.795 363.91)scale(0.16 -0.16)">
       <use xlink:href="#TimesNewRomanPSMT-2212"/>
       <use x="56.396484375" xlink:href="#TimesNewRomanPSMT-31"/>
       <use x="106.396484375" xlink:href="#TimesNewRomanPSMT-30"/>
       <use x="156.396484375" xlink:href="#TimesNewRomanPSMT-2e"/>
       <use x="181.396484375" xlink:href="#TimesNewRomanPSMT-36"/>
      </g>
     </g>
    </g>
    <g id="ytick_2">
     <g id="line2d_23">
      <path clip-path="url(#p31860c910f)" d="
M66.91 316.866
L513.31 316.866" style="fill:none;stroke:#000000;stroke-dasharray:1.000000,3.000000;stroke-dashoffset:0.0;stroke-width:0.5;"/>
     </g>
     <g id="line2d_24">
      <g>
       <use style="stroke:#000000;stroke-width:0.5;" x="66.91" xlink:href="#m728421d6d4" y="316.86625"/>
      </g>
     </g>
     <g id="line2d_25">
      <g>
       <use style="stroke:#000000;stroke-width:0.5;" x="513.31" xlink:href="#mcb0005524f" y="316.86625"/>
      </g>
     </g>
     <g id="text_9">
      <!-- −10.4 -->
      <g transform="translate(26.7325 320.71)scale(0.16 -0.16)">
       <use xlink:href="#TimesNewRomanPSMT-2212"/>
       <use x="56.396484375" xlink:href="#TimesNewRomanPSMT-31"/>
       <use x="106.396484375" xlink:href="#TimesNewRomanPSMT-30"/>
       <use x="156.396484375" xlink:href="#TimesNewRomanPSMT-2e"/>
       <use x="181.396484375" xlink:href="#TimesNewRomanPSMT-34"/>
      </g>
     </g>
    </g>
    <g id="ytick_3">
     <g id="line2d_26">
      <path clip-path="url(#p31860c910f)" d="
M66.91 273.666
L513.31 273.666" style="fill:none;stroke:#000000;stroke-dasharray:1.000000,3.000000;stroke-dashoffset:0.0;stroke-width:0.5;"/>
     </g>
     <g id="line2d_27">
      <g>
       <use style="stroke:#000000;stroke-width:0.5;" x="66.91" xlink:href="#m728421d6d4" y="273.66625"/>
      </g>
     </g>
     <g id="line2d_28">
      <g>
       <use style="stroke:#000000;stroke-width:0.5;" x="513.31" xlink:href="#mcb0005524f" y="273.66625"/>
      </g>
     </g>
     <g id="text_10">
      <!-- −10.2 -->
      <g transform="translate(26.8425 277.51)scale(0.16 -0.16)">
       <use xlink:href="#TimesNewRomanPSMT-2212"/>
       <use x="56.396484375" xlink:href="#TimesNewRomanPSMT-31"/>
       <use x="106.396484375" xlink:href="#TimesNewRomanPSMT-30"/>
       <use x="156.396484375" xlink:href="#TimesNewRomanPSMT-2e"/>
       <use x="181.396484375" xlink:href="#TimesNewRomanPSMT-32"/>
      </g>
     </g>
    </g>
    <g id="ytick_4">
     <g id="line2d_29">
      <path clip-path="url(#p31860c910f)" d="
M66.91 230.466
L513.31 230.466" style="fill:none;stroke:#000000;stroke-dasharray:1.000000,3.000000;stroke-dashoffset:0.0;stroke-width:0.5;"/>
     </g>
     <g id="line2d_30">
      <g>
       <use style="stroke:#000000;stroke-width:0.5;" x="66.91" xlink:href="#m728421d6d4" y="230.46625"/>
      </g>
     </g>
     <g id="line2d_31">
      <g>
       <use style="stroke:#000000;stroke-width:0.5;" x="513.31" xlink:href="#mcb0005524f" y="230.46625"/>
      </g>
     </g>
     <g id="text_11">
      <!-- −10.0 -->
      <g transform="translate(26.7475 234.31)scale(0.16 -0.16)">
       <use xlink:href="#TimesNewRomanPSMT-2212"/>
       <use x="56.396484375" xlink:href="#TimesNewRomanPSMT-31"/>
       <use x="106.396484375" xlink:href="#TimesNewRomanPSMT-30"/>
       <use x="156.396484375" xlink:href="#TimesNewRomanPSMT-2e"/>
       <use x="181.396484375" xlink:href="#TimesNewRomanPSMT-30"/>
      </g>
     </g>
    </g>
    <g id="ytick_5">
     <g id="line2d_32">
      <path clip-path="url(#p31860c910f)" d="
M66.91 187.266
L513.31 187.266" style="fill:none;stroke:#000000;stroke-dasharray:1.000000,3.000000;stroke-dashoffset:0.0;stroke-width:0.5;"/>
     </g>
     <g id="line2d_33">
      <g>
       <use style="stroke:#000000;stroke-width:0.5;" x="66.91" xlink:href="#m728421d6d4" y="187.26625"/>
      </g>
     </g>
     <g id="line2d_34">
      <g>
       <use style="stroke:#000000;stroke-width:0.5;" x="513.31" xlink:href="#mcb0005524f" y="187.26625"/>
      </g>
     </g>
     <g id="text_12">
      <!-- −9.8 -->
      <defs>
       <path d="
M5.28125 -1.375
L5.28125 0.4375
Q11.625 0.53125 17.0938 3.39062
Q22.5625 6.25 27.6562 13.375
Q32.7656 20.5156 34.7656 29.0469
Q27.0938 24.125 20.9062 24.125
Q13.9219 24.125 8.9375 29.5156
Q3.95312 34.9062 3.95312 43.8438
Q3.95312 52.5469 8.9375 59.3281
Q14.9375 67.5781 24.6094 67.5781
Q32.7656 67.5781 38.5781 60.8438
Q45.7031 52.4844 45.7031 40.2344
Q45.7031 29.2031 40.2812 19.6562
Q34.8594 10.1094 25.2031 3.8125
Q17.3281 -1.375 8.0625 -1.375
z

M35.5469 32.6719
Q36.4219 39.0156 36.4219 42.8281
Q36.4219 47.5625 34.8125 53.0469
Q33.2031 58.5469 30.25 61.4688
Q27.2969 64.4062 23.5312 64.4062
Q19.1875 64.4062 15.9062 60.5
Q12.6406 56.5938 12.6406 48.875
Q12.6406 38.5781 17 32.7656
Q20.1719 28.5625 24.8125 28.5625
Q27.0469 28.5625 30.125 29.6406
Q33.2031 30.7188 35.5469 32.6719" id="TimesNewRomanPSMT-39"/>
      </defs>
      <g transform="translate(35.1 191.11)scale(0.16 -0.16)">
       <use xlink:href="#TimesNewRomanPSMT-2212"/>
       <use x="56.396484375" xlink:href="#TimesNewRomanPSMT-39"/>
       <use x="106.396484375" xlink:href="#TimesNewRomanPSMT-2e"/>
       <use x="131.396484375" xlink:href="#TimesNewRomanPSMT-38"/>
      </g>
     </g>
    </g>
    <g id="ytick_6">
     <g id="line2d_35">
      <path clip-path="url(#p31860c910f)" d="
M66.91 144.066
L513.31 144.066" style="fill:none;stroke:#000000;stroke-dasharray:1.000000,3.000000;stroke-dashoffset:0.0;stroke-width:0.5;"/>
     </g>
     <g id="line2d_36">
      <g>
       <use style="stroke:#000000;stroke-width:0.5;" x="66.91" xlink:href="#m728421d6d4" y="144.06625"/>
      </g>
     </g>
     <g id="line2d_37">
      <g>
       <use style="stroke:#000000;stroke-width:0.5;" x="513.31" xlink:href="#mcb0005524f" y="144.06625"/>
      </g>
     </g>
     <g id="text_13">
      <!-- −9.6 -->
      <g transform="translate(34.795 147.91)scale(0.16 -0.16)">
       <use xlink:href="#TimesNewRomanPSMT-2212"/>
       <use x="56.396484375" xlink:href="#TimesNewRomanPSMT-39"/>
       <use x="106.396484375" xlink:href="#TimesNewRomanPSMT-2e"/>
       <use x="131.396484375" xlink:href="#TimesNewRomanPSMT-36"/>
      </g>
     </g>
    </g>
    <g id="ytick_7">
     <g id="line2d_38">
      <path clip-path="url(#p31860c910f)" d="
M66.91 100.866
L513.31 100.866" style="fill:none;stroke:#000000;stroke-dasharray:1.000000,3.000000;stroke-dashoffset:0.0;stroke-width:0.5;"/>
     </g>
     <g id="line2d_39">
      <g>
       <use style="stroke:#000000;stroke-width:0.5;" x="66.91" xlink:href="#m728421d6d4" y="100.86625"/>
      </g>
     </g>
     <g id="line2d_40">
      <g>
       <use style="stroke:#000000;stroke-width:0.5;" x="513.31" xlink:href="#mcb0005524f" y="100.86625"/>
      </g>
     </g>
     <g id="text_14">
      <!-- −9.4 -->
      <g transform="translate(34.7325 104.71)scale(0.16 -0.16)">
       <use xlink:href="#TimesNewRomanPSMT-2212"/>
       <use x="56.396484375" xlink:href="#TimesNewRomanPSMT-39"/>
       <use x="106.396484375" xlink:href="#TimesNewRomanPSMT-2e"/>
       <use x="131.396484375" xlink:href="#TimesNewRomanPSMT-34"/>
      </g>
     </g>
    </g>
    <g id="ytick_8">
     <g id="line2d_41">
      <path clip-path="url(#p31860c910f)" d="
M66.91 57.6663
L513.31 57.6663" style="fill:none;stroke:#000000;stroke-dasharray:1.000000,3.000000;stroke-dashoffset:0.0;stroke-width:0.5;"/>
     </g>
     <g id="line2d_42">
      <g>
       <use style="stroke:#000000;stroke-width:0.5;" x="66.91" xlink:href="#m728421d6d4" y="57.66625"/>
      </g>
     </g>
     <g id="line2d_43">
      <g>
       <use style="stroke:#000000;stroke-width:0.5;" x="513.31" xlink:href="#mcb0005524f" y="57.66625"/>
      </g>
     </g>
     <g id="text_15">
      <!-- −9.2 -->
      <g transform="translate(34.8425 61.51)scale(0.16 -0.16)">
       <use xlink:href="#TimesNewRomanPSMT-2212"/>
       <use x="56.396484375" xlink:href="#TimesNewRomanPSMT-39"/>
       <use x="106.396484375" xlink:href="#TimesNewRomanPSMT-2e"/>
       <use x="131.396484375" xlink:href="#TimesNewRomanPSMT-32"/>
      </g>
     </g>
    </g>
    <g id="ytick_9">
     <g id="text_16">
      <!-- −9.0 -->
      <g transform="translate(34.7475 18.31)scale(0.16 -0.16)">
       <use xlink:href="#TimesNewRomanPSMT-2212"/>
       <use x="56.396484375" xlink:href="#TimesNewRomanPSMT-39"/>
       <use x="106.396484375" xlink:href="#TimesNewRomanPSMT-2e"/>
       <use x="131.396484375" xlink:href="#TimesNewRomanPSMT-30"/>
      </g>
     </g>
    </g>
    <g id="text_17">
     <!-- Per word bound -->
     <defs>
      <path d="
M16.2188 46.0469
L16.2188 35.9844
Q21.8281 46.0469 27.7344 46.0469
Q30.4219 46.0469 32.1719 44.4062
Q33.9375 42.7812 33.9375 40.625
Q33.9375 38.7188 32.6562 37.3906
Q31.3906 36.0781 29.6406 36.0781
Q27.9375 36.0781 25.8125 37.7656
Q23.6875 39.4531 22.6562 39.4531
Q21.7812 39.4531 20.75 38.4844
Q18.5625 36.4688 16.2188 31.8906
L16.2188 10.4531
Q16.2188 6.73438 17.1406 4.82812
Q17.7812 3.51562 19.3906 2.64062
Q21 1.76562 24.0312 1.76562
L24.0312 0
L1.125 0
L1.125 1.76562
Q4.54688 1.76562 6.20312 2.82812
Q7.42188 3.60938 7.90625 5.32812
Q8.15625 6.15625 8.15625 10.0625
L8.15625 27.3906
Q8.15625 35.2031 7.82812 36.6875
Q7.51562 38.1875 6.65625 38.8594
Q5.8125 39.5469 4.54688 39.5469
Q3.03125 39.5469 1.125 38.8125
L0.640625 40.5781
L14.1562 46.0469
z
" id="TimesNewRomanPSMT-72"/>
      <path d="
M25 46.0469
Q35.1562 46.0469 41.3125 38.3281
Q46.5312 31.7344 46.5312 23.1875
Q46.5312 17.1875 43.6406 11.0312
Q40.7656 4.89062 35.7188 1.75
Q30.6719 -1.375 24.4688 -1.375
Q14.3594 -1.375 8.40625 6.6875
Q3.375 13.4844 3.375 21.9219
Q3.375 28.0781 6.42188 34.1562
Q9.46875 40.2344 14.4531 43.1406
Q19.4375 46.0469 25 46.0469
M23.4844 42.875
Q20.9062 42.875 18.2812 41.3281
Q15.6719 39.7969 14.0625 35.9375
Q12.4531 32.0781 12.4531 26.0312
Q12.4531 16.2656 16.3281 9.17188
Q20.2188 2.09375 26.5625 2.09375
Q31.2969 2.09375 34.375 6
Q37.4531 9.90625 37.4531 19.4375
Q37.4531 31.3438 32.3281 38.1875
Q28.8594 42.875 23.4844 42.875" id="TimesNewRomanPSMT-6f"/>
      <path d="
M42.3281 44.7344
L42.3281 17.625
Q42.3281 9.85938 42.6875 8.125
Q43.0625 6.39062 43.8594 5.70312
Q44.6719 5.03125 45.75 5.03125
Q47.2656 5.03125 49.1719 5.85938
L49.8594 4.15625
L36.4688 -1.375
L34.2812 -1.375
L34.2812 8.10938
Q28.5156 1.85938 25.4844 0.234375
Q22.4688 -1.375 19.0938 -1.375
Q15.3281 -1.375 12.5625 0.796875
Q9.8125 2.98438 8.73438 6.39062
Q7.67188 9.8125 7.67188 16.0625
L7.67188 36.0312
Q7.67188 39.2031 6.98438 40.4219
Q6.29688 41.6562 4.95312 42.3125
Q3.60938 42.9688 0.09375 42.9219
L0.09375 44.7344
L15.7656 44.7344
L15.7656 14.7969
Q15.7656 8.54688 17.9375 6.59375
Q20.125 4.64062 23.1875 4.64062
Q25.2969 4.64062 27.9531 5.95312
Q30.6094 7.28125 34.2812 10.9844
L34.2812 36.3281
Q34.2812 40.1406 32.8906 41.4844
Q31.5 42.8281 27.0938 42.9219
L27.0938 44.7344
z
" id="TimesNewRomanPSMT-75"/>
      <path d="
M16.1562 36.5781
Q24.0312 46.0469 31.1562 46.0469
Q34.8125 46.0469 37.4531 44.2188
Q40.0938 42.3906 41.6562 38.1875
Q42.7188 35.25 42.7188 29.2031
L42.7188 10.1094
Q42.7188 5.85938 43.4062 4.34375
Q43.9531 3.125 45.1406 2.4375
Q46.3438 1.76562 49.5625 1.76562
L49.5625 0
L27.4375 0
L27.4375 1.76562
L28.375 1.76562
Q31.5 1.76562 32.7344 2.70312
Q33.9844 3.65625 34.4688 5.51562
Q34.6719 6.25 34.6719 10.1094
L34.6719 28.4219
Q34.6719 34.5156 33.0781 37.2812
Q31.5 40.0469 27.7344 40.0469
Q21.9219 40.0469 16.1562 33.6875
L16.1562 10.1094
Q16.1562 5.5625 16.7031 4.5
Q17.3906 3.07812 18.5781 2.42188
Q19.7812 1.76562 23.4375 1.76562
L23.4375 0
L1.3125 0
L1.3125 1.76562
L2.29688 1.76562
Q5.71875 1.76562 6.90625 3.48438
Q8.10938 5.21875 8.10938 10.1094
L8.10938 26.7031
Q8.10938 34.7656 7.73438 36.5156
Q7.375 38.2812 6.60938 38.9062
Q5.85938 39.5469 4.59375 39.5469
Q3.21875 39.5469 1.3125 38.8125
L0.59375 40.5781
L14.0625 46.0469
L16.1562 46.0469
z
" id="TimesNewRomanPSMT-6e"/>
      <path d="
M20.5156 31
L20.5156 11.7188
Q20.5156 5.46875 21.875 3.95312
Q23.7344 1.8125 27.4844 1.8125
L30.0312 1.8125
L30.0312 0
L1.65625 0
L1.65625 1.8125
L4.15625 1.8125
Q8.34375 1.8125 10.1562 4.54688
Q11.1406 6.0625 11.1406 11.7188
L11.1406 54.5
Q11.1406 60.75 9.8125 62.25
Q7.90625 64.4062 4.15625 64.4062
L1.65625 64.4062
L1.65625 66.2188
L25.9219 66.2188
Q34.8125 66.2188 39.9375 64.375
Q45.0625 62.5469 48.5781 58.2031
Q52.0938 53.8594 52.0938 47.9062
Q52.0938 39.7969 46.75 34.7188
Q41.4062 29.6406 31.6406 29.6406
Q29.25 29.6406 26.4688 29.9844
Q23.6875 30.3281 20.5156 31
M20.5156 33.7969
Q23.0938 33.2969 25.0938 33.0469
Q27.0938 32.8125 28.5156 32.8125
Q33.5938 32.8125 37.2812 36.7344
Q40.9688 40.6719 40.9688 46.9219
Q40.9688 51.2188 39.2031 54.9062
Q37.4531 58.5938 34.2188 60.4219
Q31 62.25 26.9062 62.25
Q24.4219 62.25 20.5156 61.3281
z
" id="TimesNewRomanPSMT-50"/>
      <path d="
M34.7188 5.03125
Q31.4531 1.60938 28.3281 0.109375
Q25.2031 -1.375 21.5781 -1.375
Q14.2656 -1.375 8.79688 4.75
Q3.32812 10.8906 3.32812 20.5156
Q3.32812 30.125 9.375 38.1094
Q15.4375 46.0938 24.9531 46.0938
Q30.8594 46.0938 34.7188 42.3281
L34.7188 50.5938
Q34.7188 58.25 34.3438 60
Q33.9844 61.7656 33.2031 62.3906
Q32.4219 63.0312 31.25 63.0312
Q29.9844 63.0312 27.875 62.25
L27.25 63.9688
L40.5781 69.4375
L42.7812 69.4375
L42.7812 17.7188
Q42.7812 9.85938 43.1406 8.125
Q43.5 6.39062 44.3125 5.70312
Q45.125 5.03125 46.1875 5.03125
Q47.5156 5.03125 49.7031 5.85938
L50.25 4.15625
L36.9688 -1.375
L34.7188 -1.375
z

M34.7188 8.45312
L34.7188 31.5
Q34.4219 34.8125 32.9531 37.5469
Q31.5 40.2812 29.0781 41.6719
Q26.6562 43.0625 24.3594 43.0625
Q20.0625 43.0625 16.7031 39.2031
Q12.25 34.125 12.25 24.3594
Q12.25 14.5 16.5469 9.25
Q20.8438 4 26.125 4
Q30.5625 4 34.7188 8.45312" id="TimesNewRomanPSMT-64"/>
      <path d="
M10.6406 27.875
Q10.5938 17.9219 15.4844 12.25
Q20.3594 6.59375 26.9531 6.59375
Q31.3438 6.59375 34.5938 9
Q37.8438 11.4219 40.0469 17.2812
L41.5469 16.3125
Q40.5312 9.625 35.5938 4.125
Q30.6719 -1.375 23.25 -1.375
Q15.1875 -1.375 9.45312 4.90625
Q3.71875 11.1875 3.71875 21.7812
Q3.71875 33.25 9.59375 39.6719
Q15.4844 46.0938 24.3594 46.0938
Q31.8906 46.0938 36.7188 41.1406
Q41.5469 36.1875 41.5469 27.875
z

M10.6406 30.7188
L31.3438 30.7188
Q31.1094 35.0156 30.3281 36.7656
Q29.1094 39.5 26.6875 41.0625
Q24.2656 42.625 21.625 42.625
Q17.5781 42.625 14.375 39.4688
Q11.1875 36.3281 10.6406 30.7188" id="TimesNewRomanPSMT-65"/>
      <path d="
M15.375 37.0156
Q21.875 46.0469 29.3906 46.0469
Q36.2812 46.0469 41.4062 40.1562
Q46.5312 34.2812 46.5312 24.0781
Q46.5312 12.1562 38.625 4.89062
Q31.8438 -1.375 23.4844 -1.375
Q19.5781 -1.375 15.5469 0.046875
Q11.5312 1.46875 7.32812 4.29688
L7.32812 50.6406
Q7.32812 58.25 6.95312 60
Q6.59375 61.7656 5.8125 62.3906
Q5.03125 63.0312 3.85938 63.0312
Q2.48438 63.0312 0.4375 62.25
L-0.25 63.9688
L13.1875 69.4375
L15.375 69.4375
z

M15.375 33.8906
L15.375 7.125
Q17.875 4.6875 20.5312 3.4375
Q23.1875 2.20312 25.9844 2.20312
Q30.4219 2.20312 34.25 7.07812
Q38.0938 11.9688 38.0938 21.2969
Q38.0938 29.8906 34.25 34.5
Q30.4219 39.1094 25.5312 39.1094
Q22.9531 39.1094 20.3594 37.7969
Q18.4062 36.8125 15.375 33.8906" id="TimesNewRomanPSMT-62"/>
      <path d="
M0.640625 44.7344
L19.3906 44.7344
L19.3906 42.9219
Q16.7969 42.7188 15.9844 41.9844
Q15.1875 41.2656 15.1875 39.8906
Q15.1875 38.375 16.0156 36.2344
L25.5938 10.5
L35.2031 31.4531
L32.6719 38.0312
Q31.5 40.9688 29.5938 42.0938
Q28.5156 42.7812 25.5938 42.9219
L25.5938 44.7344
L46.875 44.7344
L46.875 42.9219
Q43.3594 42.7812 41.8906 41.6562
Q40.9219 40.875 40.9219 39.1562
Q40.9219 38.1875 41.3125 37.1562
L51.4688 11.4688
L60.8906 36.2344
Q61.8594 38.875 61.8594 40.4375
Q61.8594 41.3594 60.9062 42.0938
Q59.9688 42.8281 57.1719 42.9219
L57.1719 44.7344
L71.2969 44.7344
L71.2969 42.9219
Q67.0469 42.2812 65.0469 37.1562
L50.0938 -1.375
L48.0938 -1.375
L36.9219 27.2031
L23.875 -1.375
L22.0781 -1.375
L7.71875 36.2344
Q6.29688 39.7969 4.92188 41.0312
Q3.5625 42.2812 0.640625 42.9219
z
" id="TimesNewRomanPSMT-77"/>
     </defs>
     <g transform="translate(18.31 238.39125)rotate(-90.0)scale(0.16 -0.16)">
      <use xlink:href="#TimesNewRomanPSMT-50"/>
      <use x="55.615234375" xlink:href="#TimesNewRomanPSMT-65"/>
      <use x="100.0" xlink:href="#TimesNewRomanPSMT-72"/>
      <use x="133.30078125" xlink:href="#TimesNewRomanPSMT-20"/>
      <use x="158.30078125" xlink:href="#TimesNewRomanPSMT-77"/>
      <use x="230.517578125" xlink:href="#TimesNewRomanPSMT-6f"/>
      <use x="280.517578125" xlink:href="#TimesNewRomanPSMT-72"/>
      <use x="313.818359375" xlink:href="#TimesNewRomanPSMT-64"/>
      <use x="363.818359375" xlink:href="#TimesNewRomanPSMT-20"/>
      <use x="388.818359375" xlink:href="#TimesNewRomanPSMT-62"/>
      <use x="438.818359375" xlink:href="#TimesNewRomanPSMT-6f"/>
      <use x="488.818359375" xlink:href="#TimesNewRomanPSMT-75"/>
      <use x="538.818359375" xlink:href="#TimesNewRomanPSMT-6e"/>
      <use x="588.818359375" xlink:href="#TimesNewRomanPSMT-64"/>
     </g>
    </g>
   </g>
  </g>
 </g>
 <defs>
  <clipPath id="p31860c910f">
   <rect height="345.6" width="446.4" x="66.91" y="14.46625"/>
  </clipPath>
 </defs>
</svg>
